<?xml version="1.0" encoding="utf-8"?>
<!-- Generator: Adobe Illustrator 15.1.0, SVG Export Plug-In . SVG Version: 6.00 Build 0)  -->
<!DOCTYPE svg PUBLIC "-//W3C//DTD SVG 1.1//EN" "http://www.w3.org/Graphics/SVG/1.1/DTD/svg11.dtd">
<svg version="1.1" id="Layer_1" xmlns="http://www.w3.org/2000/svg" xmlns:xlink="http://www.w3.org/1999/xlink" x="0px" y="0px"
	 width="612px" height="85.217px" viewBox="0 0 612 85.217" enable-background="new 0 0 612 85.217" xml:space="preserve">
<g>
	<path d="M15.219,67.807c-2.002,0-3.807-0.273-5.412-0.816c-1.605-0.545-2.984-1.363-4.137-2.455
		c-1.152-1.09-2.031-2.484-2.637-4.182s-0.908-3.697-0.908-6c0-2.91,0.529-5.439,1.59-7.592s2.621-3.91,4.684-5.273
		c2.061-1.363,4.605-2.379,7.637-3.047c3.031-0.666,6.547-1,10.549-1v-3.637c0-0.969-0.137-1.758-0.41-2.363
		s-0.697-1.076-1.273-1.41c-0.576-0.332-1.289-0.5-2.137-0.5c-0.727,0-1.395,0.137-2,0.41s-1.092,0.666-1.455,1.182
		s-0.545,1.166-0.545,1.953v0.729H3.762c-0.061-0.242-0.09-0.469-0.09-0.682c0-0.211,0-0.439,0-0.682
		c0-3.031,0.742-5.652,2.227-7.865c1.484-2.211,3.697-3.924,6.637-5.137c2.939-1.211,6.561-1.818,10.865-1.818
		c3.273,0,6.363,0.426,9.273,1.273s5.273,2.363,7.092,4.545c1.818,2.184,2.729,5.244,2.729,9.184v20.002
		c0,0.85,0.211,1.563,0.637,2.137c0.424,0.576,1.121,0.863,2.092,0.863h1.908V65.99c-1.031,0.545-2.318,0.982-3.863,1.316
		c-1.547,0.332-3.168,0.5-4.865,0.5c-1.879,0-3.531-0.229-4.955-0.68c-1.426-0.453-2.576-1.105-3.455-1.955
		c-0.879-0.848-1.471-1.848-1.773-3h-0.453c-0.789,1.031-1.744,1.971-2.865,2.818c-1.121,0.85-2.471,1.531-4.047,2.045
		S17.398,67.807,15.219,67.807z M21.945,55.988c0.727,0,1.395-0.15,2-0.453s1.105-0.711,1.5-1.227s0.682-1.121,0.865-1.818
		c0.182-0.697,0.273-1.439,0.273-2.229v-4.455c-2.184,0-3.881,0.258-5.092,0.773c-1.213,0.516-2.047,1.227-2.502,2.137
		s-0.682,1.91-0.682,3c0,0.969,0.15,1.771,0.455,2.408c0.303,0.637,0.727,1.107,1.273,1.41
		C20.582,55.838,21.219,55.988,21.945,55.988z"/>
	<path d="M51.153,66.787V0.871h15.91v65.916H51.153z"/>
	<path d="M94.169,67.807c-4.607,0-8.486-0.85-11.639-2.545s-5.516-4.393-7.092-8.09s-2.363-8.516-2.363-14.457
		c0-6,0.848-10.834,2.545-14.502c1.697-3.666,4.107-6.348,7.229-8.045s6.895-2.547,11.32-2.547c4.727,0,8.605,0.789,11.637,2.363
		c3.031,1.576,5.289,4.197,6.773,7.865s2.229,8.623,2.229,14.865v2.637H89.259c0,2.547,0.15,4.637,0.455,6.273
		c0.303,1.637,0.818,2.865,1.545,3.684s1.729,1.227,3.002,1.227c0.969,0,1.758-0.15,2.363-0.455
		c0.605-0.303,1.092-0.758,1.455-1.363s0.605-1.363,0.727-2.273c0.121-0.908,0.182-1.969,0.182-3.182h15.73
		c0,3.152-0.41,5.879-1.229,8.182c-0.818,2.305-2.076,4.229-3.773,5.773c-1.697,1.547-3.834,2.697-6.41,3.455
		C100.729,67.428,97.685,67.807,94.169,67.807z M89.351,37.715h9.273c0-1.637-0.076-3.016-0.229-4.137s-0.395-2.031-0.727-2.729
		c-0.334-0.695-0.789-1.195-1.363-1.5c-0.576-0.303-1.289-0.455-2.137-0.455c-1.152,0-2.061,0.305-2.727,0.91
		c-0.668,0.605-1.168,1.545-1.5,2.818C89.608,33.896,89.411,35.594,89.351,37.715z"/>
	<path d="M121.069,84.627V18.711h13.094l1.09,5.82h0.455c1.15-2.121,2.635-3.805,4.455-5.047c1.818-1.242,4.152-1.863,7-1.863
		c3.455,0,6.258,0.955,8.41,2.863c2.152,1.91,3.742,4.773,4.773,8.592c1.031,3.82,1.547,8.547,1.547,14.184
		c0,5.578-0.5,10.184-1.5,13.82s-2.547,6.334-4.637,8.092c-2.092,1.756-4.773,2.635-8.047,2.635c-1.699,0-3.215-0.258-4.547-0.771
		c-1.334-0.514-2.455-1.225-3.363-2.135c-0.91-0.91-1.668-1.971-2.273-3.184h-0.545v22.91H121.069z M141.255,53.898
		c1.09,0,1.953-0.287,2.59-0.863s1.105-1.426,1.41-2.547c0.303-1.121,0.455-2.529,0.455-4.229v-7.727
		c0-1.758-0.152-3.197-0.455-4.318c-0.305-1.121-0.773-1.955-1.41-2.502c-0.637-0.545-1.5-0.818-2.59-0.818
		c-1.092,0-1.971,0.305-2.637,0.91c-0.668,0.605-1.123,1.484-1.365,2.637s-0.363,2.605-0.363,4.363v7.092
		c0,1.334,0.061,2.486,0.182,3.455c0.121,0.971,0.348,1.805,0.682,2.502c0.332,0.697,0.787,1.213,1.363,1.545
		C139.692,53.732,140.405,53.898,141.255,53.898z"/>
	<path d="M168.165,66.787V0.871h15.91v22.457h0.455c0.787-1.211,1.727-2.227,2.818-3.045c1.09-0.818,2.332-1.455,3.727-1.91
		c1.395-0.453,2.91-0.682,4.547-0.682c2.969,0,5.318,0.576,7.047,1.729c1.727,1.152,2.984,2.803,3.773,4.955
		c0.787,2.152,1.182,4.742,1.182,7.771v34.641h-15.912v-30.82c0-0.666-0.061-1.271-0.182-1.818c-0.121-0.545-0.334-1.016-0.637-1.41
		s-0.666-0.697-1.09-0.908c-0.426-0.211-0.91-0.318-1.455-0.318c-1.031,0-1.863,0.35-2.5,1.045
		c-0.637,0.697-1.092,1.607-1.365,2.729s-0.408,2.379-0.408,3.771v27.73H168.165z"/>
	<path d="M218.693,30.613l-3.363-13.002V4.246h13.002v13.365l-3.365,13.002H218.693z"/>
	<path d="M253.64,67.807c-3.092,0-5.805-0.334-8.137-0.998c-2.334-0.666-4.289-1.621-5.865-2.863s-2.773-2.744-3.592-4.502
		s-1.227-3.787-1.227-6.092c0-0.18,0.014-0.498,0.045-0.953c0.031-0.453,0.076-0.893,0.137-1.318h14.184
		c-0.061,0.484-0.09,0.848-0.09,1.09s0,0.516,0,0.818c0,0.789,0.182,1.486,0.545,2.092s0.877,1.076,1.545,1.41s1.486,0.5,2.455,0.5
		c0.666,0,1.318-0.09,1.955-0.273c0.637-0.182,1.166-0.516,1.592-1c0.424-0.484,0.637-1.152,0.637-2c0-1.211-0.455-2.15-1.365-2.818
		s-2.107-1.229-3.592-1.684c-1.484-0.453-3.076-0.953-4.771-1.5c-1.516-0.424-3.031-0.969-4.547-1.637
		c-1.516-0.666-2.895-1.529-4.137-2.59s-2.229-2.439-2.955-4.137s-1.09-3.789-1.09-6.275c0-2.908,0.5-5.332,1.5-7.271
		s2.379-3.531,4.137-4.773s3.758-2.121,6-2.637s4.607-0.773,7.092-0.773c2.363,0,4.621,0.258,6.773,0.773s4.061,1.303,5.729,2.363
		c1.666,1.061,2.969,2.395,3.908,4c0.939,1.607,1.41,3.531,1.41,5.773c0,0.363-0.016,0.789-0.045,1.273
		c-0.031,0.484-0.076,0.908-0.137,1.271h-14.092v-1.271c0-0.787-0.168-1.424-0.5-1.908c-0.334-0.484-0.789-0.85-1.365-1.092
		s-1.227-0.365-1.953-0.365c-0.365,0-0.76,0.031-1.184,0.092c-0.426,0.061-0.834,0.213-1.229,0.455s-0.711,0.547-0.953,0.91
		s-0.363,0.818-0.363,1.361c0,0.971,0.379,1.744,1.137,2.32s1.771,1.061,3.045,1.455s2.668,0.863,4.184,1.408
		c1.574,0.426,3.227,0.926,4.953,1.5c1.727,0.576,3.334,1.363,4.818,2.363s2.682,2.334,3.592,4.002s1.365,3.803,1.365,6.408
		c0,3.152-0.486,5.805-1.455,7.957c-0.971,2.152-2.35,3.91-4.137,5.273c-1.789,1.363-3.865,2.348-6.229,2.953
		S256.429,67.807,253.64,67.807z"/>
	<path d="M299.917,66.752l-12.002-48.006h16.639l2.545,16.457c0.182,0.85,0.348,2.002,0.5,3.455
		c0.152,1.455,0.334,2.986,0.547,4.592c0.211,1.607,0.408,3.047,0.59,4.318h0.729c0.242-1.271,0.438-2.65,0.59-4.135
		s0.334-2.939,0.547-4.365c0.211-1.424,0.408-2.682,0.59-3.773l2.729-16.549h16.729l2.547,16.549c0.18,0.789,0.346,1.91,0.498,3.363
		c0.152,1.455,0.35,2.971,0.592,4.547s0.426,3.031,0.547,4.363h0.818c0.121-1.15,0.271-2.469,0.453-3.953s0.379-2.971,0.592-4.455
		c0.211-1.484,0.408-2.773,0.592-3.865l2.727-16.549h14.82l-12.002,48.006h-16.457l-3.09-16.82
		c-0.244-0.908-0.457-2.014-0.639-3.316s-0.348-2.637-0.5-4s-0.287-2.531-0.408-3.502h-0.727c-0.063,1.031-0.184,2.213-0.365,3.547
		s-0.363,2.637-0.545,3.91s-0.395,2.393-0.637,3.361l-3,16.82H299.917z"/>
	<path d="M378.29,67.807c-4.607,0-8.486-0.85-11.639-2.545s-5.516-4.393-7.092-8.09s-2.363-8.516-2.363-14.457
		c0-6,0.848-10.834,2.545-14.502c1.697-3.666,4.107-6.348,7.229-8.045s6.895-2.547,11.32-2.547c4.727,0,8.605,0.789,11.637,2.363
		c3.031,1.576,5.289,4.197,6.773,7.865s2.229,8.623,2.229,14.865v2.637H373.38c0,2.547,0.15,4.637,0.455,6.273
		c0.303,1.637,0.818,2.865,1.545,3.684s1.729,1.227,3.002,1.227c0.969,0,1.758-0.15,2.363-0.455
		c0.605-0.303,1.092-0.758,1.455-1.363s0.605-1.363,0.727-2.273c0.121-0.908,0.182-1.969,0.182-3.182h15.73
		c0,3.152-0.41,5.879-1.229,8.182c-0.818,2.305-2.076,4.229-3.773,5.773c-1.697,1.547-3.834,2.697-6.41,3.455
		C384.851,67.428,381.806,67.807,378.29,67.807z M373.472,37.715h9.273c0-1.637-0.076-3.016-0.229-4.137s-0.395-2.031-0.727-2.729
		c-0.334-0.695-0.789-1.195-1.363-1.5c-0.576-0.303-1.289-0.455-2.137-0.455c-1.152,0-2.061,0.305-2.727,0.91
		c-0.668,0.605-1.168,1.545-1.5,2.818C373.729,33.896,373.532,35.594,373.472,37.715z"/>
	<path d="M431.284,67.877c-2.848,0-5.213-0.621-7.092-1.861c-1.879-1.242-3.365-2.924-4.455-5.047h-0.453l-1,5.818H405.19V0.871
		h15.912v23.002h0.545c0.605-1.211,1.363-2.287,2.273-3.227c0.908-0.939,2.029-1.666,3.363-2.182
		c1.332-0.516,2.848-0.773,4.547-0.773c3.273,0,5.955,0.879,8.047,2.637c2.09,1.758,3.637,4.455,4.637,8.092s1.5,8.244,1.5,13.82
		c0,5.637-0.516,10.365-1.547,14.184s-2.621,6.682-4.773,8.59S434.739,67.877,431.284,67.877z M425.376,54.605
		c1.09,0,1.953-0.271,2.59-0.818c0.637-0.545,1.105-1.393,1.41-2.545c0.303-1.152,0.455-2.576,0.455-4.275v-7.729
		c0-1.758-0.152-3.182-0.455-4.271c-0.305-1.09-0.773-1.924-1.41-2.5s-1.5-0.865-2.59-0.865c-0.85,0-1.563,0.168-2.139,0.5
		c-0.576,0.334-1.031,0.85-1.363,1.547c-0.334,0.697-0.561,1.531-0.682,2.5c-0.121,0.971-0.182,2.123-0.182,3.455v7.092
		c0,1.697,0.121,3.137,0.363,4.318c0.242,1.184,0.697,2.078,1.365,2.684C423.405,54.303,424.284,54.605,425.376,54.605z"/>
	<path d="M469.482,67.807c-3.092,0-5.805-0.334-8.137-0.998c-2.334-0.666-4.289-1.621-5.865-2.863s-2.773-2.744-3.592-4.502
		s-1.227-3.787-1.227-6.092c0-0.18,0.014-0.498,0.045-0.953c0.031-0.453,0.076-0.893,0.137-1.318h14.184
		c-0.061,0.484-0.09,0.848-0.09,1.09s0,0.516,0,0.818c0,0.789,0.182,1.486,0.545,2.092s0.877,1.076,1.545,1.41s1.486,0.5,2.455,0.5
		c0.666,0,1.318-0.09,1.955-0.273c0.637-0.182,1.166-0.516,1.592-1c0.424-0.484,0.637-1.152,0.637-2c0-1.211-0.455-2.15-1.365-2.818
		s-2.107-1.229-3.592-1.684c-1.484-0.453-3.076-0.953-4.771-1.5c-1.516-0.424-3.031-0.969-4.547-1.637
		c-1.516-0.666-2.895-1.529-4.137-2.59s-2.229-2.439-2.955-4.137s-1.09-3.789-1.09-6.275c0-2.908,0.5-5.332,1.5-7.271
		s2.379-3.531,4.137-4.773s3.758-2.121,6-2.637s4.607-0.773,7.092-0.773c2.363,0,4.621,0.258,6.773,0.773s4.061,1.303,5.729,2.363
		c1.666,1.061,2.969,2.395,3.908,4c0.939,1.607,1.41,3.531,1.41,5.773c0,0.363-0.016,0.789-0.045,1.273
		c-0.031,0.484-0.076,0.908-0.137,1.271h-14.092v-1.271c0-0.787-0.168-1.424-0.5-1.908c-0.334-0.484-0.789-0.85-1.365-1.092
		s-1.227-0.365-1.953-0.365c-0.365,0-0.76,0.031-1.184,0.092c-0.426,0.061-0.834,0.213-1.229,0.455s-0.711,0.547-0.953,0.91
		s-0.363,0.818-0.363,1.361c0,0.971,0.379,1.744,1.137,2.32s1.771,1.061,3.045,1.455s2.668,0.863,4.184,1.408
		c1.574,0.426,3.227,0.926,4.953,1.5c1.727,0.576,3.334,1.363,4.818,2.363s2.682,2.334,3.592,4.002s1.365,3.803,1.365,6.408
		c0,3.152-0.486,5.805-1.455,7.957c-0.971,2.152-2.35,3.91-4.137,5.273c-1.789,1.363-3.865,2.348-6.229,2.953
		S472.271,67.807,469.482,67.807z"/>
	<path d="M495.2,13.145V0.871h15.91v12.273H495.2z M495.2,66.787V18.781h15.91v48.006H495.2z"/>
	<path d="M533.739,67.889c-2.486,0-4.668-0.363-6.547-1.09s-3.334-1.938-4.365-3.635s-1.545-3.939-1.545-6.729V30.977h-4.91V18.793
		h5.455l3.002-14.547h12.365v14.547h6.908v12.184h-6.908v20.186c0,1.455,0.195,2.547,0.59,3.273s1.258,1.09,2.592,1.09h3.727v10.82
		c-1.152,0.303-2.35,0.588-3.592,0.861c-1.242,0.271-2.424,0.453-3.545,0.545C535.845,67.842,534.769,67.889,533.739,67.889z"/>
	<path d="M569.582,67.807c-4.607,0-8.486-0.85-11.639-2.545s-5.516-4.393-7.092-8.09s-2.363-8.516-2.363-14.457
		c0-6,0.848-10.834,2.545-14.502c1.697-3.666,4.107-6.348,7.229-8.045s6.895-2.547,11.32-2.547c4.727,0,8.605,0.789,11.637,2.363
		c3.031,1.576,5.289,4.197,6.773,7.865s2.229,8.623,2.229,14.865v2.637h-25.549c0,2.547,0.15,4.637,0.455,6.273
		c0.303,1.637,0.818,2.865,1.545,3.684s1.729,1.227,3.002,1.227c0.969,0,1.758-0.15,2.363-0.455
		c0.605-0.303,1.092-0.758,1.455-1.363s0.605-1.363,0.727-2.273c0.121-0.908,0.182-1.969,0.182-3.182h15.73
		c0,3.152-0.41,5.879-1.229,8.182c-0.818,2.305-2.076,4.229-3.773,5.773c-1.697,1.547-3.834,2.697-6.41,3.455
		C576.143,67.428,573.098,67.807,569.582,67.807z M564.764,37.715h9.273c0-1.637-0.076-3.016-0.229-4.137s-0.395-2.031-0.727-2.729
		c-0.334-0.695-0.789-1.195-1.363-1.5c-0.576-0.303-1.289-0.455-2.137-0.455c-1.152,0-2.061,0.305-2.727,0.91
		c-0.668,0.605-1.168,1.545-1.5,2.818C565.021,33.896,564.824,35.594,564.764,37.715z"/>
	<path d="M596.857,66.781v-16.91h15.094v16.91H596.857z"/>
</g>
</svg>
