<?xml version="1.0" encoding="UTF-8" standalone="no"?>
<!-- Created with Inkscape (http://www.inkscape.org/) -->

<svg
   width="25.4mm"
   height="25.4mm"
   viewBox="0 0 25.4 25.4"
   version="1.1"
   id="svg1"
   inkscape:version="1.4 (86a8ad7, 2024-10-11)"
   sodipodi:docname="01_glee.svg"
   xmlns:inkscape="http://www.inkscape.org/namespaces/inkscape"
   xmlns:sodipodi="http://sodipodi.sourceforge.net/DTD/sodipodi-0.dtd"
   xmlns="http://www.w3.org/2000/svg"
   xmlns:svg="http://www.w3.org/2000/svg">
  <sodipodi:namedview
     id="namedview1"
     pagecolor="#ffffff"
     bordercolor="#000000"
     borderopacity="0.25"
     inkscape:showpageshadow="2"
     inkscape:pageopacity="0.0"
     inkscape:pagecheckerboard="0"
     inkscape:deskcolor="#d1d1d1"
     inkscape:document-units="mm"
     inkscape:zoom="2.0334082"
     inkscape:cx="-68.849925"
     inkscape:cy="62.210825"
     inkscape:window-width="1920"
     inkscape:window-height="1009"
     inkscape:window-x="-8"
     inkscape:window-y="-8"
     inkscape:window-maximized="1"
     inkscape:current-layer="layer1" />
  <defs
     id="defs1" />
  <g
     inkscape:label="Layer 1"
     inkscape:groupmode="layer"
     id="layer1">
    <path
       style="fill:#010101;stroke:none;stroke-width:0.809022"
       d="M 9.3076412,0.20640353 C -0.12794788,1.7038007 -2.6904955,15.064361 3.0069083,21.901359 6.0034869,25.497326 10.764513,25.812382 15.041121,25.079482 23.449078,23.638579 28.242953,13.196618 23.570228,5.9374801 20.487917,1.1490569 14.715977,-0.65187949 9.3076412,0.20640353 M 22.261056,17.373335 H 22.048708 C 22.32743,16.000479 23.794736,12.840044 22.769977,11.641092 22.152763,10.918957 20.584485,11.005231 19.712843,10.827948 16.239496,10.121491 12.736493,11.008056 9.3076412,10.592041 8.1200128,10.447946 5.6530775,9.9480933 4.6836007,10.78117 3.2396425,12.021963 3.3548779,14.883032 3.9118572,16.510255 5.1993109,20.271575 7.2836853,22.77677 11.431149,23.199149 8.8594686,24.295245 5.4279839,22.05028 4.0481846,19.962423 1.4946501,16.098527 1.0694235,9.0668291 4.0815722,5.2934997 5.1819349,3.9150897 6.8699838,3.260692 8.458207,2.6817691 c 1.818638,-0.6629182 4.655269,-1.2158051 6.582882,-0.71241 6.457293,1.686309 10.730755,9.2688359 7.219935,15.4039759 M 18.234742,6.7491166 c -1.31247,0.2929115 -1.270936,2.388835 0.200888,2.127912 1.349437,-0.2392321 1.281707,-2.458792 -0.200888,-2.127912 M 7.2062436,7.4157421 C 6.0405343,7.7840762 6.3053479,9.8829299 7.5996556,9.4627406 8.7805336,9.0793733 8.5385296,6.9947822 7.2062436,7.4157421 M 18.863441,13.273692 c -2.17786,3.661428 -9.9424627,1.261646 -13.1657718,0 v -0.431545 l 5.0964268,0.196457 8.069345,0.235088 m 3.185267,4.315411 -0.212349,0.215777 0.212349,-0.215777 m -3.397616,1.078857 c -0.761478,1.654633 -2.357189,2.410507 -4.034676,2.805019 v -0.215768 l 4.034676,-2.589251 m -8.281693,1.941939 v 0.215767 l -2.9729182,-1.510393 2.9729182,1.294626 m 0.637054,0.215775 -0.212357,0.215769 0.212357,-0.215769 m 0.424696,0.215769 -0.212348,0.215768 0.212348,-0.215768"
       id="path4" />
  </g>
</svg>
