<?xml version="1.0" encoding="UTF-8" standalone="no"?>
<!-- Created with Inkscape (http://www.inkscape.org/) -->

<svg
   width="25.4mm"
   height="25.4mm"
   viewBox="0 0 25.4 25.4"
   version="1.1"
   id="svg1"
   inkscape:version="1.4 (86a8ad7, 2024-10-11)"
   sodipodi:docname="03_shock.svg"
   xmlns:inkscape="http://www.inkscape.org/namespaces/inkscape"
   xmlns:sodipodi="http://sodipodi.sourceforge.net/DTD/sodipodi-0.dtd"
   xmlns="http://www.w3.org/2000/svg"
   xmlns:svg="http://www.w3.org/2000/svg">
  <sodipodi:namedview
     id="namedview1"
     pagecolor="#ffffff"
     bordercolor="#000000"
     borderopacity="0.25"
     inkscape:showpageshadow="2"
     inkscape:pageopacity="0.0"
     inkscape:pagecheckerboard="0"
     inkscape:deskcolor="#d1d1d1"
     inkscape:document-units="mm"
     inkscape:zoom="2.0334082"
     inkscape:cx="-68.849925"
     inkscape:cy="62.210825"
     inkscape:window-width="1920"
     inkscape:window-height="1009"
     inkscape:window-x="-8"
     inkscape:window-y="-8"
     inkscape:window-maximized="1"
     inkscape:current-layer="layer1"
     showguides="false" />
  <defs
     id="defs1" />
  <g
     inkscape:label="Layer 1"
     inkscape:groupmode="layer"
     id="layer1">
    <path
       style="fill:#010101;stroke:none;stroke-width:0.836556"
       d="M 9.3731783,0.10950599 C -3.3838107,1.8078466 -3.5048177,27.093967 11.390317,25.309915 17.249027,24.60819 23.088153,21.338572 24.922472,15.536143 27.693759,6.7698477 17.862754,-1.0207175 9.3731783,0.10950599 M 14.528091,22.53088 c 0.627178,-2.570528 -2.18239,-4.760372 -4.43463,-2.755427 -1.1214487,0.998318 -1.1146207,2.28689 -0.9444057,3.629769 C 7.7819413,23.086903 6.5268643,23.020829 5.3421883,22.172984 1.5630983,19.468388 1.7228003,13.147372 2.8103903,9.1971626 3.6602533,6.1104022 6.1569383,2.3448513 9.8214343,2.2120377 13.667834,2.0726267 19.021314,3.6551705 21.333164,6.7927215 25.603585,12.588367 21.814431,21.307246 14.528091,22.53088 m -2.017139,-7.869079 c 1.302642,4.27686 9.019542,1.555768 9.589533,-1.96727 C 22.954278,7.4173393 14.832874,2.6357873 12.959199,8.9785773 12.355307,8.0524771 11.746824,7.2770278 10.717937,6.7718089 9.8901763,6.3653497 8.9660063,5.9594842 8.0284193,5.9310271 1.9671443,5.7470491 0.20768235,16.758556 6.9077843,16.846816 c 0.817275,0.01076 1.67227,0.05182 2.465394,-0.171704 1.2243617,-0.345055 2.1977557,-1.215015 3.1377737,-2.013311 m 7.620298,-2.841612 c -1.741647,-0.603752 -3.243296,0.927754 -1.120635,1.530099 -0.476447,0.416685 -0.985787,0.692438 -1.569061,0.95834 -4.759667,2.169825 -3.666622,-6.0093617 -0.907574,-6.2782645 0.704433,-0.068653 1.070673,0.6385595 1.605553,0.9497347 0.439116,0.2554605 0.908278,0.3047371 1.23789,0.7235506 0.470212,0.5974472 0.642494,1.3921012 0.753827,2.1165402 M 7.5801643,8.1042345 c 0.851132,0.9837019 2.172241,0.2204532 2.8823497,1.1801274 1.98117,2.6774721 -1.0270397,6.6629961 -4.2236447,5.4337731 -3.11159,-1.19653 -1.189097,-6.0267787 1.341295,-6.6139005 m 1.368113,2.8090595 c -1.239931,0.3759 -0.993428,2.505702 0.412796,2.073701 1.2502487,-0.384086 0.9938257,-2.500139 -0.412796,-2.073701"
       id="path3" />
  </g>
</svg>
