<?xml version="1.0" encoding="UTF-8" standalone="no"?>
<!-- Created with Inkscape (http://www.inkscape.org/) -->

<svg
   width="25.4mm"
   height="25.4mm"
   viewBox="0 0 25.4 25.4"
   version="1.1"
   id="svg1"
   inkscape:version="1.4 (86a8ad7, 2024-10-11)"
   sodipodi:docname="04_fear.svg"
   xmlns:inkscape="http://www.inkscape.org/namespaces/inkscape"
   xmlns:sodipodi="http://sodipodi.sourceforge.net/DTD/sodipodi-0.dtd"
   xmlns="http://www.w3.org/2000/svg"
   xmlns:svg="http://www.w3.org/2000/svg">
  <sodipodi:namedview
     id="namedview1"
     pagecolor="#ffffff"
     bordercolor="#000000"
     borderopacity="0.25"
     inkscape:showpageshadow="2"
     inkscape:pageopacity="0.0"
     inkscape:pagecheckerboard="0"
     inkscape:deskcolor="#d1d1d1"
     inkscape:document-units="mm"
     inkscape:zoom="2.0334082"
     inkscape:cx="-68.849925"
     inkscape:cy="62.210825"
     inkscape:window-width="1920"
     inkscape:window-height="1009"
     inkscape:window-x="-8"
     inkscape:window-y="-8"
     inkscape:window-maximized="1"
     inkscape:current-layer="layer1"
     showguides="false" />
  <defs
     id="defs1" />
  <g
     inkscape:label="Layer 1"
     inkscape:groupmode="layer"
     id="layer1">
    <path
       style="fill:#010101;stroke:none;stroke-width:0.836558"
       d="M 9.3731795,0.10950597 C -3.383811,1.8078465 -3.5048181,27.093967 11.390318,25.309915 17.249038,24.60819 23.088147,21.338573 24.922475,15.536143 27.693754,6.7698541 17.862748,-1.0207178 9.3731795,0.10950597 M 17.441734,21.219367 c -0.04151,-3.428473 -3.421567,-4.286312 -6.275548,-3.934539 v -0.218592 c 0.641901,-0.476994 1.811685,-2.148025 0.219811,-2.366831 -0.877504,-0.120624 -2.0763251,0.8274 -3.1334449,0.836732 -0.537718,-0.996076 -2.1137398,-1.296202 -2.1568741,0.221793 -0.055905,1.966303 2.6433346,1.745483 3.94989,1.745483 v 0.218592 C 7.5026049,18.1641 5.3650859,19.876342 6.011282,22.530881 2.1828141,20.58856 2.2011283,15.686875 2.2011283,12.038775 5.1530332,13.258674 7.5907957,11.093242 8.2750176,8.3228205 8.4949816,7.432228 8.4007222,5.5866855 6.9319951,5.9119744 5.6520307,6.1954511 6.3147345,8.4962307 5.6296076,9.3919657 4.8599063,10.398268 3.5305795,10.137918 2.4252521,10.508674 2.9564382,8.5555336 3.5043883,6.6005372 4.905335,5.0472378 c 7.794461,-8.6420336 24.42822,3.8816209 15.926649,13.5482612 -0.953437,1.084095 -2.030176,2.063115 -3.39025,2.623867 M 18.338237,8.1042335 C 17.817766,7.5480776 17.355262,6.9826812 16.925159,6.3563883 c -0.673743,-0.98108 -3.33369,-2.3284688 -2.678091,0 0.575879,2.0453579 5.027137,6.0411877 6.184054,2.1882177 C 20.868959,7.0864047 18.912149,7.1469608 18.338236,8.1042335 M 9.8629327,10.892887 c -1.5858084,0.622323 -1.3819556,3.479651 0.6265523,2.761664 1.66036,-0.59354 1.291808,-3.514486 -0.6265523,-2.761664 m 5.3608833,0.457576 c -1.239914,0.375892 -0.993427,2.505702 0.412795,2.073699 1.250249,-0.384086 0.993834,-2.500137 -0.412795,-2.073699 m 1.544495,2.800626 c -0.685754,0.04948 -1.768196,0.04856 -2.237984,0.606342 -0.797545,0.946932 -0.04618,2.076737 1.118568,2.037092 1.80307,-0.06137 3.570952,-2.820319 1.119416,-2.643432 m -6.050374,3.133736 -0.22413,0.218592 0.22413,-0.218592 m 2.241253,1.748683 v 1.530099 L 8.0284095,21.000781 V 20.782188 L 12.95919,19.033505 m 2.241263,3.278786 c -2.406879,1.474945 -5.4198834,0.895721 -8.0685548,0.874341 l 4.2584098,-0.281162 3.810145,-0.593179"
       id="path5" />
  </g>
</svg>
