<?xml version="1.0" encoding="UTF-8" standalone="no"?>
<!-- Created with Inkscape (http://www.inkscape.org/) -->

<svg
   width="26.669636mm"
   height="28.153835mm"
   viewBox="0 0 26.669636 28.153836"
   version="1.1"
   id="svg1"
   inkscape:version="1.4 (86a8ad7, 2024-10-11)"
   sodipodi:docname="08_hapell.svg"
   xmlns:inkscape="http://www.inkscape.org/namespaces/inkscape"
   xmlns:sodipodi="http://sodipodi.sourceforge.net/DTD/sodipodi-0.dtd"
   xmlns="http://www.w3.org/2000/svg"
   xmlns:svg="http://www.w3.org/2000/svg">
  <sodipodi:namedview
     id="namedview1"
     pagecolor="#ffffff"
     bordercolor="#000000"
     borderopacity="0.25"
     inkscape:showpageshadow="2"
     inkscape:pageopacity="0.0"
     inkscape:pagecheckerboard="0"
     inkscape:deskcolor="#d1d1d1"
     inkscape:document-units="mm"
     inkscape:zoom="2.0334082"
     inkscape:cx="-67.866355"
     inkscape:cy="69.095818"
     inkscape:window-width="1920"
     inkscape:window-height="1009"
     inkscape:window-x="-8"
     inkscape:window-y="-8"
     inkscape:window-maximized="1"
     inkscape:current-layer="layer1"
     showguides="true" />
  <defs
     id="defs1" />
  <g
     inkscape:label="Layer 1"
     inkscape:groupmode="layer"
     id="layer1"
     transform="translate(0.26458333,1.8520834)">
    <path
       style="fill:#010101;stroke:none;stroke-width:0.850612"
       d="m 2.6927371,23.199742 c 0.1664903,0.810539 0.334852,2.231155 0.9978275,2.78891 1.4135897,1.189241 2.4441658,-1.320499 2.6030942,-2.3388 4.8800292,1.115518 9.3528112,0.484006 13.7285222,-2.02552 0.241131,1.511971 2.020016,1.811922 2.996944,0.641837 1.80465,-2.161473 3.084183,-4.535174 3.284528,-7.393571 C 26.524829,11.717048 26.53291,7.1173139 24.739718,4.3848349 24.269567,3.6684315 23.142481,3.0997914 22.497819,2.5136916 19.361757,-0.3374359 12.532575,-3.0068446 8.3393213,-1.3338157 4.4982888,0.198676 2.5610284,4.1794546 0.9011312,7.6707485 -0.99453863,11.657956 -0.00795961,16.029958 -0.00795961,20.273985 c 0,1.903287 0.19710383,5.041331 2.70069671,2.925757 M 21.372527,8.1208635 H 21.147472 C 18.794526,3.175905 10.535857,0.7001662 8.3191788,7.2206326 H 8.0941238 C 7.9338685,5.6234766 7.1971364,4.160924 5.6184854,3.6197084 8.3440337,-0.4156446 13.07262,0.1662447 17.096432,1.7742733 c 1.233447,0.4929177 2.905776,0.9942022 3.730997,2.1097373 0.577285,0.7803949 0.52334,3.2153979 0.545098,4.2368529 m -8.55219,-2.1757279 c 3.276558,-0.5368264 7.799305,1.850669 7.03913,5.7766504 -0.533147,2.753474 -3.55777,4.633148 -6.138901,5.034459 C 7.9021322,17.660879 7.842836,6.7606335 12.820337,5.9451356 m 1.125284,1.8759875 C 9.9892705,8.9395303 10.895368,15.487676 15.517552,14.35005 19.139339,13.458651 17.77722,6.7379775 13.945621,7.8211231 m 7.877025,5.4760649 c 0.0222,1.07531 0.450024,2.332821 0.09256,3.375867 -1.031146,3.0087 -5.584932,4.790222 -8.41969,5.30588 -1.651064,0.300334 -6.1312804,1.043437 -6.5266789,-1.25484 1.5675845,-0.05087 2.4065432,-0.955408 2.7006933,-2.475639 5.8030036,1.327142 8.2796116,-0.936838 12.1531206,-4.951268"
       id="path12" />
  </g>
</svg>
