<svg xmlns="http://www.w3.org/2000/svg" viewBox="0 -0.5 48 48" shape-rendering="crispEdges">
<metadata>Made with Pixels to Svg https://codepen.io/shshaw/pen/XbxvNj</metadata>
<path stroke="#808080" d="M9 0h9M19 0h3M23 0h16M9 1h1M37 1h2M9 2h1M37 2h1M39 2h1M9 3h1M13 3h2M16 3h1M37 3h1M40 3h1M9 4h1M13 4h1M15 4h1M17 4h1M37 4h1M41 4h1M9 5h1M13 5h1M37 5h1M42 5h1M9 6h1M13 6h1M37 6h1M43 6h1M9 7h1M13 7h1M37 7h1M44 7h1M9 8h1M13 8h5M37 8h1M45 8h1M9 9h1M13 9h1M17 9h1M2 10h1M9 10h1M13 10h1M17 10h1M0 11h3M9 11h1M13 11h1M16 11h2M31 11h3M0 12h1M3 12h1M9 12h1M30 12h1M33 12h3M1 13h1M9 13h1M29 13h1M32 13h1M2 14h1M6 14h1M9 14h1M28 14h2M7 15h1M9 15h1M27 15h1M30 15h1M4 16h1M6 16h1M26 16h1M31 16h1M30 17h1M29 18h1M9 22h1M9 23h1M8 24h3M12 24h10M23 24h3M7 25h1M20 25h1M22 25h2M25 25h1M7 26h1M21 26h1M23 26h2M26 26h1M7 27h1M20 27h1M22 27h4M7 28h1M21 28h1M23 28h2M26 28h1M7 29h1M20 29h1M22 29h4M7 30h13M8 31h1M21 31h4M8 32h1M20 32h1M22 32h2M25 32h1M8 33h1M21 33h4M8 34h1M20 34h1M22 34h2M25 34h1M8 35h1M21 35h4M8 36h1M20 36h1M22 36h2M25 36h1M8 37h1M21 37h4M8 38h1M20 38h1M22 38h2M25 38h1M8 39h1M21 39h4M8 40h1M20 40h1M22 40h2M25 40h1M8 41h1M21 41h4M8 42h1M20 42h1M22 42h2M25 42h1M8 43h1M21 43h4M8 44h1M20 44h1M22 44h2M25 44h1M8 45h1M21 45h4M8 46h16M25 46h1M9 47h1" />
<path stroke="#808082" d="M18 0h1M11 24h1" />
<path stroke="#808180" d="M22 0h1M28 18h1" />
<path stroke="#ffffff" d="M10 1h5M16 1h10M28 1h9M10 2h27M10 3h3M19 3h17M38 3h1M10 4h3M20 4h17M38 4h2M10 5h2M19 5h7M27 5h10M38 5h3M10 6h3M22 6h15M38 6h4M10 7h3M22 7h15M38 7h5M10 8h3M22 8h15M38 8h6M10 9h3M14 9h1M22 9h6M29 9h8M10 10h3M14 10h1M22 10h15M10 11h3M22 11h9M34 11h4M10 12h3M22 12h1M24 12h6M36 12h3M11 13h2M22 13h4M27 13h2M36 13h4M4 14h1M12 14h1M22 14h6M37 14h4M4 15h1M22 15h5M37 15h5M22 16h4M28 16h2M37 16h6M22 17h3M36 17h8M22 18h2M25 18h1M35 18h10M22 19h1M24 19h1M34 19h5M40 19h3M44 19h2M23 20h1M33 20h2M36 20h10M22 21h1M32 21h14M21 22h1M31 22h15M30 23h16M30 24h4M35 24h2M38 24h3M42 24h4M9 25h6M31 25h15M9 26h7M32 26h7M40 26h6M9 27h6M16 27h1M32 27h5M38 27h8M9 28h7M32 28h6M39 28h7M9 29h6M16 29h1M32 29h14M32 30h3M36 30h2M39 30h1M41 30h5M10 31h5M16 31h1M32 31h14M11 32h5M32 32h13M10 33h5M16 33h1M31 33h7M39 33h7M10 34h6M31 34h6M38 34h2M41 34h5M10 35h5M16 35h1M31 35h15M10 36h6M31 36h9M41 36h5M10 37h5M16 37h1M31 37h15M11 38h2M14 38h2M31 38h15M10 39h5M16 39h1M31 39h1M33 39h11M45 39h1M10 40h6M31 40h15M10 41h1M12 41h3M16 41h1M31 41h15M10 42h6M31 42h15M10 43h5M16 43h1M32 43h14M10 44h6M31 44h15M10 45h5M16 45h1M31 45h15" />
<path stroke="#fffffd" d="M15 1h1M27 1h1M16 25h1M35 30h1M40 30h1" />
<path stroke="#fffdff" d="M26 1h1M12 5h1M26 5h1M26 13h1M37 24h1M41 24h1M32 39h1" />
<path stroke="#000000" d="M39 1h1M40 2h1M18 3h1M41 3h1M14 4h1M16 4h1M18 4h1M42 4h1M14 5h1M16 5h3M43 5h1M14 6h5M14 7h5M45 7h1M18 8h1M46 8h1M18 9h1M37 9h11M3 10h1M18 10h1M47 10h1M3 11h1M18 11h1M47 11h1M1 12h2M4 12h2M18 12h1M31 12h2M47 12h1M2 13h5M18 13h1M30 13h2M33 13h2M47 13h1M3 14h1M7 14h1M30 14h1M32 14h3M3 15h1M8 15h1M18 15h1M31 15h3M47 15h1M7 16h1M9 16h1M18 16h1M47 16h1M10 17h1M18 17h1M31 17h1M47 17h1M11 18h1M18 18h1M47 18h1M12 19h1M18 19h1M29 19h1M47 19h1M13 20h1M18 20h1M28 20h1M47 20h1M14 21h1M18 21h1M27 21h1M47 21h1M15 22h1M18 22h1M26 22h1M47 22h1M16 23h1M18 23h1M25 23h2M47 23h1M26 24h1M47 24h1M26 25h2M47 25h1M25 26h1M27 26h1M47 26h1M26 27h2M47 27h1M25 28h1M27 28h1M47 28h1M26 29h2M47 29h1M20 30h8M47 30h1M25 31h1M47 31h1M24 32h1M26 32h1M47 32h1M25 33h2M47 33h1M24 34h1M26 34h1M47 34h1M25 35h2M47 35h1M24 36h1M26 36h1M47 36h1M25 37h2M47 37h1M24 38h1M26 38h1M25 39h2M47 39h1M24 40h1M26 40h1M47 40h1M25 41h2M47 41h1M24 42h1M26 42h1M47 42h1M25 43h2M47 43h1M24 44h1M26 44h1M47 44h1M25 45h2M47 45h1M24 46h1M26 46h1M47 46h1M10 47h24M36 47h2M40 47h8" />
<path stroke="#c0c0c0" d="M38 2h1M15 3h1M17 3h1M39 3h1M40 4h1M41 5h1M19 6h3M19 7h3M43 7h1M19 8h3M44 8h1M15 9h2M19 9h3M15 10h2M19 10h1M21 10h1M37 10h10M14 11h2M19 11h3M38 11h2M41 11h6M19 12h3M39 12h8M10 13h1M19 13h3M40 13h5M46 13h1M5 14h1M10 14h2M19 14h3M35 14h1M41 14h6M5 15h2M10 15h3M19 15h1M21 15h1M28 15h2M34 15h3M42 15h5M5 16h1M10 16h3M19 16h2M27 16h1M30 16h1M33 16h4M43 16h4M11 17h2M19 17h3M27 17h3M32 17h4M44 17h1M12 18h1M19 18h3M31 18h4M45 18h1M19 19h3M27 19h1M30 19h4M46 19h1M19 20h3M26 20h1M29 20h4M46 20h1M19 21h2M25 21h1M28 21h4M46 21h1M19 22h1M24 22h1M27 22h4M46 22h1M10 23h1M20 23h4M27 23h3M46 23h1M27 24h3M46 24h1M8 25h1M15 25h1M17 25h3M21 25h1M28 25h3M46 25h1M8 26h1M16 26h5M22 26h1M28 26h4M46 26h1M8 27h1M15 27h1M17 27h3M21 27h1M28 27h2M31 27h1M46 27h1M16 28h1M18 28h3M22 28h1M28 28h4M46 28h1M8 29h1M15 29h1M17 29h3M21 29h1M28 29h4M46 29h1M28 30h4M46 30h1M15 31h1M17 31h4M27 31h2M30 31h2M46 31h1M9 32h1M16 32h4M21 32h1M27 32h5M46 32h1M9 33h1M15 33h1M17 33h1M19 33h2M27 33h4M46 33h1M9 34h1M16 34h3M27 34h1M29 34h2M46 34h1M9 35h1M15 35h1M17 35h4M27 35h4M46 35h1M9 36h1M16 36h4M21 36h1M27 36h4M46 36h1M9 37h1M15 37h1M17 37h4M27 37h4M46 37h1M9 38h1M16 38h4M21 38h1M27 38h4M46 38h1M9 39h1M15 39h1M17 39h4M27 39h4M46 39h1M9 40h1M16 40h4M21 40h1M27 40h4M46 40h1M9 41h1M15 41h1M17 41h4M27 41h4M46 41h1M9 42h1M16 42h4M21 42h1M27 42h4M46 42h1M9 43h1M15 43h1M17 43h2M20 43h1M27 43h4M46 43h1M9 44h1M16 44h4M21 44h1M27 44h4M46 44h1M9 45h1M15 45h1M17 45h4M27 45h4M27 46h1M29 46h17" />
<path stroke="#fffffe" d="M36 3h1M35 20h1M40 34h1M11 41h1M31 43h1" />
<path stroke="#fffeff" d="M19 4h1M39 19h1M43 19h1M38 30h1M10 32h1M45 32h1M37 34h1M13 38h1" />
<path stroke="#000100" d="M15 5h1" />
<path stroke="#c1c0c0" d="M42 6h1M40 11h1M21 16h1M45 17h1M8 28h1M9 31h1M28 34h1" />
<path stroke="#000001" d="M44 6h1M31 14h1M35 47h1M38 47h1" />
<path stroke="#feffff" d="M28 9h1M23 12h1M34 24h1M40 36h1M44 39h1" />
<path stroke="#c0c0c1" d="M20 10h1M30 27h1M21 34h1" />
<path stroke="#010000" d="M4 11h1M18 14h1" />
<path stroke="#800000" d="M13 12h1M15 12h3M13 13h1M16 13h2M13 14h1M15 14h1M17 14h1M13 15h1M16 15h2M13 16h1M15 16h1M17 16h1M13 17h1M16 17h2M13 18h1M15 18h1M17 18h1M13 19h1M16 19h2M14 20h2M17 20h1M15 21h3M16 22h2M17 23h1" />
<path stroke="#800200" d="M14 12h1" />
<path stroke="#ff0000" d="M14 13h2M16 14h1M14 15h2M14 16h1M16 16h1M14 17h2M14 18h1M16 18h1M14 19h2M16 20h1" />
<path stroke="#000200" d="M35 13h1M47 14h1M30 18h1M34 47h1M39 47h1" />
<path stroke="#c0c1c0" d="M45 13h1M17 28h1M19 34h1" />
<path stroke="#fe0000" d="M14 14h1" />
<path stroke="#fdffff" d="M36 14h1M39 26h1M37 27h1M38 28h1M38 33h1M10 38h1" />
<path stroke="#c0c2c0" d="M20 15h1M46 18h1" />
<path stroke="#000080" d="M8 16h1M5 17h1M9 17h1M6 18h1M10 18h1M7 19h1M11 19h1M8 20h1M12 20h1M9 21h1M13 21h1M14 22h1M11 23h1M15 23h1" />
<path stroke="#020000" d="M32 16h1" />
<path stroke="#008080" d="M6 17h1M7 18h1M8 19h1M9 20h1M11 22h1M12 23h1" />
<path stroke="#0000ff" d="M7 17h2M8 18h2M9 19h2M10 20h2M11 21h2M12 22h2M13 23h2" />
<path stroke="#808000" d="M25 17h2M24 18h1M27 18h1M23 19h1M28 19h1M27 20h1M21 21h1M26 21h1M20 22h1M25 22h1M19 23h1M24 23h1" />
<path stroke="#c0c0c2" d="M46 17h1M29 31h1M28 46h1M46 46h1" />
<path stroke="#ffff00" d="M26 18h1M25 19h2M24 20h2M23 21h2M22 22h2" />
<path stroke="#818000" d="M22 20h1" />
<path stroke="#008280" d="M10 21h1" />
<path stroke="#000280" d="M10 22h1" />
<path stroke="#808081" d="M22 24h1" />
<path stroke="#808280" d="M24 25h1" />
<path stroke="#000002" d="M26 31h1M47 38h1" />
<path stroke="#c2c0c0" d="M18 33h1M19 43h1M46 45h1" />
</svg>