<svg xmlns="http://www.w3.org/2000/svg" viewBox="0 -0.5 32 32" shape-rendering="crispEdges">
<metadata>Made with Pixels to Svg https://codepen.io/shshaw/pen/XbxvNj</metadata>
<path stroke="#0100bf" d="M15 0h1M12 28h1M19 28h1" />
<path stroke="#0000bf" d="M16 0h1M14 1h1M17 1h1M13 2h1M11 4h1M27 11h1M28 12h1M29 13h1M1 14h1M30 14h1M0 15h1M31 15h1M0 16h1M31 16h1M2 18h1M29 18h1M3 19h1M28 19h1M4 20h1M27 20h1M5 21h1M26 21h1M6 22h1M25 22h1M7 23h1M24 23h1M8 24h1M9 25h1M22 25h1M10 26h1M21 26h1M20 27h1M18 29h1M17 30h1M15 31h2" />
<path stroke="#818080" d="M20 0h1M3 8h1M9 8h1M21 9h1M18 15h1M10 18h1M21 19h1M23 21h1" />
<path stroke="#020000" d="M21 0h1M23 3h1M27 9h1M17 11h1M22 11h1M7 15h1" />
<path stroke="#000000" d="M22 0h3M20 1h1M25 1h2M18 2h1M22 2h2M27 2h1M22 3h1M27 3h1M5 4h3M17 4h1M3 5h2M9 5h2M17 5h1M19 5h1M23 5h1M25 5h2M28 5h1M2 6h1M6 6h1M11 6h1M17 6h1M19 6h2M22 6h1M25 6h2M2 7h1M6 7h2M17 7h1M28 7h1M1 8h1M12 8h1M15 8h4M22 8h2M27 8h1M4 9h1M7 9h1M9 9h1M12 9h3M18 9h1M22 9h2M1 10h1M4 10h1M9 10h2M12 10h1M14 10h3M19 10h2M25 10h2M12 11h1M14 11h1M16 11h1M18 11h1M20 11h2M23 11h2M2 12h1M6 12h2M11 12h1M14 12h1M16 12h1M18 12h2M22 12h1M25 12h2M2 13h1M6 13h2M11 13h1M13 13h1M15 13h2M22 13h3M3 14h2M10 14h3M22 14h1M8 15h3M12 15h1M17 15h1M22 15h2M25 15h2M9 16h1M11 16h1M13 16h1M16 16h3M22 16h5M9 17h1M12 17h1M14 17h3M18 17h2M25 17h2M9 18h1M13 18h2M17 18h2M22 18h1M9 19h1M9 20h2M12 20h11M10 21h1M12 21h1M19 21h2M9 22h5M18 22h3M22 22h1" />
<path stroke="#808080" d="M25 0h1M18 1h1M27 1h1M21 2h1M17 3h1M21 3h1M4 4h1M9 4h1M19 4h2M25 4h2M2 5h1M5 6h1M1 7h1M5 7h1M12 7h1M4 8h1M10 8h1M21 8h1M28 8h1M15 9h3M13 10h1M17 10h1M27 10h1M13 11h1M1 12h1M5 12h1M20 12h2M5 13h1M12 13h1M14 13h1M17 13h1M27 13h1M27 14h1M4 15h1M11 15h1M13 15h1M15 15h2M19 15h1M21 15h1M27 15h1M10 16h1M12 16h1M10 17h2M20 17h2M23 17h2M27 17h1M11 18h1M15 18h1M19 18h1M21 18h1M25 18h2M10 19h7M18 19h2M23 20h1M13 21h6M14 22h1M23 22h1M10 23h2M13 23h1M21 23h1" />
<path stroke="#00ffff" d="M15 1h1M16 2h2M13 3h1M15 3h1M12 4h3M15 5h1M13 6h2M16 6h1M15 7h1M13 8h1M27 12h1M28 13h1M29 14h1M1 15h2M28 15h1M30 15h1M1 16h1M5 16h1M7 16h1M29 16h1M2 17h1M4 17h1M8 17h1M28 17h1M3 18h1M5 18h1M7 18h1M4 19h1M6 19h1M8 19h1M24 19h1M26 19h1M5 20h1M25 20h1M6 21h1M8 21h1M24 21h1M7 22h1M16 22h1M8 23h1M15 23h1M18 23h1M9 24h2M12 24h1M14 24h1M16 24h1M18 24h1M20 24h1M22 24h1M10 25h2M13 25h1M15 25h1M17 25h1M19 25h1M21 25h1M11 26h1M14 26h1M16 26h1M18 26h1M20 26h1M12 27h2M15 27h1M17 27h1M14 28h1M16 28h1M18 28h1M14 29h2M17 29h1M15 30h2" />
<path stroke="#00feff" d="M16 1h1M13 28h1" />
<path stroke="#000100" d="M19 1h1M20 5h1M11 7h1M6 10h1M5 15h2M22 19h1M21 22h1" />
<path stroke="#c0c0c0" d="M21 1h2M24 1h1M25 2h2M25 3h2M18 4h1M21 4h1M24 4h1M27 4h1M5 5h2M8 5h1M11 5h1M18 5h1M27 5h1M3 6h2M9 6h2M24 6h1M27 6h1M3 7h2M10 7h1M18 7h1M22 7h3M5 8h2M8 8h1M11 8h1M19 8h2M25 8h2M2 9h1M8 9h1M11 9h1M19 9h2M25 9h2M2 10h1M8 10h1M11 10h1M21 10h4M2 11h1M5 11h2M8 11h1M26 11h1M3 12h2M10 12h1M23 12h1M3 13h2M9 13h2M25 13h1M2 14h1M5 14h4M15 14h1M18 14h4M27 18h1" />
<path stroke="#c2c0c0" d="M23 1h1M11 11h1" />
<path stroke="#02ffff" d="M14 2h1M6 17h1" />
<path stroke="#ffffff" d="M15 2h1M24 2h1M14 3h1M24 3h1M15 4h1M13 5h2M16 5h1M12 6h1M15 6h1M21 6h1M8 7h1M13 7h2M16 7h1M25 7h2M24 9h1M5 10h1M7 10h1M18 10h1M3 11h2M9 11h2M15 11h1M8 12h1M24 12h1M8 13h1M18 13h2M21 13h1M13 14h2M28 14h1M3 15h1M14 15h1M29 15h1M2 16h1M4 16h1M6 16h1M28 16h1M30 16h1M3 17h1M5 17h1M13 17h1M4 18h1M8 18h1M24 18h1M28 18h1M5 19h1M7 19h1M25 19h1M27 19h1M6 20h1M24 20h1M26 20h1M7 21h1M9 21h1M25 21h1M8 22h1M15 22h1M17 22h1M9 23h1M16 23h1M23 23h1M11 24h1M13 24h1M15 24h1M17 24h1M19 24h1M21 24h1M12 25h1M14 25h1M16 25h1M18 25h1M20 25h1M13 26h1M15 26h1M17 26h1M19 26h1M16 27h1M18 27h1M15 28h1M17 28h1M16 29h1" />
<path stroke="#c0c1c0" d="M19 2h1M24 5h1M21 7h1M2 8h1M9 12h1" />
<path stroke="#c0c2c0" d="M20 2h1M22 4h1M18 6h1M26 13h1" />
<path stroke="#0001bf" d="M12 3h1M1 17h1" />
<path stroke="#fffffe" d="M16 3h1M21 5h1M24 8h1M5 9h1M20 13h1M8 16h1" />
<path stroke="#000001" d="M18 3h1M22 5h1M3 9h1M6 9h1M1 11h1M15 16h1" />
<path stroke="#c1c0c0" d="M19 3h1M27 7h1M7 11h1" />
<path stroke="#c0c0c2" d="M20 3h1M23 4h1M7 5h1M9 7h1M7 8h1" />
<path stroke="#808082" d="M28 3h1M12 12h1M17 12h1M20 15h1M12 18h1M22 21h1M12 23h1" />
<path stroke="#000200" d="M8 4h1M9 14h1M11 21h1" />
<path stroke="#01ffff" d="M16 4h1M7 20h1M17 23h1" />
<path stroke="#010000" d="M28 4h1M7 6h1M28 6h1M14 8h1M1 9h1M15 12h1M11 20h1" />
<path stroke="#00fdff" d="M12 5h1" />
<path stroke="#feffff" d="M8 6h1M17 17h1" />
<path stroke="#fdffff" d="M23 6h1M6 18h1M8 20h1M14 27h1" />
<path stroke="#fffefe" d="M19 7h1" />
<path stroke="#fffffd" d="M20 7h1M7 17h1M24 22h1" />
<path stroke="#020200" d="M10 9h1" />
<path stroke="#000002" d="M3 10h1M19 11h1M17 14h1M24 15h1M22 17h1M21 21h1" />
<path stroke="#808282" d="M25 11h1" />
<path stroke="#808081" d="M13 12h1M26 14h1M27 16h1M23 18h1" />
<path stroke="#c2c1c0" d="M16 14h1" />
<path stroke="#828080" d="M23 14h1M20 19h1" />
<path stroke="#808180" d="M24 14h1M14 16h1M16 18h1M17 19h1" />
<path stroke="#808280" d="M25 14h1M23 19h1M19 23h2M22 23h1" />
<path stroke="#00fffd" d="M3 16h1" />
<path stroke="#00ff00" d="M19 16h3M20 18h1" />
<path stroke="#fffdff" d="M29 17h1" />
<path stroke="#0000be" d="M30 17h1" />
<path stroke="#fffefd" d="M14 23h1" />
<path stroke="#0200bf" d="M23 24h1" />
<path stroke="#00fffe" d="M12 26h1" />
<path stroke="#0000bc" d="M11 27h1" />
<path stroke="#01fffd" d="M19 27h1" />
<path stroke="#0002bf" d="M13 29h1" />
<path stroke="#0002bd" d="M14 30h1" />
</svg>