<svg xmlns="http://www.w3.org/2000/svg" viewBox="0 -0.5 48 48" shape-rendering="crispEdges">
<metadata>Made with Pixels to Svg https://codepen.io/shshaw/pen/XbxvNj</metadata>
<path stroke="#000000" d="M29 1h3M33 1h3M37 1h1M26 2h15M23 3h20M21 4h23M20 5h3M24 5h17M42 5h3M19 6h15M35 6h11M15 7h1M17 7h2M24 7h1M26 7h18M45 7h1M12 8h12M27 8h3M31 8h1M33 8h4M38 8h2M41 8h5M9 9h10M20 9h7M29 9h7M37 9h9M7 10h2M10 10h15M26 10h3M30 10h6M41 10h4M6 11h12M19 11h11M31 11h3M43 11h1M5 12h8M14 12h18M43 12h1M4 13h6M11 13h4M16 13h2M19 13h3M23 13h9M43 13h1M3 14h20M24 14h8M37 14h1M39 14h1M42 14h1M4 15h28M36 15h1M38 15h1M42 15h1M2 16h20M27 16h4M41 16h1M2 17h2M5 17h5M11 17h9M29 17h1M37 17h2M42 17h1M1 18h14M16 18h2M29 18h1M38 18h1M42 18h1M1 19h16M29 19h1M43 19h1M1 20h4M6 20h10M23 20h1M25 20h1M28 20h1M43 20h1M1 21h11M13 21h3M24 21h1M28 21h1M1 22h11M13 22h2M27 22h1M44 22h1M1 23h12M23 23h2M28 23h1M40 23h4M1 24h10M23 24h2M28 24h1M42 24h1M1 25h8M29 25h1M42 25h1M1 26h5M7 26h2M29 26h1M40 26h1M42 26h1M1 27h8M30 27h1M42 27h1M1 28h8M30 28h1M2 29h1M5 29h5M27 29h3M41 29h1M2 30h9M28 30h1M40 30h1M3 31h9M28 31h1M33 31h7M3 32h7M11 32h2M26 32h1M36 32h1M4 33h1M6 33h7M28 33h1M36 33h1M5 34h1M7 34h5M28 34h1M36 34h1M6 35h1M8 35h2M27 35h1M37 35h1M9 36h1M26 36h1M38 36h1M9 37h1M19 37h7M39 37h1M9 38h1M22 38h1M40 38h1M22 39h1M34 39h1M41 39h1M22 40h9M32 40h9M23 41h1M24 42h1M25 43h1M26 44h1M20 45h1M27 45h1M6 46h3M10 46h17" />
<path stroke="#000100" d="M32 1h1M41 5h1M32 8h1M44 21h1M12 22h1M6 26h1M7 35h1M9 46h1" />
<path stroke="#000201" d="M36 1h1" />
<path stroke="#020000" d="M23 5h1M25 7h1M37 8h1M18 11h1M13 12h1M12 21h1M22 21h1M4 29h1" />
<path stroke="#000001" d="M34 6h1M30 8h1M9 10h1M10 32h1M28 32h1M6 34h1" />
<path stroke="#010000" d="M16 7h1M44 7h1M19 9h1M15 13h1M10 17h1M15 18h1M37 18h1M42 28h1M5 33h1M31 40h1" />
<path stroke="#818181" d="M19 7h5M24 8h3M27 9h2M29 10h1M30 11h1M38 14h1M40 14h2M37 15h1M39 15h1M41 15h1M40 16h1M24 20h1M26 20h2M23 21h1M25 21h1M27 21h1M26 22h1M41 25h1M39 26h1M41 27h1M27 31h1M25 32h1M27 32h1M34 32h2M27 33h1M36 35h1M20 38h2" />
<path stroke="#000002" d="M40 8h1" />
<path stroke="#020002" d="M36 9h1" />
<path stroke="#000200" d="M25 10h1M10 13h1M18 13h1M22 13h1M23 14h1M3 15h1M4 17h1M5 20h1M3 29h1M26 29h1" />
<path stroke="#c1c1c1" d="M36 10h5M34 11h1M41 11h2M32 12h2M42 12h1M42 13h1M36 14h1M40 15h1M22 16h5M36 16h4M20 17h2M23 17h1M27 17h2M41 17h1M18 18h3M22 18h1M24 18h1M26 18h1M28 18h1M19 19h1M21 19h1M23 19h1M25 19h1M27 19h2M42 19h1M16 20h1M18 20h1M20 20h1M22 20h1M42 20h1M17 21h1M19 21h1M21 21h1M26 21h1M43 21h1M15 22h2M18 22h1M20 22h1M22 22h4M28 22h1M40 22h4M13 23h1M15 23h1M17 23h1M19 23h1M21 23h1M26 23h2M39 23h1M11 24h2M16 24h1M18 24h1M22 24h1M25 24h1M27 24h1M29 24h1M40 24h2M9 25h1M11 25h1M13 25h1M15 25h1M17 25h1M19 25h1M21 25h1M23 25h1M25 25h1M27 25h2M10 26h1M12 26h1M14 26h1M16 26h1M18 26h1M20 26h1M22 26h1M24 26h1M26 26h1M28 26h1M30 26h1M38 26h1M9 27h1M11 27h1M13 27h1M15 27h1M17 27h1M19 27h1M21 27h1M23 27h1M25 27h1M27 27h1M29 27h1M39 27h2M9 28h2M12 28h1M14 28h1M16 28h1M18 28h1M20 28h1M22 28h1M24 28h1M26 28h1M28 28h2M41 28h1M10 29h2M13 29h1M15 29h1M17 29h1M19 29h1M21 29h1M23 29h1M30 29h1M12 30h1M14 30h1M16 30h1M18 30h1M20 30h1M22 30h1M24 30h1M26 30h1M33 30h2M36 30h4M12 31h2M15 31h1M17 31h1M19 31h1M21 31h1M23 31h1M25 31h1M32 31h1M14 32h1M16 32h1M18 32h1M22 32h1M24 32h1M33 32h1M13 33h1M15 33h1M17 33h1M19 33h1M21 33h1M23 33h1M25 33h2M34 33h2M12 34h1M14 34h1M16 34h1M18 34h1M20 34h1M22 34h1M24 34h1M26 34h2M34 34h2M11 35h1M13 35h1M15 35h1M17 35h1M19 35h1M21 35h1M23 35h1M25 35h2M28 35h2M35 35h1M10 36h1M12 36h1M14 36h1M16 36h1M18 36h7M30 36h2M33 36h2M11 37h1M13 37h1M15 37h1M17 37h1M32 37h2M10 38h1M12 38h1M14 38h1M16 38h1M18 38h2M10 39h2M13 39h1M15 39h1M17 39h1M19 39h3M12 40h3M16 40h1M18 40h1M20 40h1M14 41h2M17 41h1M19 41h2M16 42h5M18 43h2" />
<path stroke="#c1c1c3" d="M35 11h1M27 28h1" />
<path stroke="#ffffff" d="M36 11h5M35 12h7M32 13h4M37 13h5M32 14h4M32 15h2M35 15h1M31 16h5M22 17h1M24 17h1M26 17h1M31 17h1M33 17h4M39 17h2M21 18h1M23 18h1M25 18h1M27 18h1M30 18h7M39 18h2M18 19h1M20 19h1M22 19h1M24 19h1M26 19h1M30 19h12M17 20h1M19 20h1M21 20h1M29 20h7M37 20h5M16 21h1M18 21h1M20 21h1M29 21h14M17 22h1M19 22h1M29 22h11M14 23h1M16 23h1M18 23h1M20 23h1M22 23h1M25 23h1M29 23h10M13 24h1M15 24h1M17 24h1M19 24h1M26 24h1M30 24h10M10 25h1M12 25h1M14 25h1M16 25h1M18 25h1M20 25h1M22 25h1M24 25h1M26 25h1M30 25h5M36 25h5M9 26h1M11 26h1M13 26h1M15 26h1M17 26h1M21 26h1M23 26h1M25 26h1M27 26h1M31 26h7M10 27h1M12 27h1M14 27h1M16 27h1M18 27h1M20 27h1M22 27h1M24 27h1M26 27h1M28 27h1M31 27h4M36 27h3M11 28h1M13 28h1M15 28h1M17 28h1M19 28h1M21 28h1M23 28h1M25 28h1M31 28h10M12 29h1M14 29h1M16 29h1M18 29h1M20 29h1M22 29h1M24 29h1M31 29h3M35 29h3M39 29h2M13 30h1M17 30h1M19 30h1M21 30h1M23 30h1M30 30h2M14 31h1M16 31h1M18 31h1M20 31h1M22 31h1M24 31h1M26 31h1M29 31h3M13 32h1M15 32h1M17 32h1M19 32h1M21 32h1M23 32h1M29 32h4M14 33h1M16 33h1M18 33h1M20 33h1M22 33h1M24 33h1M29 33h5M13 34h1M15 34h1M17 34h1M19 34h1M21 34h1M23 34h1M25 34h1M29 34h5M10 35h1M12 35h1M14 35h1M16 35h1M18 35h1M20 35h1M22 35h1M24 35h1M30 35h1M32 35h1M11 36h1M13 36h1M15 36h1M17 36h1M32 36h1M10 37h1M12 37h1M14 37h1M11 38h1M13 38h1M15 38h1M17 38h1M12 39h1M14 39h1M16 39h1M18 39h1M15 40h1M17 40h1M19 40h1M16 41h1M18 41h1" />
<path stroke="#fffffd" d="M34 12h1M38 29h1M16 37h1" />
<path stroke="#fffeff" d="M36 13h1M36 20h1M21 24h1M35 27h1M34 29h1M15 30h1M25 30h1" />
<path stroke="#fdffff" d="M34 15h1M32 17h1M35 25h1M29 30h1M32 30h1" />
<path stroke="#c1c0c1" d="M25 17h1M17 19h1M20 32h1M21 41h1" />
<path stroke="#fffffe" d="M30 17h1M21 22h1M33 35h1" />
<path stroke="#c1c3c1" d="M41 18h1M20 24h1M27 30h1M18 37h1M21 40h1" />
<path stroke="#c3c1c1" d="M14 24h1M35 30h1M25 36h1" />
<path stroke="#fffdff" d="M19 26h1M31 35h1" />
<path stroke="#818381" d="M41 26h1" />
<path stroke="#c0c1c1" d="M25 29h1M11 30h1" />
<path stroke="#c1c1c0" d="M34 35h1" />
<path stroke="#ff0000" d="M27 36h1M37 36h1M26 37h1M28 37h1M35 37h2M38 37h1M23 38h1M25 38h1M27 38h1M29 38h1M31 38h1M34 38h4M39 38h1M24 39h1M26 39h1M28 39h1M30 39h1M32 39h1M35 39h4M40 39h1" />
<path stroke="#810000" d="M28 36h2M35 36h2M27 37h1M29 37h3M34 37h1M37 37h1M24 38h1M26 38h1M28 38h1M30 38h1M32 38h2M38 38h1M23 39h1M25 39h1M27 39h1M29 39h1M31 39h1M33 39h1M39 39h1" />
<path stroke="#000081" d="M8 39h1M8 40h1M10 40h2M7 41h1M12 41h2M7 42h1M14 42h2M21 42h2M6 43h1M11 43h1M13 43h1M15 43h2M23 43h1M6 44h1M10 44h1M12 44h1M14 44h1M16 44h1M18 44h2M24 44h1M5 45h1M7 45h1M9 45h1M11 45h1M13 45h1M15 45h1M17 45h1M19 45h1M22 45h2M25 45h1" />
<path stroke="#000083" d="M9 39h1" />
<path stroke="#0000ff" d="M9 40h1M8 41h4M8 42h6M23 42h1M7 43h4M12 43h1M14 43h1M22 43h1M24 43h1M7 44h3M11 44h1M13 44h1M15 44h1M17 44h1M20 44h1M22 44h2M25 44h1M6 45h1M8 45h1M10 45h1M12 45h1M14 45h1M16 45h1M18 45h1M21 45h1M24 45h1M26 45h1" />
<path stroke="#818081" d="M22 41h1" />
<path stroke="#000281" d="M17 43h1" />
<path stroke="#020081" d="M20 43h1" />
<path stroke="#0100ff" d="M21 43h1" />
<path stroke="#0002ff" d="M21 44h1" />
</svg>