<?xml version="1.0" encoding="UTF-8" standalone="no"?>
<!-- Created with Inkscape (http://www.inkscape.org/) -->

<svg
   width="136.85793mm"
   height="38.454235mm"
   viewBox="0 0 136.85793 38.454235"
   version="1.1"
   id="svg1"
   inkscape:version="1.4 (86a8ad7, 2024-10-11)"
   sodipodi:docname="nav_starttag.svg"
   xmlns:inkscape="http://www.inkscape.org/namespaces/inkscape"
   xmlns:sodipodi="http://sodipodi.sourceforge.net/DTD/sodipodi-0.dtd"
   xmlns="http://www.w3.org/2000/svg"
   xmlns:svg="http://www.w3.org/2000/svg">
  <sodipodi:namedview
     id="namedview1"
     pagecolor="#ffffff"
     bordercolor="#000000"
     borderopacity="0.25"
     inkscape:showpageshadow="2"
     inkscape:pageopacity="0.0"
     inkscape:pagecheckerboard="0"
     inkscape:deskcolor="#d1d1d1"
     inkscape:document-units="mm"
     inkscape:lockguides="false"
     inkscape:zoom="0.71891835"
     inkscape:cx="283.06413"
     inkscape:cy="328.96643"
     inkscape:window-width="1920"
     inkscape:window-height="1009"
     inkscape:window-x="-8"
     inkscape:window-y="-8"
     inkscape:window-maximized="1"
     inkscape:current-layer="layer1" />
  <defs
     id="defs1" />
  <g
     inkscape:label="Layer 1"
     inkscape:groupmode="layer"
     id="layer1"
     transform="translate(-0.41840221,0.26879561)">
    <path
       style="font-weight:500;font-stretch:extra-condensed;font-size:69.7899px;line-height:0;font-family:'Archivo ExtraCondensed';-inkscape-font-specification:'Archivo ExtraCondensed, Medium Extra-Condensed';fill:#cc6666;stroke-width:10.6438"
       d="M 25.472977,33.579307 0.41840221,23.041032 V 16.410991 L 25.472977,5.8029258 V 11.944437 L 6.4901237,19.691116 25.472977,27.507585 Z m 8.165407,3.768654 V 0.56868321 h 5.094663 l 0.488529,4.74571329 h 0.27916 q 1.256218,-3.0009657 3.140546,-4.257184 1.954117,-1.32600811 4.466553,-1.32600811 3.559285,0 5.373823,2.16348691 1.814537,2.163487 1.814537,7.11857 V 37.347961 H 48.154684 V 10.688219 q 0,-2.2332769 -0.628109,-3.6988648 -0.628109,-1.465588 -2.721806,-1.465588 -2.233277,0 -3.629075,2.5124365 -1.395798,2.5124363 -1.395798,7.7466793 v 21.565079 z m 33.778253,0.837479 q -3.908234,0 -6.001931,-2.512436 -2.093697,-2.512437 -2.093697,-7.39773 0,-3.489495 1.395798,-6.281091 1.395798,-2.861386 4.815503,-4.536344 3.419705,-1.674957 9.491427,-1.674957 v -5.373823 q 0,-2.582226 -1.046849,-3.978024 -1.046848,-1.465588 -3.140545,-1.465588 -2.861386,0 -3.629075,1.8843274 -0.767689,1.8145374 -0.767689,4.3967636 v 0.488529 h -5.792562 q -0.06979,-0.279159 -0.06979,-0.558319 0,-0.348949 0,-0.767689 0,-5.8623514 3.000966,-8.235208 3.070756,-2.44264661 7.607099,-2.44264661 2.931176,0 5.164453,0.97705863 2.233277,0.97705858 3.489495,3.41970518 1.326008,2.3728567 1.326008,6.6998308 v 19.680752 q 0,2.372857 1.744748,2.372857 h 1.814537 v 4.117604 q -0.907269,0.488529 -2.163487,0.767689 -1.186428,0.348949 -2.442646,0.348949 -2.372857,0 -3.419706,-1.465588 -1.046848,-1.465588 -1.186428,-3.489495 h -0.348949 q -1.046849,2.093697 -2.931176,3.559285 -1.814538,1.465588 -4.815504,1.465588 z m 2.163487,-5.234242 q 1.954118,0 3.698865,-2.233277 1.744748,-2.233277 1.744748,-6.630041 v -4.187394 q -3.908235,0.06979 -5.932142,1.046849 -2.023907,0.977058 -2.721806,2.652016 -0.697899,1.674957 -0.697899,3.698865 0,5.652982 3.908234,5.652982 z m 22.751502,4.396763 -7.04878,-36.77927779 h 6.490461 L 95.262802,21.784813 q 0.13958,0.767689 0.27916,2.163487 0.20937,1.326008 0.348949,2.931176 0.13958,1.605168 0.20937,2.931176 h 0.488529 q 0.06979,-0.20937 0.13958,-1.674958 0.06979,-1.465588 0.20937,-3.280125 0.20937,-1.814537 0.418739,-3.070756 L 100.98557,0.56868321 h 6.07173 L 100.1481,37.347961 Z m 19.890124,-3.768654 v -6.071722 l 19.12243,-7.816469 -19.12243,-7.746679 V 5.8029258 l 25.05457,10.6080652 v 6.630041 z"
       id="text1"
       aria-label="&lt;nav&gt;" />
  </g>
</svg>
