<?xml version="1.0" encoding="UTF-8" standalone="no"?>
<!-- Created with Inkscape (http://www.inkscape.org/) -->

<svg
   width="18.605518mm"
   height="135.46667mm"
   viewBox="0 0 18.605519 135.46667"
   version="1.1"
   id="svg1"
   xml:space="preserve"
   inkscape:version="1.4 (e7c3feb1, 2024-10-09)"
   sodipodi:docname="wordmark_vertical.svg"
   inkscape:export-filename="wordmark_horizontal.png"
   inkscape:export-xdpi="96"
   inkscape:export-ydpi="96"
   xmlns:inkscape="http://www.inkscape.org/namespaces/inkscape"
   xmlns:sodipodi="http://sodipodi.sourceforge.net/DTD/sodipodi-0.dtd"
   xmlns="http://www.w3.org/2000/svg"
   xmlns:svg="http://www.w3.org/2000/svg"><sodipodi:namedview
     id="namedview1"
     pagecolor="#ffffff"
     bordercolor="#000000"
     borderopacity="0.25"
     inkscape:showpageshadow="2"
     inkscape:pageopacity="0.0"
     inkscape:pagecheckerboard="0"
     inkscape:deskcolor="#d1d1d1"
     inkscape:document-units="mm"
     showgrid="false"
     inkscape:zoom="0.55945567"
     inkscape:cx="459.37509"
     inkscape:cy="128.69652"
     inkscape:window-width="1440"
     inkscape:window-height="847"
     inkscape:window-x="0"
     inkscape:window-y="25"
     inkscape:window-maximized="1"
     inkscape:current-layer="svg1" /><defs
     id="defs1" /><g
     inkscape:label="Layer 1"
     inkscape:groupmode="layer"
     id="layer1" /><path
     id="path2"
     d="m 3.73648,2.908654 c 0,-0.444723 0.06073,-0.845619 0.181356,-1.202265 C 4.03888,1.349766 4.220657,1.043458 4.463189,0.787464 4.705299,0.531492 5.015073,0.336254 5.392111,0.201748 5.769149,0.067242 6.213427,0 6.72495,0 c 0.646448,0 1.208306,0.117579 1.686441,0.353158 0.47811,0.235602 0.868588,0.582251 1.171431,1.040414 0.302843,0.457741 0.528448,1.023065 0.676838,1.696437 0.147945,0.673351 0.222139,1.454305 0.222139,2.343309 h 0.807856 c 0.215209,0 0.390478,-0.03037 0.524983,-0.09112 0.134506,-0.06073 0.239067,-0.154876 0.313262,-0.282873 0.07375,-0.127997 0.11107,-0.28636 0.11107,-0.474646 0,-0.161407 -0.03039,-0.309796 -0.09112,-0.44428 C 12.08712,4.005894 11.999904,3.897867 11.885368,3.817164 11.770811,3.736464 11.626331,3.69612 11.451485,3.69612 H 11.289656 V 0.363579 c 0.0538,-0.01344 0.10414,-0.01995 0.151433,-0.01995 0.04685,0 0.09761,0 0.15141,0 0.673351,0 1.255601,0.164872 1.747175,0.494594 0.491151,0.329744 0.871654,0.821317 1.141065,1.474297 0.269011,0.652958 0.403939,1.457348 0.403939,2.413593 0,0.727153 -0.09459,1.413543 -0.282873,2.059991 -0.188308,0.646472 -0.524983,1.171455 -1.009625,1.575372 -0.485043,0.403939 -1.164923,0.606108 -2.040021,0.606108 h -4.44324 c -0.188731,0 -0.347093,0.04687 -0.474647,0.141459 C 6.506276,9.203183 6.4425,9.358084 6.4425,9.573715 V 9.997602 H 4.139977 C 4.01891,9.768509 3.921724,9.482593 3.847552,9.139409 3.773782,8.795781 3.736481,8.43567 3.736481,8.058633 c 0,-0.417379 0.05076,-0.78442 0.150967,-1.100703 C 3.988122,6.641203 4.133024,6.385653 4.321754,6.190415 4.510061,5.995176 4.732201,5.863714 4.988173,5.796472 V 5.695798 C 4.759102,5.52053 4.550402,5.308364 4.362116,5.059323 4.173386,4.810282 4.021954,4.510482 3.90784,4.160346 3.793749,3.810209 3.736481,3.39283 3.736481,2.908654 m 2.625316,1.494224 c 0,0.161407 0.03341,0.309774 0.10065,0.444279 0.06726,0.134506 0.157942,0.245576 0.272476,0.33321 0.114536,0.08763 0.249042,0.151433 0.40394,0.192195 0.154876,0.04036 0.319749,0.06076 0.495038,0.06076 H 8.623557 C 8.623557,4.948257 8.566267,4.571219 8.451731,4.30223 8.337197,4.032797 8.179277,3.847532 7.977086,3.746436 7.774894,3.645363 7.552754,3.595026 7.310666,3.595026 c -0.215187,0 -0.39352,0.03341 -0.534957,0.101096 -0.141437,0.06724 -0.245997,0.161384 -0.313262,0.282873 -0.06724,0.121043 -0.10065,0.262502 -0.10065,0.423887 z"
     style="fill:#ffcc00;fill-opacity:1;fill-rule:nonzero;stroke:none;stroke-width:0.22214" /><path
     id="path3"
     d="m 3.962952,10.891025 h 14.642567 v 3.534289 H 3.962952 Z"
     style="fill:#ffcc00;fill-opacity:1;fill-rule:nonzero;stroke:none;stroke-width:0.22214" /><path
     id="path4"
     d="m 3.73648,20.446613 c 0,-1.023487 0.188731,-1.885145 0.565324,-2.585396 0.376594,-0.700273 0.975771,-1.225257 1.797067,-1.575371 0.821316,-0.350136 1.891674,-0.524983 3.211496,-0.524983 1.33284,0 2.406641,0.188308 3.22145,0.565324 0.814364,0.377037 1.410077,0.912416 1.787092,1.605737 0.377038,0.69332 0.565768,1.531565 0.565768,2.514689 0,1.049966 -0.175291,1.911625 -0.524983,2.584997 -0.350115,0.67335 -0.932365,1.174897 -1.747174,1.504641 -0.814809,0.329744 -1.915534,0.495039 -3.302153,0.495039 H 8.72463 v -5.675405 c -0.565746,0 -1.029996,0.03341 -1.393572,0.101095 -0.363576,0.06724 -0.636476,0.181777 -0.818275,0.343185 -0.181799,0.161407 -0.272476,0.383969 -0.272476,0.666841 0,0.215209 0.03341,0.3905 0.101096,0.524984 0.06726,0.134504 0.168338,0.242531 0.302842,0.323234 0.134506,0.0807 0.302844,0.134507 0.505013,0.161407 0.201748,0.0269 0.437349,0.04034 0.706783,0.04034 v 3.49437 c -0.700274,0 -1.305938,-0.09112 -1.817481,-0.272898 C 5.526616,24.556643 5.099242,24.277236 4.756057,23.900198 4.41243,23.523183 4.15688,23.048513 3.988543,22.476261 3.82065,21.903984 3.73648,21.227591 3.73648,20.446613 m 6.684587,-1.070336 v 2.059991 c 0.363576,0 0.669885,-0.01691 0.918925,-0.05076 0.249041,-0.03383 0.451211,-0.08763 0.606109,-0.161406 0.154453,-0.07417 0.265523,-0.175268 0.333209,-0.302821 0.06724,-0.127996 0.101096,-0.28636 0.101096,-0.474668 0,-0.255972 -0.06769,-0.457719 -0.202192,-0.605664 -0.134505,-0.148389 -0.343183,-0.259458 -0.626056,-0.33321 -0.282895,-0.07419 -0.659911,-0.118023 -1.131091,-0.131462 z"
     style="fill:#ffcc00;fill-opacity:1;fill-rule:nonzero;stroke:none;stroke-width:0.22214" /><path
     id="path5"
     d="m 0,26.422263 h 14.642589 v 2.908653 l -1.29292,0.242088 v 0.101097 c 0.471158,0.255549 0.845153,0.585293 1.121095,0.989654 0.275942,0.403917 0.413913,0.922392 0.413913,1.55498 0,0.767515 -0.212166,1.390106 -0.636053,1.868218 -0.424309,0.478133 -1.060362,0.831291 -1.908581,1.060384 -0.84864,0.22907 -1.898584,0.343628 -3.150742,0.343628 -1.239117,0 -2.262182,-0.11107 -3.070038,-0.33321 C 5.311407,34.935614 4.712229,34.591987 4.321753,34.127737 3.93172,33.663066 3.73648,33.067376 3.73648,32.340223 c 0,-0.377482 0.05727,-0.714157 0.171359,-1.010047 C 4.021953,31.03384 4.179894,30.784799 4.382063,30.583052 4.584255,30.38086 4.819834,30.212523 5.089267,30.07804 V 29.956973 H 0 v -3.53471 m 6.826044,4.484024 c 0,0.242089 0.06378,0.433862 0.191753,0.575298 0.127995,0.141437 0.316726,0.245576 0.565766,0.313262 0.249042,0.06724 0.561858,0.101096 0.939318,0.101096 h 1.716387 c 0.390476,0 0.710247,-0.03385 0.959288,-0.101096 0.249041,-0.06769 0.434283,-0.171825 0.555772,-0.313262 0.121043,-0.141436 0.181799,-0.333209 0.181799,-0.575298 0,-0.242532 -0.06769,-0.437771 -0.202192,-0.585716 -0.134506,-0.148389 -0.329744,-0.249484 -0.585716,-0.303287 -0.255972,-0.0538 -0.578785,-0.0807 -0.969263,-0.0807 h -1.57537 c -0.296334,0 -0.552306,0.01346 -0.767515,0.04036 -0.215632,0.0269 -0.400874,0.07722 -0.555772,0.151411 -0.154899,0.07377 -0.269433,0.174846 -0.343184,0.302843 -0.07419,0.127997 -0.111071,0.28636 -0.111071,0.475089 z"
     style="fill:#ffcc00;fill-opacity:1;fill-rule:nonzero;stroke:none;stroke-width:0.22214" /><path
     id="path6"
     d="m 3.962952,36.884091 h 14.642567 v 3.534289 h -4.988594 v 0.101096 c 0.268989,0.174847 0.494594,0.383524 0.676394,0.626057 0.181799,0.24211 0.323235,0.518052 0.424331,0.827827 0.100652,0.309773 0.151411,0.64647 0.151411,1.010046 0,0.659467 -0.127997,1.181407 -0.383969,1.565376 -0.255994,0.383547 -0.622613,0.662954 -1.100725,0.838245 -0.478111,0.174846 -1.053431,0.262479 -1.72636,0.262479 H 3.962952 v -3.534711 h 6.846415 c 0.147945,0 0.28245,-0.01344 0.403939,-0.04034 0.121044,-0.0269 0.225605,-0.07419 0.313239,-0.141436 0.08766,-0.06726 0.154898,-0.147967 0.201747,-0.242109 0.04687,-0.09459 0.07073,-0.20217 0.07073,-0.323236 0,-0.22907 -0.07766,-0.413891 -0.232114,-0.555349 -0.154898,-0.141438 -0.357089,-0.242532 -0.60613,-0.303266 -0.249019,-0.06073 -0.528448,-0.09068 -0.837778,-0.09068 H 3.962952 Z"
     style="fill:#ffcc00;fill-opacity:1;fill-rule:nonzero;stroke:none;stroke-width:0.22214" /><path
     id="path7"
     d="m 11.998592,48.108349 2.888262,-0.747123 h 2.968943 v 2.888239 h -2.968943 l -2.888262,-0.747543 z"
     style="fill:#ffcc00;fill-opacity:1;fill-rule:nonzero;stroke:none;stroke-width:0.22214" /><path
     id="path8"
     d="m 3.73648,55.871403 c 0,-0.686791 0.07417,-1.289434 0.221696,-1.807485 0.147945,-0.518474 0.360111,-0.952757 0.636053,-1.302895 0.275942,-0.350136 0.609574,-0.616082 1.00005,-0.797881 0.390501,-0.1818 0.841289,-0.272477 1.353233,-0.272477 0.03991,0 0.110647,0.003 0.211743,0.01 0.100652,0.0069 0.19826,0.01691 0.292846,0.03037 v 3.150742 c -0.107603,-0.01346 -0.188285,-0.01997 -0.242087,-0.01997 -0.0538,0 -0.114536,0 -0.181799,0 -0.175269,0 -0.330167,0.04036 -0.464673,0.121045 -0.134482,0.0807 -0.239044,0.194816 -0.313239,0.343205 -0.07419,0.148367 -0.111069,0.330166 -0.111069,0.545353 0,0.147967 0.01995,0.29287 0.06073,0.434307 0.04034,0.141436 0.114535,0.259015 0.222141,0.353601 0.107604,0.09416 0.255972,0.141436 0.444279,0.141436 0.26899,0 0.477689,-0.101073 0.626079,-0.303264 0.148366,-0.202169 0.272899,-0.468137 0.373994,-0.797882 0.100651,-0.329744 0.211722,-0.683346 0.33321,-1.05994 0.09414,-0.336675 0.215186,-0.67335 0.363577,-1.010025 0.147948,-0.336702 0.339721,-0.643011 0.5753,-0.918953 0.235602,-0.275942 0.54191,-0.495038 0.918926,-0.656424 0.377038,-0.161406 0.84171,-0.242109 1.394016,-0.242109 0.646027,0 1.184472,0.111069 1.615289,0.33321 0.43084,0.222139 0.784443,0.528448 1.060385,0.918924 0.27592,0.390478 0.471158,0.834758 0.585716,1.332839 0.114535,0.498083 0.171803,1.02351 0.171803,1.575372 0,0.524983 -0.05727,1.02653 -0.171803,1.504663 -0.114558,0.478111 -0.289404,0.902 -0.524983,1.272529 -0.235602,0.370084 -0.531914,0.659466 -0.888559,0.868167 -0.357068,0.208677 -0.784443,0.313239 -1.282503,0.313239 -0.0807,0 -0.17529,-0.0035 -0.282894,-0.01 -0.107605,-0.0069 -0.201748,-0.01693 -0.282451,-0.03037 v -3.130323 h 0.282451 c 0.174846,0 0.316282,-0.03732 0.423887,-0.111071 0.107604,-0.0742 0.18873,-0.175291 0.242532,-0.303264 0.0538,-0.127999 0.08113,-0.272478 0.08113,-0.433884 0,-0.08113 -0.0069,-0.168761 -0.02037,-0.262925 -0.01346,-0.09457 -0.04729,-0.185243 -0.101096,-0.272898 -0.0538,-0.08763 -0.121488,-0.157921 -0.202191,-0.211722 -0.0807,-0.0538 -0.181777,-0.0807 -0.302399,-0.0807 -0.215631,0 -0.387456,0.08417 -0.515431,0.252505 -0.127997,0.16836 -0.235601,0.393521 -0.323236,0.676417 -0.08763,0.282871 -0.191773,0.592646 -0.312817,0.929344 -0.09459,0.349691 -0.205657,0.716733 -0.333209,1.10028 -0.127998,0.383524 -0.302844,0.740614 -0.524984,1.070337 -0.222139,0.329743 -0.518474,0.595711 -0.888981,0.79788 -0.37053,0.202193 -0.844753,0.303288 -1.423516,0.303288 -0.700274,0 -1.289455,-0.108049 -1.767588,-0.323236 C 5.287556,59.675127 4.897079,59.368819 4.594236,58.971833 4.291392,58.574401 4.072718,58.113196 3.938235,57.588233 3.803729,57.063251 3.736487,56.490974 3.736487,55.871405 Z"
     style="fill:#ffcc00;fill-opacity:1;fill-rule:nonzero;stroke:none;stroke-width:0.22214" /><path
     id="path9"
     d="m 3.97075,66.151452 10.66402,-2.666116 v 3.696114 l -3.655755,0.565321 c -0.18873,0.04036 -0.444724,0.07724 -0.767515,0.111071 -0.323235,0.03388 -0.663376,0.0742 -1.020021,0.121491 -0.357068,0.04685 -0.676839,0.09068 -0.959289,0.131038 v 0.16183 c 0.28245,0.05378 0.588759,0.09719 0.918504,0.13102 0.329744,0.03388 0.65298,0.07419 0.969684,0.121485 0.316305,0.04685 0.595712,0.09068 0.838245,0.131019 l 3.676147,0.606106 v 3.716089 l -3.676147,0.565749 c -0.175291,0.03992 -0.424332,0.07679 -0.747123,0.110642 -0.323235,0.03381 -0.65991,0.07767 -1.010048,0.131467 -0.350114,0.05378 -0.673349,0.09459 -0.969262,0.121485 v 0.181778 c 0.25555,0.02689 0.548419,0.06033 0.878163,0.10065 0.329722,0.04036 0.659911,0.08417 0.989633,0.131466 0.329744,0.04685 0.616104,0.09068 0.858637,0.13146 l 3.676147,0.60569 v 3.292177 L 3.97075,75.68438 v -3.65577 l 3.736479,-0.686373 c 0.201747,-0.05428 0.4473,-0.101536 0.736705,-0.141881 0.289381,-0.04036 0.585716,-0.07721 0.888559,-0.111064 0.30282,-0.03382 0.56228,-0.06378 0.777911,-0.09068 V 70.837205 C 9.881334,70.823355 9.618831,70.796405 9.322497,70.756085 9.026184,70.715725 8.736781,70.675375 8.453908,70.63504 8.171035,70.59468 7.922416,70.54741 7.707229,70.493606 L 3.97075,69.827181 Z"
     style="fill:#ffcc00;fill-opacity:1;fill-rule:nonzero;stroke:none;stroke-width:0.22214" /><path
     id="path10"
     d="m 3.73648,83.561219 c 0,-1.023488 0.188731,-1.885147 0.565324,-2.585397 0.376594,-0.700276 0.975771,-1.225259 1.797067,-1.575372 0.821316,-0.350137 1.891674,-0.524983 3.211496,-0.524983 1.33284,0 2.406641,0.188283 3.22145,0.565321 0.814364,0.377038 1.410077,0.912418 1.787092,1.605741 0.377038,0.693318 0.565768,1.531565 0.565768,2.51469 0,1.049966 -0.175291,1.911624 -0.524983,2.584993 -0.350115,0.67335 -0.932365,1.174897 -1.747174,1.504645 -0.814809,0.329742 -1.915534,0.495035 -3.302153,0.495035 H 8.72463 v -5.675406 c -0.565746,0 -1.029996,0.03344 -1.393572,0.101097 -0.363576,0.06724 -0.636476,0.181778 -0.818275,0.343186 -0.181799,0.161382 -0.272476,0.383964 -0.272476,0.666839 0,0.215208 0.03341,0.390475 0.101096,0.524983 0.06726,0.134508 0.168338,0.24253 0.302842,0.323238 0.134506,0.0807 0.302844,0.134501 0.505013,0.161407 0.201748,0.02689 0.437349,0.04036 0.706783,0.04036 v 3.49437 c -0.700274,0 -1.305938,-0.09112 -1.817481,-0.2729 C 5.526616,87.671269 5.099242,87.391864 4.756057,87.014826 4.41243,86.637787 4.15688,86.163142 3.988543,85.590888 3.82065,85.018609 3.73648,84.342217 3.73648,83.561241 m 6.684587,-1.070333 v 2.059991 c 0.363576,0 0.669885,-0.01694 0.918925,-0.05075 0.249041,-0.03382 0.451211,-0.08764 0.606109,-0.161411 0.154453,-0.07417 0.265523,-0.175268 0.333209,-0.302824 0.06724,-0.127997 0.101096,-0.286357 0.101096,-0.474665 0,-0.255973 -0.06769,-0.457719 -0.202192,-0.605665 -0.134505,-0.148392 -0.343183,-0.259463 -0.626056,-0.333212 -0.282895,-0.0742 -0.659911,-0.118022 -1.131091,-0.13146 z"
     style="fill:#ffcc00;fill-opacity:1;fill-rule:nonzero;stroke:none;stroke-width:0.22214" /><path
     id="path11"
     d="m 3.720842,95.333336 c 0,-0.632583 0.13797,-1.157989 0.413491,-1.575371 C 4.410275,93.340589 4.783826,93.010399 5.25545,92.76831 V 92.66766 L 3.962952,92.445519 v -2.908653 h 14.642567 v 3.534708 h -5.109638 v 0.12107 c 0.268989,0.134483 0.508056,0.302817 0.716734,0.505009 0.208701,0.201752 0.370085,0.450788 0.484643,0.747124 0.114535,0.295891 0.171803,0.632566 0.171803,1.010052 0,0.727151 -0.195239,1.32284 -0.585716,1.787513 -0.390478,0.46425 -0.989655,0.807852 -1.797511,1.029993 -0.807856,0.222141 -1.831365,0.333212 -3.070039,0.333212 -1.252157,0 -2.302546,-0.114534 -3.150741,-0.343608 C 5.416835,98.032846 4.780782,97.679692 4.356895,97.201557 3.933008,96.723442 3.720842,96.100851 3.720842,95.333337 m 2.948129,-1.312445 c 0,0.242089 0.06031,0.433861 0.181798,0.575295 0.121044,0.14144 0.309352,0.245578 0.565324,0.313263 0.255994,0.06724 0.572277,0.101097 0.949736,0.101097 h 1.716808 c 0.390477,0 0.706782,-0.03388 0.94887,-0.101097 0.242087,-0.06769 0.427352,-0.171823 0.555349,-0.313264 0.127997,-0.141434 0.192196,-0.333206 0.192196,-0.575294 0,-0.188731 -0.0373,-0.347098 -0.11107,-0.475093 -0.07417,-0.127997 -0.18873,-0.229068 -0.343606,-0.302842 -0.154898,-0.0742 -0.340163,-0.124509 -0.55535,-0.151409 -0.215631,-0.02689 -0.471624,-0.04036 -0.767515,-0.04036 H 8.42614 c -0.377037,0 -0.696786,0.02689 -0.959288,0.0807 -0.262925,0.05378 -0.461629,0.154903 -0.596135,0.303289 -0.134484,0.147946 -0.201746,0.343186 -0.201746,0.585717 z"
     style="fill:#ffcc00;fill-opacity:1;fill-rule:nonzero;stroke:none;stroke-width:0.22214" /><path
     id="path12"
     d="m 3.73648,103.81868 c 0,-0.68681 0.07417,-1.28946 0.221696,-1.80749 0.147945,-0.51847 0.360111,-0.95278 0.636053,-1.30289 0.275942,-0.35014 0.609574,-0.61611 1.00005,-0.797884 0.390501,-0.181797 0.841289,-0.272479 1.353233,-0.272479 0.03991,0 0.110647,0.0031 0.211743,0.0099 0.100652,0.0069 0.19826,0.01694 0.292846,0.03041 v 3.150723 c -0.107603,-0.0134 -0.188285,-0.02 -0.242087,-0.02 -0.0538,0 -0.114536,0 -0.181799,0 -0.175269,0 -0.330167,0.0404 -0.464673,0.12105 -0.134482,0.0807 -0.239044,0.19481 -0.313239,0.34318 -0.07419,0.14839 -0.111069,0.33019 -0.111069,0.54538 0,0.14794 0.01995,0.29286 0.06073,0.4343 0.04034,0.14144 0.114535,0.25901 0.222141,0.3536 0.107604,0.0941 0.255972,0.14144 0.444279,0.14144 0.26899,0 0.477689,-0.1011 0.626079,-0.30326 0.148366,-0.2022 0.272899,-0.46815 0.373994,-0.79789 0.100651,-0.32974 0.211722,-0.68335 0.33321,-1.05994 0.09414,-0.33667 0.215186,-0.67335 0.363577,-1.01005 0.147948,-0.33658 0.339721,-0.64289 0.5753,-0.91883 0.235602,-0.27594 0.54191,-0.49504 0.918926,-0.65645 0.377038,-0.161383 0.84171,-0.242083 1.394016,-0.242083 0.646027,0 1.184472,0.11107 1.615289,0.333203 0.43084,0.22214 0.784443,0.52845 1.060385,0.91893 0.27592,0.39048 0.471158,0.83476 0.585716,1.33284 0.114535,0.49808 0.171803,1.02348 0.171803,1.57537 0,0.52499 -0.05727,1.02653 -0.171803,1.50464 -0.114558,0.47814 -0.289404,0.90202 -0.524983,1.27255 -0.235602,0.37009 -0.531914,0.65947 -0.888559,0.86817 -0.357068,0.20868 -0.784443,0.31324 -1.282503,0.31324 -0.0807,0 -0.17529,-0.003 -0.282894,-0.01 -0.107605,-0.007 -0.201748,-0.0169 -0.282451,-0.0303 v -3.13036 h 0.282451 c 0.174846,0 0.316282,-0.0373 0.423887,-0.11107 0.107604,-0.0742 0.18873,-0.17528 0.242532,-0.30328 0.0538,-0.12798 0.08113,-0.27246 0.08113,-0.43386 0,-0.0811 -0.0069,-0.16876 -0.02037,-0.26293 -0.01346,-0.0946 -0.04729,-0.18526 -0.101096,-0.2729 -0.0538,-0.0876 -0.121488,-0.15792 -0.202191,-0.21172 -0.0807,-0.0538 -0.181777,-0.0807 -0.302399,-0.0807 -0.215631,0 -0.387456,0.0842 -0.515431,0.25251 -0.127997,0.16833 -0.235601,0.39351 -0.323236,0.67639 -0.08763,0.28289 -0.191773,0.59267 -0.312817,0.92934 -0.09459,0.34972 -0.205657,0.71676 -0.333209,1.10031 -0.127998,0.38352 -0.302844,0.74059 -0.524984,1.07033 -0.222139,0.32974 -0.518474,0.59571 -0.888981,0.79789 -0.37053,0.20218 -0.844753,0.30328 -1.423516,0.30328 -0.700274,0 -1.289455,-0.10805 -1.767588,-0.32323 -0.478112,-0.21563 -0.868589,-0.52194 -1.171432,-0.91893 -0.302844,-0.39743 -0.521518,-0.85864 -0.656001,-1.38362 -0.134506,-0.52496 -0.201748,-1.09724 -0.201748,-1.71681 z"
     style="fill:#ffcc00;fill-opacity:1;fill-rule:nonzero;stroke:none;stroke-width:0.22214" /><path
     id="path13"
     d="m 15.879108,109.53162 h 2.726411 v 3.53429 h -2.726411 v -3.53429 m -11.916156,0 h 10.664021 v 3.53429 H 3.962952 Z"
     style="fill:#ffcc00;fill-opacity:1;fill-rule:nonzero;stroke:none;stroke-width:0.22214" /><path
     id="path14"
     d="m 3.718243,118.09269 c 0,-0.55232 0.0807,-1.03694 0.242109,-1.45433 0.161386,-0.41737 0.430397,-0.74061 0.807412,-0.9697 0.377039,-0.22907 0.875119,-0.34319 1.49469,-0.34319 h 5.655435 v -1.09072 h 2.706462 v 1.21177 l 3.231446,0.66686 v 2.74681 h -3.231446 v 1.53458 h -2.706462 v -1.53458 H 7.433887 c -0.323236,0 -0.565768,0.0434 -0.727154,0.13103 -0.161406,0.0876 -0.242109,0.27941 -0.242109,0.57575 v 0.8278 H 4.061005 c -0.06724,-0.25597 -0.130597,-0.52194 -0.191329,-0.79788 -0.06031,-0.27592 -0.100674,-0.53842 -0.121066,-0.78746 -0.01995,-0.24905 -0.03036,-0.48809 -0.03036,-0.71674 z"
     style="fill:#ffcc00;fill-opacity:1;fill-rule:nonzero;stroke:none;stroke-width:0.22214" /><path
     id="path15"
     d="m 3.73648,126.05478 c 0,-1.02349 0.188731,-1.88514 0.565324,-2.58539 0.376594,-0.70028 0.975771,-1.22526 1.797067,-1.57538 0.821316,-0.35013 1.891674,-0.52498 3.211496,-0.52498 1.33284,0 2.406641,0.18829 3.22145,0.56533 0.814364,0.37703 1.410077,0.91241 1.787092,1.60573 0.377038,0.69332 0.565768,1.53157 0.565768,2.51469 0,1.04997 -0.175291,1.91163 -0.524983,2.585 -0.350115,0.67335 -0.932365,1.1749 -1.747174,1.50464 -0.814809,0.32974 -1.915534,0.49504 -3.302153,0.49504 H 8.72463 v -5.6754 c -0.565746,0 -1.029996,0.0334 -1.393572,0.10109 -0.363576,0.0672 -0.636476,0.18177 -0.818275,0.34318 -0.181799,0.16138 -0.272476,0.38397 -0.272476,0.66684 0,0.21522 0.03341,0.39048 0.101096,0.52498 0.06726,0.13451 0.168338,0.24254 0.302842,0.32324 0.134506,0.0807 0.302844,0.13451 0.505013,0.16141 0.201748,0.0269 0.437349,0.0404 0.706783,0.0404 v 3.49437 c -0.700274,0 -1.305938,-0.0911 -1.817481,-0.27292 C 5.526616,130.16488 5.099242,129.88547 4.756057,129.50843 4.41243,129.13139 4.15688,128.65675 3.988543,128.08449 3.82065,127.51222 3.73648,126.83582 3.73648,126.05485 m 6.684587,-1.07038 v 2.05999 c 0.363576,0 0.669885,-0.0169 0.918925,-0.0508 0.249041,-0.0338 0.451211,-0.0876 0.606109,-0.16141 0.154453,-0.0742 0.265523,-0.17527 0.333209,-0.30282 0.06724,-0.128 0.101096,-0.28636 0.101096,-0.47467 0,-0.25597 -0.06769,-0.45772 -0.202192,-0.60566 -0.134505,-0.14839 -0.343183,-0.25946 -0.626056,-0.33321 -0.282895,-0.0742 -0.659911,-0.11803 -1.131091,-0.13146 z"
     style="fill:#ffcc00;fill-opacity:1;fill-rule:nonzero;stroke:none;stroke-width:0.22214" /><path
     id="path16"
     d="m 3.964263,132.11373 h 3.756406 v 3.35294 H 3.964263 Z"
     style="fill:#ffcc00;fill-opacity:1;fill-rule:nonzero;stroke:none;stroke-width:0.22214" /></svg>
