<?xml version="1.0" encoding="UTF-8" standalone="no"?>
<!-- Created with Inkscape (http://www.inkscape.org/) -->

<svg
   width="28.281466mm"
   height="11.637941mm"
   viewBox="0 0 28.281466 11.637941"
   version="1.1"
   id="svg1"
   sodipodi:docname="about.svg"
   inkscape:version="1.4 (e7c3feb1, 2024-10-09)"
   xmlns:inkscape="http://www.inkscape.org/namespaces/inkscape"
   xmlns:sodipodi="http://sodipodi.sourceforge.net/DTD/sodipodi-0.dtd"
   xmlns="http://www.w3.org/2000/svg"
   xmlns:svg="http://www.w3.org/2000/svg">
  <sodipodi:namedview
     id="namedview1"
     pagecolor="#ffffff"
     bordercolor="#000000"
     borderopacity="0.25"
     inkscape:showpageshadow="2"
     inkscape:pageopacity="0.0"
     inkscape:pagecheckerboard="0"
     inkscape:deskcolor="#d1d1d1"
     inkscape:document-units="mm"
     inkscape:zoom="2.9647587"
     inkscape:cx="35.247388"
     inkscape:cy="1.3491823"
     inkscape:window-width="1440"
     inkscape:window-height="847"
     inkscape:window-x="0"
     inkscape:window-y="25"
     inkscape:window-maximized="1"
     inkscape:current-layer="layer1" />
  <defs
     id="defs1" />
  <g
     inkscape:label="Layer 1"
     inkscape:groupmode="layer"
     id="layer1"
     transform="translate(-127.52917,-105.56874)">
    <path
       id="path42"
       style="stroke-width:0.513794;paint-order:markers fill stroke"
       inkscape:label="head"
       d="m 139.16712,111.38771 a 5.8189707,5.8189707 0 0 1 -5.81898,5.81897 5.8189707,5.8189707 0 0 1 -5.81897,-5.81897 5.8189707,5.8189707 0 0 1 5.81897,-5.81897 5.8189707,5.8189707 0 0 1 5.81898,5.81897 z" />
    <path
       id="rect42"
       style="stroke-width:0.513794;paint-order:markers fill stroke"
       d="m 143.3036,106.24016 h 7.94513 c 2.10781,0 3.80471,1.6969 3.80471,3.80471 v 2.68568 c 0,2.10781 -1.6969,3.80471 -3.80471,3.80471 h -7.94513 c -2.10781,0 -3.80471,-1.6969 -3.80471,-3.80471 v -2.68568 c 0,-2.10781 1.6969,-3.80471 3.80471,-3.80471 z" />
    <path
       id="rect43"
       style="stroke-width:0.282427;paint-order:markers fill stroke"
       d="m 151.1107,106.24016 h 4.69994 v 10.2951 h -4.69994 z" />
    <path
       style="font-weight:bold;font-size:8.2392px;font-family:'Helvetica Neue';-inkscape-font-specification:'Helvetica Neue Bold';fill:#ffffff;stroke-width:4.25323;paint-order:markers fill stroke"
       d="m 129.89452,111.03988 q 0.0247,-0.41196 0.20598,-0.68385 0.18126,-0.27189 0.4614,-0.43668 0.28013,-0.16478 0.62617,-0.23069 0.35429,-0.0742 0.70858,-0.0742 0.32132,0 0.65089,0.0494 0.32957,0.0412 0.60146,0.17302 0.2719,0.13183 0.44492,0.37076 0.17302,0.2307 0.17302,0.61794 v 2.21635 q 0,0.28837 0.033,0.55203 0.033,0.26365 0.11535,0.39548 h -1.18645 q -0.0329,-0.0989 -0.0577,-0.19774 -0.0165,-0.10711 -0.0247,-0.21422 -0.28013,0.28837 -0.65913,0.40372 -0.37901,0.11535 -0.77449,0.11535 -0.30485,0 -0.5685,-0.0742 -0.26366,-0.0742 -0.4614,-0.23069 -0.19774,-0.15655 -0.31309,-0.39549 -0.10711,-0.23893 -0.10711,-0.5685 0,-0.36252 0.12359,-0.59322 0.13183,-0.23894 0.32957,-0.37901 0.20598,-0.14006 0.46139,-0.20598 0.26366,-0.0742 0.52731,-0.11534 0.26366,-0.0412 0.51907,-0.0659 0.25542,-0.0247 0.45316,-0.0742 0.19774,-0.0494 0.31309,-0.14007 0.11535,-0.0989 0.10711,-0.28013 0,-0.1895 -0.0659,-0.29661 -0.0577,-0.11535 -0.16478,-0.17302 -0.0989,-0.0659 -0.23894,-0.0824 -0.13182,-0.0247 -0.28837,-0.0247 -0.34604,0 -0.54379,0.1483 -0.19774,0.14831 -0.23069,0.49435 z m 2.70246,0.86512 q -0.0742,0.0659 -0.1895,0.10711 -0.10711,0.033 -0.23894,0.0577 -0.12359,0.0247 -0.26366,0.0412 -0.14006,0.0165 -0.28013,0.0412 -0.13182,0.0247 -0.26365,0.0659 -0.12359,0.0412 -0.22246,0.11535 -0.0906,0.0659 -0.14831,0.17302 -0.0577,0.10711 -0.0577,0.27189 0,0.15655 0.0577,0.26366 0.0577,0.10711 0.15655,0.17302 0.0989,0.0577 0.2307,0.0824 0.13182,0.0247 0.27189,0.0247 0.34605,0 0.53555,-0.11535 0.1895,-0.11535 0.28013,-0.27189 0.0906,-0.16478 0.10711,-0.32957 0.0247,-0.16478 0.0247,-0.26365 z m 5.19893,-0.0412 q 0,0.26366 -0.0577,0.51083 -0.0577,0.24718 -0.18126,0.43668 -0.12359,0.1895 -0.31309,0.30485 -0.18126,0.10711 -0.44492,0.10711 -0.25541,0 -0.44491,-0.10711 -0.1895,-0.11535 -0.31309,-0.30485 -0.12359,-0.1895 -0.18126,-0.43668 -0.0577,-0.24717 -0.0577,-0.51083 0,-0.27189 0.0577,-0.51907 0.0577,-0.24717 0.18126,-0.43667 0.12359,-0.18951 0.31309,-0.29661 0.1895,-0.11535 0.44491,-0.11535 0.26366,0 0.44492,0.11535 0.1895,0.1071 0.31309,0.29661 0.12359,0.1895 0.18126,0.43667 0.0577,0.24718 0.0577,0.51907 z m -3.12266,-3.75707 v 5.88279 h 1.11229 v -0.54379 h 0.0165 q 0.1895,0.35429 0.56027,0.50259 0.37076,0.14831 0.8404,0.14831 0.32132,0 0.63441,-0.13183 0.31309,-0.13183 0.56027,-0.40372 0.25541,-0.27189 0.41196,-0.69209 0.15654,-0.42844 0.15654,-1.01343 0,-0.58498 -0.15654,-1.00518 -0.15655,-0.42844 -0.41196,-0.70033 -0.24718,-0.27189 -0.56027,-0.40372 -0.31309,-0.13183 -0.63441,-0.13183 -0.39549,0 -0.76625,0.15655 -0.36252,0.1483 -0.57674,0.47787 h -0.0165 v -2.14219 z m 6.07229,3.75707 q 0,-0.25541 0.0494,-0.50259 0.0494,-0.24717 0.16478,-0.43668 0.12359,-0.1895 0.32133,-0.30485 0.19774,-0.12358 0.49435,-0.12358 0.29661,0 0.49435,0.12358 0.20598,0.11535 0.32133,0.30485 0.12359,0.18951 0.17303,0.43668 0.0494,0.24718 0.0494,0.50259 0,0.25542 -0.0494,0.50259 -0.0494,0.23894 -0.17303,0.43668 -0.11535,0.1895 -0.32133,0.30485 -0.19774,0.11535 -0.49435,0.11535 -0.29661,0 -0.49435,-0.11535 -0.19774,-0.11535 -0.32133,-0.30485 -0.11535,-0.19774 -0.16478,-0.43668 -0.0494,-0.24717 -0.0494,-0.50259 z m -1.16996,0 q 0,0.51083 0.15654,0.92279 0.15654,0.41196 0.44492,0.70858 0.28837,0.28837 0.69209,0.44491 0.40372,0.15655 0.90631,0.15655 0.50259,0 0.90631,-0.15655 0.41196,-0.15654 0.70034,-0.44491 0.28837,-0.29662 0.44491,-0.70858 0.15655,-0.41196 0.15655,-0.92279 0,-0.51083 -0.15655,-0.92279 -0.15654,-0.4202 -0.44491,-0.70857 -0.28838,-0.29661 -0.70034,-0.45315 -0.40372,-0.16479 -0.90631,-0.16479 -0.50259,0 -0.90631,0.16479 -0.40372,0.15654 -0.69209,0.45315 -0.28838,0.28837 -0.44492,0.70857 -0.15654,0.41196 -0.15654,0.92279 z m 9.16199,2.12572 v -4.25967 h -1.16997 v 2.23282 q 0,0.6509 -0.21422,0.93927 -0.21422,0.28014 -0.69209,0.28014 -0.4202,0 -0.58499,-0.25542 -0.16478,-0.26365 -0.16478,-0.79096 v -2.40585 h -1.16997 v 2.62007 q 0,0.39548 0.0659,0.72505 0.0742,0.32132 0.24717,0.55202 0.17303,0.22246 0.46964,0.34605 0.30485,0.12359 0.77448,0.12359 0.37077,0 0.72505,-0.16479 0.35429,-0.16478 0.57675,-0.53555 h 0.0247 v 0.59323 z m 2.37289,-4.25967 v -1.27707 h -1.16997 v 1.27707 h -0.70857 v 0.78272 h 0.70857 v 2.51296 q 0,0.32133 0.10711,0.51907 0.10711,0.19774 0.28838,0.30485 0.1895,0.10711 0.42843,0.14007 0.24718,0.0412 0.51907,0.0412 0.17303,0 0.35429,-0.008 0.18126,-0.008 0.32957,-0.0329 v -0.90631 q -0.0824,0.0165 -0.17303,0.0247 -0.0906,0.008 -0.1895,0.008 -0.29661,0 -0.39548,-0.0989 -0.0989,-0.0989 -0.0989,-0.39548 v -2.10924 h 0.85688 v -0.78272 z"
       id="text40-0"
       inkscape:label="about"
       aria-label="about" />
  </g>
</svg>
