<?xml version="1.0" encoding="UTF-8" standalone="no"?>
<!-- Created with Inkscape (http://www.inkscape.org/) -->

<svg
   width="15.33077mm"
   height="4.3642201mm"
   viewBox="0 0 15.33077 4.36422"
   version="1.1"
   id="svg1"
   sodipodi:docname="char.svg"
   inkscape:version="1.2.2 (b0a8486541, 2022-12-01)"
   xmlns:inkscape="http://www.inkscape.org/namespaces/inkscape"
   xmlns:sodipodi="http://sodipodi.sourceforge.net/DTD/sodipodi-0.dtd"
   xmlns="http://www.w3.org/2000/svg"
   xmlns:svg="http://www.w3.org/2000/svg">
  <sodipodi:namedview
     id="namedview1"
     pagecolor="#ffffff"
     bordercolor="#000000"
     borderopacity="0.25"
     inkscape:showpageshadow="2"
     inkscape:pageopacity="0.0"
     inkscape:pagecheckerboard="0"
     inkscape:deskcolor="#d1d1d1"
     inkscape:document-units="mm"
     inkscape:zoom="2.9647587"
     inkscape:cx="4.8907859"
     inkscape:cy="10.624811"
     inkscape:window-width="1853"
     inkscape:window-height="1026"
     inkscape:window-x="0"
     inkscape:window-y="26"
     inkscape:window-maximized="1"
     inkscape:current-layer="layer1"
     showgrid="false" />
  <defs
     id="defs1" />
  <g
     inkscape:label="Layer 1"
     inkscape:groupmode="layer"
     id="layer1"
     transform="translate(-116.94583,-136.52499)">
    <path
       style="fill:#000000;stroke:none;stroke-width:0.513794;stroke-opacity:1;paint-order:markers fill stroke"
       d="m 117.16964,136.8607 15.10696,-0.33571 -0.44762,4.25232 -14.88315,0.1119 z"
       id="path50-8"
       inkscape:label="video shape" />
    <g
       aria-label="characters"
       id="text272"
       style="font-size:2.8966px;fill:#ffffff;stroke-width:0.241383">
      <path
         d="m 118.75481,139.04948 h 0.40263 q -0.009,-0.14483 -0.0695,-0.24911 -0.0608,-0.10718 -0.15932,-0.17669 -0.0956,-0.0724 -0.22014,-0.10718 -0.12165,-0.0348 -0.2549,-0.0348 -0.18248,0 -0.32442,0.0608 -0.14193,0.0608 -0.24042,0.1709 -0.0985,0.10717 -0.15062,0.2578 -0.0492,0.14772 -0.0492,0.32152 0,0.168 0.055,0.30994 0.055,0.13903 0.15352,0.24041 0.0985,0.10138 0.23753,0.15932 0.14193,0.055 0.30993,0.055 0.29835,0 0.48953,-0.15641 0.19117,-0.15642 0.23173,-0.45477 h -0.39684 q -0.0203,0.13904 -0.10138,0.22304 -0.0782,0.0811 -0.22593,0.0811 -0.0956,0 -0.16221,-0.0435 -0.0666,-0.0435 -0.10718,-0.11007 -0.0376,-0.0695 -0.055,-0.15352 -0.0174,-0.084 -0.0174,-0.1651 0,-0.084 0.0174,-0.16801 0.0174,-0.0869 0.0579,-0.15641 0.0435,-0.0724 0.11007,-0.11587 0.0666,-0.0463 0.16511,-0.0463 0.26359,0 0.30414,0.2578 z"
         style="font-weight:bold;font-family:'Helvetica Neue';-inkscape-font-specification:'Helvetica Neue Bold'"
         id="path276" />
      <path
         d="m 119.39785,137.95166 v 2.06818 h 0.41132 v -0.78498 q 0,-0.22883 0.0753,-0.32732 0.0753,-0.10138 0.24332,-0.10138 0.14772,0 0.20565,0.0927 0.0579,0.0898 0.0579,0.27518 v 0.84581 h 0.41131 v -0.92112 q 0,-0.13904 -0.0261,-0.25201 -0.0232,-0.11586 -0.084,-0.19407 -0.0608,-0.0811 -0.168,-0.12455 -0.10428,-0.0463 -0.26938,-0.0463 -0.11587,0 -0.23753,0.0608 -0.12165,0.0579 -0.19986,0.18828 h -0.009 v -0.77919 z"
         style="font-weight:bold;font-family:'Helvetica Neue';-inkscape-font-specification:'Helvetica Neue Bold'"
         id="path278" />
      <path
         d="m 121.09816,138.98285 q 0.009,-0.14483 0.0724,-0.24041 0.0637,-0.0956 0.16221,-0.15352 0.0985,-0.0579 0.22014,-0.0811 0.12456,-0.0261 0.24911,-0.0261 0.11297,0 0.22883,0.0174 0.11587,0.0145 0.21145,0.0608 0.0956,0.0464 0.15642,0.13035 0.0608,0.0811 0.0608,0.21724 v 0.77919 q 0,0.10138 0.0116,0.19407 0.0116,0.0927 0.0406,0.13904 h -0.41711 q -0.0116,-0.0348 -0.0203,-0.0695 -0.006,-0.0377 -0.009,-0.0753 -0.0985,0.10138 -0.23173,0.14193 -0.13324,0.0405 -0.27228,0.0405 -0.10717,0 -0.19986,-0.0261 -0.0927,-0.0261 -0.16221,-0.0811 -0.0695,-0.055 -0.11007,-0.13904 -0.0377,-0.084 -0.0377,-0.19986 0,-0.12745 0.0434,-0.20856 0.0464,-0.084 0.11586,-0.13324 0.0724,-0.0493 0.16221,-0.0724 0.0927,-0.0261 0.18539,-0.0405 0.0927,-0.0145 0.18248,-0.0232 0.0898,-0.009 0.15932,-0.0261 0.0695,-0.0174 0.11007,-0.0492 0.0406,-0.0348 0.0377,-0.0985 0,-0.0666 -0.0232,-0.10428 -0.0203,-0.0405 -0.0579,-0.0608 -0.0348,-0.0232 -0.084,-0.029 -0.0464,-0.009 -0.10139,-0.009 -0.12165,0 -0.19117,0.0521 -0.0695,0.0521 -0.0811,0.17379 z m 0.95008,0.30415 q -0.0261,0.0232 -0.0666,0.0376 -0.0377,0.0116 -0.084,0.0203 -0.0435,0.009 -0.0927,0.0145 -0.0492,0.006 -0.0985,0.0145 -0.0463,0.009 -0.0927,0.0232 -0.0434,0.0145 -0.0782,0.0405 -0.0319,0.0232 -0.0521,0.0608 -0.0203,0.0377 -0.0203,0.0956 0,0.055 0.0203,0.0927 0.0203,0.0376 0.055,0.0608 0.0348,0.0203 0.0811,0.029 0.0463,0.009 0.0956,0.009 0.12166,0 0.18828,-0.0405 0.0666,-0.0406 0.0985,-0.0956 0.0319,-0.0579 0.0376,-0.11586 0.009,-0.0579 0.009,-0.0927 z"
         style="font-weight:bold;font-family:'Helvetica Neue';-inkscape-font-specification:'Helvetica Neue Bold'"
         id="path280" />
      <path
         d="m 122.77818,138.52229 v 1.49755 h 0.41132 v -0.67491 q 0,-0.10138 0.0203,-0.18828 0.0203,-0.0869 0.0666,-0.15062 0.0492,-0.0666 0.12745,-0.10428 0.0782,-0.0377 0.19117,-0.0377 0.0377,0 0.0782,0.006 0.0406,0.003 0.0695,0.009 v -0.38236 q -0.0492,-0.0145 -0.0898,-0.0145 -0.0782,0 -0.15063,0.0232 -0.0724,0.0232 -0.13614,0.0666 -0.0637,0.0405 -0.11296,0.10138 -0.0493,0.0579 -0.0782,0.12745 h -0.006 v -0.27808 z"
         style="font-weight:bold;font-family:'Helvetica Neue';-inkscape-font-specification:'Helvetica Neue Bold'"
         id="path282" />
      <path
         d="m 123.88758,138.98285 q 0.009,-0.14483 0.0724,-0.24041 0.0637,-0.0956 0.16221,-0.15352 0.0985,-0.0579 0.22014,-0.0811 0.12455,-0.0261 0.2491,-0.0261 0.11297,0 0.22884,0.0174 0.11586,0.0145 0.21145,0.0608 0.0956,0.0464 0.15641,0.13035 0.0608,0.0811 0.0608,0.21724 v 0.77919 q 0,0.10138 0.0116,0.19407 0.0116,0.0927 0.0405,0.13904 h -0.41711 q -0.0116,-0.0348 -0.0203,-0.0695 -0.006,-0.0377 -0.009,-0.0753 -0.0985,0.10138 -0.23173,0.14193 -0.13325,0.0405 -0.27228,0.0405 -0.10718,0 -0.19987,-0.0261 -0.0927,-0.0261 -0.16221,-0.0811 -0.0695,-0.055 -0.11007,-0.13904 -0.0376,-0.084 -0.0376,-0.19986 0,-0.12745 0.0434,-0.20856 0.0464,-0.084 0.11587,-0.13324 0.0724,-0.0493 0.16221,-0.0724 0.0927,-0.0261 0.18538,-0.0405 0.0927,-0.0145 0.18249,-0.0232 0.0898,-0.009 0.15931,-0.0261 0.0695,-0.0174 0.11007,-0.0492 0.0405,-0.0348 0.0377,-0.0985 0,-0.0666 -0.0232,-0.10428 -0.0203,-0.0405 -0.0579,-0.0608 -0.0348,-0.0232 -0.084,-0.029 -0.0464,-0.009 -0.10138,-0.009 -0.12166,0 -0.19118,0.0521 -0.0695,0.0521 -0.0811,0.17379 z m 0.95009,0.30415 q -0.0261,0.0232 -0.0666,0.0376 -0.0376,0.0116 -0.084,0.0203 -0.0434,0.009 -0.0927,0.0145 -0.0492,0.006 -0.0985,0.0145 -0.0463,0.009 -0.0927,0.0232 -0.0435,0.0145 -0.0782,0.0405 -0.0319,0.0232 -0.0521,0.0608 -0.0203,0.0377 -0.0203,0.0956 0,0.055 0.0203,0.0927 0.0203,0.0376 0.055,0.0608 0.0348,0.0203 0.0811,0.029 0.0463,0.009 0.0956,0.009 0.12165,0 0.18828,-0.0405 0.0666,-0.0406 0.0985,-0.0956 0.0319,-0.0579 0.0377,-0.11586 0.009,-0.0579 0.009,-0.0927 z"
         style="font-weight:bold;font-family:'Helvetica Neue';-inkscape-font-specification:'Helvetica Neue Bold'"
         id="path284" />
      <path
         d="m 126.58721,139.04948 h 0.40263 q -0.009,-0.14483 -0.0695,-0.24911 -0.0608,-0.10718 -0.15931,-0.17669 -0.0956,-0.0724 -0.22015,-0.10718 -0.12165,-0.0348 -0.2549,-0.0348 -0.18248,0 -0.32442,0.0608 -0.14193,0.0608 -0.24041,0.1709 -0.0985,0.10717 -0.15063,0.2578 -0.0492,0.14772 -0.0492,0.32152 0,0.168 0.055,0.30994 0.055,0.13903 0.15352,0.24041 0.0985,0.10138 0.23752,0.15932 0.14193,0.055 0.30993,0.055 0.29835,0 0.48953,-0.15641 0.19118,-0.15642 0.23173,-0.45477 h -0.39684 q -0.0203,0.13904 -0.10138,0.22304 -0.0782,0.0811 -0.22593,0.0811 -0.0956,0 -0.16221,-0.0435 -0.0666,-0.0435 -0.10718,-0.11007 -0.0377,-0.0695 -0.055,-0.15352 -0.0174,-0.084 -0.0174,-0.1651 0,-0.084 0.0174,-0.16801 0.0174,-0.0869 0.0579,-0.15641 0.0434,-0.0724 0.11007,-0.11587 0.0666,-0.0463 0.16511,-0.0463 0.26359,0 0.30414,0.2578 z"
         style="font-weight:bold;font-family:'Helvetica Neue';-inkscape-font-specification:'Helvetica Neue Bold'"
         id="path286" />
      <path
         d="m 127.75164,138.52229 v -0.44897 h -0.41132 v 0.44897 h -0.2491 v 0.27518 h 0.2491 v 0.88346 q 0,0.11297 0.0377,0.18249 0.0377,0.0695 0.10138,0.10717 0.0666,0.0377 0.15062,0.0493 0.0869,0.0145 0.18249,0.0145 0.0608,0 0.12455,-0.003 0.0637,-0.003 0.11587,-0.0116 v -0.31863 q -0.029,0.006 -0.0608,0.009 -0.0319,0.003 -0.0666,0.003 -0.10428,0 -0.13904,-0.0348 -0.0348,-0.0348 -0.0348,-0.13904 v -0.74153 h 0.30125 v -0.27518 z"
         style="font-weight:bold;font-family:'Helvetica Neue';-inkscape-font-specification:'Helvetica Neue Bold'"
         id="path288" />
      <path
         d="m 129.25787,139.1103 h -0.66911 q 0.003,-0.0434 0.0174,-0.0985 0.0174,-0.055 0.055,-0.10428 0.0406,-0.0492 0.10428,-0.0811 0.0666,-0.0348 0.16511,-0.0348 0.15062,0 0.22303,0.0811 0.0753,0.0811 0.10428,0.23752 z m -0.66911,0.2607 h 1.08043 q 0.0116,-0.1738 -0.029,-0.33311 -0.0405,-0.15931 -0.13324,-0.28387 -0.0898,-0.12455 -0.23173,-0.19697 -0.14193,-0.0753 -0.33311,-0.0753 -0.1709,0 -0.31283,0.0608 -0.13904,0.0608 -0.24042,0.168 -0.10138,0.10428 -0.15641,0.24911 -0.055,0.14483 -0.055,0.31283 0,0.1738 0.0521,0.31863 0.055,0.14483 0.15352,0.24911 0.0985,0.10427 0.24042,0.16221 0.14193,0.055 0.31862,0.055 0.2549,0 0.43449,-0.11586 0.17959,-0.11587 0.26649,-0.38525 h -0.36207 q -0.0203,0.0695 -0.11008,0.13324 -0.0898,0.0608 -0.21434,0.0608 -0.1738,0 -0.26649,-0.0898 -0.0927,-0.0898 -0.10138,-0.28966 z"
         style="font-weight:bold;font-family:'Helvetica Neue';-inkscape-font-specification:'Helvetica Neue Bold'"
         id="path290" />
      <path
         d="m 129.9125,138.52229 v 1.49755 h 0.41132 v -0.67491 q 0,-0.10138 0.0203,-0.18828 0.0203,-0.0869 0.0666,-0.15062 0.0492,-0.0666 0.12745,-0.10428 0.0782,-0.0377 0.19117,-0.0377 0.0377,0 0.0782,0.006 0.0405,0.003 0.0695,0.009 v -0.38236 q -0.0492,-0.0145 -0.0898,-0.0145 -0.0782,0 -0.15062,0.0232 -0.0724,0.0232 -0.13614,0.0666 -0.0637,0.0405 -0.11297,0.10138 -0.0492,0.0579 -0.0782,0.12745 h -0.006 v -0.27808 z"
         style="font-weight:bold;font-family:'Helvetica Neue';-inkscape-font-specification:'Helvetica Neue Bold'"
         id="path292" />
      <path
         d="m 131.3579,139.53321 h -0.39104 q 0.006,0.15062 0.0666,0.252 0.0637,0.0985 0.15931,0.15931 0.0985,0.0608 0.22304,0.0869 0.12455,0.0261 0.2549,0.0261 0.12745,0 0.2491,-0.0261 0.12456,-0.0232 0.22015,-0.084 0.0956,-0.0608 0.15352,-0.15931 0.0608,-0.10138 0.0608,-0.24911 0,-0.10428 -0.0405,-0.1738 -0.0405,-0.0724 -0.10717,-0.11876 -0.0666,-0.0492 -0.15352,-0.0782 -0.084,-0.029 -0.1738,-0.0493 -0.0869,-0.0203 -0.1709,-0.0376 -0.084,-0.0174 -0.15062,-0.0377 -0.0637,-0.0232 -0.10428,-0.0579 -0.0405,-0.0348 -0.0405,-0.0898 0,-0.0463 0.0232,-0.0724 0.0232,-0.029 0.055,-0.0435 0.0348,-0.0145 0.0753,-0.0174 0.0405,-0.006 0.0753,-0.006 0.11007,0 0.19118,0.0434 0.0811,0.0406 0.0898,0.15931 h 0.39104 q -0.0116,-0.13904 -0.0724,-0.22883 -0.0579,-0.0927 -0.14773,-0.14773 -0.0898,-0.055 -0.20566,-0.0782 -0.11297,-0.0232 -0.23462,-0.0232 -0.12166,0 -0.23752,0.0232 -0.11587,0.0203 -0.20856,0.0753 -0.0927,0.0521 -0.15062,0.14483 -0.055,0.0927 -0.055,0.23752 0,0.0985 0.0406,0.168 0.0405,0.0666 0.10717,0.11297 0.0666,0.0435 0.15062,0.0724 0.0869,0.0261 0.1767,0.0464 0.22014,0.0463 0.34179,0.0927 0.12456,0.0463 0.12456,0.13904 0,0.055 -0.0261,0.0927 -0.0261,0.0348 -0.0666,0.0579 -0.0377,0.0203 -0.0869,0.0319 -0.0463,0.009 -0.0898,0.009 -0.0608,0 -0.11876,-0.0145 -0.055,-0.0145 -0.0985,-0.0434 -0.0435,-0.0319 -0.0724,-0.0782 -0.0261,-0.0492 -0.0261,-0.11586 z"
         style="font-weight:bold;font-family:'Helvetica Neue';-inkscape-font-specification:'Helvetica Neue Bold'"
         id="path294" />
    </g>
  </g>
</svg>
