<?xml version="1.0" encoding="UTF-8" standalone="no"?>
<!-- Created with Inkscape (http://www.inkscape.org/) -->

<svg
   width="254mm"
   height="254mm"
   viewBox="0 0 254 254"
   version="1.1"
   id="svg1"
   inkscape:version="1.4 (86a8ad7, 2024-10-11)"
   sodipodi:docname="speechbubble.svg"
   xmlns:inkscape="http://www.inkscape.org/namespaces/inkscape"
   xmlns:sodipodi="http://sodipodi.sourceforge.net/DTD/sodipodi-0.dtd"
   xmlns="http://www.w3.org/2000/svg"
   xmlns:svg="http://www.w3.org/2000/svg"
   xmlns:rdf="http://www.w3.org/1999/02/22-rdf-syntax-ns#"
   xmlns:cc="http://creativecommons.org/ns#"
   xmlns:dc="http://purl.org/dc/elements/1.1/">
  <title
     id="title1">Badbunsen Dot Com Logo!</title>
  <sodipodi:namedview
     id="namedview1"
     pagecolor="#ffffff"
     bordercolor="#000000"
     borderopacity="0.25"
     inkscape:showpageshadow="2"
     inkscape:pageopacity="0.0"
     inkscape:pagecheckerboard="0"
     inkscape:deskcolor="#d1d1d1"
     inkscape:document-units="mm"
     inkscape:zoom="0.50835204"
     inkscape:cx="135.73271"
     inkscape:cy="262.61329"
     inkscape:window-width="1920"
     inkscape:window-height="1009"
     inkscape:window-x="-8"
     inkscape:window-y="-8"
     inkscape:window-maximized="1"
     inkscape:current-layer="layer1" />
  <defs
     id="defs1" />
  <g
     inkscape:label="Layer 1"
     inkscape:groupmode="layer"
     id="layer1">
    <path
       id="path1"
       style="fill:#efefef;stroke:none;stroke-width:2.721"
       d="M 109.22899 0.0087849935 C 105.82082 0.09579854 102.24428 0.7865153 98.936597 0.7865153 C 83.257626 0.7865153 64.921915 2.4063613 49.931836 7.323584 C 10.156489 20.371187 4.9319032 68.64765 1.5249715 104.35125 C 0.36959155 116.45927 -0.86150838 128.89783 0.83250732 141.03067 C 2.5902353 153.61978 4.7678128 167.67115 11.995133 178.4289 C 26.152372 199.50171 49.924726 204.52967 72.992444 210.074 C 68.535746 215.59168 64.1603 221.18636 59.596362 226.61511 L 50.593811 237.40308 C 48.012211 240.5074 40.633454 246.72988 40.956673 251.02602 C 41.456602 257.67105 55.025314 251.28693 57.859001 250.01575 C 72.0224 243.6619 84.861793 235.77373 98.216227 227.95404 C 102.30992 225.55696 108.09823 219.63871 112.6293 218.89672 C 121.9891 217.3639 131.67059 221.19265 140.73508 222.17507 C 154.76051 223.69517 169.14524 222.14097 183.25445 222.30323 C 195.38724 222.44268 210.11718 223.69489 221.44953 217.98566 C 239.71761 208.78224 241.35509 189.58727 244.09621 171.95643 C 246.5263 156.32609 251.45315 141.00951 253.03727 125.20838 C 254.82624 107.3639 253.81209 89.098421 252.50242 71.268001 C 251.58685 58.803241 250.35861 39.376458 241.35478 29.70568 C 237.98681 26.088234 232.93793 24.931521 228.65633 22.815662 C 212.6444 14.903008 196.27654 14.836204 178.93068 12.892753 C 168.86757 11.765271 159.31344 6.7499212 149.38623 4.8519002 C 146.02363 4.2089935 143.5312 6.9381472 140.01419 6.4657552 C 130.73897 5.2199492 121.60814 1.449404 112.56471 0.17104899 C 111.48218 0.018025741 110.36505 -0.020219522 109.22899 0.0087849935 z M 107.58465 7.2595052 C 135.83589 12.89156 155.64615 16.527381 176.04765 19.277893 C 195.23462 21.864673 219.01755 20.149745 234.98824 33.609318 C 237.96867 36.121145 238.70666 40.465267 240.05046 43.938403 C 243.79845 53.625355 245.1818 63.81319 246.01392 74.144828 C 247.10342 87.671999 248.56462 102.29453 247.27121 115.85856 C 245.57259 133.67172 240.93768 150.81692 237.74673 168.36027 C 235.40998 181.20724 236.30305 195.99911 225.77072 205.63654 C 212.42262 217.85043 194.95986 215.42846 178.20979 215.83799 C 166.4616 216.12523 153.79095 217.06874 142.17685 215.56255 C 134.52262 214.56987 126.85366 213.75456 119.11521 212.81802 C 116.29554 212.47679 113.33719 210.62007 110.46768 211.17212 C 105.9361 212.04389 102.19499 217.58993 98.216227 219.90234 C 83.791266 228.28593 70.222265 238.4521 54.255603 243.87607 C 60.798781 234.32632 69.183834 225.59935 76.452181 216.54647 C 78.316027 214.22502 83.999859 209.27059 82.299369 205.92283 C 81.116629 203.59439 78.075921 203.72212 75.875472 203.48164 C 70.07107 202.84731 64.256189 201.91471 58.57937 200.5552 C 44.221446 197.11674 26.799137 187.95206 18.723405 175.55208 C 2.7303365 150.9954 6.5094181 118.84412 9.4547201 91.40579 C 10.923124 77.726184 12.596731 64.661098 17.982882 51.849548 C 22.190186 41.842021 27.494614 28.245442 36.249467 21.304126 L 107.58465 7.2595052 z " />
    <path
       id="path15"
       style="fill:#efefef;stroke:none;stroke-width:2.721"
       d="M 62.852494 134.11946 C 60.845949 134.39707 58.704215 137.84217 58.175777 139.59251 C 55.866119 147.24278 56.417745 155.44156 56.417745 163.32543 C 52.777007 160.53304 47.692266 156.18582 42.735893 158.10663 C 35.03244 161.0921 32.102591 180.83122 38.497392 185.97056 C 44.331266 190.65911 56.49954 187.31583 62.903654 185.62071 C 70.874997 202.66828 92.449182 187.13022 92.450688 173.39458 C 101.02595 174.98339 101.12253 175.57885 101.09874 184.18256 C 89.440333 182.29841 96.996549 198.99022 103.16476 196.6805 C 109.0213 194.48748 106.47344 181.11935 108.7298 176.43574 C 110.50222 172.75666 115.98761 174.70279 118.88577 172.66595 C 126.45823 167.34402 110.23136 167.48925 108.30553 167.64093 C 108.30553 164.05812 110.60147 155.51623 108.99283 152.70231 C 107.36665 149.85772 103.54873 150.56932 102.35448 153.33534 C 100.6687 157.23976 101.81962 163.44236 101.81962 167.64093 C 97.327567 167.54793 93.737613 164.77551 89.578512 164.50986 C 87.279476 164.36308 85.839513 166.39287 83.738558 166.92366 C 81.277994 167.54531 76.679462 167.35383 76.990133 171.22572 C 77.33987 175.58446 86.984449 173.03345 85.008248 178.42942 C 82.803885 184.44839 71.629804 188.95691 68.786499 181.30315 C 67.71049 178.4067 68.609525 173.71438 71.04941 171.66756 C 72.967192 170.05871 79.304881 168.39235 75.440356 164.57858 C 69.982812 159.19269 63.40879 167.79346 62.903654 172.67525 C 60.942207 165.55577 62.607434 154.13316 63.721175 146.78381 C 64.185254 143.72144 66.613342 139.17613 65.340715 136.16068 C 64.648789 134.52117 63.76456 133.99327 62.852494 134.11946 z M 45.607552 164.04477 L 58.57937 179.14824 L 58.57937 179.86706 C 54.808513 180.92459 47.338271 183.02586 43.758053 180.56676 C 39.366486 177.55032 43.046808 167.14424 45.607552 164.04477 z " />
    <path
       id="path17"
       style="fill:#efefef;stroke:none;stroke-width:2.721"
       d="M 196.75595 166.87612 C 193.6895 167.04545 190.49873 168.77044 187.9601 171.96728 C 182.96381 178.25897 183.20896 186.74828 181.81319 194.25119 L 181.09231 194.25119 C 181.37234 197.33092 185.90177 205.29689 188.58487 199.17906 C 192.33213 190.63477 186.2064 177.53897 198.38841 173.39458 C 200.62056 179.62188 199.92365 185.31995 201.50295 191.33251 C 202.03716 193.36632 204.11486 194.67631 206.09801 193.49827 C 208.46848 192.09012 208.60598 187.99183 209.31849 185.62071 C 210.45199 181.84872 212.57884 178.66345 215.68451 176.27141 C 216.55884 179.56939 217.56591 182.89455 217.65958 186.34005 C 217.70538 188.0221 218.35779 204.66144 223.59152 196.89909 C 226.43459 192.6824 224.51222 180.10076 222.94918 175.55259 C 220.3713 168.05133 211.73683 167.60504 207.75683 174.11392 L 206.31557 174.11392 C 204.43522 169.01227 200.69853 166.65841 196.75595 166.87612 z M 181.09231 194.25119 C 182.55772 182.67951 179.11589 165.72994 164.48867 174.59348 C 162.79138 175.62196 161.05078 176.46683 159.60628 177.86305 C 155.09253 182.22598 156.48446 190.99666 152.15919 194.09771 C 147.82845 197.20268 138.83746 199.34634 134.49463 195.38084 C 129.27221 190.61215 131.08435 176.37754 139.29692 175.58308 C 144.05935 175.12236 146.90749 181.51188 151.5029 180.97345 C 154.34728 180.64023 154.54771 177.55774 153.2692 175.58101 C 145.9427 164.25354 131.76363 167.86289 126.59176 178.4289 C 121.29639 189.24721 125.7703 203.83586 139.29382 204.28882 C 145.41931 204.49405 150.88238 200.35143 156.58993 200.395 C 159.19573 200.4141 161.28053 202.74349 163.79672 203.31731 C 170.8144 204.91776 177.82911 200.71769 180.37194 194.25119 L 181.09231 194.25119 z M 170.59424 180.22983 C 179.19587 180.22152 173.8745 202.09013 164.74602 196.27691 C 162.88977 195.09483 162.52548 192.22108 160.91369 190.65503 C 161.21821 188.63486 161.64171 186.73807 162.73942 184.96907 C 163.56344 183.64107 164.6589 182.49495 166.02604 181.71759 C 167.85263 180.679 169.36543 180.23101 170.59424 180.22983 z " />
    <path
       style="fill:#efefef;stroke:none;stroke-width:2.721"
       d="m 146.50064,115.85843 -0.72065,0.7192 0.72065,-0.7192"
       id="path14" />
    <path
       id="path10"
       style="fill:#efefef;stroke:none;stroke-width:2.721"
       d="M 144.50384 95.940397 C 141.79893 95.969771 139.16395 97.900552 137.16114 99.489018 C 129.39494 105.64846 128.11912 115.60309 137.85257 120.25312 C 140.2226 121.38537 148.37984 123.58646 148.22093 126.95452 C 147.80433 135.78397 136.33251 132.35732 132.16558 132.87303 C 129.34607 133.22199 128.8446 136.67786 130.3631 138.62513 C 132.55105 141.43087 136.83305 141.20343 140.01471 140.96556 C 149.38499 140.26507 158.92562 130.22034 154.42778 120.89288 C 157.01672 123.39388 157.36771 127.16773 159.23834 130.2427 C 162.78409 136.07135 169.71133 140.71895 176.76802 140.86324 C 179.26256 140.91434 181.06133 139.58417 182.20542 137.42055 C 183.37688 135.20522 183.45037 132.56066 184.39598 130.2427 C 187.21881 123.32304 199.37936 110.94525 204.83246 122.34189 C 205.70112 124.15739 206.27528 126.13049 206.72795 128.08469 C 207.68423 132.2132 206.54913 137.8897 208.19194 141.64303 C 209.50439 144.64138 214.02413 144.2177 214.6701 140.98829 C 216.57701 131.4549 213.00376 115.33199 203.43306 111.20768 C 190.61935 105.68587 177.28646 122.55428 176.76854 133.83834 C 170.04488 132.24379 166.481 128.06547 163.07583 122.33103 C 166.23268 122.33103 169.33499 122.38166 172.44477 121.74967 C 194.93012 117.18003 170.47739 89.274847 158.5557 107.23893 C 157.13327 109.3823 156.79454 111.92333 156.58993 114.41989 C 153.28649 112.97202 140.6902 105.91799 145.77973 115.85856 C 133.60576 111.7136 140.72671 107.24704 146.99154 101.61602 C 149.3701 99.478126 148.21702 96.234356 145.04541 95.960551 C 144.86463 95.944945 144.68417 95.938439 144.50384 95.940397 z M 168.74164 109.10238 C 173.27889 109.082 177.44802 114.41453 168.12152 115.65031 C 166.44545 115.87239 164.76257 115.85391 163.07583 115.85856 C 163.53512 110.81008 166.19635 109.11382 168.74164 109.10238 z " />
    <path
       id="path8"
       style="fill:#efefef;stroke:none;stroke-width:2.721"
       d="M 40.285396 72.033329 C 37.555914 72.068926 34.98783 75.368132 34.155538 77.741508 C 31.147456 86.319372 33.163121 96.232967 31.220833 105.07059 C 30.43155 108.66192 27.643248 112.75487 29.77286 116.44199 C 32.447168 121.07217 40.233947 121.37162 44.887183 122.02614 C 49.241492 122.63861 55.353087 124.28044 59.138509 121.20656 C 65.821591 115.77967 61.128568 103.36167 54.948067 99.700374 C 49.335672 96.375632 43.577594 98.470691 38.401274 101.47443 C 38.594089 96.993024 38.793587 92.2608 39.327315 87.809627 C 39.766891 84.143653 45.66794 75.841921 43.010295 73.241007 C 42.12291 72.372564 41.195224 72.021464 40.285396 72.033329 z M 47.86943 104.77087 C 48.546495 104.75816 49.232145 104.8484 49.920467 105.06077 C 52.892039 105.97759 57.409039 112.39062 54.413216 115.26015 C 51.457989 118.09081 40.480603 114.61019 36.959501 113.70107 C 38.812089 109.99972 43.12997 104.85977 47.86943 104.77087 z " />
    <path
       style="fill:#efefef;stroke:none;stroke-width:2.721"
       d="m 107.58477,121.61204 c 1.94502,-7.04288 5.68792,-12.85084 10.80996,-17.98001 0.89048,3.87639 1.84988,7.55173 2.36495,11.50721 0.34674,2.66277 0.51113,5.22437 0.5177,7.9112 0.0123,4.98376 5.79459,11.25693 8.17143,3.59268 0.7099,-2.28914 -1.26647,-4.29719 -1.58202,-6.49779 -0.88708,-6.18643 0.67479,-20.417045 -7.33899,-22.673677 -10.22559,-2.879457 -17.88742,14.277867 -19.65922,21.982787 -0.56855,2.47243 -1.261966,6.86562 0.25023,9.12097 3.26405,4.8681 12.03777,-3.34402 6.46595,-6.96337"
       id="path11" />
    <path
       id="path4"
       style="fill:#efefef;stroke:none;stroke-width:2.721"
       d="M 172.14453 31.239954 C 171.64486 31.211934 171.08198 31.308402 170.44644 31.55828 C 166.86776 32.965317 168.63883 37.742161 169.36692 40.34224 C 171.60133 48.321839 174.58389 56.085577 176.76854 64.076192 C 166.80042 59.290045 155.81741 70.941219 163.96105 79.820451 C 168.95124 85.261406 178.70441 85.034903 185.41659 83.76853 C 188.06442 83.268966 192.6471 82.08214 192.288 78.523889 C 191.96057 75.279805 187.10822 70.178777 185.6419 66.953019 C 181.83402 58.575962 179.23599 49.193733 176.77681 40.34224 C 176.05376 37.739731 175.64223 31.436092 172.14453 31.239954 z M 172.52125 69.597302 C 176.62843 69.647655 181.18346 74.853656 182.53356 77.740991 C 180.37889 77.740991 178.1991 77.833499 176.04765 77.709469 C 173.27526 77.549609 165.04115 73.975895 169.79429 70.477869 C 170.64947 69.848504 171.57344 69.585682 172.52125 69.597302 z " />
    <path
       style="fill:#efefef;stroke:none;stroke-width:2.721"
       d="m 67.305984,95.567095 c -4.317128,1.553036 -2.961288,8.857635 -2.961062,12.380145 6.65e-4,10.35925 2.933835,26.87099 17.295938,22.5477 10.634831,-3.20131 12.391472,-12.75053 13.879459,-21.82851 0.57109,-3.48409 2.3988,-11.178687 -3.771808,-11.178687 -3.042467,0 -3.61511,3.015247 -3.404808,5.425637 0.512821,5.87763 -0.760059,24.39384 -11.614037,21.06602 -9.246656,-2.83501 -4.368422,-18.88243 -4.058735,-24.651473 0.149671,-2.788437 -2.801457,-4.683011 -5.364947,-3.760832"
       id="path9" />
    <path
       id="path3"
       style="fill:#efefef;stroke:none;stroke-width:2.721"
       d="M 64.770207 16.998962 C 64.410983 17.000484 63.980044 17.080508 63.463826 17.254761 C 59.34669 18.644526 59.967292 25.055974 60.018559 28.116113 C 60.19111 38.416385 60.791665 48.693738 60.740995 59.041357 C 60.722205 62.899048 58.556908 67.500284 59.532284 71.225627 C 60.705529 75.706695 65.089216 72.553734 68.07078 73.317489 C 79.34997 76.206737 93.658897 75.972929 97.495341 61.918184 L 98.216227 61.918184 C 98.216227 65.31672 97.71596 69.103509 99.970125 71.945479 C 105.57325 79.00968 119.32946 75.100388 124.15986 69.11051 L 124.88075 69.11051 C 131.87185 78.583269 144.35184 79.033401 152.95811 71.559973 C 155.86859 69.032566 163.1623 61.586955 160.17059 57.198576 C 158.63303 54.943216 156.01232 56.026871 154.66084 57.76805 C 150.27222 63.422119 145.89209 71.959903 137.1322 69.464494 C 123.96182 65.712703 133.55561 53.533732 126.6362 47.351632 C 123.75717 44.779384 121.15032 48.234166 118.33024 48.691085 C 110.00326 50.040245 100.90286 49.646171 98.936597 60.480029 L 98.216227 60.480029 C 98.162927 44.929294 76.9369 42.898166 67.227421 51.130212 C 67.227421 41.734844 67.089531 32.440865 66.442456 23.081795 C 66.286255 20.822533 67.284772 16.988312 64.770207 16.998962 z M 83.199573 52.202498 C 86.293334 52.227681 89.109335 53.776204 90.802209 57.67865 C 93.351328 63.554924 82.661183 69.180003 78.038131 68.828874 C 73.901016 68.514662 71.88376 64.874824 67.948307 64.076192 C 69.364076 58.486328 76.864729 52.150933 83.199573 52.202498 z M 119.8361 55.445711 C 120.03687 57.98451 120.95987 60.873944 119.93531 63.32585 C 118.36187 67.091491 109.41483 71.036182 105.95787 67.771574 C 97.532856 59.815374 115.34181 55.445711 119.8361 55.445711 z " />
  </g>
  <metadata
     id="metadata1">
    <rdf:RDF>
      <cc:Work
         rdf:about="">
        <dc:title>Badbunsen Dot Com Logo!</dc:title>
      </cc:Work>
    </rdf:RDF>
  </metadata>
</svg>
