<?xml version="1.0" encoding="UTF-8" standalone="no"?>
<!-- Created with Inkscape (http://www.inkscape.org/) -->

<svg
   width="47.074448mm"
   height="47.074448mm"
   viewBox="0 0 47.074448 47.074449"
   version="1.1"
   id="svg1"
   xml:space="preserve"
   sodipodi:docname="copy.svg"
   inkscape:version="1.2.2 (b0a8486541, 2022-12-01)"
   inkscape:export-filename="indexlogo_blah.gif.png"
   inkscape:export-xdpi="96"
   inkscape:export-ydpi="96"
   xmlns:inkscape="http://www.inkscape.org/namespaces/inkscape"
   xmlns:sodipodi="http://sodipodi.sourceforge.net/DTD/sodipodi-0.dtd"
   xmlns="http://www.w3.org/2000/svg"
   xmlns:svg="http://www.w3.org/2000/svg"><sodipodi:namedview
     id="namedview1"
     pagecolor="#ffffff"
     bordercolor="#000000"
     borderopacity="0.25"
     inkscape:showpageshadow="2"
     inkscape:pageopacity="0.0"
     inkscape:pagecheckerboard="0"
     inkscape:deskcolor="#d1d1d1"
     inkscape:document-units="mm"
     inkscape:zoom="2.096401"
     inkscape:cx="185.0791"
     inkscape:cy="83.953404"
     inkscape:window-width="1920"
     inkscape:window-height="1036"
     inkscape:window-x="0"
     inkscape:window-y="0"
     inkscape:window-maximized="1"
     inkscape:current-layer="layer1"
     showgrid="false" /><defs
     id="defs1" /><g
     inkscape:label="Layer 1"
     inkscape:groupmode="layer"
     id="layer1"
     transform="translate(-4.2333331,-3.6240809)"><rect
       style="fill:#ffcc00;fill-opacity:1;stroke-width:0.688435;paint-order:markers fill stroke"
       id="rect1"
       width="47.074448"
       height="47.074448"
       x="4.2333331"
       y="3.6240809"
       ry="5.0979571" /><text
       xml:space="preserve"
       style="font-weight:bold;font-size:1.33361px;font-family:'Helvetica Neue';-inkscape-font-specification:'Helvetica Neue Bold';text-align:start;writing-mode:lr-tb;direction:ltr;text-anchor:start;fill:#110000;fill-opacity:1;stroke-width:0.688435;paint-order:markers fill stroke"
       x="70.139084"
       y="45.790783"
       id="text13"><tspan
         sodipodi:role="line"
         id="tspan13"
         style="stroke-width:0.688435"
         x="70.139084"
         y="45.790783" /></text><path
       d="m 44.370297,35.38267 v 3.463593 l -0.27967,-0.322695 q -0.43026,-0.494799 -0.9896,-0.731442 -0.53782,-0.236643 -1.14018,-0.236643 -1.05414,0 -1.72104,0.688416 -0.66691,0.666903 -0.66691,1.72104 0,1.054137 0.66691,1.72104 0.6669,0.666903 1.72104,0.666903 0.60236,0 1.11867,-0.236643 0.51631,-0.236643 1.01111,-0.709929 l 0.27967,-0.258156 v 3.377541 l -0.38723,0.129078 q -0.62388,0.21513 -1.14019,0.301182 -0.51631,0.08605 -1.01111,0.08605 -1.09717,0 -2.06525,-0.387234 -0.94657,-0.408747 -1.67801,-1.07565 -0.73145,-0.688416 -1.16171,-1.613475 -0.40874,-0.925059 -0.40874,-2.000709 0,-1.054137 0.40874,-1.979196 0.43026,-0.925059 1.14019,-1.613475 0.73144,-0.709929 1.69953,-1.097163 0.96808,-0.408747 2.04373,-0.408747 0.60237,0 1.24776,0.129078 0.64539,0.107565 1.20473,0.344208 z m -11.40189,4.582269 q 0,-1.785579 0.6669,-3.356028 0.68842,-1.591962 1.85012,-2.753664 1.18322,-1.183215 2.75367,-1.850118 1.57045,-0.688416 3.35602,-0.688416 1.78558,0 3.35603,0.688416 1.59197,0.666903 2.75367,1.850118 1.18321,1.161702 1.85012,2.753664 0.68841,1.570449 0.68841,3.356028 0,1.785579 -0.68841,3.356028 -0.66691,1.570449 -1.85012,2.753664 -1.1617,1.161702 -2.75367,1.850118 -1.57045,0.666903 -3.35603,0.666903 -1.78557,0 -3.35602,-0.666903 -1.57045,-0.688416 -2.75367,-1.850118 -1.1617,-1.183215 -1.85012,-2.753664 -0.6669,-1.570449 -0.6669,-3.356028 z m 1.67802,0 q 0,1.441371 0.53782,2.710638 0.55934,1.247754 1.50591,2.194326 0.94657,0.946572 2.19433,1.50591 1.26926,0.537825 2.71063,0.537825 1.44138,0 2.68913,-0.537825 1.26927,-0.559338 2.21584,-1.50591 0.94657,-0.946572 1.4844,-2.194326 0.55933,-1.269267 0.55933,-2.710638 0,-1.441371 -0.55933,-2.689125 -0.53783,-1.269267 -1.4844,-2.215839 -0.94657,-0.946572 -2.21584,-1.484397 -1.24775,-0.559338 -2.68913,-0.559338 -1.44137,0 -2.71063,0.559338 -1.24776,0.537825 -2.19433,1.484397 -0.94657,0.946572 -1.50591,2.215839 -0.53782,1.247754 -0.53782,2.689125 z"
       id="text4"
       style="font-weight:bold;font-size:21.513px;line-height:0;font-family:Futura;-inkscape-font-specification:'Futura Bold';fill:#ffa500;stroke-width:11.1054;paint-order:markers fill stroke"
       aria-label="©" /></g></svg>
