<?xml version="1.0" encoding="UTF-8" standalone="no"?>
<!-- Created with Inkscape (http://www.inkscape.org/) -->

<svg
   width="135.46667mm"
   height="18.605518mm"
   viewBox="0 0 135.46668 18.605518"
   version="1.1"
   id="svg1"
   xml:space="preserve"
   inkscape:version="1.4 (e7c3feb1, 2024-10-09)"
   sodipodi:docname="wordmark_horizontal.svg"
   inkscape:export-filename="wordmark_horizontal.png"
   inkscape:export-xdpi="96"
   inkscape:export-ydpi="96"
   xmlns:inkscape="http://www.inkscape.org/namespaces/inkscape"
   xmlns:sodipodi="http://sodipodi.sourceforge.net/DTD/sodipodi-0.dtd"
   xmlns="http://www.w3.org/2000/svg"
   xmlns:svg="http://www.w3.org/2000/svg"><sodipodi:namedview
     id="namedview1"
     pagecolor="#ffffff"
     bordercolor="#000000"
     borderopacity="0.25"
     inkscape:showpageshadow="2"
     inkscape:pageopacity="0.0"
     inkscape:pagecheckerboard="0"
     inkscape:deskcolor="#d1d1d1"
     inkscape:document-units="mm"
     showgrid="false"
     inkscape:zoom="0.55945567"
     inkscape:cx="459.37509"
     inkscape:cy="128.69652"
     inkscape:window-width="1440"
     inkscape:window-height="847"
     inkscape:window-x="0"
     inkscape:window-y="25"
     inkscape:window-maximized="1"
     inkscape:current-layer="svg1" /><defs
     id="defs1" /><g
     inkscape:label="Layer 1"
     inkscape:groupmode="layer"
     id="layer1" /><path
     id="path2"
     d="m 2.908654,14.869038 c -0.4447239,0 -0.8456195,-0.06073 -1.202265,-0.181355 C 1.3497658,14.566639 1.0434573,14.384862 0.78746338,14.14233 0.53149167,13.90022 0.33625301,13.590446 0.20174736,13.213408 0.06724172,12.83637 0,12.392091 0,11.880569 0,11.234121 0.11757859,10.672262 0.35315784,10.194128 0.58875932,9.7160172 0.93540849,9.3255398 1.3935718,9.0226965 1.851313,8.7198533 2.4166366,8.4942482 3.090009,8.3458585 3.7633591,8.1979134 4.5443138,8.1237192 5.4333172,8.1237192 V 7.3158633 c 0,-0.215209 -0.030367,-0.3904775 -0.091122,-0.5249832 C 5.2814624,6.6563744 5.1873196,6.5518136 5.0593227,6.4776187 c -0.127997,-0.07375 -0.2863604,-0.11107 -0.4746461,-0.11107 -0.1614068,0 -0.3097962,0.030389 -0.4442796,0.091121 C 4.0058914,6.5184036 3.8978648,6.6056153 3.8171614,6.7201511 3.736458,6.8347083 3.6961174,6.9791882 3.6961174,7.1540342 V 7.3158633 H 0.3635762 C 0.3501368,7.2620623 0.3436281,7.2117237 0.3436281,7.1644304 c 0,-0.046849 0,-0.097608 0,-0.1514103 0,-0.6733502 0.16487215,-1.2556009 0.49459423,-1.7471741 C 1.1679666,4.7746949 1.6595398,4.3941917 2.3125197,4.1247805 2.9654774,3.8557693 3.7698678,3.7208415 4.726113,3.7208415 c 0.7271524,0 1.4135422,0.094587 2.059991,0.2828728 0.6464714,0.188308 1.1714545,0.524983 1.5753715,1.0096254 0.4039389,0.4850423 0.6061083,1.1649233 0.6061083,2.0400207 v 4.4432406 c 0,0.18873 0.046874,0.347093 0.1414587,0.474646 0.094143,0.127997 0.2490408,0.191773 0.4646717,0.191773 h 0.4238875 v 2.302523 c -0.229093,0.121067 -0.515009,0.218253 -0.8581931,0.292425 -0.3436281,0.07377 -0.7037389,0.11107 -1.0807764,0.11107 -0.417379,0 -0.7844201,-0.05076 -1.1007028,-0.150966 C 6.6412022,14.617398 6.3856529,14.472496 6.1904141,14.283766 5.9951754,14.095459 5.8637131,13.873319 5.7964714,13.617347 H 5.6957976 c -0.1752683,0.229071 -0.387434,0.437771 -0.6364749,0.626057 -0.249041,0.18873 -0.5488408,0.340162 -0.8989775,0.454276 -0.3501368,0.114091 -0.7675153,0.171358 -1.2516912,0.171358 m 1.4942234,-2.625315 c 0.1614067,0 0.3097739,-0.03341 0.4442795,-0.100651 0.1345057,-0.06726 0.2455756,-0.157941 0.3332098,-0.272476 0.087634,-0.114536 0.1514327,-0.249042 0.1921953,-0.403939 0.040363,-0.154876 0.060755,-0.319749 0.060755,-0.495039 V 9.9819627 c -0.4850644,0 -0.8621023,0.057289 -1.1310914,0.1718253 -0.2694333,0.114535 -0.4546979,0.272455 -0.5557937,0.474646 -0.1010736,0.202192 -0.1514106,0.424331 -0.1514106,0.666419 0,0.215187 0.03341,0.393521 0.1010959,0.534958 0.067242,0.141436 0.1613845,0.245997 0.2828728,0.313261 0.121044,0.06724 0.2625026,0.100651 0.4238874,0.100651 z"
     style="fill:#ffffff;fill-opacity:1;fill-rule:nonzero;stroke:none;stroke-width:0.22214" /><path
     id="path3"
     d="M 10.891025,14.642567 V 0 h 3.534289 v 14.642567 z"
     style="fill:#ffffff;fill-opacity:1;fill-rule:nonzero;stroke:none;stroke-width:0.22214" /><path
     id="path4"
     d="m 20.446613,14.869038 c -1.023487,0 -1.885145,-0.18873 -2.585396,-0.565323 -0.700274,-0.376594 -1.225257,-0.975772 -1.575371,-1.797067 -0.350137,-0.821317 -0.524983,-1.891675 -0.524983,-3.211497 0,-1.332839 0.188308,-2.4066403 0.565324,-3.2214492 0.377037,-0.8143644 0.912416,-1.4100768 1.605737,-1.7870924 0.69332,-0.3770379 1.531565,-0.5657679 2.514689,-0.5657679 1.049966,0 1.911624,0.1752906 2.584996,0.524983 0.673351,0.3501146 1.174898,0.9323651 1.504642,1.747174 0.329744,0.8148089 0.495039,1.9155337 0.495039,3.3021525 v 0.585738 h -5.675405 c 0,0.565746 0.03341,1.029996 0.101095,1.393572 0.06724,0.363576 0.181777,0.636475 0.343184,0.818274 0.161407,0.1818 0.383969,0.272477 0.666842,0.272477 0.215209,0 0.390499,-0.03341 0.524983,-0.101096 0.134505,-0.06726 0.242532,-0.168338 0.323235,-0.302843 0.0807,-0.134506 0.134506,-0.302843 0.161407,-0.505012 0.0269,-0.201748 0.04034,-0.437349 0.04034,-0.706783 h 3.49437 c 0,0.700273 -0.09112,1.305938 -0.272899,1.817481 -0.181799,0.511944 -0.461206,0.939318 -0.838245,1.282502 -0.377015,0.343628 -0.851684,0.599178 -1.423937,0.767515 -0.572277,0.167893 -1.24867,0.252062 -2.029647,0.252062 M 19.376277,8.1844519 h 2.059991 c 0,-0.363576 -0.01691,-0.669885 -0.05076,-0.9189258 C 21.351676,7.0164853 21.297875,6.8143158 21.224102,6.6594177 21.14993,6.5049642 21.048834,6.3938942 20.921281,6.3262084 20.793285,6.2589664 20.634921,6.2251123 20.446613,6.2251123 c -0.255972,0 -0.457719,0.067686 -0.605664,0.2021919 -0.148389,0.1345056 -0.259459,0.3431835 -0.33321,0.6260562 -0.07419,0.2828953 -0.118023,0.6599107 -0.131462,1.1310915 z"
     style="fill:#ffffff;fill-opacity:1;fill-rule:nonzero;stroke:none;stroke-width:0.22214" /><path
     id="path5"
     d="M 26.422263,18.605519 V 3.9629295 h 2.908653 l 0.242088,1.2929202 h 0.101097 c 0.255549,-0.4711585 0.585293,-0.845153 0.989654,-1.1210951 0.403917,-0.275942 0.922391,-0.4139131 1.554979,-0.4139131 0.767515,0 1.390106,0.2121658 1.868218,0.6360529 0.478133,0.4243092 0.831291,1.0603621 1.060384,1.9085807 0.22907,0.8486407 0.343628,1.8985844 0.343628,3.1507422 0,1.2391177 -0.11107,2.2621827 -0.33321,3.0700387 -0.22214,0.807856 -0.565768,1.407034 -1.030018,1.79751 -0.464671,0.390033 -1.060361,0.585272 -1.787514,0.585272 -0.377482,0 -0.714157,-0.05727 -1.010047,-0.171358 C 31.03384,14.583566 30.784799,14.425625 30.583052,14.223456 30.38086,14.021264 30.212523,13.785685 30.07804,13.516252 h -0.121067 v 5.089267 h -3.53471 m 4.484024,-6.826045 c 0.242089,0 0.433862,-0.06378 0.575298,-0.191752 0.141437,-0.127996 0.245576,-0.316726 0.313262,-0.565767 0.06724,-0.249041 0.101096,-0.561858 0.101096,-0.939318 V 8.3662509 c 0,-0.3904768 -0.03385,-0.7102473 -0.101096,-0.9592882 C 31.727161,7.1579219 31.623022,6.9726791 31.481585,6.851191 31.340149,6.7301474 31.148376,6.669392 30.906287,6.669392 c -0.242532,0 -0.437771,0.067686 -0.585716,0.2021914 -0.148389,0.1345057 -0.249484,0.3297441 -0.303287,0.5857159 -0.0538,0.2559718 -0.0807,0.5787856 -0.0807,0.9692631 v 1.5753706 c 0,0.296334 0.01346,0.552306 0.04036,0.767515 0.0269,0.215632 0.07722,0.400874 0.151411,0.555772 0.07377,0.154898 0.174846,0.269433 0.302843,0.343184 0.127997,0.07419 0.28636,0.11107 0.475089,0.11107 z"
     style="fill:#ffffff;fill-opacity:1;fill-rule:nonzero;stroke:none;stroke-width:0.22214" /><path
     id="path6"
     d="M 36.884091,14.642567 V 0 h 3.534289 v 4.9885933 h 0.101096 C 40.694323,4.7196042 40.903,4.4939991 41.145533,4.3121999 c 0.24211,-0.1817992 0.518052,-0.3232356 0.827826,-0.4243315 0.309774,-0.1006515 0.646471,-0.1514105 1.010047,-0.1514105 0.659467,0 1.181406,0.127997 1.565375,0.3839687 0.383547,0.2559939 0.662954,0.6226134 0.838245,1.1007249 0.174846,0.4781115 0.26248,1.0534314 0.26248,1.7263597 V 14.642567 H 42.114795 V 7.7961513 c 0,-0.1479445 -0.01344,-0.2824502 -0.04034,-0.403939 -0.0269,-0.1210436 -0.07419,-0.2256051 -0.141436,-0.3132387 -0.06726,-0.087657 -0.147967,-0.1548982 -0.24211,-0.2017475 -0.09459,-0.046874 -0.20217,-0.07073 -0.323236,-0.07073 -0.22907,0 -0.41389,0.07766 -0.555349,0.2321142 -0.141437,0.1548981 -0.242532,0.3570895 -0.303265,0.6061304 -0.06073,0.2490188 -0.09068,0.5284483 -0.09068,0.837778 v 6.1600483 z"
     style="fill:#ffffff;fill-opacity:1;fill-rule:nonzero;stroke:none;stroke-width:0.22214" /><path
     id="path7"
     d="M 48.108349,6.6069263 47.361226,3.7186646 V 0.7497218 h 2.888239 v 2.9689428 l -0.747544,2.8882617 z"
     style="fill:#ffffff;fill-opacity:1;fill-rule:nonzero;stroke:none;stroke-width:0.22214" /><path
     id="path8"
     d="m 55.871402,14.869038 c -0.68679,0 -1.289433,-0.07417 -1.807485,-0.221695 -0.518474,-0.147945 -0.952757,-0.360111 -1.302895,-0.636053 -0.350136,-0.275942 -0.616082,-0.609574 -0.797881,-1.000051 -0.181799,-0.3905 -0.272477,-0.841288 -0.272477,-1.353232 0,-0.03991 0.003,-0.110647 0.01,-0.211743 0.0069,-0.100652 0.01691,-0.19826 0.03037,-0.292847 h 3.150742 c -0.01346,0.107604 -0.01997,0.188286 -0.01997,0.242088 0,0.0538 0,0.114535 0,0.181799 0,0.175269 0.04036,0.330167 0.121044,0.464672 0.0807,0.134483 0.194817,0.239045 0.343206,0.31324 0.148367,0.07419 0.330166,0.111069 0.545353,0.111069 0.147967,0 0.292869,-0.01995 0.434306,-0.06073 0.141436,-0.04034 0.259015,-0.114535 0.353602,-0.22214 0.09416,-0.107604 0.141436,-0.255972 0.141436,-0.444279 0,-0.26899 -0.101074,-0.47769 -0.303265,-0.626079 -0.202169,-0.148367 -0.468137,-0.272899 -0.797882,-0.373995 -0.329744,-0.100651 -0.683346,-0.211721 -1.05994,-0.333209 -0.336675,-0.09414 -0.67335,-0.215187 -1.010025,-0.363577 C 53.292939,9.8943278 52.98663,9.7025545 52.710688,9.4669752 52.434746,9.2313737 52.21565,8.9250653 52.054265,8.5480499 c -0.161407,-0.377038 -0.24211,-0.8417104 -0.24211,-1.3940163 0,-0.6460268 0.11107,-1.1844716 0.33321,-1.6152895 C 52.367504,5.107904 52.673813,4.7543019 53.06429,4.4783598 53.454767,4.20244 53.899047,4.0072013 54.397129,3.8926438 54.895211,3.7781086 55.420638,3.7208409 55.9725,3.7208409 c 0.524983,0 1.02653,0.057268 1.504664,0.1718029 0.478111,0.1145575 0.901999,0.2894037 1.272528,0.524983 0.370085,0.2356014 0.659466,0.5319137 0.868167,0.8885592 0.208677,0.3570675 0.313239,0.7844422 0.313239,1.2825021 0,0.080703 -0.0035,0.1752905 -0.01,0.2828947 -0.0069,0.1076048 -0.01693,0.2017475 -0.03037,0.2824508 H 56.760405 V 6.8715828 c 0,-0.174846 -0.03732,-0.3162827 -0.11107,-0.4238868 -0.0742,-0.1076048 -0.175291,-0.1887302 -0.303265,-0.2425325 -0.127998,-0.053802 -0.272477,-0.081125 -0.433884,-0.081125 -0.08113,0 -0.16876,0.00693 -0.262925,0.02037 -0.09457,0.013461 -0.185242,0.047293 -0.272898,0.1010958 -0.08763,0.053802 -0.15792,0.1214884 -0.211722,0.2021917 -0.0538,0.080703 -0.0807,0.1817769 -0.0807,0.3023986 0,0.2156309 0.08417,0.3874563 0.252506,0.5154309 0.16836,0.1279972 0.393521,0.2356014 0.676416,0.3232356 0.282872,0.087634 0.592647,0.1917733 0.929344,0.3128175 0.349692,0.094587 0.716734,0.2056566 1.100281,0.3332093 0.383523,0.1279972 0.740614,0.3028432 1.070336,0.5249832 0.329744,0.2221399 0.595712,0.5184741 0.797881,0.888981 0.202192,0.3705299 0.303288,0.8447539 0.303288,1.4235169 0,0.700274 -0.108049,1.289455 -0.323236,1.767588 -0.215631,0.478112 -0.521939,0.868589 -0.918925,1.171432 -0.397431,0.302844 -0.858637,0.521518 -1.383599,0.656001 -0.524982,0.134506 -1.097259,0.201748 -1.716829,0.201748 z"
     style="fill:#ffffff;fill-opacity:1;fill-rule:nonzero;stroke:none;stroke-width:0.22214" /><path
     id="path9"
     d="M 66.151451,14.634769 63.485335,3.9707488 h 3.696115 l 0.565321,3.6557545 c 0.04036,0.18873 0.07724,0.4447239 0.11107,0.7675156 0.03388,0.323235 0.0742,0.6633759 0.121492,1.0200209 0.04685,0.3570676 0.09068,0.6768382 0.131038,0.9592892 h 0.16183 c 0.05378,-0.282451 0.09719,-0.5887596 0.131019,-0.9185043 0.03388,-0.3297441 0.07419,-0.6529798 0.121486,-0.9696843 0.04685,-0.3163047 0.09068,-0.5957122 0.131019,-0.8382446 l 0.606106,-3.676147 h 3.716089 l 0.565749,3.676147 c 0.03992,0.1752905 0.07679,0.4243314 0.110642,0.7471231 0.03381,0.323235 0.07767,0.6599101 0.131467,1.0100473 0.05378,0.3501145 0.09459,0.6733498 0.121485,0.9692628 h 0.181778 c 0.02689,-0.25555 0.06033,-0.5484192 0.10065,-0.8781634 0.04036,-0.329722 0.08417,-0.6599107 0.131466,-0.9896328 0.04685,-0.3297441 0.09068,-0.6161046 0.13146,-0.858637 l 0.60569,-3.676147 h 3.292177 L 75.68438,14.634769 h -3.655771 l -0.686372,-3.73648 C 71.287958,10.696542 71.2407,10.450989 71.200356,10.161585 71.159993,9.8722037 71.123143,9.5758689 71.089291,9.2730257 71.055477,8.9702051 71.02551,8.7107455 70.99861,8.4951146 h -0.161408 c -0.01385,0.2290703 -0.0408,0.4915732 -0.08112,0.7879074 -0.04036,0.2963121 -0.08071,0.5857159 -0.121045,0.868589 -0.04036,0.282873 -0.08763,0.531492 -0.141434,0.746678 l -0.666424,3.73648 z"
     style="fill:#ffffff;fill-opacity:1;fill-rule:nonzero;stroke:none;stroke-width:0.22214" /><path
     id="path10"
     d="m 83.561219,14.869038 c -1.023488,0 -1.885147,-0.18873 -2.585397,-0.565323 -0.700276,-0.376594 -1.225259,-0.975772 -1.575372,-1.797067 -0.350137,-0.821317 -0.524983,-1.891675 -0.524983,-3.211497 0,-1.332839 0.188283,-2.4066403 0.565321,-3.2214492 0.377038,-0.8143644 0.912418,-1.4100768 1.605741,-1.7870924 0.693318,-0.3770379 1.531565,-0.5657679 2.51469,-0.5657679 1.049966,0 1.911624,0.1752906 2.584993,0.524983 0.67335,0.3501146 1.174897,0.9323651 1.504645,1.747174 0.329742,0.8148089 0.495035,1.9155337 0.495035,3.3021525 v 0.585738 h -5.675406 c 0,0.565746 0.03344,1.029996 0.101097,1.393572 0.06724,0.363576 0.181778,0.636475 0.343186,0.818274 0.161382,0.1818 0.383964,0.272477 0.666839,0.272477 0.215208,0 0.390475,-0.03341 0.524983,-0.101096 0.134508,-0.06726 0.24253,-0.168338 0.323238,-0.302843 0.0807,-0.134506 0.134501,-0.302843 0.161407,-0.505012 0.02689,-0.201748 0.04036,-0.437349 0.04036,-0.706783 h 3.49437 c 0,0.700273 -0.09112,1.305938 -0.2729,1.817481 -0.181797,0.511944 -0.461202,0.939318 -0.83824,1.282502 -0.377039,0.343628 -0.851684,0.599178 -1.423938,0.767515 -0.572279,0.167893 -1.248671,0.252062 -2.029647,0.252062 M 82.490907,8.1844519 h 2.059992 c 0,-0.363576 -0.01694,-0.669885 -0.05075,-0.9189258 C 84.466332,7.0164853 84.412512,6.8143158 84.338738,6.6594177 84.264567,6.5049642 84.163471,6.3938942 84.035915,6.3262084 83.907918,6.2589664 83.749558,6.2251123 83.56125,6.2251123 c -0.255974,0 -0.45772,0.067686 -0.605665,0.2021919 -0.148392,0.1345056 -0.259463,0.3431835 -0.333212,0.6260562 -0.0742,0.2828953 -0.118022,0.6599107 -0.13146,1.1310915 z"
     style="fill:#ffffff;fill-opacity:1;fill-rule:nonzero;stroke:none;stroke-width:0.22214" /><path
     id="path11"
     d="m 95.333336,14.884677 c -0.632584,0 -1.157989,-0.137971 -1.575371,-0.413491 -0.417376,-0.275942 -0.747566,-0.649493 -0.989655,-1.121117 h -0.10065 l -0.222141,1.292498 H 89.536866 V 0 h 3.534708 v 5.1096373 h 0.12107 c 0.134482,-0.2689891 0.302816,-0.5080559 0.505009,-0.716734 0.201752,-0.2087003 0.450787,-0.3700849 0.747124,-0.4846424 0.295891,-0.1145353 0.632566,-0.171803 1.010051,-0.171803 0.727151,0 1.322841,0.1952387 1.787513,0.585716 0.46425,0.3904774 0.807852,0.989655 1.029993,1.7975108 0.222141,0.8078559 0.333212,1.8313647 0.333212,3.0700384 0,1.2521579 -0.114534,2.3025459 -0.343608,3.1507419 -0.229093,0.848219 -0.582247,1.484272 -1.060382,1.908159 -0.478115,0.423887 -1.100706,0.636053 -1.86822,0.636053 m -1.312445,-2.948129 c 0.242089,0 0.433861,-0.06031 0.575295,-0.181799 0.14144,-0.121044 0.245578,-0.309351 0.313263,-0.565323 0.06724,-0.255994 0.101097,-0.572277 0.101097,-0.949736 V 8.522882 c 0,-0.3904775 -0.03388,-0.7067822 -0.101097,-0.9488701 C 94.841764,7.3319241 94.737626,7.1466593 94.596186,7.0186621 94.454752,6.8906655 94.26298,6.8264669 94.020891,6.8264669 c -0.18873,0 -0.347097,0.037296 -0.475093,0.11107 -0.127997,0.074172 -0.229068,0.18873 -0.302842,0.3436061 -0.0742,0.1548975 -0.124508,0.3401623 -0.151409,0.5553492 -0.02689,0.2156309 -0.04036,0.4716247 -0.04036,0.7675149 v 1.5753719 c 0,0.377037 0.02689,0.696786 0.0807,0.959288 0.05378,0.262925 0.154903,0.461629 0.303289,0.596135 0.147945,0.134483 0.343186,0.201746 0.585717,0.201746 z"
     style="fill:#ffffff;fill-opacity:1;fill-rule:nonzero;stroke:none;stroke-width:0.22214" /><path
     id="path12"
     d="m 103.81868,14.869038 c -0.68681,0 -1.28946,-0.07417 -1.80749,-0.221695 -0.51847,-0.147945 -0.95278,-0.360111 -1.30289,-0.636053 -0.35014,-0.275942 -0.61611,-0.609574 -0.797884,-1.000051 -0.181797,-0.3905 -0.272479,-0.841288 -0.272479,-1.353232 0,-0.03991 0.0031,-0.110647 0.0099,-0.211743 0.0069,-0.100652 0.01694,-0.19826 0.03041,-0.292847 h 3.150723 c -0.0134,0.107604 -0.02,0.188286 -0.02,0.242088 0,0.0538 0,0.114535 0,0.181799 0,0.175269 0.0404,0.330167 0.12105,0.464672 0.0807,0.134483 0.19481,0.239045 0.34318,0.31324 0.14839,0.07419 0.33019,0.111069 0.54538,0.111069 0.14794,0 0.29286,-0.01995 0.4343,-0.06073 0.14144,-0.04034 0.25901,-0.114535 0.3536,-0.22214 0.0941,-0.107604 0.14144,-0.255972 0.14144,-0.444279 0,-0.26899 -0.1011,-0.47769 -0.30326,-0.626079 -0.2022,-0.148367 -0.46815,-0.272899 -0.79789,-0.373995 -0.32974,-0.100651 -0.68335,-0.211721 -1.05994,-0.333209 -0.33667,-0.09414 -0.67335,-0.215187 -1.01005,-0.363577 -0.33658,-0.1479482 -0.64289,-0.3397215 -0.91883,-0.5753008 -0.27594,-0.2356015 -0.49504,-0.5419099 -0.65645,-0.9189253 -0.161383,-0.377038 -0.242083,-0.8417104 -0.242083,-1.3940163 0,-0.6460268 0.11107,-1.1844716 0.333203,-1.6152895 0.22214,-0.4308401 0.52845,-0.7844422 0.91893,-1.0603843 0.39048,-0.2759198 0.83476,-0.4711585 1.33284,-0.585716 0.49808,-0.1145352 1.02348,-0.1718029 1.57537,-0.1718029 0.52499,0 1.02653,0.057268 1.50464,0.1718029 0.47814,0.1145575 0.90202,0.2894037 1.27255,0.524983 0.37009,0.2356014 0.65947,0.5319137 0.86817,0.8885592 0.20868,0.3570675 0.31324,0.7844422 0.31324,1.2825021 0,0.080703 -0.003,0.1752905 -0.01,0.2828947 -0.007,0.1076048 -0.0169,0.2017475 -0.0303,0.2824508 H 104.7077 V 6.8715828 c 0,-0.174846 -0.0373,-0.3162827 -0.11107,-0.4238868 -0.0742,-0.1076048 -0.17528,-0.1887302 -0.30328,-0.2425325 -0.12798,-0.053802 -0.27246,-0.081125 -0.43386,-0.081125 -0.0811,0 -0.16876,0.00693 -0.26293,0.02037 -0.0946,0.013461 -0.18526,0.047293 -0.2729,0.1010958 -0.0876,0.053802 -0.15792,0.1214884 -0.21172,0.2021917 -0.0538,0.080703 -0.0807,0.1817769 -0.0807,0.3023986 0,0.2156309 0.0842,0.3874563 0.25251,0.5154309 0.16833,0.1279972 0.39351,0.2356014 0.67639,0.3232356 0.28289,0.087634 0.59267,0.1917733 0.92934,0.3128175 0.34972,0.094587 0.71676,0.2056566 1.10031,0.3332093 0.38352,0.1279972 0.74059,0.3028432 1.07033,0.5249832 0.32974,0.2221399 0.59571,0.5184741 0.79789,0.888981 0.20218,0.3705299 0.30328,0.8447539 0.30328,1.4235169 0,0.700274 -0.10805,1.289455 -0.32323,1.767588 -0.21563,0.478112 -0.52194,0.868589 -0.91893,1.171432 -0.39743,0.302844 -0.85864,0.521518 -1.38362,0.656001 -0.52496,0.134506 -1.09724,0.201748 -1.71681,0.201748 z"
     style="fill:#ffffff;fill-opacity:1;fill-rule:nonzero;stroke:none;stroke-width:0.22214" /><path
     id="path13"
     d="M 109.53162,2.7264105 V 0 h 3.53429 v 2.7264105 h -3.53429 m 0,11.9161565 V 3.9785459 h 3.53429 V 14.642567 Z"
     style="fill:#ffffff;fill-opacity:1;fill-rule:nonzero;stroke:none;stroke-width:0.22214" /><path
     id="path14"
     d="m 118.09269,14.887276 c -0.55232,0 -1.03694,-0.0807 -1.45433,-0.24211 -0.41737,-0.161385 -0.74061,-0.430396 -0.9697,-0.807412 -0.22907,-0.377038 -0.34319,-0.875119 -0.34319,-1.494689 V 6.6876296 h -1.09072 V 3.9811672 h 1.21177 l 0.66686,-3.2314454 h 2.74681 v 3.2314454 h 1.53458 v 2.7064624 h -1.53458 v 4.4840024 c 0,0.323236 0.0434,0.565768 0.13103,0.727153 0.0876,0.161406 0.27941,0.24211 0.57575,0.24211 h 0.8278 v 2.403619 c -0.25597,0.06724 -0.52194,0.130596 -0.79788,0.191329 -0.27592,0.06031 -0.53842,0.100674 -0.78746,0.121066 -0.24905,0.01995 -0.48809,0.03036 -0.71674,0.03036 z"
     style="fill:#ffffff;fill-opacity:1;fill-rule:nonzero;stroke:none;stroke-width:0.22214" /><path
     id="path15"
     d="m 126.05478,14.869038 c -1.02349,0 -1.88514,-0.18873 -2.58539,-0.565323 -0.70028,-0.376594 -1.22526,-0.975772 -1.57538,-1.797067 -0.35013,-0.821317 -0.52498,-1.891675 -0.52498,-3.211497 0,-1.332839 0.18829,-2.4066403 0.56533,-3.2214492 0.37703,-0.8143644 0.91241,-1.4100768 1.60573,-1.7870924 0.69332,-0.3770379 1.53157,-0.5657679 2.51469,-0.5657679 1.04997,0 1.91163,0.1752906 2.585,0.524983 0.67335,0.3501146 1.1749,0.9323651 1.50464,1.747174 0.32974,0.8148089 0.49504,1.9155337 0.49504,3.3021525 v 0.585738 h -5.6754 c 0,0.565746 0.0334,1.029996 0.10109,1.393572 0.0672,0.363576 0.18177,0.636475 0.34318,0.818274 0.16138,0.1818 0.38397,0.272477 0.66684,0.272477 0.21522,0 0.39048,-0.03341 0.52498,-0.101096 0.13451,-0.06726 0.24254,-0.168338 0.32324,-0.302843 0.0807,-0.134506 0.13451,-0.302843 0.16141,-0.505012 0.0269,-0.201748 0.0404,-0.437349 0.0404,-0.706783 h 3.49437 c 0,0.700273 -0.0911,1.305938 -0.27292,1.817481 -0.18177,0.511944 -0.46118,0.939318 -0.83822,1.282502 -0.37704,0.343628 -0.85168,0.599178 -1.42394,0.767515 -0.57227,0.167893 -1.24867,0.252062 -2.02964,0.252062 m -1.07038,-6.6845861 h 2.05999 c 0,-0.363576 -0.0169,-0.669885 -0.0508,-0.9189258 -0.0338,-0.2490408 -0.0876,-0.4512103 -0.16141,-0.6061084 -0.0742,-0.1544535 -0.17527,-0.2655235 -0.30282,-0.3332093 -0.128,-0.067242 -0.28636,-0.1010961 -0.47467,-0.1010961 -0.25597,0 -0.45772,0.067686 -0.60566,0.2021919 -0.14839,0.1345056 -0.25946,0.3431835 -0.33321,0.6260562 -0.0742,0.2828953 -0.11803,0.6599107 -0.13146,1.1310915 z"
     style="fill:#ffffff;fill-opacity:1;fill-rule:nonzero;stroke:none;stroke-width:0.22214" /><path
     id="path16"
     d="M 132.11373,14.641256 V 10.88485 h 3.35294 v 3.756406 z"
     style="fill:#ffffff;fill-opacity:1;fill-rule:nonzero;stroke:none;stroke-width:0.22214" /></svg>
