<svg xmlns="http://www.w3.org/2000/svg" viewBox="0 -0.5 48 48" shape-rendering="crispEdges">
<metadata>Made with Pixels to Svg https://codepen.io/shshaw/pen/XbxvNj</metadata>
<path stroke="#66cdcd" d="M17 0h1M17 1h1M5 2h1M12 2h2M24 2h1M13 3h1M14 4h1M20 5h1M29 6h1M6 7h1M4 8h1M7 8h1M5 9h2M0 13h2M7 28h1M11 30h1" />
<path stroke="#66ffcd" d="M18 0h1M17 4h1M6 15h2M10 16h1M12 16h1M10 17h1M24 17h2M27 20h2M32 20h1M29 21h1M12 30h2M17 30h1M15 31h1M17 34h1" />
<path stroke="#9acd9a" d="M25 0h1M31 0h1M19 1h1M31 2h1M6 3h1M6 4h1M9 4h1M30 4h1M7 5h1M31 15h1M36 15h1M36 16h1M10 26h1" />
<path stroke="#ffff2f" d="M18 1h1M18 2h1M10 6h1M18 6h1M28 6h1M9 7h2M17 7h2M26 7h2M10 8h1M19 8h1M21 8h1M25 8h1M27 8h1M11 9h4M21 9h1M15 10h3M21 10h2M16 11h1M18 11h1M21 11h1M24 11h1M28 11h1M30 11h1M17 12h1M20 12h1M23 12h1M26 12h1M12 13h1M29 13h1M35 13h1M18 14h1M10 15h1M16 15h1M18 15h1M13 16h1M16 16h1M18 16h1M18 17h1M13 18h4M18 18h1M17 19h2M11 20h1M15 20h2M18 20h1M13 21h2M18 21h1M18 22h1M9 23h1M18 23h1M18 25h1M18 26h1M18 27h1" />
<path stroke="#66cd9a" d="M21 1h1M10 3h1M28 3h2M24 6h1M29 7h1M4 10h1M6 10h1M2 15h1M37 15h1" />
<path stroke="#2fcdcd" d="M24 1h1M32 1h1M7 3h1M14 3h1M23 3h1M32 3h1M11 4h1M23 4h1M23 6h1M31 25h1" />
<path stroke="#66ff9a" d="M25 1h1M24 3h1M15 8h1M33 9h1M32 10h1M27 19h1M13 23h1" />
<path stroke="#9a9a66" d="M30 1h1M20 17h2M23 19h1M24 20h1M25 21h1M26 22h1M27 23h1M28 24h1M29 25h1M30 26h1M31 27h1M33 29h1M34 30h1M37 33h1M39 35h1" />
<path stroke="#cdff2f" d="M31 1h1M30 2h1M29 4h1M7 12h1M25 16h1M28 17h1M28 19h1M13 22h1M10 23h1M15 23h1M6 25h1M9 25h1M16 25h1M6 26h1" />
<path stroke="#cd9a30" d="M17 2h1M26 5h1" />
<path stroke="#cdff9a" d="M19 2h1M18 4h1M8 12h1M9 15h1M11 15h1M14 16h1M24 16h1M9 17h1M12 17h2M12 19h1M5 21h1M14 24h1M7 27h1" />
<path stroke="#2f9a66" d="M21 2h1M23 2h1M20 3h1M20 4h1M31 5h1M31 7h1M39 15h1" />
<path stroke="#669acd" d="M25 2h1M13 4h1M25 19h1M40 19h1M42 19h1M35 37h2M24 41h1" />
<path stroke="#009aff" d="M29 2h1M34 3h1M21 4h2M14 5h1M16 5h1M13 6h1M16 6h1M34 6h2M30 8h1M37 8h1M9 9h1M30 9h1M3 16h1M41 17h1M39 18h2M42 18h2M3 19h1M41 19h1M3 20h1M3 21h1M39 38h1M39 39h2M17 40h1M38 40h2M16 41h1M37 41h2M17 42h1M37 42h1M16 43h1M18 43h1M16 44h2M22 44h1M24 44h1M23 45h1" />
<path stroke="#00669a" d="M15 3h2M21 3h1M26 3h1M16 4h1M13 5h1M34 5h1M9 8h1M7 9h1M6 11h1M2 17h2M2 18h2M2 19h1M1 20h1M1 21h1M1 22h1M1 23h1M1 24h1M1 25h1M1 26h1M1 27h1" />
<path stroke="#9acdcd" d="M17 3h1M29 5h1M23 7h1M29 9h1M4 12h1M8 27h1" />
<path stroke="#cdff66" d="M18 3h1M12 7h1M24 7h1M17 8h1M27 9h1M12 10h1M10 12h3M27 12h1M27 16h1M27 18h1M15 25h1M15 26h1M15 29h1M16 30h1" />
<path stroke="#ffcd30" d="M19 3h1M19 4h1M20 7h1M20 8h1M22 14h1M31 14h1M34 14h1" />
<path stroke="#00309a" d="M22 3h1M27 3h1M15 4h1M33 5h1M35 5h1M36 6h2M38 7h1M8 8h1M19 14h1M2 28h1M2 29h1M2 30h1M2 31h1M46 32h1M46 33h1M45 35h1M44 37h1M43 38h1M42 39h2M42 40h1M41 41h1M40 42h1M26 43h1M39 43h1M38 44h1M27 45h1" />
<path stroke="#009bff" d="M25 3h1M12 6h1" />
<path stroke="#cdcd66" d="M30 3h1M20 6h1M9 12h1M21 14h1" />
<path stroke="#2f9aff" d="M31 3h1M38 16h1M5 17h1M38 17h1M37 18h1M4 19h1M35 19h1M3 22h1M3 23h1M3 27h1M3 28h2M37 37h2M38 38h1M21 46h1M23 46h1M25 46h1" />
<path stroke="#ffff9a" d="M7 4h1M28 4h1M28 5h1M11 7h1M11 8h2M24 8h1M18 9h1M25 9h1M14 10h1M13 11h1M14 12h1M16 12h1M21 12h1M24 12h1M9 13h1M13 13h1M15 13h1M17 13h1M24 13h1M26 13h1M32 13h1M5 14h1M16 14h1M8 15h1M13 15h1M15 16h1M15 17h1M12 18h1M13 19h1M12 20h2M20 20h1M10 21h2M17 21h1M10 22h1M20 22h2M20 23h2M8 24h1M16 24h1M20 24h2M20 25h3M20 26h1M22 26h1M16 27h1M20 27h4M20 28h1M23 28h1M20 29h1M24 29h1M20 30h2M24 30h1M20 31h3M20 32h3M20 33h3M20 34h2M20 35h2M25 35h2M20 36h1M25 36h2M21 37h1M24 37h2M20 38h5M20 39h4M20 40h3M28 40h1M20 41h2M27 41h2M20 42h1M29 42h1M28 43h2M29 44h2M29 45h2M30 46h2M31 47h1" />
<path stroke="#9affcd" d="M8 4h1M2 13h1M28 15h1M11 19h1M10 20h1M8 22h1M12 23h1M10 24h1" />
<path stroke="#008181" d="M10 4h1M11 5h1M7 7h1" />
<path stroke="#2fcd66" d="M24 4h1M14 6h1M5 30h2" />
<path stroke="#669a00" d="M25 4h1M31 9h1M33 11h1M36 19h2M38 21h1M39 22h1M37 23h1M38 24h1M37 25h1M36 27h1M6 31h1" />
<path stroke="#5f5f5f" d="M26 4h1" />
<path stroke="#669a9a" d="M27 4h1M10 5h1M29 8h1M23 17h1M33 24h1M33 25h1M10 31h3M14 32h1M16 34h1M16 35h1M16 36h1" />
<path stroke="#2f9acd" d="M31 4h1M8 7h1M39 16h1M28 22h1M23 42h1M22 43h1" />
<path stroke="#3066cd" d="M32 4h1M32 5h1M41 16h1M39 19h1M44 19h1M2 20h1M2 21h1M2 22h1M2 23h1M2 24h1M2 25h1M2 26h1M2 27h1M3 29h1M3 30h1M41 39h1M40 40h1M37 43h1M17 45h2" />
<path stroke="#02669a" d="M33 4h1" />
<path stroke="#ffff66" d="M8 5h1M17 5h3M19 6h1M19 7h1M18 8h1M17 9h1M26 9h1M13 10h1M20 10h1M24 10h1M26 10h1M19 11h1M22 11h1M13 12h1M30 12h1M7 13h1M10 13h1M14 13h1M23 13h1M27 13h1M2 14h1M8 14h1M11 14h1M14 14h2M23 14h5M14 15h1M24 15h1M9 16h1M11 16h1M14 17h1M16 17h2M27 17h1M14 20h1M9 22h1M11 22h1M16 22h1M8 23h1M11 23h1M7 24h1M17 24h1" />
<path stroke="#2fcccd" d="M9 5h1" />
<path stroke="#00679a" d="M12 5h1M1 28h1" />
<path stroke="#2fcdff" d="M15 5h1M15 6h1M8 10h3M8 11h1M5 16h1M33 16h1M32 17h1M34 17h1M26 19h1M4 20h1M28 21h1M29 22h1M5 28h1M16 38h1M34 38h1M36 38h1M17 39h1M35 39h1M37 39h1M16 40h1M36 40h1M17 41h1M16 42h1M24 42h1M17 43h1M24 43h2M18 44h1M23 44h1" />
<path stroke="#66cd66" d="M21 5h1M7 11h1M6 12h1M7 29h1" />
<path stroke="#66cd00" d="M22 5h1M36 21h1M35 22h1M35 24h1M34 25h1M35 26h1M7 32h2M7 33h2M11 33h4M10 34h3M14 34h1M8 35h4M13 35h1M15 35h1" />
<path stroke="#00ff9a" d="M23 5h1M22 6h1M4 17h1M34 20h1M6 21h1M15 32h1M16 33h1" />
<path stroke="#009a30" d="M24 5h1M10 28h1M4 29h3M15 37h1" />
<path stroke="#666600" d="M25 5h1" />
<path stroke="#ffffff" d="M27 5h1M26 8h1M25 10h1M17 15h1M7 23h1M8 25h1" />
<path stroke="#2f9a9a" d="M30 5h1M30 7h1M40 16h1M29 23h1M30 24h1M4 30h1M15 42h1M15 44h1" />
<path stroke="#9aff9a" d="M8 6h1M28 8h1M22 9h1M28 9h1M27 10h1M12 11h1M28 12h1M4 15h1M30 15h1M33 15h1M9 21h1M11 24h1M6 27h1" />
<path stroke="#cccd9a" d="M9 6h1" />
<path stroke="#9a9a30" d="M11 6h1" />
<path stroke="#ffff00" d="M17 6h1M26 6h2M13 8h1M23 9h1M23 10h1M17 11h1M20 11h1M23 11h1M26 11h1M4 13h2M11 13h1M20 13h1M30 13h2M29 14h1M32 14h1M15 15h1M25 15h2M28 18h1M14 19h3M17 20h1M12 21h1M16 21h1M14 23h1M17 23h1M7 25h1M16 26h2" />
<path stroke="#2fffff" d="M21 6h1M21 7h2M22 8h1M30 10h2M11 11h1M31 11h2M35 14h1M34 15h2M8 17h1M9 18h1M32 18h1M34 18h1M8 19h2M33 19h2M7 20h2M7 22h1M31 22h2M4 23h1M31 23h2M5 24h2M12 24h1M15 24h1M31 24h2M5 25h1M11 25h1M32 25h1M7 26h1M14 27h1M6 28h1M17 28h1M14 29h1M17 29h2M18 30h1M18 31h1M16 32h1M18 33h1M18 34h1M18 35h1M18 37h1M17 38h1M16 39h1M18 41h1" />
<path stroke="#cdcd30" d="M25 6h1M25 7h1M23 8h1M35 12h1" />
<path stroke="#2fcfcd" d="M30 6h1" />
<path stroke="#2f9a30" d="M31 6h1" />
<path stroke="#306600" d="M32 6h1M43 21h1M43 22h1M42 23h1M42 24h2M43 25h1M42 26h2M41 27h2M34 28h1M42 28h1M41 29h2M41 30h1M4 31h1M37 31h1M40 31h2M39 32h2M6 36h1M6 37h2M9 39h1M10 40h1M11 41h1" />
<path stroke="#006600" d="M33 6h1M35 7h1M36 8h1M38 8h1M36 9h2M37 10h2M38 11h2M40 12h1M41 14h2M45 20h1M44 22h1M44 23h1M44 25h1M44 27h1M43 28h1M35 29h1M44 29h1M42 30h2M3 31h1M42 31h1M44 31h1M2 32h1M41 32h1M43 32h1M40 33h1M42 33h1M3 34h3M41 34h1M5 35h1M4 36h2M6 38h3M7 39h2M8 40h2M9 41h2M10 42h5M11 43h4M11 44h1M13 44h2M13 45h1" />
<path stroke="#9acd66" d="M13 7h1M3 15h1M10 27h1" />
<path stroke="#00cd30" d="M14 7h1M7 16h1M6 17h1M5 18h4M7 19h1M7 21h1M6 22h1M8 29h1" />
<path stroke="#9acd30" d="M15 7h1M10 9h1" />
<path stroke="#cdcc66" d="M16 7h1" />
<path stroke="#9aff98" d="M28 7h1M32 15h1" />
<path stroke="#008100" d="M32 7h1M34 8h1M35 9h1M37 11h1M38 12h2M40 13h1M41 21h2M40 22h3M41 23h1M43 23h1M41 24h1M39 25h1M41 25h2M40 26h2M39 27h2M38 28h4M39 29h2M37 30h4M38 31h2M4 32h1M5 33h1M6 35h1M8 36h1M15 36h1M9 37h1M9 38h1M14 38h1M10 39h1M14 39h1M11 40h2M14 40h1M13 41h2" />
<path stroke="#009a00" d="M33 7h2M31 8h1M35 8h1M34 9h1M36 10h1M36 11h1M38 20h2M39 21h2M39 23h1M39 24h1M38 25h1M40 25h1M38 26h2M37 27h2M35 28h1M37 28h1M36 29h3" />
<path stroke="#003000" d="M36 7h1M38 9h2M39 10h2M40 11h1M41 12h1M42 13h1M43 14h1M41 15h3M42 16h2M42 20h2M46 20h1M44 21h1M45 22h1M45 23h2M44 24h3M45 25h1M44 26h2M45 27h2M44 28h1M46 28h1M43 29h1M45 29h2M44 30h3M43 31h1M45 31h1M42 32h1M44 32h2M41 33h1M43 33h3M40 34h1M42 34h4M42 35h3M42 36h3M5 37h1M41 37h3M42 38h1M6 39h1M8 41h1M9 42h1M10 43h1M12 44h1" />
<path stroke="#00009a" d="M37 7h1M39 8h1M44 15h1M45 16h1M45 17h1M45 18h2M46 19h1" />
<path stroke="#fecd30" d="M14 8h1" />
<path stroke="#66ffff" d="M16 8h1M15 9h2M28 10h1M29 11h1M33 14h1M5 15h1M28 16h2M31 16h1M29 17h1M31 17h1M25 18h2M30 18h1M8 21h1M32 21h1M10 25h1M5 26h1M12 26h1M11 27h1M12 28h2M11 29h3M17 32h1M17 33h1M17 35h1M17 36h1" />
<path stroke="#00cd00" d="M32 8h2M32 9h1M34 10h2M34 11h2M36 12h2M37 14h1M36 20h2M37 21h1M36 22h2M36 23h1M38 23h1M36 24h1M36 25h1M35 27h1M8 30h1M9 33h2M9 34h1M15 34h1M14 35h1M12 36h3M11 37h1M14 37h1M12 38h1" />
<path stroke="#2fcfff" d="M8 9h1" />
<path stroke="#ffffcd" d="M19 9h1M18 10h2M15 11h1M15 12h1M19 12h1M22 12h1M25 12h1M18 13h1M22 13h1M33 13h2M7 14h1M9 14h1M12 14h1M23 15h1M17 16h1M16 23h1M9 24h1M21 28h2M23 29h1M22 30h2M23 31h1M23 32h3M23 33h3M23 34h4M22 35h3M21 36h1M24 36h1M22 37h2" />
<path stroke="#ffcd66" d="M20 9h1M29 20h1" />
<path stroke="#fffe66" d="M24 9h1M8 13h1" />
<path stroke="#000066" d="M40 9h1M41 10h1M42 11h1M43 12h1M44 14h1M45 15h1M25 20h1M28 23h1M37 32h1M33 37h1M33 38h1M25 39h1M34 39h1M34 40h1M35 41h1M35 42h1M36 43h1M36 44h1" />
<path stroke="#66cc9a" d="M7 10h1" />
<path stroke="#cdcd9a" d="M11 10h1" />
<path stroke="#66fffe" d="M29 10h1" />
<path stroke="#00cd02" d="M33 10h1" />
<path stroke="#9afeff" d="M9 11h1" />
<path stroke="#9affff" d="M10 11h1M33 12h1M11 17h1M11 18h1M10 19h1M9 20h1M15 22h1M6 23h1M13 24h1M12 25h1M14 25h1M8 26h1M11 26h1M13 26h2M13 27h1M16 31h2" />
<path stroke="#fffbf0" d="M14 11h1M16 13h1M25 13h1M10 14h1M13 14h1M17 14h1M22 34h1" />
<path stroke="#fdff66" d="M25 11h1M28 13h1M17 18h1" />
<path stroke="#9aff66" d="M27 11h1M29 12h1M32 12h1M34 12h1M37 13h1M36 14h1M30 21h2M17 27h1" />
<path stroke="#161616" d="M41 11h1M42 12h1" />
<path stroke="#98cdcd" d="M3 12h1" />
<path stroke="#2f9a9b" d="M5 12h1" />
<path stroke="#ffff64" d="M18 12h1" />
<path stroke="#fffd66" d="M31 12h1" />
<path stroke="#e8e8d7" d="M3 13h1M17 25h1" />
<path stroke="#cdffcd" d="M6 13h1M29 18h1M30 19h1M17 22h1M15 27h1" />
<path stroke="#d8d8d8" d="M19 13h1" />
<path stroke="#ffff9b" d="M21 13h1M20 37h1M28 42h1" />
<path stroke="#cdff00" d="M36 13h1M27 15h1M29 15h1" />
<path stroke="#67cd66" d="M38 13h1" />
<path stroke="#669a30" d="M39 13h1M38 14h3M5 31h1" />
<path stroke="#006601" d="M41 13h1" />
<path stroke="#161617" d="M43 13h1" />
<path stroke="#0000ff" d="M44 13h1M47 21h1M47 22h1M47 23h1M47 24h1M47 25h1M47 26h1M47 27h1M47 28h1M47 29h1" />
<path stroke="#cdffff" d="M1 14h1M15 21h1M12 22h1M13 25h1M15 28h1" />
<path stroke="#fdff00" d="M3 14h1" />
<path stroke="#cdfffe" d="M4 14h1" />
<path stroke="#fdff9a" d="M6 14h1M12 15h1" />
<path stroke="#878787" d="M20 14h1M26 20h1M28 44h1M29 46h1" />
<path stroke="#fffe2f" d="M28 14h1M26 16h1" />
<path stroke="#ffcd00" d="M30 14h1M20 18h1M20 19h1M21 20h1M30 20h1M21 21h1M22 22h1M22 23h1M22 24h1M23 25h1M23 26h1M24 27h1M24 28h1M25 29h1M25 30h1M25 31h1M26 32h1M26 33h1M27 34h1M27 35h1M26 37h1M25 38h1M24 39h1M23 40h1M22 41h1M21 42h1M20 43h1" />
<path stroke="#3066ff" d="M19 15h1M19 16h1M19 17h1M19 18h1M19 19h1M19 20h1M19 21h1M19 22h1M19 23h1M19 25h1M19 26h1M19 27h1M19 28h1M19 29h1M19 30h1M19 31h1M19 32h1M19 33h1M19 36h1M19 37h1M39 37h1M19 38h1M40 38h1M19 39h1M19 40h1M19 41h1M39 41h1M19 42h1M36 42h1M38 42h1M19 43h1M19 44h1M26 44h1M21 45h1M25 45h1M20 46h1M24 46h1M26 46h1" />
<path stroke="#30009a" d="M20 15h1M44 16h1M25 40h1M26 41h1M28 45h1M35 46h1" />
<path stroke="#666630" d="M21 15h1" />
<path stroke="#cd9a66" d="M22 15h1" />
<path stroke="#2d9a9a" d="M38 15h1" />
<path stroke="#006666" d="M40 15h1M38 19h1M40 20h2M33 27h1" />
<path stroke="#66ff2f" d="M4 16h1M6 16h1M8 16h1M7 17h1" />
<path stroke="#9a9a67" d="M20 16h1M22 18h1M36 32h1" />
<path stroke="#300030" d="M21 16h1M36 31h1M38 33h1M29 36h1M31 36h1M33 36h1M35 36h1M37 36h1M39 36h1M41 36h1M26 38h1M24 40h1M23 41h1M22 42h1M21 43h1M20 44h1M19 45h1" />
<path stroke="#666666" d="M22 16h1" />
<path stroke="#cdcdff" d="M23 16h1" />
<path stroke="#00ffff" d="M30 16h1M32 16h1M30 17h1M31 18h1M33 20h1M30 22h1M16 37h1" />
<path stroke="#2ecdff" d="M34 16h1" />
<path stroke="#00cdff" d="M35 16h1M35 17h3M39 17h1M35 18h2M18 36h1M17 37h1M18 38h1M18 40h1M18 42h1M25 44h1M22 45h1M24 45h1" />
<path stroke="#669aff" d="M37 16h1M40 17h1M41 18h1M3 26h1M34 37h1M35 38h1M37 38h1M36 39h1M38 39h1M35 40h1M25 41h1M36 41h1M25 42h1" />
<path stroke="#0030cd" d="M46 16h1M43 17h2M46 17h1M44 18h1M43 19h1M45 19h1M47 19h1M47 20h1M47 30h1M47 31h1M41 40h1M40 41h1M39 42h1M38 43h1M37 44h1M15 46h5M27 46h1M21 47h7" />
<path stroke="#300066" d="M22 17h1M29 24h1M28 36h1M30 36h1M32 36h1M34 36h1M36 36h1M38 36h1M40 36h1" />
<path stroke="#e4e4e4" d="M26 17h1" />
<path stroke="#2effff" d="M33 17h1M11 28h1" />
<path stroke="#3064cd" d="M42 17h1" />
<path stroke="#2f9a00" d="M4 18h1M5 19h1M5 20h1M35 20h1M35 21h1M34 22h1M38 22h1M34 23h2M34 24h1M35 25h1M34 26h1M36 26h2M34 27h1M7 30h1M7 31h1M5 32h1M7 34h2M7 35h1M7 36h1M9 36h1M11 36h1M8 37h1M10 37h1M12 37h1M10 38h2M11 39h3M13 40h1" />
<path stroke="#66feff" d="M10 18h1" />
<path stroke="#9a9aff" d="M21 18h1M22 19h1M22 20h2M23 21h2M23 22h3M24 23h3M24 24h4M26 25h3M25 26h1M27 26h2M26 27h1M28 27h3M26 28h6M27 29h6M27 30h7M28 31h1M30 31h5M28 32h5M34 32h2M29 33h3M33 33h4M27 39h1M26 40h1" />
<path stroke="#003066" d="M23 18h1M31 26h1" />
<path stroke="#0066cd" d="M24 18h1M27 21h1" />
<path stroke="#2dcdff" d="M33 18h1M23 43h1" />
<path stroke="#019aff" d="M38 18h1" />
<path stroke="#a7cbf0" d="M1 19h1" />
<path stroke="#66cd30" d="M6 19h1M6 20h1M9 28h1M9 31h1" />
<path stroke="#9a9acd" d="M21 19h1M22 21h1M23 23h1M23 24h1M24 25h1M24 26h1M25 27h1M25 28h1M26 29h1M26 30h1M27 31h1M27 32h1M28 33h1M28 34h1M31 34h3M35 34h3M29 35h1M31 35h8M29 38h1M29 39h2M30 40h1M30 41h1M31 43h2M32 44h1M32 45h2M33 46h1" />
<path stroke="#30309a" d="M24 19h1M30 25h1M32 37h1M31 38h1M32 39h1M33 40h1M34 41h1M33 42h1M34 43h1M35 44h1M15 45h1" />
<path stroke="#ffff98" d="M29 19h1" />
<path stroke="#2fffcd" d="M31 19h1M30 23h1M10 30h1M14 30h1" />
<path stroke="#2ffdff" d="M32 19h1M18 39h1" />
<path stroke="#fffd2f" d="M31 20h1" />
<path stroke="#306630" d="M44 20h1" />
<path stroke="#00cfff" d="M4 21h1" />
<path stroke="#fffd9a" d="M20 21h1M21 26h1M21 29h1" />
<path stroke="#303066" d="M26 21h1M32 27h1M14 45h1M29 47h1" />
<path stroke="#00ffcd" d="M33 21h1M10 29h1" />
<path stroke="#00cc9a" d="M34 21h1" />
<path stroke="#013000" d="M45 21h1" />
<path stroke="#080808" d="M46 21h1M46 22h1M46 25h1M46 26h1" />
<path stroke="#00cdcd" d="M4 22h1" />
<path stroke="#2fff9a" d="M5 22h1M9 30h1" />
<path stroke="#cdfd2f" d="M14 22h1" />
<path stroke="#300166" d="M27 22h1" />
<path stroke="#00cd9a" d="M33 22h1M33 23h1M15 40h1" />
<path stroke="#2ffeff" d="M5 23h1" />
<path stroke="#009a01" d="M40 23h1" />
<path stroke="#6698ff" d="M3 24h1" />
<path stroke="#66cdff" d="M4 24h1M4 26h1M4 27h1" />
<path stroke="#ffff2d" d="M18 24h1" />
<path stroke="#3064ff" d="M19 24h1M19 34h1M19 35h1" />
<path stroke="#00cf00" d="M37 24h1" />
<path stroke="#008101" d="M40 24h1" />
<path stroke="#6666ff" d="M3 25h1M28 37h3M27 38h1M30 38h1M26 39h1M31 39h1M32 41h1M32 42h1M33 44h1M34 45h1M34 46h1" />
<path stroke="#66cdfe" d="M4 25h1M5 27h1" />
<path stroke="#9a9bff" d="M25 25h1" />
<path stroke="#9afecd" d="M9 26h1" />
<path stroke="#9a9afd" d="M26 26h1M33 32h1" />
<path stroke="#9b9aff" d="M29 26h1" />
<path stroke="#2fcd9a" d="M32 26h1M13 31h1M15 41h1" />
<path stroke="#66989a" d="M33 26h1" />
<path stroke="#669a66" d="M9 27h1M8 28h1" />
<path stroke="#2ffffd" d="M12 27h1" />
<path stroke="#989aff" d="M27 27h1M29 31h1" />
<path stroke="#006700" d="M43 27h1" />
<path stroke="#66fdff" d="M14 28h1" />
<path stroke="#f8f8f8" d="M16 28h1" />
<path stroke="#2ffdfd" d="M18 28h1" />
<path stroke="#9b9a66" d="M32 28h1M35 31h1" />
<path stroke="#000030" d="M33 28h1M34 29h1M39 34h1M40 35h1M28 47h1" />
<path stroke="#2f9800" d="M36 28h1M6 34h1" />
<path stroke="#003200" d="M45 28h1M4 35h1" />
<path stroke="#029a30" d="M9 29h1" />
<path stroke="#feff2f" d="M16 29h1" />
<path stroke="#fffecd" d="M22 29h1M23 36h1" />
<path stroke="#9bff9a" d="M15 30h1" />
<path stroke="#003230" d="M35 30h1" />
<path stroke="#006630" d="M36 30h1M4 33h1" />
<path stroke="#2fcd00" d="M8 31h1M9 32h1M12 35h1" />
<path stroke="#2fff66" d="M14 31h1" />
<path stroke="#fffdcd" d="M24 31h1M22 36h1" />
<path stroke="#b3b4b3" d="M26 31h1" />
<path stroke="#003002" d="M46 31h1" />
<path stroke="#303000" d="M3 32h1M38 32h1M3 33h1" />
<path stroke="#66cf00" d="M6 32h1" />
<path stroke="#2fcd32" d="M10 32h1" />
<path stroke="#2fcd30" d="M11 32h3" />
<path stroke="#2ffffe" d="M18 32h1" />
<path stroke="#2e9a00" d="M6 33h1" />
<path stroke="#00cd66" d="M15 33h1M15 39h1" />
<path stroke="#c1c1c1" d="M27 33h1" />
<path stroke="#9a98ff" d="M32 33h1" />
<path stroke="#1c1c1c" d="M39 33h1" />
<path stroke="#2fcc00" d="M13 34h1" />
<path stroke="#9a9acf" d="M29 34h1M28 35h1" />
<path stroke="#9a9acc" d="M30 34h1" />
<path stroke="#9a98cd" d="M34 34h1M31 42h1" />
<path stroke="#9a9a64" d="M38 34h1" />
<path stroke="#989acd" d="M30 35h1M31 41h1" />
<path stroke="#020202" d="M41 35h1" />
<path stroke="#02cd00" d="M10 36h1" />
<path stroke="#fecd00" d="M27 36h1" />
<path stroke="#00cd01" d="M13 37h1" />
<path stroke="#4c4c4c" d="M27 37h1M31 37h1M32 38h1M33 39h1M32 40h1M33 41h1M34 42h1M33 43h1M35 43h1M34 44h1M35 45h1" />
<path stroke="#363636" d="M40 37h1M41 38h1" />
<path stroke="#006602" d="M5 38h1" />
<path stroke="#00cc00" d="M13 38h1" />
<path stroke="#00ff66" d="M15 38h1" />
<path stroke="#cd9a9b" d="M28 38h1" />
<path stroke="#cd9a9a" d="M28 39h1M27 40h1M29 40h1M30 42h1M31 44h1M32 46h1" />
<path stroke="#023000" d="M7 40h1" />
<path stroke="#6664ff" d="M31 40h1" />
<path stroke="#669afd" d="M37 40h1" />
<path stroke="#028100" d="M12 41h1" />
<path stroke="#efd7c7" d="M29 41h1M30 43h1M31 45h1M32 47h1" />
<path stroke="#670000" d="M26 42h1" />
<path stroke="#787878" d="M27 42h1" />
<path stroke="#008180" d="M15 43h1" />
<path stroke="#300098" d="M27 43h1" />
<path stroke="#30669a" d="M21 44h1" />
<path stroke="#660000" d="M27 44h1M28 46h1" />
<path stroke="#3066fe" d="M16 45h1" />
<path stroke="#01309a" d="M20 45h1" />
<path stroke="#2e9aff" d="M26 45h1" />
<path stroke="#30329a" d="M36 45h1" />
<path stroke="#0030cc" d="M37 45h1" />
<path stroke="#3166ff" d="M22 46h1" />
<path stroke="#0032cd" d="M36 46h1" />
<path stroke="#0130cd" d="M20 47h1" />
<path stroke="#feff9a" d="M30 47h1" />
</svg>