<?xml version="1.0" encoding="UTF-8" standalone="no"?>
<!-- Created with Inkscape (http://www.inkscape.org/) -->

<svg
   width="15.33076mm"
   height="4.3642302mm"
   viewBox="0 0 15.33076 4.36423"
   version="1.1"
   id="svg1"
   sodipodi:docname="art.svg"
   inkscape:version="1.4 (e7c3feb1, 2024-10-09)"
   xmlns:inkscape="http://www.inkscape.org/namespaces/inkscape"
   xmlns:sodipodi="http://sodipodi.sourceforge.net/DTD/sodipodi-0.dtd"
   xmlns="http://www.w3.org/2000/svg"
   xmlns:svg="http://www.w3.org/2000/svg">
  <sodipodi:namedview
     id="namedview1"
     pagecolor="#ffffff"
     bordercolor="#000000"
     borderopacity="0.25"
     inkscape:showpageshadow="2"
     inkscape:pageopacity="0.0"
     inkscape:pagecheckerboard="0"
     inkscape:deskcolor="#d1d1d1"
     inkscape:document-units="mm"
     inkscape:zoom="2.9647587"
     inkscape:cx="29.344715"
     inkscape:cy="7.9264461"
     inkscape:window-width="1104"
     inkscape:window-height="250"
     inkscape:window-x="0"
     inkscape:window-y="25"
     inkscape:window-maximized="0"
     inkscape:current-layer="layer1" />
  <defs
     id="defs1" />
  <g
     inkscape:label="Layer 1"
     inkscape:groupmode="layer"
     id="layer1"
     transform="translate(-110.33125,-137.05416)">
    <path
       style="fill:#000000;stroke:none;stroke-width:0.513794;stroke-opacity:1;paint-order:markers fill stroke"
       d="m 110.55506,137.38987 15.10695,-0.33571 -0.44761,4.25232 -14.88315,0.11191 z"
       id="path50"
       inkscape:label="art shape" />
    <path
       d="m 119.04385,139.12041 q 0.0143,-0.23763 0.11882,-0.39447 0.10456,-0.15684 0.26615,-0.25189 0.16159,-0.0951 0.3612,-0.13307 0.20436,-0.0428 0.40873,-0.0428 0.18535,0 0.37545,0.0285 0.19011,0.0238 0.34695,0.0998 0.15683,0.076 0.25664,0.21387 0.0998,0.13308 0.0998,0.35645 v 1.27846 q 0,0.16634 0.019,0.31843 0.019,0.15208 0.0665,0.22812 h -0.68438 q -0.019,-0.057 -0.0333,-0.11406 -0.009,-0.0618 -0.0142,-0.12357 -0.16159,0.16634 -0.38022,0.23288 -0.21862,0.0665 -0.44674,0.0665 -0.17585,0 -0.32794,-0.0428 -0.15208,-0.0428 -0.26614,-0.13307 -0.11407,-0.0903 -0.1806,-0.22813 -0.0618,-0.13782 -0.0618,-0.32793 0,-0.20911 0.0713,-0.34219 0.076,-0.13783 0.19011,-0.21862 0.11881,-0.0808 0.26614,-0.11882 0.15209,-0.0428 0.30417,-0.0665 0.15209,-0.0238 0.29942,-0.038 0.14733,-0.0143 0.2614,-0.0428 0.11406,-0.0285 0.1806,-0.0808 0.0665,-0.057 0.0618,-0.16159 0,-0.10931 -0.038,-0.1711 -0.0333,-0.0665 -0.0951,-0.0998 -0.057,-0.038 -0.13783,-0.0475 -0.076,-0.0143 -0.16634,-0.0143 -0.19961,0 -0.31368,0.0856 -0.11406,0.0856 -0.13307,0.28516 z m 1.55887,0.49903 q -0.0428,0.038 -0.10931,0.0618 -0.0618,0.019 -0.13783,0.0333 -0.0713,0.0143 -0.15208,0.0238 -0.0808,0.01 -0.16159,0.0238 -0.076,0.0143 -0.15209,0.038 -0.0713,0.0238 -0.12832,0.0665 -0.0523,0.038 -0.0855,0.0998 -0.0333,0.0618 -0.0333,0.15684 0,0.0903 0.0333,0.15208 0.0333,0.0618 0.0903,0.0998 0.057,0.0333 0.13307,0.0475 0.076,0.0143 0.15684,0.0143 0.19961,0 0.30892,-0.0665 0.10931,-0.0665 0.16159,-0.15683 0.0523,-0.0951 0.0618,-0.19011 0.0143,-0.0951 0.0143,-0.15208 z m 1.19766,-1.2547 v 2.45711 h 0.67488 v -1.10736 q 0,-0.16634 0.0333,-0.30892 0.0333,-0.14258 0.10931,-0.24714 0.0808,-0.10931 0.20911,-0.1711 0.12832,-0.0618 0.31368,-0.0618 0.0618,0 0.12832,0.01 0.0665,0.005 0.11406,0.0143 v -0.62734 q -0.0808,-0.0238 -0.14733,-0.0238 -0.12832,0 -0.24714,0.038 -0.11881,0.038 -0.22337,0.10931 -0.10456,0.0665 -0.18535,0.16635 -0.0808,0.095 -0.12833,0.20911 h -0.01 v -0.45625 z m 2.70425,0 v -0.73666 h -0.67487 v 0.73666 h -0.40873 v 0.4515 h 0.40873 v 1.44955 q 0,0.18536 0.0618,0.29942 0.0618,0.11406 0.16635,0.17585 0.10931,0.0618 0.24713,0.0808 0.14258,0.0238 0.29942,0.0238 0.0998,0 0.20436,-0.005 0.10456,-0.005 0.19011,-0.019 v -0.52279 q -0.0475,0.01 -0.0998,0.0143 -0.0523,0.005 -0.10931,0.005 -0.17109,0 -0.22812,-0.057 -0.057,-0.057 -0.057,-0.22812 v -1.21668 h 0.49428 v -0.4515 z"
       id="text50"
       style="font-weight:bold;font-size:4.75264px;font-family:'Helvetica Neue';-inkscape-font-specification:'Helvetica Neue Bold';fill:#f5f5f5;stroke-width:2.45341;paint-order:markers fill stroke"
       inkscape:label="art"
       aria-label="art" />
  </g>
</svg>
