<?xml version="1.0" encoding="UTF-8" standalone="no"?>
<!-- Created with Inkscape (http://www.inkscape.org/) -->

<svg
   width="27.574301mm"
   height="15.51513mm"
   viewBox="0 0 27.574301 15.51513"
   version="1.1"
   id="svg1"
   sodipodi:docname="contact.svg"
   inkscape:version="1.4 (e7c3feb1, 2024-10-09)"
   xmlns:inkscape="http://www.inkscape.org/namespaces/inkscape"
   xmlns:sodipodi="http://sodipodi.sourceforge.net/DTD/sodipodi-0.dtd"
   xmlns="http://www.w3.org/2000/svg"
   xmlns:svg="http://www.w3.org/2000/svg">
  <sodipodi:namedview
     id="namedview1"
     pagecolor="#ffffff"
     bordercolor="#000000"
     borderopacity="0.25"
     inkscape:showpageshadow="2"
     inkscape:pageopacity="0.0"
     inkscape:pagecheckerboard="0"
     inkscape:deskcolor="#d1d1d1"
     inkscape:document-units="mm"
     inkscape:zoom="2.9647587"
     inkscape:cx="26.309055"
     inkscape:cy="24.453929"
     inkscape:window-width="1104"
     inkscape:window-height="250"
     inkscape:window-x="0"
     inkscape:window-y="25"
     inkscape:window-maximized="0"
     inkscape:current-layer="layer1" />
  <defs
     id="defs1" />
  <g
     inkscape:label="Layer 1"
     inkscape:groupmode="layer"
     id="layer1"
     transform="translate(-135.73125,-116.94582)">
    <path
       style="fill:#000000;stroke-width:0.513794;paint-order:markers fill stroke"
       d="m 136.67257,131.56572 -0.89523,-13.61277 27.52821,-1.00713 -14.15774,7.66341 -13.41656,-5.49115 12.91497,6.27447 14.54742,-7.72921 -1.00713,14.79761 z"
       id="path41"
       sodipodi:nodetypes="ccccccccc"
       inkscape:label="envelope" />
    <path
       style="font-weight:bold;font-size:6.32938px;font-family:'Helvetica Neue';-inkscape-font-specification:'Helvetica Neue Bold';fill:#ffffff;stroke-width:3.26734;paint-order:markers fill stroke"
       d="m 139.67968,128.00028 h 0.87979 q -0.019,-0.31647 -0.15191,-0.54433 -0.13292,-0.23419 -0.34811,-0.38609 -0.20887,-0.15823 -0.48104,-0.23419 -0.26583,-0.0759 -0.55698,-0.0759 -0.39875,0 -0.70889,0.13292 -0.31014,0.13291 -0.52534,0.37343 -0.2152,0.23419 -0.32913,0.56332 -0.1076,0.32279 -0.1076,0.70256 0,0.3671 0.12026,0.67724 0.12026,0.30381 0.33546,0.52534 0.2152,0.22153 0.51901,0.34811 0.31014,0.12026 0.67724,0.12026 0.65193,0 1.06966,-0.34178 0.41774,-0.34179 0.50636,-0.99372 h -0.86713 q -0.0443,0.30381 -0.22153,0.48737 -0.17089,0.17722 -0.49369,0.17722 -0.20887,0 -0.35445,-0.0949 -0.14557,-0.0949 -0.23418,-0.24052 -0.0823,-0.1519 -0.12026,-0.33546 -0.038,-0.18355 -0.038,-0.36077 0,-0.18355 0.038,-0.3671 0.038,-0.18989 0.12659,-0.34179 0.0949,-0.15824 0.24051,-0.25318 0.14558,-0.10127 0.36078,-0.10127 0.57597,0 0.66458,0.56332 z m 2.20262,0.48736 q 0,-0.19621 0.038,-0.38609 0.038,-0.18988 0.12659,-0.33546 0.0949,-0.14557 0.24684,-0.23419 0.15191,-0.0949 0.37977,-0.0949 0.22785,0 0.37976,0.0949 0.15823,0.0886 0.24684,0.23419 0.0949,0.14558 0.13292,0.33546 0.038,0.18988 0.038,0.38609 0,0.19621 -0.038,0.38609 -0.038,0.18355 -0.13292,0.33546 -0.0886,0.14558 -0.24684,0.23419 -0.15191,0.0886 -0.37976,0.0886 -0.22786,0 -0.37977,-0.0886 -0.1519,-0.0886 -0.24684,-0.23419 -0.0886,-0.15191 -0.12659,-0.33546 -0.038,-0.18988 -0.038,-0.38609 z m -0.89877,0 q 0,0.39242 0.12026,0.70889 0.12026,0.31647 0.34179,0.54433 0.22152,0.22153 0.53166,0.34178 0.31014,0.12026 0.69624,0.12026 0.38609,0 0.69623,-0.12026 0.31647,-0.12025 0.538,-0.34178 0.22152,-0.22786 0.34178,-0.54433 0.12026,-0.31647 0.12026,-0.70889 0,-0.39242 -0.12026,-0.70889 -0.12026,-0.3228 -0.34178,-0.54433 -0.22153,-0.22785 -0.538,-0.34811 -0.31014,-0.12659 -0.69623,-0.12659 -0.3861,0 -0.69624,0.12659 -0.31014,0.12026 -0.53166,0.34811 -0.22153,0.22153 -0.34179,0.54433 -0.12026,0.31647 -0.12026,0.70889 z m 3.96852,-1.63931 v 3.27229 h 0.89878 v -1.71526 q 0,-0.50002 0.16456,-0.71522 0.16456,-0.22153 0.53167,-0.22153 0.3228,0 0.44938,0.20254 0.12659,0.19621 0.12659,0.60129 v 1.84818 h 0.89877 v -2.01274 q 0,-0.30381 -0.057,-0.55066 -0.0506,-0.25317 -0.18355,-0.42407 -0.13292,-0.17722 -0.36711,-0.27216 -0.22786,-0.10127 -0.58863,-0.10127 -0.28482,0 -0.55699,0.13292 -0.27216,0.12658 -0.44305,0.41141 h -0.019 v -0.45572 z m 4.89262,0 v -0.98105 h -0.89877 v 0.98105 h -0.54433 v 0.60129 h 0.54433 v 1.93046 q 0,0.24685 0.0823,0.39875 0.0823,0.15191 0.22153,0.23419 0.14557,0.0823 0.32912,0.1076 0.18988,0.0316 0.39875,0.0316 0.13292,0 0.27217,-0.006 0.13924,-0.006 0.25317,-0.0253 v -0.69623 q -0.0633,0.0127 -0.13291,0.019 -0.0696,0.006 -0.14558,0.006 -0.22786,0 -0.30381,-0.076 -0.076,-0.076 -0.076,-0.30381 v -1.62032 h 0.65825 v -0.60129 z m 4.28498,1.45576 0.39875,-1.63298 h -0.51901 l -0.10127,0.34179 q -0.1076,-0.24685 -0.32279,-0.34179 -0.2152,-0.10127 -0.41774,-0.10127 -0.31014,0 -0.56965,0.13924 -0.25317,0.13925 -0.43672,0.36711 -0.17723,0.22786 -0.2785,0.51901 -0.0949,0.29115 -0.0949,0.58863 0,0.22153 0.076,0.41774 0.0823,0.19621 0.2152,0.34812 0.13925,0.14557 0.31647,0.23418 0.18355,0.0823 0.38609,0.0823 0.20254,0 0.3861,-0.0886 0.18355,-0.0886 0.29748,-0.27849 h 0.0127 q 0.0126,0.15823 0.13291,0.2595 0.12659,0.10128 0.32913,0.10128 0.15191,0 0.39875,-0.10128 0.25318,-0.10759 0.49369,-0.32912 0.24685,-0.22153 0.41774,-0.56965 0.17723,-0.34811 0.17723,-0.83548 0,-0.43672 -0.18356,-0.79117 -0.18355,-0.36077 -0.48736,-0.60762 -0.30381,-0.25317 -0.70256,-0.39242 -0.39875,-0.13925 -0.82915,-0.13925 -0.49369,0 -0.93042,0.18356 -0.43673,0.18355 -0.76585,0.50002 -0.32913,0.31647 -0.51901,0.75319 -0.18988,0.4304 -0.18988,0.93042 0,0.50635 0.18988,0.94308 0.18988,0.4304 0.51901,0.74687 0.33545,0.31647 0.77851,0.49369 0.44306,0.17722 0.94941,0.17722 0.59496,0 1.10131,-0.2595 0.50635,-0.26584 0.82915,-0.75953 h -0.53167 q -0.24684,0.24685 -0.60762,0.38609 -0.35444,0.13292 -0.7532,0.13292 -0.40508,0 -0.75319,-0.13292 -0.34179,-0.13291 -0.58863,-0.37343 -0.24685,-0.24685 -0.3861,-0.5823 -0.13924,-0.34179 -0.13924,-0.75953 0,-0.39875 0.12658,-0.74054 0.12659,-0.34811 0.36078,-0.59496 0.23419,-0.25317 0.56331,-0.39242 0.33546,-0.14558 0.74054,-0.14558 0.36078,0 0.67092,0.10127 0.31646,0.10127 0.54432,0.30381 0.23419,0.19622 0.36711,0.48737 0.13291,0.28482 0.13291,0.66458 0,0.25318 -0.0696,0.46838 -0.0633,0.21519 -0.17089,0.37343 -0.10127,0.1519 -0.24052,0.24052 -0.13292,0.0823 -0.26583,0.0823 -0.057,0 -0.0823,-0.038 -0.0253,-0.0443 -0.0253,-0.1076 0,-0.0633 0.0127,-0.13291 0.019,-0.076 0.038,-0.13925 z m -1.69627,-0.20254 q 0,-0.15824 0.057,-0.3228 0.057,-0.16456 0.15824,-0.29748 0.1076,-0.13925 0.25317,-0.22153 0.14558,-0.0886 0.31647,-0.0886 0.20254,0 0.34179,0.1519 0.14557,0.15191 0.14557,0.3861 0,0.16456 -0.057,0.33545 -0.057,0.1709 -0.16456,0.31014 -0.10127,0.13292 -0.24685,0.22153 -0.13925,0.0886 -0.31014,0.0886 -0.22153,0 -0.36077,-0.1519 -0.13292,-0.15824 -0.13292,-0.41141 z m 5.79138,-0.10127 h 0.87978 q -0.019,-0.31647 -0.15191,-0.54433 -0.13291,-0.23419 -0.34811,-0.38609 -0.20887,-0.15823 -0.48103,-0.23419 -0.26584,-0.0759 -0.55699,-0.0759 -0.39875,0 -0.70889,0.13292 -0.31014,0.13291 -0.52534,0.37343 -0.2152,0.23419 -0.32913,0.56332 -0.1076,0.32279 -0.1076,0.70256 0,0.3671 0.12026,0.67724 0.12026,0.30381 0.33546,0.52534 0.2152,0.22153 0.51901,0.34811 0.31014,0.12026 0.67724,0.12026 0.65193,0 1.06967,-0.34178 0.41774,-0.34179 0.50635,-0.99372 h -0.86713 q -0.0443,0.30381 -0.22153,0.48737 -0.17089,0.17722 -0.49369,0.17722 -0.20887,0 -0.35444,-0.0949 -0.14558,-0.0949 -0.23419,-0.24052 -0.0823,-0.1519 -0.12026,-0.33546 -0.038,-0.18355 -0.038,-0.36077 0,-0.18355 0.038,-0.3671 0.038,-0.18989 0.12659,-0.34179 0.0949,-0.15824 0.24052,-0.25318 0.14557,-0.10127 0.36077,-0.10127 0.57597,0 0.66459,0.56332 z m 2.5444,-1.15195 v -0.98105 h -0.89877 v 0.98105 h -0.54433 v 0.60129 h 0.54433 v 1.93046 q 0,0.24685 0.0823,0.39875 0.0823,0.15191 0.22153,0.23419 0.14558,0.0823 0.32913,0.1076 0.18988,0.0316 0.39875,0.0316 0.13292,0 0.27216,-0.006 0.13925,-0.006 0.25318,-0.0253 v -0.69623 q -0.0633,0.0127 -0.13292,0.019 -0.0696,0.006 -0.14557,0.006 -0.22786,0 -0.30381,-0.076 -0.076,-0.076 -0.076,-0.30381 v -1.62032 h 0.65826 v -0.60129 z"
       id="text40-2"
       inkscape:label="contact"
       aria-label="cont@ct" />
  </g>
</svg>
