<?xml version="1.0" encoding="UTF-8" standalone="no"?>
<!-- Created with Inkscape (http://www.inkscape.org/) -->

<svg
   width="33.706379mm"
   height="13.14672mm"
   viewBox="0 0 33.70638 13.14672"
   version="1.1"
   id="svg1"
   sodipodi:docname="downloads.svg"
   inkscape:version="1.4 (e7c3feb1, 2024-10-09)"
   xmlns:inkscape="http://www.inkscape.org/namespaces/inkscape"
   xmlns:sodipodi="http://sodipodi.sourceforge.net/DTD/sodipodi-0.dtd"
   xmlns="http://www.w3.org/2000/svg"
   xmlns:svg="http://www.w3.org/2000/svg">
  <sodipodi:namedview
     id="namedview1"
     pagecolor="#ffffff"
     bordercolor="#000000"
     borderopacity="0.25"
     inkscape:showpageshadow="2"
     inkscape:pageopacity="0.0"
     inkscape:pagecheckerboard="0"
     inkscape:deskcolor="#d1d1d1"
     inkscape:document-units="mm"
     inkscape:zoom="2.9647587"
     inkscape:cx="52.61811"
     inkscape:cy="9.2756284"
     inkscape:window-width="1104"
     inkscape:window-height="250"
     inkscape:window-x="0"
     inkscape:window-y="25"
     inkscape:window-maximized="0"
     inkscape:current-layer="layer1" />
  <defs
     id="defs1" />
  <g
     inkscape:label="Layer 1"
     inkscape:groupmode="layer"
     id="layer1"
     transform="translate(-118.26875,-104.24582)">
    <path
       id="path44"
       style="fill:#000000;stroke-width:0.513794;paint-order:markers fill stroke"
       d="m 120.34088,104.80953 0.90661,12.25517 24.22509,-4.25607 0.63582,4.50928 5.86673,-5.7584 -7.55944,-6.24748 0.62653,4.44314 z"
       inkscape:label="arrow" />
    <path
       style="fill:#000000;stroke:none;stroke-width:0.513794;stroke-opacity:1;paint-order:markers fill stroke"
       d="m 118.26875,104.24582 1.57059,0.39364 0.78332,12.47529 -1.45868,0.27779 z"
       id="path47"
       sodipodi:nodetypes="ccccc"
       inkscape:label="line" />
    <path
       style="font-weight:bold;font-size:5.08977px;font-family:'Helvetica Neue';-inkscape-font-specification:'Helvetica Neue Bold';fill:#ffffff;stroke-width:2.62744;paint-order:markers fill stroke"
       d="m 127.18374,111.2826 q 0,0.16287 -0.0305,0.31557 -0.0305,0.15269 -0.10179,0.27484 -0.0713,0.11707 -0.19342,0.18833 -0.11706,0.0712 -0.2952,0.0712 -0.16796,0 -0.29012,-0.0712 -0.11706,-0.0764 -0.1985,-0.19341 -0.0763,-0.12216 -0.11197,-0.27485 -0.0356,-0.1527 -0.0356,-0.30539 0,-0.16287 0.0305,-0.31047 0.0356,-0.1527 0.10688,-0.26976 0.0763,-0.11707 0.1985,-0.18832 0.12216,-0.0713 0.3003,-0.0713 0.17814,0 0.2952,0.0713 0.11707,0.0713 0.18833,0.18832 0.0763,0.11197 0.10688,0.26467 0.0305,0.1476 0.0305,0.31047 z m 0.0102,0.98742 v 0.33592 h 0.68712 v -3.63409 h -0.72275 v 1.32334 h -0.0102 q -0.12215,-0.19341 -0.33592,-0.29012 -0.20868,-0.1018 -0.44281,-0.1018 -0.29012,0 -0.50898,0.11707 -0.21886,0.11197 -0.36646,0.3003 -0.14252,0.18832 -0.21886,0.43772 -0.0713,0.2443 -0.0713,0.50897 0,0.27485 0.0713,0.52934 0.0763,0.25449 0.21886,0.45299 0.1476,0.19341 0.37155,0.31047 0.22395,0.11198 0.51916,0.11198 0.25957,0 0.46317,-0.0916 0.20868,-0.0967 0.33592,-0.31047 z m 1.87304,-0.97724 q 0,-0.15778 0.0305,-0.31047 0.0305,-0.1527 0.1018,-0.26976 0.0764,-0.11707 0.1985,-0.18832 0.12215,-0.0764 0.30539,-0.0764 0.18323,0 0.30538,0.0764 0.12725,0.0712 0.1985,0.18832 0.0763,0.11706 0.10689,0.26976 0.0305,0.15269 0.0305,0.31047 0,0.15778 -0.0305,0.31048 -0.0305,0.1476 -0.10689,0.26975 -0.0713,0.11707 -0.1985,0.18833 -0.12215,0.0712 -0.30538,0.0712 -0.18324,0 -0.30539,-0.0712 -0.12215,-0.0713 -0.1985,-0.18833 -0.0713,-0.12215 -0.1018,-0.26975 -0.0305,-0.1527 -0.0305,-0.31048 z m -0.72275,0 q 0,0.31557 0.0967,0.57006 0.0967,0.25448 0.27485,0.43772 0.17814,0.17814 0.42754,0.27484 0.2494,0.0967 0.55988,0.0967 0.31047,0 0.55987,-0.0967 0.25449,-0.0967 0.43263,-0.27484 0.17814,-0.18324 0.27485,-0.43772 0.0967,-0.25449 0.0967,-0.57006 0,-0.31556 -0.0967,-0.57005 -0.0967,-0.25958 -0.27485,-0.43772 -0.17814,-0.18323 -0.43263,-0.27994 -0.2494,-0.1018 -0.55987,-0.1018 -0.31048,0 -0.55988,0.1018 -0.2494,0.0967 -0.42754,0.27994 -0.17814,0.17814 -0.27485,0.43772 -0.0967,0.25449 -0.0967,0.57005 z m 6.19934,1.31316 0.82963,-2.63141 h -0.74311 l -0.48352,1.78142 h -0.0102 l -0.4479,-1.78142 h -0.70239 l -0.43772,1.78651 h -0.0102 l -0.48353,-1.78651 h -0.76347 l 0.83473,2.63141 h 0.74819 l 0.4479,-1.76615 h 0.0102 l 0.46826,1.76615 z m 1.13501,-2.63141 v 2.63141 h 0.72275 v -1.37933 q 0,-0.40209 0.13233,-0.57514 0.13234,-0.17814 0.42754,-0.17814 0.25958,0 0.36138,0.16287 0.10179,0.15778 0.10179,0.48353 v 1.48621 h 0.72275 v -1.61855 q 0,-0.2443 -0.0458,-0.44281 -0.0407,-0.20359 -0.1476,-0.34101 -0.10689,-0.14251 -0.29521,-0.21886 -0.18323,-0.0814 -0.47335,-0.0814 -0.22904,0 -0.4479,0.10689 -0.21886,0.10179 -0.35628,0.33083 h -0.0153 v -0.36646 z m 3.0386,-1.00268 v 3.63409 h 0.72274 v -3.63409 z m 1.93411,2.32093 q 0,-0.15778 0.0305,-0.31047 0.0305,-0.1527 0.10179,-0.26976 0.0763,-0.11707 0.1985,-0.18832 0.12216,-0.0764 0.30539,-0.0764 0.18323,0 0.30538,0.0764 0.12725,0.0712 0.19851,0.18832 0.0763,0.11706 0.10688,0.26976 0.0305,0.15269 0.0305,0.31047 0,0.15778 -0.0305,0.31048 -0.0305,0.1476 -0.10688,0.26975 -0.0713,0.11707 -0.19851,0.18833 -0.12215,0.0712 -0.30538,0.0712 -0.18323,0 -0.30539,-0.0712 -0.12215,-0.0713 -0.1985,-0.18833 -0.0713,-0.12215 -0.10179,-0.26975 -0.0305,-0.1527 -0.0305,-0.31048 z m -0.72275,0 q 0,0.31557 0.0967,0.57006 0.0967,0.25448 0.27484,0.43772 0.17814,0.17814 0.42754,0.27484 0.2494,0.0967 0.55988,0.0967 0.31047,0 0.55987,-0.0967 0.25449,-0.0967 0.43263,-0.27484 0.17815,-0.18324 0.27485,-0.43772 0.0967,-0.25449 0.0967,-0.57006 0,-0.31556 -0.0967,-0.57005 -0.0967,-0.25958 -0.27485,-0.43772 -0.17814,-0.18323 -0.43263,-0.27994 -0.2494,-0.1018 -0.55987,-0.1018 -0.31048,0 -0.55988,0.1018 -0.2494,0.0967 -0.42754,0.27994 -0.17814,0.17814 -0.27484,0.43772 -0.0967,0.25449 -0.0967,0.57005 z m 3.16075,-0.50898 q 0.0153,-0.25448 0.12724,-0.42245 0.11198,-0.16796 0.28503,-0.26975 0.17305,-0.1018 0.38682,-0.14252 0.21886,-0.0458 0.43772,-0.0458 0.1985,0 0.40209,0.0305 0.20359,0.0255 0.37156,0.10689 0.16796,0.0814 0.27484,0.22904 0.10689,0.14251 0.10689,0.38173 v 1.36915 q 0,0.17814 0.0204,0.34101 0.0204,0.16288 0.0712,0.24431 h -0.73292 q -0.0204,-0.0611 -0.0356,-0.12215 -0.0102,-0.0662 -0.0153,-0.13234 -0.17305,0.17815 -0.40718,0.2494 -0.23413,0.0713 -0.47844,0.0713 -0.18832,0 -0.35119,-0.0458 -0.16288,-0.0458 -0.28503,-0.14251 -0.12216,-0.0967 -0.19341,-0.24431 -0.0662,-0.1476 -0.0662,-0.3512 0,-0.22395 0.0763,-0.36646 0.0814,-0.1476 0.20359,-0.23413 0.12724,-0.0865 0.28502,-0.12724 0.16288,-0.0458 0.32575,-0.0713 0.16287,-0.0255 0.32066,-0.0407 0.15778,-0.0153 0.27993,-0.0458 0.12216,-0.0305 0.19341,-0.0865 0.0713,-0.0611 0.0662,-0.17305 0,-0.11707 -0.0407,-0.18324 -0.0356,-0.0712 -0.10179,-0.10688 -0.0611,-0.0407 -0.14761,-0.0509 -0.0814,-0.0153 -0.17814,-0.0153 -0.21377,0 -0.33592,0.0916 -0.12216,0.0916 -0.14252,0.30538 z m 1.66944,0.53443 q -0.0458,0.0407 -0.11706,0.0662 -0.0662,0.0204 -0.14761,0.0356 -0.0763,0.0153 -0.16287,0.0254 -0.0865,0.0102 -0.17305,0.0255 -0.0814,0.0153 -0.16287,0.0407 -0.0763,0.0255 -0.13743,0.0713 -0.056,0.0407 -0.0916,0.10688 -0.0356,0.0662 -0.0356,0.16797 0,0.0967 0.0356,0.16287 0.0356,0.0662 0.0967,0.10688 0.0611,0.0356 0.14251,0.0509 0.0814,0.0153 0.16797,0.0153 0.21377,0 0.33083,-0.0713 0.11707,-0.0713 0.17305,-0.16796 0.056,-0.10179 0.0662,-0.20359 0.0153,-0.10179 0.0153,-0.16287 z m 3.15057,-0.0356 q 0,0.16287 -0.0305,0.31557 -0.0305,0.15269 -0.1018,0.27484 -0.0712,0.11707 -0.19341,0.18833 -0.11706,0.0712 -0.29521,0.0712 -0.16796,0 -0.29011,-0.0712 -0.11707,-0.0764 -0.1985,-0.19341 -0.0763,-0.12216 -0.11198,-0.27485 -0.0356,-0.1527 -0.0356,-0.30539 0,-0.16287 0.0305,-0.31047 0.0356,-0.1527 0.10689,-0.26976 0.0763,-0.11707 0.1985,-0.18832 0.12215,-0.0713 0.30029,-0.0713 0.17815,0 0.29521,0.0713 0.11707,0.0713 0.18832,0.18832 0.0763,0.11197 0.10689,0.26467 0.0305,0.1476 0.0305,0.31047 z m 0.0102,0.98742 v 0.33592 h 0.68711 v -3.63409 h -0.72274 v 1.32334 h -0.0102 q -0.12216,-0.19341 -0.33593,-0.29012 -0.20868,-0.1018 -0.44281,-0.1018 -0.29011,0 -0.50897,0.11707 -0.21886,0.11197 -0.36647,0.3003 -0.14251,0.18832 -0.21886,0.43772 -0.0712,0.2443 -0.0712,0.50897 0,0.27485 0.0712,0.52934 0.0764,0.25449 0.21886,0.45299 0.14761,0.19341 0.37156,0.31047 0.22395,0.11198 0.51915,0.11198 0.25958,0 0.46317,-0.0916 0.20868,-0.0967 0.33593,-0.31047 z m 1.79159,-0.51916 h -0.68712 q 0.0102,0.26467 0.11707,0.44281 0.11197,0.17305 0.27994,0.27994 0.17305,0.10688 0.39191,0.15269 0.21886,0.0458 0.4479,0.0458 0.22395,0 0.43772,-0.0458 0.21886,-0.0407 0.38682,-0.1476 0.16796,-0.10689 0.26976,-0.27994 0.10688,-0.17814 0.10688,-0.43772 0,-0.18323 -0.0712,-0.30539 -0.0713,-0.12724 -0.18832,-0.20868 -0.11707,-0.0865 -0.26976,-0.13742 -0.1476,-0.0509 -0.30539,-0.0865 -0.15269,-0.0356 -0.30029,-0.0662 -0.14761,-0.0305 -0.26467,-0.0662 -0.11198,-0.0407 -0.18323,-0.1018 -0.0713,-0.0611 -0.0713,-0.15778 0,-0.0814 0.0407,-0.12724 0.0407,-0.0509 0.0967,-0.0764 0.0611,-0.0255 0.13234,-0.0305 0.0713,-0.0102 0.13233,-0.0102 0.19341,0 0.33593,0.0764 0.14251,0.0713 0.15778,0.27994 h 0.68712 q -0.0204,-0.24431 -0.12725,-0.4021 -0.10179,-0.16287 -0.25957,-0.25957 -0.15779,-0.0967 -0.36138,-0.13743 -0.1985,-0.0407 -0.41227,-0.0407 -0.21377,0 -0.41736,0.0407 -0.20359,0.0356 -0.36646,0.13234 -0.16288,0.0916 -0.26467,0.25448 -0.0967,0.16288 -0.0967,0.41737 0,0.17305 0.0713,0.2952 0.0713,0.11707 0.18832,0.1985 0.11706,0.0764 0.26467,0.12725 0.15269,0.0458 0.31047,0.0814 0.38683,0.0814 0.6006,0.16288 0.21886,0.0814 0.21886,0.24431 0,0.0967 -0.0458,0.16287 -0.0458,0.0611 -0.11707,0.10179 -0.0662,0.0356 -0.15269,0.056 -0.0814,0.0153 -0.15778,0.0153 -0.10689,0 -0.20868,-0.0254 -0.0967,-0.0255 -0.17305,-0.0763 -0.0763,-0.056 -0.12725,-0.13743 -0.0458,-0.0865 -0.0458,-0.20359 z"
       id="text40-1"
       inkscape:label="downloads"
       aria-label="downloads" />
  </g>
</svg>
