<?xml version="1.0" encoding="UTF-8" standalone="no"?>
<!-- Created with Inkscape (http://www.inkscape.org/) -->

<svg
   width="33.866665mm"
   height="13.768353mm"
   viewBox="0 0 33.866665 13.768353"
   version="1.1"
   id="svg1"
   inkscape:version="1.4 (e7c3feb1, 2024-10-09)"
   sodipodi:docname="portfolio.svg"
   xmlns:inkscape="http://www.inkscape.org/namespaces/inkscape"
   xmlns:sodipodi="http://sodipodi.sourceforge.net/DTD/sodipodi-0.dtd"
   xmlns="http://www.w3.org/2000/svg"
   xmlns:svg="http://www.w3.org/2000/svg">
  <sodipodi:namedview
     id="namedview1"
     pagecolor="#ffffff"
     bordercolor="#000000"
     borderopacity="0.25"
     inkscape:showpageshadow="2"
     inkscape:pageopacity="0.0"
     inkscape:pagecheckerboard="0"
     inkscape:deskcolor="#d1d1d1"
     inkscape:document-units="mm"
     inkscape:zoom="2.9647587"
     inkscape:cx="71.506663"
     inkscape:cy="26.140407"
     inkscape:window-width="1104"
     inkscape:window-height="250"
     inkscape:window-x="0"
     inkscape:window-y="25"
     inkscape:window-maximized="0"
     inkscape:current-layer="layer1" />
  <defs
     id="defs1" />
  <g
     inkscape:label="Layer 1"
     inkscape:groupmode="layer"
     id="layer1"
     transform="translate(-85.989583,-141.55208)">
    <path
       style="fill:#000000;stroke-width:0.502094;paint-order:markers fill stroke"
       d="m 86.594095,144.4007 32.945955,-2.84862 -1.66241,9.02064 -31.888057,4.74771 z"
       id="path38"
       inkscape:label="portfolio oblong shape" />
    <path
       style="font-weight:bold;font-size:8.10841px;font-family:'Helvetica Neue';-inkscape-font-specification:'Helvetica Neue Bold';fill:#ffffff;stroke-width:4.18572;paint-order:markers fill stroke"
       d="m 90.00922,149.14567 q -0.275686,0 -0.470288,-0.11352 -0.194602,-0.11352 -0.316228,-0.2919 -0.113518,-0.1865 -0.170277,-0.42975 -0.04865,-0.24325 -0.04865,-0.49461 0,-0.25947 0.04865,-0.50272 0.04865,-0.24326 0.162168,-0.42975 0.121627,-0.18649 0.30812,-0.30001 0.194602,-0.12163 0.478396,-0.12163 0.275686,0 0.46218,0.12163 0.194601,0.11352 0.316228,0.30812 0.121626,0.18649 0.170276,0.42975 0.05676,0.24325 0.05676,0.49461 0,0.25136 -0.04865,0.49461 -0.04865,0.24325 -0.170277,0.42975 -0.113518,0.17838 -0.30812,0.2919 -0.186493,0.11352 -0.470287,0.11352 z m -2.116295,-3.43797 v 5.65967 h 1.151394 v -1.98656 h 0.01622 q 0.210818,0.30812 0.535155,0.47029 0.332445,0.15406 0.721648,0.15406 0.46218,0 0.802733,-0.17839 0.348661,-0.17838 0.575697,-0.47839 0.235144,-0.30001 0.348661,-0.68922 0.113518,-0.3892 0.113518,-0.81084 0,-0.44596 -0.113518,-0.85138 -0.113517,-0.41353 -0.348661,-0.72165 -0.235144,-0.30812 -0.591914,-0.49461 -0.35677,-0.1865 -0.851383,-0.1865 -0.389204,0 -0.71354,0.15406 -0.324337,0.15406 -0.535155,0.49462 h -0.01622 v -0.53516 z m 5.975898,2.10008 q 0,-0.25136 0.04865,-0.49461 0.04865,-0.24326 0.162168,-0.42975 0.121626,-0.18649 0.316228,-0.30001 0.194602,-0.12163 0.486504,-0.12163 0.291903,0 0.486505,0.12163 0.20271,0.11352 0.316228,0.30001 0.121626,0.18649 0.170277,0.42975 0.04865,0.24325 0.04865,0.49461 0,0.25136 -0.04865,0.49461 -0.04865,0.23515 -0.170277,0.42975 -0.113518,0.18649 -0.316228,0.30001 -0.194602,0.11352 -0.486505,0.11352 -0.291902,0 -0.486504,-0.11352 -0.194602,-0.11352 -0.316228,-0.30001 -0.113518,-0.1946 -0.162168,-0.42975 -0.04865,-0.24325 -0.04865,-0.49461 z m -1.151394,0 q 0,0.50272 0.15406,0.90814 0.15406,0.40542 0.437854,0.69733 0.283794,0.28379 0.681106,0.43785 0.397312,0.15406 0.891925,0.15406 0.494613,0 0.891925,-0.15406 0.405421,-0.15406 0.689215,-0.43785 0.283795,-0.29191 0.437854,-0.69733 0.15406,-0.40542 0.15406,-0.90814 0,-0.50272 -0.15406,-0.90814 -0.154059,-0.41353 -0.437854,-0.69733 -0.283794,-0.2919 -0.689215,-0.44596 -0.397312,-0.16217 -0.891925,-0.16217 -0.494613,0 -0.891925,0.16217 -0.397312,0.15406 -0.681106,0.44596 -0.283794,0.2838 -0.437854,0.69733 -0.15406,0.40542 -0.15406,0.90814 z m 5.083973,-2.10008 v 4.19205 h 1.151395 v -1.88926 q 0,-0.28379 0.05676,-0.52705 0.05676,-0.24325 0.186494,-0.42163 0.137843,-0.1865 0.35677,-0.29191 0.218927,-0.10541 0.535151,-0.10541 0.10541,0 0.21893,0.0162 0.11352,0.008 0.1946,0.0243 v -1.07031 q -0.13784,-0.0405 -0.25136,-0.0405 -0.21892,0 -0.421635,0.0649 -0.20271,0.0649 -0.381095,0.18649 -0.178385,0.11352 -0.316228,0.2838 -0.137843,0.16217 -0.218927,0.35677 h -0.01622 v -0.77841 z m 4.613688,0 v -1.2568 h -1.1514 v 1.2568 h -0.69732 v 0.7703 h 0.69732 v 2.47307 q 0,0.31622 0.10541,0.51083 0.10541,0.1946 0.2838,0.30001 0.18649,0.10541 0.42163,0.13784 0.24326,0.0405 0.51083,0.0405 0.17028,0 0.34867,-0.008 0.17838,-0.008 0.32433,-0.0324 v -0.89193 q -0.0811,0.0162 -0.17027,0.0243 -0.0892,0.008 -0.1865,0.008 -0.2919,0 -0.3892,-0.0973 -0.0973,-0.0973 -0.0973,-0.38921 V 146.478 h 0.84327 v -0.7703 z m 1.646,0.7703 v 3.42175 h 1.15139 V 146.478 h 0.79463 v -0.7703 h -0.79463 v -0.25136 q 0,-0.25947 0.0973,-0.36488 0.10541,-0.11352 0.34056,-0.11352 0.21892,0 0.42163,0.0243 v -0.85949 q -0.14595,-0.008 -0.30001,-0.0162 -0.15406,-0.0162 -0.30812,-0.0162 -0.70543,0 -1.05409,0.35677 -0.34866,0.35677 -0.34866,0.91625 v 0.32433 h -0.68922 v 0.7703 z m 3.4704,1.32978 q 0,-0.25136 0.0486,-0.49461 0.0486,-0.24326 0.16217,-0.42975 0.12162,-0.18649 0.31623,-0.30001 0.1946,-0.12163 0.4865,-0.12163 0.2919,0 0.48651,0.12163 0.20271,0.11352 0.31622,0.30001 0.12163,0.18649 0.17028,0.42975 0.0486,0.24325 0.0486,0.49461 0,0.25136 -0.0486,0.49461 -0.0487,0.23515 -0.17028,0.42975 -0.11351,0.18649 -0.31622,0.30001 -0.19461,0.11352 -0.48651,0.11352 -0.2919,0 -0.4865,-0.11352 -0.19461,-0.11352 -0.31623,-0.30001 -0.11352,-0.1946 -0.16217,-0.42975 -0.0486,-0.24325 -0.0486,-0.49461 z m -1.15139,0 q 0,0.50272 0.15406,0.90814 0.15405,0.40542 0.43785,0.69733 0.28379,0.28379 0.68111,0.43785 0.39731,0.15406 0.89192,0.15406 0.49461,0 0.89193,-0.15406 0.40542,-0.15406 0.68921,-0.43785 0.28379,-0.29191 0.43785,-0.69733 0.15406,-0.40542 0.15406,-0.90814 0,-0.50272 -0.15406,-0.90814 -0.15406,-0.41353 -0.43785,-0.69733 -0.28379,-0.2919 -0.68921,-0.44596 -0.39732,-0.16217 -0.89193,-0.16217 -0.49461,0 -0.89192,0.16217 -0.39732,0.15406 -0.68111,0.44596 -0.2838,0.2838 -0.43785,0.69733 -0.15406,0.40542 -0.15406,0.90814 z m 5.1164,-3.69743 v 5.7894 h 1.1514 v -5.7894 z m 3.24336,0.94868 v -0.94868 h -1.15139 v 0.94868 z m -1.15139,0.64867 v 4.19205 h 1.15139 v -4.19205 z m 3.08119,2.10008 q 0,-0.25136 0.0487,-0.49461 0.0486,-0.24326 0.16217,-0.42975 0.12162,-0.18649 0.31622,-0.30001 0.19461,-0.12163 0.48651,-0.12163 0.2919,0 0.4865,0.12163 0.20271,0.11352 0.31623,0.30001 0.12163,0.18649 0.17028,0.42975 0.0486,0.24325 0.0486,0.49461 0,0.25136 -0.0486,0.49461 -0.0487,0.23515 -0.17028,0.42975 -0.11352,0.18649 -0.31623,0.30001 -0.1946,0.11352 -0.4865,0.11352 -0.2919,0 -0.48651,-0.11352 -0.1946,-0.11352 -0.31622,-0.30001 -0.11352,-0.1946 -0.16217,-0.42975 -0.0487,-0.24325 -0.0487,-0.49461 z m -1.1514,0 q 0,0.50272 0.15406,0.90814 0.15406,0.40542 0.43786,0.69733 0.28379,0.28379 0.6811,0.43785 0.39732,0.15406 0.89193,0.15406 0.49461,0 0.89192,-0.15406 0.40542,-0.15406 0.68922,-0.43785 0.28379,-0.29191 0.43785,-0.69733 0.15406,-0.40542 0.15406,-0.90814 0,-0.50272 -0.15406,-0.90814 -0.15406,-0.41353 -0.43785,-0.69733 -0.2838,-0.2919 -0.68922,-0.44596 -0.39731,-0.16217 -0.89192,-0.16217 -0.49461,0 -0.89193,0.16217 -0.39731,0.15406 -0.6811,0.44596 -0.2838,0.2838 -0.43786,0.69733 -0.15406,0.40542 -0.15406,0.90814 z"
       id="text40"
       inkscape:label="portfolio"
       aria-label="portfolio" />
  </g>
</svg>
