<?xml version="1.0" encoding="UTF-8" standalone="no"?>
<!-- Created with Inkscape (http://www.inkscape.org/) -->

<svg
   width="15.33077mm"
   height="4.3642201mm"
   viewBox="0 0 15.33077 4.36422"
   version="1.1"
   id="svg1"
   sodipodi:docname="video.svg"
   inkscape:version="1.4 (e7c3feb1, 2024-10-09)"
   xmlns:inkscape="http://www.inkscape.org/namespaces/inkscape"
   xmlns:sodipodi="http://sodipodi.sourceforge.net/DTD/sodipodi-0.dtd"
   xmlns="http://www.w3.org/2000/svg"
   xmlns:svg="http://www.w3.org/2000/svg">
  <sodipodi:namedview
     id="namedview1"
     pagecolor="#ffffff"
     bordercolor="#000000"
     borderopacity="0.25"
     inkscape:showpageshadow="2"
     inkscape:pageopacity="0.0"
     inkscape:pagecheckerboard="0"
     inkscape:deskcolor="#d1d1d1"
     inkscape:document-units="mm"
     inkscape:zoom="2.9647587"
     inkscape:cx="4.3848425"
     inkscape:cy="9.9502196"
     inkscape:window-width="1104"
     inkscape:window-height="250"
     inkscape:window-x="0"
     inkscape:window-y="25"
     inkscape:window-maximized="0"
     inkscape:current-layer="layer1" />
  <defs
     id="defs1" />
  <g
     inkscape:label="Layer 1"
     inkscape:groupmode="layer"
     id="layer1"
     transform="translate(-116.94583,-136.52499)">
    <path
       style="fill:#000000;stroke:none;stroke-width:0.513794;stroke-opacity:1;paint-order:markers fill stroke"
       d="m 117.16964,136.8607 15.10696,-0.33571 -0.44762,4.25232 -14.88315,0.1119 z"
       id="path50-8"
       inkscape:label="video shape" />
    <path
       d="m 121.40619,140.29268 0.83171,-2.45712 h -0.67012 l -0.51804,1.67769 h -0.01 l -0.51804,-1.67769 h -0.70815 l 0.84122,2.45712 z m 1.806,-2.83733 v -0.55606 h -0.67487 v 0.55606 z m -0.67487,0.38021 v 2.45712 h 0.67487 v -2.45712 z m 2.95139,1.22143 q 0,0.15209 -0.0285,0.29467 -0.0285,0.14258 -0.0951,0.25664 -0.0665,0.10931 -0.1806,0.17585 -0.10931,0.0665 -0.27566,0.0665 -0.15683,0 -0.2709,-0.0665 -0.10931,-0.0713 -0.18535,-0.1806 -0.0713,-0.11407 -0.10456,-0.25665 -0.0333,-0.14258 -0.0333,-0.28515 0,-0.15209 0.0285,-0.28992 0.0333,-0.14258 0.0998,-0.25189 0.0713,-0.10931 0.18536,-0.17584 0.11406,-0.0665 0.2804,-0.0665 0.16635,0 0.27566,0.0665 0.10931,0.0665 0.17584,0.17584 0.0713,0.10456 0.0998,0.24714 0.0285,0.13783 0.0285,0.28991 z m 0.01,0.92201 v 0.31368 h 0.64161 v -3.39339 h -0.67488 v 1.23569 h -0.01 q -0.11407,-0.1806 -0.31368,-0.2709 -0.19486,-0.0951 -0.41348,-0.0951 -0.2709,0 -0.47526,0.10931 -0.20436,0.10456 -0.34219,0.2804 -0.13307,0.17585 -0.20436,0.40873 -0.0665,0.22813 -0.0665,0.47526 0,0.25665 0.0665,0.49428 0.0713,0.23763 0.20436,0.42298 0.13783,0.1806 0.34694,0.28992 0.20912,0.10455 0.48477,0.10455 0.24239,0 0.43249,-0.0855 0.19486,-0.0903 0.31368,-0.28992 z m 2.80406,-1.17865 h -1.09786 q 0.005,-0.0713 0.0285,-0.16159 0.0285,-0.0903 0.0903,-0.17109 0.0665,-0.0808 0.1711,-0.13308 0.10931,-0.057 0.2709,-0.057 0.24714,0 0.36595,0.13307 0.12357,0.13308 0.1711,0.38972 z m -1.09786,0.42774 h 1.77273 q 0.019,-0.28516 -0.0475,-0.54656 -0.0665,-0.26139 -0.21862,-0.46575 -0.14734,-0.20437 -0.38022,-0.32318 -0.23288,-0.12357 -0.54655,-0.12357 -0.28041,0 -0.51328,0.0998 -0.22813,0.0998 -0.39447,0.27566 -0.16635,0.17109 -0.25665,0.40872 -0.0903,0.23763 -0.0903,0.51329 0,0.28516 0.0856,0.52279 0.0903,0.23763 0.25189,0.40873 0.16159,0.17109 0.39447,0.26614 0.23288,0.0903 0.52279,0.0903 0.41823,0 0.7129,-0.1901 0.29466,-0.19011 0.43724,-0.6321 h -0.59408 q -0.0333,0.11406 -0.1806,0.21862 -0.14733,0.0998 -0.3517,0.0998 -0.28515,0 -0.43724,-0.14733 -0.15208,-0.14733 -0.16634,-0.47526 z m 2.77078,-0.16159 q 0,-0.14733 0.0285,-0.28991 0.0285,-0.14258 0.095,-0.25189 0.0713,-0.10931 0.18536,-0.17585 0.11406,-0.0713 0.28515,-0.0713 0.1711,0 0.28516,0.0713 0.11882,0.0665 0.18536,0.17585 0.0713,0.10931 0.0998,0.25189 0.0285,0.14258 0.0285,0.28991 0,0.14733 -0.0285,0.28991 -0.0285,0.13783 -0.0998,0.25189 -0.0665,0.10931 -0.18536,0.17585 -0.11406,0.0665 -0.28516,0.0665 -0.17109,0 -0.28515,-0.0665 -0.11407,-0.0665 -0.18536,-0.17585 -0.0665,-0.11406 -0.095,-0.25189 -0.0285,-0.14258 -0.0285,-0.28991 z m -0.67487,0 q 0,0.29466 0.0903,0.53229 0.0903,0.23764 0.25664,0.40873 0.16634,0.16634 0.39922,0.25664 0.23288,0.0903 0.52279,0.0903 0.28992,0 0.5228,-0.0903 0.23763,-0.0903 0.40397,-0.25664 0.16634,-0.17109 0.25664,-0.40873 0.0903,-0.23763 0.0903,-0.53229 0,-0.29467 -0.0903,-0.5323 -0.0903,-0.24238 -0.25664,-0.40872 -0.16634,-0.1711 -0.40397,-0.2614 -0.23288,-0.0951 -0.5228,-0.0951 -0.28991,0 -0.52279,0.0951 -0.23288,0.0903 -0.39922,0.2614 -0.16634,0.16634 -0.25664,0.40872 -0.0903,0.23763 -0.0903,0.5323 z"
       id="text50-9"
       style="font-weight:bold;font-size:4.75264px;font-family:'Helvetica Neue';-inkscape-font-specification:'Helvetica Neue Bold';fill:#f5f5f5;stroke-width:2.45341;paint-order:markers fill stroke"
       inkscape:label="video"
       aria-label="video" />
  </g>
</svg>
