<?xml version="1.0" encoding="UTF-8" standalone="no"?>
<!-- Created with Inkscape (http://www.inkscape.org/) -->

<svg
   width="25.4mm"
   height="25.4mm"
   viewBox="0 0 25.4 25.4"
   version="1.1"
   id="svg1"
   inkscape:version="1.4 (86a8ad7, 2024-10-11)"
   sodipodi:docname="02_pensive.svg"
   xmlns:inkscape="http://www.inkscape.org/namespaces/inkscape"
   xmlns:sodipodi="http://sodipodi.sourceforge.net/DTD/sodipodi-0.dtd"
   xmlns="http://www.w3.org/2000/svg"
   xmlns:svg="http://www.w3.org/2000/svg">
  <sodipodi:namedview
     id="namedview1"
     pagecolor="#ffffff"
     bordercolor="#000000"
     borderopacity="0.25"
     inkscape:showpageshadow="2"
     inkscape:pageopacity="0.0"
     inkscape:pagecheckerboard="0"
     inkscape:deskcolor="#d1d1d1"
     inkscape:document-units="mm"
     inkscape:zoom="2.0334082"
     inkscape:cx="-68.849925"
     inkscape:cy="62.210825"
     inkscape:window-width="1920"
     inkscape:window-height="1009"
     inkscape:window-x="-8"
     inkscape:window-y="-8"
     inkscape:window-maximized="1"
     inkscape:current-layer="layer1" />
  <defs
     id="defs1" />
  <g
     inkscape:label="Layer 1"
     inkscape:groupmode="layer"
     id="layer1">
    <path
       style="fill:#010101;stroke:none;stroke-width:0.836556"
       d="M 9.373179,0.10950476 C -3.3838188,1.8078524 -3.504809,27.093967 11.390317,25.309915 17.249045,24.60819 23.088153,21.338572 24.922472,15.536142 27.69376,6.7698471 17.862754,-1.0207115 9.373179,0.10950476 M 9.1490554,2.2744413 C 16.467255,1.0027251 25.319597,7.4620391 22.905334,15.098972 22.155191,17.471887 20.345226,19.37285 18.338236,20.807325 16.67486,21.996217 14.760931,22.73447 12.735076,23.093874 10.158188,23.551037 6.987157,23.674305 4.9107051,21.828575 -0.16549509,17.316393 1.5450552,3.5958205 9.1490554,2.2744413 M 18.165302,7.401756 c -1.43012,0.5475443 0.321006,2.3620415 -0.939569,3.113323 -1.151394,0.686215 -1.977876,-3.5861223 -3.329039,-1.6594576 -1.55499,2.2173016 2.247996,4.5599186 4.217418,3.8065236 1.564808,-0.59861 2.114885,-1.936165 1.886907,-3.4649832 C 19.867568,8.3021537 19.43395,6.9160355 18.165302,7.401756 M 8.0284197,12.257359 C 7.7401203,11.493804 6.4348952,8.7708436 5.5061348,10.777184 4.5535711,12.834942 7.461266,15.160869 9.372315,14.037076 10.593127,13.319182 11.407674,11.893219 11.377874,10.508675 11.358644,9.6150748 10.852804,8.2497686 9.6483315,8.7132692 8.5830876,9.1231834 9.1962215,11.36019 8.0284197,12.257359 m 10.3098163,2.072007 c -2.695592,0.378769 -5.320248,0.804867 -8.068545,0.488616 -1.4229459,-0.163739 -3.8815638,-0.617794 -5.0575396,0.434642 -1.175205,1.051736 0.312577,2.489126 0.997485,3.343716 2.0455753,2.552371 4.2667366,2.925724 7.4219516,2.336467 2.206336,-0.412049 3.99642,-1.69736 4.994769,-3.643931 0.52646,-1.026474 2.685935,-3.377402 -0.288121,-2.95951 m -3.810153,2.51829 C 13.435859,18.672359 8.5992078,18.326984 7.5801639,16.62907 l 6.9479191,0.218586"
       id="path2" />
  </g>
</svg>
