<?xml version="1.0" encoding="UTF-8" standalone="no"?>
<!-- Created with Inkscape (http://www.inkscape.org/) -->

<svg
   width="28.653318mm"
   height="25.4mm"
   viewBox="0 0 28.653319 25.4"
   version="1.1"
   id="svg1"
   inkscape:version="1.4 (86a8ad7, 2024-10-11)"
   sodipodi:docname="05_awooga.svg"
   xmlns:inkscape="http://www.inkscape.org/namespaces/inkscape"
   xmlns:sodipodi="http://sodipodi.sourceforge.net/DTD/sodipodi-0.dtd"
   xmlns="http://www.w3.org/2000/svg"
   xmlns:svg="http://www.w3.org/2000/svg">
  <sodipodi:namedview
     id="namedview1"
     pagecolor="#ffffff"
     bordercolor="#000000"
     borderopacity="0.25"
     inkscape:showpageshadow="2"
     inkscape:pageopacity="0.0"
     inkscape:pagecheckerboard="0"
     inkscape:deskcolor="#d1d1d1"
     inkscape:document-units="mm"
     inkscape:zoom="2.0334082"
     inkscape:cx="-68.849925"
     inkscape:cy="62.210825"
     inkscape:window-width="1920"
     inkscape:window-height="1009"
     inkscape:window-x="-8"
     inkscape:window-y="-8"
     inkscape:window-maximized="1"
     inkscape:current-layer="layer1"
     showguides="true" />
  <defs
     id="defs1" />
  <g
     inkscape:label="Layer 1"
     inkscape:groupmode="layer"
     id="layer1">
    <path
       style="fill:#010101;stroke:none;stroke-width:0.82693"
       d="M 9.1500788,0.08563152 C -3.3032681,1.7855775 -3.4213975,27.095595 11.119205,25.309827 c 4.467099,-0.548623 8.803047,-2.513542 11.457367,-6.282332 0.961943,-1.36585 1.207756,-3.186954 2.110424,-4.508529 0.474335,-0.694461 1.518995,-0.878509 2.182011,-1.355123 1.542001,-1.108471 2.033238,-2.814006 1.670646,-4.6383555 -0.447675,-2.252451 -1.948122,-5.040047 -4.511728,-5.224836 -1.102513,-0.07947 -2.247289,0.825717 -3.281877,0.361108 -3.68556,-1.65509 -7.34307,-4.15667298 -11.5959692,-3.57612798 M 16.807795,3.7120675 v 0.218792 C 13.60207,3.5278425 11.899736,5.3558175 10.517018,8.0879035 10.141104,8.8306701 8.6436671,10.738608 9.8420784,11.350871 10.822263,11.85165 11.484667,10.517983 11.823526,9.8382384 13.086876,7.3040315 16.280015,3.4925655 18.339335,7.8691125 17.44807,8.8202938 17.579932,10.21819 18.076644,11.369781 c 0.276699,0.641492 1.160505,1.558732 0.533651,2.24515 -1.163052,1.273567 -5.031363,0.197221 -6.377546,-0.332071 -0.676793,-0.266097 -1.388961,-1.123908 -2.156691,-0.632912 -1.804286,1.153929 1.252666,2.522957 2.137109,2.733716 1.573019,0.374846 3.407066,0.845575 5.032206,0.753619 1.743226,-0.09864 3.235478,-0.829249 5.032214,-0.829249 -0.980672,2.355476 -1.580188,1.920875 -3.500666,2.950143 -2.714388,1.454751 -5.052135,2.678591 -7.873305,0.566393 C 9.2619045,17.595425 9.5872104,16.540207 8.9993212,14.895098 8.8297593,14.420614 8.357475,14.121425 7.8601181,14.303212 c -1.857557,0.678951 -0.5222309,3.575792 0.2626825,4.505323 2.0687964,2.449974 4.6895514,3.457599 7.8098214,3.063253 -1.159215,0.7696 -2.582013,1.066456 -3.938252,1.295023 C 9.6967537,23.55403 6.9018058,23.563258 5.0016454,22.005158 -0.389894,17.584185 1.6136591,4.3974885 8.4937034,2.3554225 c 2.6757456,-0.794189 5.7870686,0.665479 8.3140916,1.356645 m 0.437578,0.218792 -0.218789,0.218792 0.218789,-0.218792 m 0.437586,0.218792 -0.218789,0.218792 0.218789,-0.218792 m 0.875165,0.656376 -0.656376,-0.218793 0.656376,0.218793 m 0.656375,0.218791 0.437587,0.656376 -0.437587,-0.656376 m 6.782552,6.3449625 -0.770715,0.675295 c -0.426803,1.160962 -2.285088,0.783562 -3.386335,1.07504 L 21.183626,7.6503205 h 0.218797 l 0.218789,0.437583 0.218789,-1.750334 1.97217,-0.912815 1.22159,0.922437 -0.08932,1.959505 1.052607,3.0630845"
       id="path8" />
  </g>
</svg>
