<?xml version="1.0" encoding="UTF-8" standalone="no"?>
<!-- Created with Inkscape (http://www.inkscape.org/) -->

<svg
   width="30.64608mm"
   height="25.4mm"
   viewBox="0 0 30.646081 25.4"
   version="1.1"
   id="svg1"
   inkscape:version="1.4 (86a8ad7, 2024-10-11)"
   sodipodi:docname="06_blah.svg"
   xmlns:inkscape="http://www.inkscape.org/namespaces/inkscape"
   xmlns:sodipodi="http://sodipodi.sourceforge.net/DTD/sodipodi-0.dtd"
   xmlns="http://www.w3.org/2000/svg"
   xmlns:svg="http://www.w3.org/2000/svg">
  <sodipodi:namedview
     id="namedview1"
     pagecolor="#ffffff"
     bordercolor="#000000"
     borderopacity="0.25"
     inkscape:showpageshadow="2"
     inkscape:pageopacity="0.0"
     inkscape:pagecheckerboard="0"
     inkscape:deskcolor="#d1d1d1"
     inkscape:document-units="mm"
     inkscape:zoom="2.0334082"
     inkscape:cx="-68.849925"
     inkscape:cy="62.210825"
     inkscape:window-width="1920"
     inkscape:window-height="1009"
     inkscape:window-x="-8"
     inkscape:window-y="-8"
     inkscape:window-maximized="1"
     inkscape:current-layer="layer1"
     showguides="true" />
  <defs
     id="defs1" />
  <g
     inkscape:label="Layer 1"
     inkscape:groupmode="layer"
     id="layer1">
    <path
       style="fill:#010101;stroke:none;stroke-width:0.832032"
       d="m 22.490252,20.208358 c -2.076819,0.696968 1.785612,5.432142 3.220009,4.950679 2.028082,-0.680736 -1.786353,-5.431809 -3.220009,-4.950679"
       id="path11" />
    <path
       style="fill:#010101;stroke:none;stroke-width:0.832032"
       d="m 25.352723,17.992333 c -1.04467,0.415925 -0.491494,1.578271 0.182758,2.027464 0.927629,0.61799 2.856897,0.992276 3.916734,0.528823 0.667588,-0.291928 0.811643,-1.164309 0.182583,-1.589015 -0.62188,-0.419858 -3.601492,-1.238241 -4.282075,-0.967272"
       id="path10" />
    <path
       style="fill:#010101;stroke:none;stroke-width:0.832032"
       d="m 19.799316,22.002414 c -1.120629,-2.403396 -4.499794,-4.18418 -6.823873,-5.283807 l 1.100628,-2.421745 6.163497,-1.54111 c -0.327488,1.780542 0.911364,1.678548 2.201248,2.227235 2.020302,0.859386 5.723445,0.622172 7.634235,-0.691392 1.983189,-1.363337 -1.772716,-1.749205 -2.571357,-1.558096 -0.870397,0.208284 -1.748997,0.681567 -2.6415,0.759681 -1.144748,0.100197 -2.313555,-0.711682 -3.521998,-0.737428 v -0.220158 l 3.521998,-0.440318 C 24.855538,1.7876832 9.8150682,-4.3757635 3.1134697,3.7294165 -1.471476,9.2746288 -1.4183048,21.891723 6.1515695,24.761532 10.73015,26.49731 15.948732,24.398164 19.799316,22.002414 m 2.86163,-11.448248 c -3.983182,1.119522 -8.25153,1.593143 -12.327004,2.328314 -0.893534,0.161186 -3.6619928,0.214367 -3.5138442,1.640826 0.1084887,1.044568 1.8520954,1.83277 2.6333475,2.322029 2.3235797,1.455145 5.2743057,2.85355 7.2641257,4.716762 -3.15797,1.682088 -8.3025311,2.825236 -11.4432791,0.520158 C 0.72349017,18.742302 1.336027,9.035839 4.6543421,5.0510505 9.5831989,-0.86772432 21.62017,2.8677025 22.660946,10.554166 M 18.28138,5.6778889 C 16.956288,6.090045 17.535862,8.0799882 18.886389,7.5550116 19.998106,7.1228611 19.485198,5.3034559 18.28138,5.6778889 M 7.0821846,7.6450494 C 5.8843495,8.1181032 6.7257526,9.7654303 7.880134,9.316281 9.0872209,8.8466263 8.2238369,7.1941801 7.0821846,7.6450494"
       id="path6" />
  </g>
</svg>
