<?xml version="1.0" encoding="UTF-8" standalone="no"?>
<!-- Created with Inkscape (http://www.inkscape.org/) -->

<svg
   width="25.4mm"
   height="25.4mm"
   viewBox="0 0 25.4 25.4"
   version="1.1"
   id="svg1"
   inkscape:version="1.4 (86a8ad7, 2024-10-11)"
   sodipodi:docname="07_displeased.svg"
   xmlns:inkscape="http://www.inkscape.org/namespaces/inkscape"
   xmlns:sodipodi="http://sodipodi.sourceforge.net/DTD/sodipodi-0.dtd"
   xmlns="http://www.w3.org/2000/svg"
   xmlns:svg="http://www.w3.org/2000/svg">
  <sodipodi:namedview
     id="namedview1"
     pagecolor="#ffffff"
     bordercolor="#000000"
     borderopacity="0.25"
     inkscape:showpageshadow="2"
     inkscape:pageopacity="0.0"
     inkscape:pagecheckerboard="0"
     inkscape:deskcolor="#d1d1d1"
     inkscape:document-units="mm"
     inkscape:zoom="2.0334082"
     inkscape:cx="-68.849925"
     inkscape:cy="62.210825"
     inkscape:window-width="1920"
     inkscape:window-height="1009"
     inkscape:window-x="-8"
     inkscape:window-y="-8"
     inkscape:window-maximized="1"
     inkscape:current-layer="layer1"
     showguides="true" />
  <defs
     id="defs1" />
  <g
     inkscape:label="Layer 1"
     inkscape:groupmode="layer"
     id="layer1">
    <path
       style="fill:#010101;stroke:none;stroke-width:0.836555"
       d="M 9.3731794,0.10950585 C -3.3838109,1.8078459 -3.504818,27.093997 11.390318,25.309912 17.249037,24.608171 23.088146,21.338572 24.922474,15.536138 27.693753,6.7698519 17.862764,-1.0207171 9.3731794,0.10950585 M 9.1490472,2.2744419 c 7.3182168,-1.271703 16.1705438,5.187588 13.7562878,12.8245251 -0.750151,2.372907 -2.560108,4.273883 -4.567098,5.708353 -1.663393,1.188896 -3.577314,1.927142 -5.60316,2.286546 C 10.158154,23.551032 6.9871659,23.674304 4.9107055,21.828565 -0.1654953,17.316397 1.5450552,3.5958039 9.1490472,2.2744419 m 9.8615688,6.704132 c -0.697479,-0.526458 -1.326343,-1.947 -2.243507,-2.041144 -2.498194,-0.256432 -0.06353,3.3863971 0.898926,3.8579651 1.943543,0.952279 4.796161,-1.2408301 3.355494,-3.2512881 -1.012606,-1.413087 -1.849533,0.686511 -2.010913,1.434467 M 8.4766677,10.727258 C 7.471923,10.12986 7.4625033,8.8606559 6.6134458,8.3715599 5.4282111,7.6888279 5.086511,9.2917799 5.1255027,10.071501 c 0.093426,1.8684 2.7174044,3.300592 4.4621181,2.398367 1.2607612,-0.651971 1.7989442,-2.8496791 1.2192032,-4.0969571 -0.347664,-0.747982 -1.3615147,-0.724942 -1.7157094,0 -0.3388793,0.693606 -0.3367785,1.611318 -0.6144469,2.3543471 m 8.5166323,2.94399 c -3.139206,0.216861 -7.4211556,-0.12017 -10.0820505,1.785788 -1.5696366,1.12431 -2.8064423,4.127439 -0.4482558,5.138443 2.0869051,0.894701 5.6064633,0.586054 7.8409663,0.368019 1.213163,-0.118378 4.188176,-0.538331 4.191988,-2.142508 0.0017,-0.690204 -0.719791,-0.959893 -0.835809,-1.581876 -0.225521,-1.209091 2.122729,-3.760577 -0.666839,-3.567866 m -1.344581,2.302061 c -0.2201,0.763591 -0.271434,2.080297 -0.864509,2.654057 -1.253629,1.212803 -5.8222262,0.3855 -7.4281692,0.187554 0.383521,-3.348828 5.7930612,-2.841611 8.2926782,-2.841611"
       id="path7" />
  </g>
</svg>
