<?xml version="1.0" encoding="UTF-8" standalone="no"?>
<!-- Created with Inkscape (http://www.inkscape.org/) -->

<svg
   width="34.878529mm"
   height="42.063236mm"
   viewBox="0 0 34.878529 42.063237"
   version="1.1"
   id="svg1"
   inkscape:version="1.4 (86a8ad7, 2024-10-11)"
   sodipodi:docname="09_resident.svg"
   xmlns:inkscape="http://www.inkscape.org/namespaces/inkscape"
   xmlns:sodipodi="http://sodipodi.sourceforge.net/DTD/sodipodi-0.dtd"
   xmlns="http://www.w3.org/2000/svg"
   xmlns:svg="http://www.w3.org/2000/svg">
  <sodipodi:namedview
     id="namedview1"
     pagecolor="#ffffff"
     bordercolor="#000000"
     borderopacity="0.25"
     inkscape:showpageshadow="2"
     inkscape:pageopacity="0.0"
     inkscape:pagecheckerboard="0"
     inkscape:deskcolor="#d1d1d1"
     inkscape:document-units="mm"
     inkscape:zoom="2.0334082"
     inkscape:cx="-50.162088"
     inkscape:cy="128.60182"
     inkscape:window-width="1920"
     inkscape:window-height="1009"
     inkscape:window-x="-8"
     inkscape:window-y="-8"
     inkscape:window-maximized="1"
     inkscape:current-layer="layer1"
     showguides="true" />
  <defs
     id="defs1" />
  <g
     inkscape:label="Layer 1"
     inkscape:groupmode="layer"
     id="layer1"
     transform="translate(5.0007089,17.579541)">
    <path
       style="fill:#010101;stroke:none;stroke-width:0.86176"
       d="M 0.21265597,2.3395884 C -2.3589644,3.0963238 -6.735403,7.9310272 -4.2750097,10.742955 c 1.0728995,1.226207 3.44341965,1.168796 4.94368309,1.172933 0,2.611184 0.0972582,5.913085 1.51934281,8.20827 4.2903313,6.924438 14.8163218,4.603082 19.8929398,-0.06842 2.205062,-2.029109 3.982399,-5.103075 4.115549,-8.13983 0.06084,-1.387218 -0.5366,-3.2686921 -0.241017,-4.5592624 0.395729,-1.7278404 2.916101,-1.9858236 3.61803,-3.6498697 1.793442,-4.25170801 -4.793367,-6.8133872 -7.928182,-6.8393417 -0.150868,-3.4615589 -2.181579,-7.0007272 -3.268094,-10.2603282 -0.387129,-1.161394 -0.781814,-2.932609 -1.808239,-3.706878 -1.325223,-0.999655 -3.71054,-0.155284 -5.183994,0.0234 -4.4601062,0.540874 -12.31545151,1.929215 -14.3440512,6.647574 -0.5806538,1.3505337 0.1729638,2.814037 0.5851607,4.1041315 0.9177224,2.8723151 1.65341538,5.79656679 2.58653747,8.6642757 M 19.593271,-3.1325688 9.332944,-1.9422105 2.2647214,1.199569 C 1.4020999,-1.3544421 0.59729382,-3.9465216 -0.10067126,-6.5526779 -0.3331482,-7.4207169 -0.98924038,-8.6079478 -0.75020545,-9.5158919 -0.45487176,-10.637729 0.92356469,-11.23579 1.808704,-11.814614 c 2.7268664,-1.783193 6.1158315,-2.620723 9.348301,-3.077573 0.94529,-0.133602 2.926493,-0.772168 3.787098,-0.298024 0.992799,0.546976 1.264951,2.406851 1.55383,3.393365 0.864828,2.9533801 2.253606,5.6980156 3.095338,8.6642772 m -8.66427,6.1561963 C 9.555278,5.0408253 7.5291688,6.4478144 6.5685393,8.7238089 2.3282331,18.770299 19.591496,23.108613 21.870006,12.599927 22.153878,11.290681 22.167778,10.013071 21.772351,8.7238089 21.352855,7.3560713 20.419802,6.1158784 19.356287,5.1757941 17.919915,3.9061324 16.422659,3.071375 14.577114,2.5676127 c 5.001757,-2.24539264 9.464087,3.3021117 9.572962,7.9802493 0.125903,5.409507 -4.164954,9.658241 -9.116945,11.163391 C 12.236376,22.561327 8.4139461,22.951799 5.9161785,21.118896 2.1767444,18.374838 1.3455254,9.3142016 4.0875587,5.5804429 5.3872993,3.8106029 8.9491593,3.5113852 10.929001,3.0236275 m 1.824052,1.5960506 c 1.494593,0.00414 2.828054,0.2697705 4.10395,1.1025596 0.917696,0.598992 1.739669,1.3871721 2.322477,2.3184265 0.467013,0.7462347 0.719397,1.6312791 0.79487,2.5071978 0.661642,7.679063 -11.9682834,8.296057 -11.9682834,1.140039 0,-1.424506 0.6748699,-3.2882898 1.8068172,-4.1868197 1.2139782,-0.963624 3.2593732,-0.9262375 2.9401692,-2.8814032 m 0.477311,3.1299873 C 9.5307265,9.1818096 11.492255,15.26242 15.48914,13.629825 19.616211,11.944059 16.967644,6.3029457 13.230364,7.7496654"
       id="path9" />
  </g>
</svg>
