<?xml version="1.0" encoding="UTF-8" standalone="no"?>
<!-- Created with Inkscape (http://www.inkscape.org/) -->

<svg
   version="1.1"
   id="svg1"
   width="816"
   height="113.6224"
   viewBox="0 0 816 113.6224"
   sodipodi:docname="wordmark_black.svg"
   inkscape:version="1.4 (e7c3feb1, 2024-10-09)"
   xmlns:inkscape="http://www.inkscape.org/namespaces/inkscape"
   xmlns:sodipodi="http://sodipodi.sourceforge.net/DTD/sodipodi-0.dtd"
   xmlns="http://www.w3.org/2000/svg"
   xmlns:svg="http://www.w3.org/2000/svg">
  <defs
     id="defs1" />
  <sodipodi:namedview
     id="namedview1"
     pagecolor="#ffffff"
     bordercolor="#000000"
     borderopacity="0.25"
     inkscape:showpageshadow="2"
     inkscape:pageopacity="0.0"
     inkscape:pagecheckerboard="0"
     inkscape:deskcolor="#d1d1d1"
     inkscape:zoom="0.22882812"
     inkscape:cx="406.41857"
     inkscape:cy="56.811198"
     inkscape:window-width="1440"
     inkscape:window-height="847"
     inkscape:window-x="0"
     inkscape:window-y="25"
     inkscape:window-maximized="1"
     inkscape:current-layer="g1">
    <inkscape:page
       x="0"
       y="0"
       inkscape:label="1"
       id="page1"
       width="816"
       height="113.6224"
       margin="0.78646666 0.065106668 1.1614534 2.8333333"
       bleed="0" />
  </sodipodi:namedview>
  <g
     id="g1"
     inkscape:groupmode="layer"
     inkscape:label="1">
    <g
       id="g2">
      <path
         id="path2"
         d="m 15.2188,371.1934 c -2.002,0 -3.8067,0.2734 -5.4122,0.8164 -1.6054,0.5449 -2.9843,1.3632 -4.1367,2.455 -1.1523,1.0899 -2.0312,2.4844 -2.6367,4.1817 -0.6055,1.6973 -0.9082,3.6973 -0.9082,6 0,2.9101 0.5293,5.4394 1.5898,7.5918 1.0606,2.1523 2.6211,3.9101 4.6836,5.2734 2.0606,1.3633 4.6055,2.3789 7.6368,3.0469 3.0312,0.666 6.5468,1 10.5488,1 v 3.6367 c 0,0.9688 -0.1367,1.7578 -0.4102,2.3633 -0.2734,0.6055 -0.6972,1.0762 -1.2734,1.4102 -0.5762,0.332 -1.2891,0.5 -2.1367,0.5 -0.7266,0 -1.3946,-0.1368 -2,-0.4102 -0.6055,-0.2734 -1.0918,-0.666 -1.4551,-1.1816 -0.3633,-0.5157 -0.5449,-1.1661 -0.5449,-1.9532 v -0.7285 H 3.7617 c -0.0605,0.2422 -0.0898,0.4688 -0.0898,0.6817 0,0.2109 0,0.4394 0,0.6816 0,3.0312 0.7422,5.6523 2.2265,7.8652 1.4844,2.211 3.6973,3.9239 6.6368,5.1367 2.9394,1.211 6.5605,1.8184 10.8652,1.8184 3.2734,0 6.3633,-0.4258 9.2734,-1.2734 2.9102,-0.8477 5.2735,-2.3633 7.0918,-4.545 1.8184,-2.1835 2.7285,-5.2441 2.7285,-9.1835 v -20.002 c 0,-0.8496 0.211,-1.5625 0.6368,-2.1367 0.4238,-0.5762 1.1211,-0.8633 2.0918,-0.8633 h 1.9082 v -10.3652 c -1.0313,-0.545 -2.3184,-0.9825 -3.8633,-1.3164 -1.5469,-0.3321 -3.168,-0.5 -4.8653,-0.5 -1.8789,0 -3.5312,0.2285 -4.955,0.6796 -1.4258,0.4532 -2.5762,1.1055 -3.4551,1.9551 -0.8789,0.8477 -1.4707,1.8477 -1.7734,3 h -0.4532 c -0.789,-1.0312 -1.7441,-1.9707 -2.8652,-2.8183 -1.1211,-0.8496 -2.4707,-1.5313 -4.0469,-2.045 -1.5762,-0.5136 -3.4551,-0.7714 -5.6347,-0.7714 m 6.7265,11.8183 c 0.7266,0 1.3945,0.1504 2,0.4531 0.6055,0.3028 1.1055,0.711 1.5,1.2266 0.3945,0.5156 0.6817,1.1211 0.8652,1.8184 0.1817,0.6972 0.2735,1.4394 0.2735,2.2285 v 4.4551 c -2.1836,0 -3.8809,-0.2579 -5.0918,-0.7735 -1.2129,-0.5156 -2.0469,-1.2265 -2.502,-2.1367 -0.455,-0.9102 -0.6816,-1.9102 -0.6816,-3 0,-0.9687 0.1504,-1.7715 0.4551,-2.4082 0.3027,-0.6367 0.7265,-1.1074 1.2734,-1.4102 0.5449,-0.3027 1.1817,-0.4531 1.9082,-0.4531 z"
         style="fill:#231f20;fill-opacity:1;fill-rule:nonzero;stroke:none"
         transform="matrix(1.3333333,0,0,-1.3333333,0,585.33333)" />
      <path
         id="path3"
         d="m 51.1528,372.2129 v 65.916 H 67.063 v -65.916 z"
         style="fill:#231f20;fill-opacity:1;fill-rule:nonzero;stroke:none"
         transform="matrix(1.3333333,0,0,-1.3333333,0,585.33333)" />
      <path
         id="path4"
         d="m 94.1689,371.1934 c -4.6074,0 -8.4863,0.8496 -11.6386,2.5449 -3.1524,1.6953 -5.5157,4.3926 -7.0918,8.0898 -1.5762,3.6973 -2.3633,8.5157 -2.3633,14.4571 0,6 0.8477,10.8339 2.5449,14.5019 1.6973,3.666 4.1074,6.3477 7.2285,8.0449 3.1211,1.6973 6.8946,2.5469 11.3203,2.5469 4.7266,0 8.6055,-0.7891 11.6368,-2.3633 3.0312,-1.5761 5.289,-4.1972 6.7734,-7.8652 1.4844,-3.668 2.2285,-8.6231 2.2285,-14.8652 v -2.6368 H 89.2588 c 0,-2.5468 0.1504,-4.6367 0.4551,-6.2734 0.3027,-1.6367 0.8183,-2.8652 1.5449,-3.6836 0.7266,-0.8184 1.7285,-1.2266 3.0019,-1.2266 0.9688,0 1.7579,0.1504 2.3633,0.4551 0.6055,0.3028 1.0918,0.7578 1.4551,1.3633 0.3633,0.6055 0.6055,1.3633 0.7266,2.2734 0.1211,0.9082 0.1816,1.9688 0.1816,3.1817 h 15.7305 c 0,-3.1524 -0.4102,-5.8789 -1.2285,-8.1817 -0.8184,-2.3046 -2.0762,-4.2285 -3.7735,-5.7734 -1.6972,-1.5469 -3.834,-2.6973 -6.4101,-3.4551 -2.5762,-0.7558 -5.6211,-1.1347 -9.1368,-1.1347 m -4.8183,30.0918 h 9.2734 c 0,1.6367 -0.0761,3.0156 -0.2285,4.1367 -0.1523,1.1211 -0.3945,2.0312 -0.7266,2.7285 -0.3339,0.6953 -0.789,1.1953 -1.3632,1.5 -0.5762,0.3027 -1.2891,0.4551 -2.1368,0.4551 -1.1523,0 -2.0605,-0.3047 -2.7265,-0.9102 -0.668,-0.6055 -1.168,-1.5449 -1.5,-2.8183 -0.334,-1.2735 -0.5313,-2.9707 -0.5918,-5.0918 z"
         style="fill:#231f20;fill-opacity:1;fill-rule:nonzero;stroke:none"
         transform="matrix(1.3333333,0,0,-1.3333333,0,585.33333)" />
      <path
         id="path5"
         d="m 121.0693,354.373 v 65.9161 h 13.0938 l 1.0898,-5.8203 h 0.4551 c 1.1504,2.121 2.6348,3.8046 4.4551,5.0468 1.8183,1.2422 4.1523,1.8633 7,1.8633 3.4551,0 6.2578,-0.9551 8.4101,-2.8633 2.1524,-1.9101 3.7422,-4.7734 4.7735,-8.5918 1.0312,-3.8203 1.5469,-8.5468 1.5469,-14.1836 0,-5.5781 -0.5,-10.1836 -1.5,-13.8203 -1,-3.6367 -2.5469,-6.334 -4.6368,-8.0918 -2.0918,-1.7558 -4.7734,-2.6347 -8.0468,-2.6347 -1.6993,0 -3.2149,0.2578 -4.5469,0.7714 -1.334,0.5137 -2.4551,1.2247 -3.3633,2.1348 -0.9102,0.9102 -1.668,1.9707 -2.2734,3.1836 h -0.545 V 354.373 h -15.9121 m 20.1856,30.7286 c 1.0898,0 1.9531,0.2871 2.5898,0.8632 0.6367,0.5762 1.1055,1.4258 1.4102,2.5469 0.3027,1.1211 0.4551,2.5293 0.4551,4.2285 v 7.7266 c 0,1.7578 -0.1524,3.1973 -0.4551,4.3184 -0.3047,1.1211 -0.7735,1.955 -1.4102,2.5019 -0.6367,0.5449 -1.5,0.8184 -2.5898,0.8184 -1.0918,0 -1.9707,-0.3047 -2.6367,-0.9102 -0.668,-0.6055 -1.1231,-1.4844 -1.3653,-2.6367 -0.2422,-1.1523 -0.3633,-2.6055 -0.3633,-4.3633 v -7.0918 c 0,-1.334 0.0606,-2.4863 0.1817,-3.4551 0.1211,-0.9707 0.3476,-1.8046 0.6816,-2.5019 0.3321,-0.6973 0.7871,-1.2129 1.3633,-1.5449 0.5762,-0.334 1.2891,-0.5 2.1387,-0.5 z"
         style="fill:#231f20;fill-opacity:1;fill-rule:nonzero;stroke:none"
         transform="matrix(1.3333333,0,0,-1.3333333,0,585.33333)" />
      <path
         id="path6"
         d="m 168.165,372.2129 v 65.916 h 15.9102 v -22.457 h 0.4551 c 0.7871,1.2109 1.7265,2.2265 2.8183,3.0449 1.0899,0.8184 2.3321,1.4551 3.7266,1.9102 1.3945,0.4531 2.9102,0.6816 4.5469,0.6816 2.9687,0 5.3183,-0.5762 7.0468,-1.7285 1.7266,-1.1524 2.9844,-2.8028 3.7735,-4.9551 0.7871,-2.1523 1.1816,-4.7422 1.1816,-7.7715 v -34.6406 h -15.9121 v 30.8203 c 0,0.666 -0.0605,1.2715 -0.1816,1.8184 -0.1211,0.5449 -0.334,1.0156 -0.6367,1.4101 -0.3028,0.3946 -0.6661,0.6973 -1.0899,0.9082 -0.4258,0.211 -0.9101,0.3184 -1.4551,0.3184 -1.0312,0 -1.8632,-0.3496 -2.5,-1.0449 -0.6367,-0.6973 -1.0918,-1.6075 -1.3652,-2.7286 -0.2734,-1.121 -0.4082,-2.3789 -0.4082,-3.7714 v -27.7305 z"
         style="fill:#231f20;fill-opacity:1;fill-rule:nonzero;stroke:none"
         transform="matrix(1.3333333,0,0,-1.3333333,0,585.33333)" />
      <path
         id="path7"
         d="m 218.6929,408.3867 -3.3633,13.002 v 13.3652 h 13.0019 v -13.3652 l -3.3652,-13.002 z"
         style="fill:#231f20;fill-opacity:1;fill-rule:nonzero;stroke:none"
         transform="matrix(1.3333333,0,0,-1.3333333,0,585.33333)" />
      <path
         id="path8"
         d="m 253.6396,371.1934 c -3.0917,0 -5.8046,0.3339 -8.1367,0.998 -2.334,0.666 -4.289,1.6211 -5.8652,2.8633 -1.5762,1.2422 -2.7734,2.7441 -3.5918,4.5019 -0.8184,1.7579 -1.2266,3.7872 -1.2266,6.0918 0,0.1797 0.0137,0.4981 0.045,0.9532 0.0312,0.4531 0.0761,0.8925 0.1367,1.3183 h 14.1836 c -0.0606,-0.4844 -0.0899,-0.8476 -0.0899,-1.0898 0,-0.2422 0,-0.5156 0,-0.8184 0,-0.789 0.1817,-1.4863 0.5449,-2.0918 0.3633,-0.6054 0.877,-1.0761 1.545,-1.4101 0.6679,-0.334 1.4863,-0.5 2.455,-0.5 0.6661,0 1.3184,0.0898 1.9551,0.2734 0.6367,0.1816 1.166,0.5156 1.5918,1 0.4239,0.4844 0.6367,1.1523 0.6367,2 0,1.2109 -0.455,2.1504 -1.3652,2.8184 -0.9101,0.6679 -2.1074,1.2285 -3.5918,1.6836 -1.4844,0.4531 -3.0762,0.9531 -4.7715,1.5 -1.5156,0.4238 -3.0312,0.9687 -4.5468,1.6367 -1.5157,0.666 -2.8946,1.5293 -4.1368,2.5898 -1.2422,1.0606 -2.2285,2.4395 -2.955,4.1367 -0.7266,1.6973 -1.0899,3.7891 -1.0899,6.2754 0,2.9082 0.5,5.3321 1.5,7.2715 1,1.9395 2.3789,3.5313 4.1367,4.7735 1.7578,1.2421 3.7578,2.121 6,2.6367 2.2422,0.5156 4.6075,0.7734 7.0918,0.7734 2.3633,0 4.6211,-0.2578 6.7735,-0.7734 2.1523,-0.5157 4.0605,-1.3028 5.7285,-2.3633 1.666,-1.0606 2.9687,-2.3945 3.9082,-4 0.9394,-1.6074 1.4101,-3.5313 1.4101,-5.7734 0,-0.3633 -0.0156,-0.7891 -0.0449,-1.2735 -0.0312,-0.4844 -0.0762,-0.9082 -0.1367,-1.2715 h -14.0918 v 1.2715 c 0,0.7871 -0.168,1.4238 -0.5,1.9082 -0.334,0.4844 -0.7891,0.8496 -1.3652,1.0918 -0.5762,0.2422 -1.2266,0.3652 -1.9532,0.3652 -0.3652,0 -0.7597,-0.0312 -1.1836,-0.0917 -0.4257,-0.0606 -0.8339,-0.2129 -1.2285,-0.4551 -0.3945,-0.2422 -0.7109,-0.5469 -0.9531,-0.9102 -0.2422,-0.3633 -0.3633,-0.8183 -0.3633,-1.3613 0,-0.9707 0.3789,-1.7442 1.1367,-2.3203 0.7579,-0.5762 1.7715,-1.0606 3.045,-1.4551 1.2734,-0.3945 2.6679,-0.8633 4.1836,-1.4082 1.5742,-0.4258 3.2265,-0.9258 4.9531,-1.5 1.7265,-0.5762 3.334,-1.3633 4.8183,-2.3633 1.4844,-1 2.6817,-2.334 3.5918,-4.0019 0.9102,-1.668 1.3653,-3.8028 1.3653,-6.4082 0,-3.1524 -0.4864,-5.8047 -1.4551,-7.9571 -0.9707,-2.1523 -2.3496,-3.9101 -4.1367,-5.2734 -1.7891,-1.3633 -3.8653,-2.3477 -6.2285,-2.9531 -2.3633,-0.6055 -4.9395,-0.9082 -7.7286,-0.9082 z"
         style="fill:#231f20;fill-opacity:1;fill-rule:nonzero;stroke:none"
         transform="matrix(1.3333333,0,0,-1.3333333,0,585.33333)" />
      <path
         id="path9"
         d="m 299.917,372.248 -12.002,48.0059 h 16.6387 l 2.5449,-16.457 c 0.1817,-0.8496 0.3477,-2.002 0.5,-3.4551 0.1524,-1.4551 0.334,-2.9863 0.5469,-4.5918 0.2109,-1.6074 0.4082,-3.0469 0.5899,-4.3184 h 0.7285 c 0.2422,1.2715 0.4375,2.6504 0.5898,4.1348 0.1524,1.4844 0.334,2.9395 0.5469,4.3652 0.2109,1.4239 0.4082,2.6817 0.5898,3.7735 l 2.7285,16.5488 h 16.7286 l 2.5468,-16.5488 c 0.1797,-0.7891 0.3457,-1.9102 0.4981,-3.3633 0.1523,-1.4551 0.3496,-2.9707 0.5918,-4.5469 0.2422,-1.5761 0.4258,-3.0312 0.5469,-4.3633 h 0.8183 c 0.1211,1.1504 0.2715,2.4688 0.4531,3.9532 0.1817,1.4843 0.3789,2.9707 0.5918,4.455 0.211,1.4844 0.4082,2.7735 0.5918,3.8653 l 2.7266,16.5488 H 354.833 L 342.8311,372.248 H 326.374 l -3.0898,16.8204 c -0.2442,0.9082 -0.4571,2.0136 -0.6387,3.3164 -0.1816,1.3027 -0.3476,2.6367 -0.5,4 -0.1523,1.3632 -0.2871,2.5312 -0.4082,3.5019 h -0.7266 c -0.0625,-1.0312 -0.1836,-2.2129 -0.3652,-3.5469 -0.1816,-1.3339 -0.3633,-2.6367 -0.5449,-3.9101 -0.1817,-1.2734 -0.3945,-2.3926 -0.6367,-3.3613 l -3,-16.8204 z"
         style="fill:#231f20;fill-opacity:1;fill-rule:nonzero;stroke:none"
         transform="matrix(1.3333333,0,0,-1.3333333,0,585.33333)" />
      <path
         id="path10"
         d="m 378.29,371.1934 c -4.6074,0 -8.4863,0.8496 -11.6386,2.5449 -3.1524,1.6953 -5.5157,4.3926 -7.0918,8.0898 -1.5762,3.6973 -2.3633,8.5157 -2.3633,14.4571 0,6 0.8476,10.8339 2.5449,14.5019 1.6973,3.666 4.1074,6.3477 7.2285,8.0449 3.1211,1.6973 6.8946,2.5469 11.3203,2.5469 4.7266,0 8.6055,-0.7891 11.6368,-2.3633 3.0312,-1.5761 5.289,-4.1972 6.7734,-7.8652 1.4844,-3.668 2.2285,-8.6231 2.2285,-14.8652 v -2.6368 h -25.5488 c 0,-2.5468 0.1504,-4.6367 0.4551,-6.2734 0.3027,-1.6367 0.8183,-2.8652 1.5449,-3.6836 0.7265,-0.8184 1.7285,-1.2266 3.0019,-1.2266 0.9688,0 1.7578,0.1504 2.3633,0.4551 0.6055,0.3028 1.0918,0.7578 1.4551,1.3633 0.3633,0.6055 0.6055,1.3633 0.7266,2.2734 0.1211,0.9082 0.1816,1.9688 0.1816,3.1817 h 15.7305 c 0,-3.1524 -0.4102,-5.8789 -1.2285,-8.1817 -0.8184,-2.3046 -2.0762,-4.2285 -3.7735,-5.7734 -1.6973,-1.5469 -3.834,-2.6973 -6.4101,-3.4551 -2.5762,-0.7558 -5.6211,-1.1347 -9.1368,-1.1347 m -4.8183,30.0918 h 9.2734 c 0,1.6367 -0.0762,3.0156 -0.2285,4.1367 -0.1523,1.1211 -0.3945,2.0312 -0.7266,2.7285 -0.3339,0.6953 -0.789,1.1953 -1.3632,1.5 -0.5762,0.3027 -1.2891,0.4551 -2.1368,0.4551 -1.1523,0 -2.0605,-0.3047 -2.7265,-0.9102 -0.668,-0.6055 -1.168,-1.5449 -1.5,-2.8183 -0.334,-1.2735 -0.5313,-2.9707 -0.5918,-5.0918 z"
         style="fill:#231f20;fill-opacity:1;fill-rule:nonzero;stroke:none"
         transform="matrix(1.3333333,0,0,-1.3333333,0,585.33333)" />
      <path
         id="path11"
         d="m 431.2842,371.123 c -2.8477,0 -5.2129,0.6211 -7.0918,1.8614 -1.8789,1.2422 -3.3653,2.9238 -4.4551,5.0469 h -0.4531 l -1,-5.8184 h -13.0938 v 65.916 h 15.9121 V 415.127 h 0.545 c 0.6054,1.2109 1.3632,2.2871 2.2734,3.2265 0.9082,0.9395 2.0293,1.666 3.3633,2.1817 1.332,0.5156 2.8476,0.7734 4.5469,0.7734 3.2734,0 5.955,-0.8789 8.0468,-2.6367 2.0899,-1.7578 3.6367,-4.4551 4.6367,-8.0918 1,-3.6367 1.5,-8.2442 1.5,-13.8203 0,-5.6368 -0.5156,-10.3653 -1.5468,-14.1836 -1.0313,-3.8184 -2.6211,-6.6817 -4.7735,-8.5899 -2.1523,-1.9082 -4.955,-2.8633 -8.4101,-2.8633 m -5.9082,13.2715 c 1.0898,0 1.9531,0.2715 2.5898,0.8184 0.6367,0.5449 1.1055,1.3926 1.4102,2.5449 0.3027,1.1524 0.4551,2.5762 0.4551,4.2754 v 7.7285 c 0,1.7578 -0.1524,3.1817 -0.4551,4.2715 -0.3047,1.0898 -0.7735,1.9238 -1.4102,2.5 -0.6367,0.5762 -1.5,0.8652 -2.5898,0.8652 -0.8496,0 -1.5625,-0.1679 -2.1387,-0.5 -0.5762,-0.3339 -1.0312,-0.8496 -1.3633,-1.5468 -0.334,-0.6973 -0.5605,-1.5313 -0.6816,-2.5 -0.1211,-0.9707 -0.1817,-2.1231 -0.1817,-3.4551 v -7.0918 c 0,-1.6973 0.1211,-3.1367 0.3633,-4.3184 0.2422,-1.1836 0.6973,-2.0781 1.3653,-2.6836 0.666,-0.6054 1.5449,-0.9082 2.6367,-0.9082 z"
         style="fill:#231f20;fill-opacity:1;fill-rule:nonzero;stroke:none"
         transform="matrix(1.3333333,0,0,-1.3333333,0,585.33333)" />
      <path
         id="path12"
         d="m 469.4824,371.1934 c -3.0918,0 -5.8047,0.3339 -8.1367,0.998 -2.334,0.666 -4.2891,1.6211 -5.8652,2.8633 -1.5762,1.2422 -2.7735,2.7441 -3.5918,4.5019 -0.8184,1.7579 -1.2266,3.7872 -1.2266,6.0918 0,0.1797 0.0137,0.4981 0.0449,0.9532 0.0313,0.4531 0.0762,0.8925 0.1368,1.3183 h 14.1835 c -0.0605,-0.4844 -0.0898,-0.8476 -0.0898,-1.0898 0,-0.2422 0,-0.5156 0,-0.8184 0,-0.789 0.1816,-1.4863 0.5449,-2.0918 0.3633,-0.6054 0.877,-1.0761 1.5449,-1.4101 0.668,-0.334 1.4864,-0.5 2.4551,-0.5 0.666,0 1.3184,0.0898 1.9551,0.2734 0.6367,0.1816 1.166,0.5156 1.5918,1 0.4238,0.4844 0.6367,1.1523 0.6367,2 0,1.2109 -0.4551,2.1504 -1.3652,2.8184 -0.9102,0.6679 -2.1074,1.2285 -3.5918,1.6836 -1.4844,0.4531 -3.0762,0.9531 -4.7715,1.5 -1.5156,0.4238 -3.0312,0.9687 -4.5469,1.6367 -1.5156,0.666 -2.8945,1.5293 -4.1367,2.5898 -1.2422,1.0606 -2.2285,2.4395 -2.9551,4.1367 -0.7265,1.6973 -1.0898,3.7891 -1.0898,6.2754 0,2.9082 0.5,5.3321 1.5,7.2715 1,1.9395 2.3789,3.5313 4.1367,4.7735 1.7578,1.2421 3.7578,2.121 6,2.6367 2.2422,0.5156 4.6074,0.7734 7.0918,0.7734 2.3633,0 4.6211,-0.2578 6.7734,-0.7734 2.1524,-0.5157 4.0606,-1.3028 5.7286,-2.3633 1.666,-1.0606 2.9687,-2.3945 3.9082,-4 0.9394,-1.6074 1.4101,-3.5313 1.4101,-5.7734 0,-0.3633 -0.0156,-0.7891 -0.0449,-1.2735 -0.0313,-0.4844 -0.0762,-0.9082 -0.1367,-1.2715 h -14.0918 v 1.2715 c 0,0.7871 -0.168,1.4238 -0.5,1.9082 -0.334,0.4844 -0.7891,0.8496 -1.3653,1.0918 -0.5761,0.2422 -1.2265,0.3652 -1.9531,0.3652 -0.3652,0 -0.7597,-0.0312 -1.1836,-0.0917 -0.4258,-0.0606 -0.834,-0.2129 -1.2285,-0.4551 -0.3945,-0.2422 -0.7109,-0.5469 -0.9531,-0.9102 -0.2422,-0.3633 -0.3633,-0.8183 -0.3633,-1.3613 0,-0.9707 0.3789,-1.7442 1.1367,-2.3203 0.7578,-0.5762 1.7715,-1.0606 3.0449,-1.4551 1.2735,-0.3945 2.668,-0.8633 4.1836,-1.4082 1.5743,-0.4258 3.2266,-0.9258 4.9532,-1.5 1.7265,-0.5762 3.3339,-1.3633 4.8183,-2.3633 1.4844,-1 2.6817,-2.334 3.5918,-4.0019 0.9102,-1.668 1.3653,-3.8028 1.3653,-6.4082 0,-3.1524 -0.4864,-5.8047 -1.4551,-7.9571 -0.9707,-2.1523 -2.3496,-3.9101 -4.1367,-5.2734 -1.7891,-1.3633 -3.8653,-2.3477 -6.2286,-2.9531 -2.3632,-0.6055 -4.9394,-0.9082 -7.7285,-0.9082 z"
         style="fill:#231f20;fill-opacity:1;fill-rule:nonzero;stroke:none"
         transform="matrix(1.3333333,0,0,-1.3333333,0,585.33333)" />
      <path
         id="path13"
         d="m 495.2002,425.8555 v 12.2734 h 15.9102 v -12.2734 h -15.9102 m 0,-53.6426 v 48.0059 h 15.9102 v -48.0059 z"
         style="fill:#231f20;fill-opacity:1;fill-rule:nonzero;stroke:none"
         transform="matrix(1.3333333,0,0,-1.3333333,0,585.33333)" />
      <path
         id="path14"
         d="m 533.7393,371.1113 c -2.4864,0 -4.668,0.3633 -6.5469,1.0899 -1.8789,0.7265 -3.334,1.9375 -4.3653,3.6347 -1.0312,1.6973 -1.5449,3.9395 -1.5449,6.7286 v 25.4589 h -4.9101 v 12.1836 h 5.455 l 3.002,14.5469 h 12.3652 V 420.207 h 6.9082 v -12.1836 h -6.9082 v -20.1855 c 0,-1.4551 0.1953,-2.5469 0.5899,-3.2734 0.3945,-0.7266 1.2578,-1.0899 2.5918,-1.0899 h 3.7265 v -10.8203 c -1.1523,-0.3027 -2.3496,-0.5879 -3.5918,-0.8613 -1.2421,-0.2715 -2.4238,-0.4532 -3.5449,-0.545 -1.1211,-0.0898 -2.1972,-0.1367 -3.2265,-0.1367 z"
         style="fill:#231f20;fill-opacity:1;fill-rule:nonzero;stroke:none"
         transform="matrix(1.3333333,0,0,-1.3333333,0,585.33333)" />
      <path
         id="path15"
         d="m 569.582,371.1934 c -4.6074,0 -8.4863,0.8496 -11.6386,2.5449 -3.1524,1.6953 -5.5157,4.3926 -7.0918,8.0898 -1.5762,3.6973 -2.3633,8.5157 -2.3633,14.4571 0,6 0.8476,10.8339 2.5449,14.5019 1.6973,3.666 4.1074,6.3477 7.2285,8.0449 3.1211,1.6973 6.8946,2.5469 11.3203,2.5469 4.7266,0 8.6055,-0.7891 11.6368,-2.3633 3.0312,-1.5761 5.289,-4.1972 6.7734,-7.8652 1.4844,-3.668 2.2285,-8.6231 2.2285,-14.8652 v -2.6368 h -25.5488 c 0,-2.5468 0.1504,-4.6367 0.4551,-6.2734 0.3027,-1.6367 0.8183,-2.8652 1.5449,-3.6836 0.7265,-0.8184 1.7285,-1.2266 3.0019,-1.2266 0.9688,0 1.7578,0.1504 2.3633,0.4551 0.6055,0.3028 1.0918,0.7578 1.4551,1.3633 0.3633,0.6055 0.6055,1.3633 0.7266,2.2734 0.121,0.9082 0.1816,1.9688 0.1816,3.1817 h 15.7305 c 0,-3.1524 -0.4102,-5.8789 -1.2286,-8.1817 -0.8183,-2.3046 -2.0761,-4.2285 -3.7734,-5.7734 -1.6973,-1.5469 -3.834,-2.6973 -6.4101,-3.4551 -2.5762,-0.7558 -5.6211,-1.1347 -9.1368,-1.1347 m -4.8183,30.0918 h 9.2734 c 0,1.6367 -0.0762,3.0156 -0.2285,4.1367 -0.1523,1.1211 -0.3945,2.0312 -0.7266,2.7285 -0.334,0.6953 -0.789,1.1953 -1.3632,1.5 -0.5762,0.3027 -1.2891,0.4551 -2.1368,0.4551 -1.1523,0 -2.0605,-0.3047 -2.7265,-0.9102 -0.668,-0.6055 -1.168,-1.5449 -1.5,-2.8183 -0.334,-1.2735 -0.5313,-2.9707 -0.5918,-5.0918 z"
         style="fill:#231f20;fill-opacity:1;fill-rule:nonzero;stroke:none"
         transform="matrix(1.3333333,0,0,-1.3333333,0,585.33333)" />
      <path
         id="path16"
         d="m 596.8574,372.2188 v 16.9101 h 15.0938 v -16.9101 z"
         style="fill:#231f20;fill-opacity:1;fill-rule:nonzero;stroke:none"
         transform="matrix(1.3333333,0,0,-1.3333333,0,585.33333)" />
    </g>
  </g>
</svg>
