<?xml version="1.0" encoding="utf-8"?>
<svg viewBox="0 0 101.715 100.968" xmlns="http://www.w3.org/2000/svg">
  <path d="M 11.719 16.463 C 13.674 13.157 16.455 11.108 20.067 10.31 C 23.678 9.515 27.013 9.981 30.075 11.708 C 31.313 12.406 32.403 13.273 33.346 14.309 C 34.629 15.72 35.804 17.295 36.87 19.037 C 36.578 17.338 36.429 15.666 36.429 14.053 C 36.429 10.237 37.927 6.803 40.656 4.096 C 43.435 1.446 46.948 0 50.857 0 C 54.767 0 58.28 1.446 61.061 4.098 C 61.785 4.816 62.423 5.586 62.967 6.401 C 63.482 6.203 64.016 6.031 64.574 5.888 C 68.15 4.961 71.553 5.41 74.781 7.233 C 78.011 9.054 80.109 11.71 81.077 15.197 C 82.043 18.687 81.6 22 79.744 25.14 C 78.977 26.44 78.077 27.706 77.05 28.939 C 78.956 27.894 80.901 27.046 82.825 26.419 C 84.242 25.966 85.78 25.718 87.288 25.718 C 90.996 25.718 94.449 27.104 97.315 29.647 C 100.155 32.268 101.715 35.759 101.715 39.77 C 101.715 42.706 100.737 45.535 98.959 47.972 C 98.32 48.818 97.596 49.586 96.801 50.267 C 97.952 51.622 98.823 53.223 99.412 55.071 C 100.513 58.526 100.085 61.905 98.132 65.211 C 96.71 67.617 94.668 69.401 92.007 70.56 C 89.347 71.72 86.574 72.002 83.684 71.41 C 83.671 71.408 83.657 71.404 83.646 71.402 C 84.137 71.969 84.602 72.546 85.035 73.133 C 86.814 75.583 87.789 78.434 87.789 81.393 C 87.789 85.02 86.299 88.399 83.576 91.194 C 80.798 93.944 77.278 95.446 73.363 95.446 C 71.15 95.446 68.927 94.922 66.904 93.96 C 66.407 93.716 65.925 93.443 65.456 93.143 C 65.257 93.586 65.031 94.022 64.775 94.453 C 63.016 97.428 60.325 99.42 56.702 100.428 C 53.079 101.438 49.652 101.032 46.421 99.209 C 44.6 98.181 43.094 96.797 41.904 95.055 C 40.841 93.497 40.154 91.777 39.843 89.89 C 38.474 91.614 36.742 93.011 34.807 93.96 C 32.786 94.922 30.564 95.446 28.352 95.446 C 24.437 95.446 20.916 93.944 18.137 91.194 C 15.414 88.399 13.922 85.02 13.922 81.393 C 13.922 80.582 13.995 79.781 14.138 78.993 C 13.885 78.991 13.633 78.981 13.38 78.966 C 11.243 78.829 9.263 78.246 7.442 77.218 C 4.211 75.397 2.139 72.701 1.219 69.13 C 0.302 65.559 0.722 62.286 2.479 59.31 C 3.915 56.881 5.969 55.079 8.634 53.908 C 9.184 53.666 9.747 53.44 10.324 53.231 C 10.205 53.196 10.087 53.159 9.969 53.122 C 7.031 52.156 4.539 50.38 2.733 47.97 C 0.968 45.531 0 42.704 0 39.77 C 0 35.761 1.558 32.268 4.399 29.647 C 6.189 28.058 8.21 26.922 10.378 26.291 C 10.209 25.651 10.091 24.991 10.022 24.311 C 9.731 21.486 10.298 18.869 11.719 16.463 Z M 4.293 46.82 C 5.878 49.017 7.887 50.445 10.562 51.28 C 13.676 52.271 17.2 52.745 21.284 52.745 C 23.361 52.745 26.392 52.576 30.415 52.24 C 34.468 51.895 37.466 51.723 39.372 51.723 C 41.65 51.723 43.628 51.868 45.221 52.149 L 47.066 52.472 L 45.734 53.788 C 44.35 55.156 42.62 56.554 40.613 57.928 C 38.622 59.285 36.616 60.541 34.635 61.669 C 32.68 62.782 30.709 63.945 28.71 65.168 C 26.736 66.374 24.837 67.744 22.958 69.318 C 21.09 70.876 19.544 72.502 18.236 74.282 C 16.594 76.463 15.857 78.74 15.857 81.393 C 15.857 84.637 16.989 87.335 19.511 89.832 C 21.977 92.369 24.808 93.511 28.352 93.511 C 30.348 93.511 32.147 93.106 33.967 92.218 C 35.792 91.353 37.234 90.162 38.474 88.498 C 40.089 86.352 41.414 83.868 42.527 80.929 C 43.652 77.963 44.457 75.275 44.966 72.796 C 45.488 70.258 46.177 67.466 47.023 64.448 C 47.879 61.406 48.889 58.81 50.01 56.765 L 50.857 55.216 L 51.705 56.765 C 52.826 58.81 53.836 61.406 54.691 64.448 C 55.535 67.464 56.226 70.258 56.749 72.796 C 57.254 75.275 58.063 77.961 59.187 80.929 C 60.3 83.868 61.624 86.354 63.242 88.5 C 64.483 90.164 65.923 91.353 67.744 92.218 C 69.565 93.106 71.367 93.511 73.363 93.511 C 76.906 93.511 79.738 92.369 82.202 89.832 C 84.724 87.335 85.854 84.637 85.854 81.393 C 85.854 78.74 85.118 76.465 83.479 74.282 C 82.171 72.502 80.622 70.876 78.757 69.316 C 76.875 67.742 74.979 66.374 73.005 65.17 C 71.007 63.947 69.035 62.782 67.078 61.669 C 65.098 60.541 63.093 59.285 61.102 57.928 C 59.095 56.554 57.364 55.156 55.98 53.788 L 54.649 52.472 L 56.493 52.149 C 58.084 51.868 60.062 51.723 62.342 51.723 C 64.247 51.723 67.247 51.895 71.297 52.24 C 75.323 52.576 78.354 52.745 80.429 52.745 C 84.486 52.745 88 52.269 91.12 51.278 C 93.789 50.443 95.8 49.015 97.406 46.818 C 99.044 44.649 99.779 42.396 99.779 39.77 C 99.779 36.146 98.618 33.371 96.019 31.083 C 93.447 28.722 90.644 27.654 87.288 27.654 C 85.931 27.654 84.691 27.843 83.421 28.261 C 81.284 28.949 79.206 29.895 77.092 31.139 C 74.961 32.39 73.035 33.712 71.257 35.146 C 69.451 36.601 67.703 38.051 65.996 39.504 C 64.276 40.973 62.441 42.431 60.519 43.859 C 58.578 45.301 56.671 46.466 54.887 47.31 L 53.244 48.088 L 53.519 46.29 C 53.809 44.388 54.364 42.266 55.16 40.019 C 55.953 37.793 56.817 35.637 57.734 33.59 C 58.642 31.565 59.528 29.502 60.393 27.385 C 61.251 25.293 61.951 23.107 62.514 20.756 C 63.08 18.426 63.349 16.229 63.349 14.053 C 63.349 10.616 62.224 7.876 59.71 5.483 C 57.246 3.037 54.407 1.936 50.857 1.936 C 47.308 1.936 44.468 3.037 42.003 5.485 C 39.491 7.876 38.364 10.616 38.364 14.053 C 38.364 16.229 38.633 18.426 39.198 20.756 C 39.763 23.107 40.462 25.293 41.321 27.385 C 42.187 29.502 43.071 31.565 43.977 33.588 C 44.896 35.637 45.759 37.792 46.551 40.017 C 47.35 42.266 47.906 44.388 48.196 46.29 L 48.471 48.088 L 46.828 47.31 C 45.043 46.466 43.137 45.301 41.194 43.859 C 39.272 42.431 37.439 40.973 35.718 39.504 C 34.009 38.051 32.262 36.601 30.456 35.146 C 28.677 33.712 26.753 32.39 24.623 31.139 C 22.509 29.895 20.43 28.949 18.294 28.261 C 17.02 27.843 15.781 27.654 14.427 27.654 C 11.071 27.654 8.268 28.722 5.696 31.083 C 3.095 33.371 1.935 36.145 1.935 39.77 C 1.935 42.398 2.663 44.653 4.291 46.82 L 4.293 46.82 Z" style="fill: rgb(204, 0, 0);" transform="matrix(1, 0, 0, 1, 0, 8.881784197001252e-16)"/>
</svg>