<?xml version="1.0" encoding="UTF-8" standalone="no"?>
<!-- Created with Inkscape (http://www.inkscape.org/) -->

<svg
   width="18.605518mm"
   height="135.46667mm"
   viewBox="0 0 18.605519 135.46667"
   version="1.1"
   id="svg1"
   xml:space="preserve"
   inkscape:version="1.4 (e7c3feb1, 2024-10-09)"
   sodipodi:docname="wordmark_vertical.svg"
   inkscape:export-filename="wordmark_horizontal.png"
   inkscape:export-xdpi="96"
   inkscape:export-ydpi="96"
   xmlns:inkscape="http://www.inkscape.org/namespaces/inkscape"
   xmlns:sodipodi="http://sodipodi.sourceforge.net/DTD/sodipodi-0.dtd"
   xmlns="http://www.w3.org/2000/svg"
   xmlns:svg="http://www.w3.org/2000/svg"><sodipodi:namedview
     id="namedview1"
     pagecolor="#ffffff"
     bordercolor="#000000"
     borderopacity="0.25"
     inkscape:showpageshadow="2"
     inkscape:pageopacity="0.0"
     inkscape:pagecheckerboard="0"
     inkscape:deskcolor="#d1d1d1"
     inkscape:document-units="mm"
     showgrid="false"
     inkscape:zoom="0.55945567"
     inkscape:cx="459.37509"
     inkscape:cy="128.69652"
     inkscape:window-width="1440"
     inkscape:window-height="847"
     inkscape:window-x="0"
     inkscape:window-y="25"
     inkscape:window-maximized="1"
     inkscape:current-layer="svg1" /><defs
     id="defs1" /><g
     inkscape:label="Layer 1"
     inkscape:groupmode="layer"
     id="layer1" /><path
     id="path2"
     d="m 3.736481,2.908654 c 0,-0.444724 0.06073,-0.845619 0.181355,-1.202265 C 4.03888,1.349766 4.220657,1.043457 4.463189,0.787463 4.705299,0.531492 5.015073,0.336253 5.392111,0.201747 5.769149,0.067242 6.213428,0 6.72495,0 7.371398,0 7.933257,0.117579 8.411391,0.353158 8.8895018,0.588759 9.2799792,0.935408 9.5828225,1.393572 9.8856657,1.851313 10.111271,2.416637 10.259661,3.090009 10.407606,3.763359 10.4818,4.544314 10.4818,5.433317 h 0.807856 c 0.215209,0 0.390477,-0.03037 0.524983,-0.09112 0.134506,-0.06073 0.239066,-0.154875 0.313261,-0.282872 0.07375,-0.127997 0.11107,-0.286361 0.11107,-0.474646 0,-0.161407 -0.03039,-0.309797 -0.09112,-0.44428 C 12.08712,4.005893 11.999905,3.897867 11.885369,3.817163 11.770812,3.736463 11.626332,3.696119 11.451486,3.696119 H 11.289657 V 0.363578 c 0.0538,-0.01344 0.104139,-0.01995 0.151433,-0.01995 0.04685,0 0.09761,0 0.15141,0 0.67335,0 1.255601,0.164872 1.747174,0.494594 0.491151,0.329745 0.871654,0.821318 1.141066,1.474298 0.269011,0.652957 0.403939,1.457348 0.403939,2.413593 0,0.727152 -0.09459,1.413542 -0.282873,2.059991 -0.188308,0.646471 -0.524983,1.171455 -1.009626,1.575371 -0.485042,0.403939 -1.164923,0.606109 -2.04002,0.606109 H 7.108918 c -0.18873,0 -0.347093,0.04687 -0.474646,0.141459 -0.127997,0.09414 -0.191773,0.24904 -0.191773,0.464671 V 9.997602 H 4.139976 C 4.018909,9.768509 3.921723,9.482593 3.847551,9.139409 3.773781,8.79578 3.736481,8.43567 3.736481,8.058632 c 0,-0.417379 0.05076,-0.78442 0.150966,-1.100703 C 3.988121,6.641202 4.133023,6.385653 4.321753,6.190414 4.51006,5.995175 4.7322,5.863713 4.988172,5.796471 V 5.695798 C 4.759101,5.520529 4.550401,5.308364 4.362115,5.059323 4.173385,4.810282 4.021953,4.510482 3.907839,4.160345 3.793748,3.810208 3.736481,3.39283 3.736481,2.908654 m 2.625315,1.494223 c 0,0.161407 0.03341,0.309774 0.100651,0.44428 0.06726,0.134506 0.157941,0.245576 0.272476,0.33321 0.114536,0.08763 0.249042,0.151432 0.403939,0.192195 0.154876,0.04036 0.319749,0.06076 0.495039,0.06076 H 8.6235563 C 8.6235563,4.948258 8.5662673,4.57122 8.451731,4.302231 8.337196,4.032792 8.179276,3.847528 7.977085,3.746432 7.774893,3.645358 7.552754,3.595021 7.310666,3.595021 c -0.215187,0 -0.393521,0.03341 -0.534958,0.101096 C 6.634272,3.763357 6.529711,3.857502 6.462447,3.97899 6.395207,4.100034 6.361796,4.241493 6.361796,4.402877 Z"
     style="fill:#ffffff;fill-opacity:1;fill-rule:nonzero;stroke:none;stroke-width:0.22214" /><path
     id="path3"
     d="m 3.962952,10.891025 h 14.642567 v 3.534289 H 3.962952 Z"
     style="fill:#ffffff;fill-opacity:1;fill-rule:nonzero;stroke:none;stroke-width:0.22214" /><path
     id="path4"
     d="m 3.736481,20.446613 c 0,-1.023487 0.18873,-1.885145 0.565323,-2.585396 0.376594,-0.700274 0.975772,-1.225257 1.797067,-1.575371 0.821317,-0.350137 1.891675,-0.524983 3.211497,-0.524983 1.332839,0 2.40664,0.188308 3.221449,0.565324 0.814365,0.377037 1.410077,0.912416 1.787093,1.605737 0.377038,0.69332 0.565768,1.531565 0.565768,2.514689 0,1.049966 -0.175291,1.911624 -0.524983,2.584996 -0.350115,0.673351 -0.932366,1.174898 -1.747174,1.504642 -0.814809,0.329744 -1.915534,0.495039 -3.302153,0.495039 H 8.72463 v -5.675405 c -0.565746,0 -1.029996,0.03341 -1.393572,0.101095 -0.363576,0.06724 -0.636475,0.181777 -0.818274,0.343184 -0.1818,0.161407 -0.272477,0.383969 -0.272477,0.666842 0,0.215209 0.03341,0.390499 0.101096,0.524983 0.06726,0.134505 0.168338,0.242532 0.302843,0.323235 0.134506,0.0807 0.302843,0.134506 0.505012,0.161407 0.201748,0.0269 0.437349,0.04034 0.706783,0.04034 v 3.49437 c -0.700273,0 -1.305938,-0.09112 -1.817481,-0.272899 C 5.526616,24.556643 5.099242,24.277236 4.756058,23.900197 4.41243,23.523182 4.15688,23.048513 3.988543,22.47626 3.82065,21.903983 3.736481,21.22759 3.736481,20.446613 m 6.684586,-1.070336 v 2.059991 c 0.363576,0 0.669885,-0.01691 0.918926,-0.05076 0.249041,-0.03383 0.45121,-0.08763 0.606108,-0.161406 0.154454,-0.07417 0.265524,-0.175268 0.33321,-0.302821 0.06724,-0.127996 0.101096,-0.28636 0.101096,-0.474668 0,-0.255972 -0.06769,-0.457719 -0.202192,-0.605664 -0.134506,-0.148389 -0.343184,-0.259459 -0.626056,-0.33321 -0.282896,-0.07419 -0.659911,-0.118023 -1.131092,-0.131462 z"
     style="fill:#ffffff;fill-opacity:1;fill-rule:nonzero;stroke:none;stroke-width:0.22214" /><path
     id="path5"
     d="m 0,26.422263 h 14.64259 v 2.908653 l -1.292921,0.242088 v 0.101097 c 0.471159,0.255549 0.845153,0.585293 1.121095,0.989654 0.275942,0.403917 0.413914,0.922391 0.413914,1.554979 0,0.767515 -0.212166,1.390106 -0.636053,1.868218 -0.42431,0.478133 -1.060362,0.831291 -1.908581,1.060384 -0.848641,0.22907 -1.898584,0.343628 -3.1507423,0.343628 -1.2391177,0 -2.2621827,-0.11107 -3.0700387,-0.33321 C 5.311407,34.935614 4.712229,34.591986 4.321753,34.127736 3.93172,33.663065 3.736481,33.067375 3.736481,32.340222 c 0,-0.377482 0.05727,-0.714157 0.171358,-1.010047 C 4.021953,31.03384 4.179894,30.784799 4.382063,30.583052 4.584255,30.38086 4.819834,30.212523 5.089267,30.07804 V 29.956973 H 0 v -3.53471 m 6.826045,4.484024 c 0,0.242089 0.06378,0.433862 0.191752,0.575298 0.127996,0.141437 0.316726,0.245576 0.565767,0.313262 0.249041,0.06724 0.561858,0.101096 0.939318,0.101096 h 1.716386 c 0.390477,0 0.710247,-0.03385 0.959288,-0.101096 0.249041,-0.06769 0.434284,-0.171825 0.555772,-0.313262 0.121044,-0.141436 0.181799,-0.333209 0.181799,-0.575298 0,-0.242532 -0.06769,-0.437771 -0.202191,-0.585716 -0.134506,-0.148389 -0.329744,-0.249484 -0.585716,-0.303287 -0.255972,-0.0538 -0.578786,-0.0807 -0.969263,-0.0807 H 8.603586 c -0.296334,0 -0.552306,0.01346 -0.767515,0.04036 -0.215632,0.0269 -0.400874,0.07722 -0.555772,0.151411 -0.154898,0.07377 -0.269433,0.174846 -0.343184,0.302843 -0.07419,0.127997 -0.11107,0.28636 -0.11107,0.475089 z"
     style="fill:#ffffff;fill-opacity:1;fill-rule:nonzero;stroke:none;stroke-width:0.22214" /><path
     id="path6"
     d="m 3.962952,36.884091 h 14.642567 v 3.534289 h -4.988593 v 0.101096 c 0.268989,0.174847 0.494594,0.383524 0.676393,0.626057 0.181799,0.24211 0.323236,0.518052 0.424332,0.827826 0.100651,0.309774 0.15141,0.646471 0.15141,1.010047 0,0.659467 -0.127997,1.181406 -0.383969,1.565375 -0.255993,0.383547 -0.622613,0.662954 -1.100724,0.838245 -0.478112,0.174846 -1.053432,0.26248 -1.72636,0.26248 H 3.962952 v -3.534711 h 6.846416 c 0.147944,0 0.28245,-0.01344 0.403939,-0.04034 0.121043,-0.0269 0.225605,-0.07419 0.313238,-0.141436 0.08766,-0.06726 0.154899,-0.147967 0.201748,-0.24211 0.04687,-0.09459 0.07073,-0.20217 0.07073,-0.323236 0,-0.22907 -0.07766,-0.41389 -0.232114,-0.555349 -0.154898,-0.141437 -0.35709,-0.242532 -0.606131,-0.303265 C 10.71176,40.448329 10.43233,40.418379 10.123,40.418379 H 3.962952 Z"
     style="fill:#ffffff;fill-opacity:1;fill-rule:nonzero;stroke:none;stroke-width:0.22214" /><path
     id="path7"
     d="m 11.998593,48.108349 2.888261,-0.747123 h 2.968943 v 2.888239 h -2.968943 l -2.888261,-0.747544 z"
     style="fill:#ffffff;fill-opacity:1;fill-rule:nonzero;stroke:none;stroke-width:0.22214" /><path
     id="path8"
     d="m 3.736481,55.871402 c 0,-0.68679 0.07417,-1.289433 0.221695,-1.807485 0.147945,-0.518474 0.360111,-0.952757 0.636053,-1.302895 0.275942,-0.350136 0.609574,-0.616082 1.000051,-0.797881 0.3905,-0.181799 0.841288,-0.272477 1.353232,-0.272477 0.03991,0 0.110647,0.003 0.211743,0.01 0.100652,0.0069 0.19826,0.01691 0.292847,0.03037 v 3.150742 c -0.107604,-0.01346 -0.188286,-0.01997 -0.242088,-0.01997 -0.0538,0 -0.114535,0 -0.181799,0 -0.175269,0 -0.330167,0.04036 -0.464672,0.121044 -0.134483,0.0807 -0.239045,0.194817 -0.31324,0.343206 -0.07419,0.148367 -0.111069,0.330166 -0.111069,0.545353 0,0.147967 0.01995,0.292869 0.06073,0.434306 0.04034,0.141436 0.114535,0.259015 0.22214,0.353602 0.107604,0.09416 0.255972,0.141436 0.444279,0.141436 0.26899,0 0.47769,-0.101074 0.626079,-0.303265 0.148367,-0.202169 0.272899,-0.468137 0.373995,-0.797882 0.100651,-0.329744 0.211721,-0.683346 0.333209,-1.05994 0.09414,-0.336675 0.215187,-0.67335 0.363577,-1.010025 0.1479482,-0.336702 0.3397215,-0.643011 0.5753008,-0.918953 0.2356015,-0.275942 0.5419099,-0.495038 0.9189252,-0.656423 0.377038,-0.161407 0.841711,-0.24211 1.394016,-0.24211 0.646027,0 1.184472,0.11107 1.61529,0.33321 0.43084,0.222139 0.784442,0.528448 1.060384,0.918925 0.27592,0.390477 0.471159,0.834757 0.585716,1.332839 0.114535,0.498082 0.171803,1.023509 0.171803,1.575371 0,0.524983 -0.05727,1.02653 -0.171803,1.504664 -0.114557,0.478111 -0.289403,0.901999 -0.524983,1.272528 -0.235601,0.370085 -0.531913,0.659466 -0.888559,0.868167 -0.357067,0.208677 -0.784442,0.313239 -1.282502,0.313239 -0.0807,0 -0.175291,-0.0035 -0.282895,-0.01 -0.107605,-0.0069 -0.201747,-0.01693 -0.282451,-0.03037 v -3.130323 h 0.282451 c 0.174846,0 0.316283,-0.03732 0.423887,-0.11107 0.107605,-0.0742 0.18873,-0.175291 0.242533,-0.303265 0.0538,-0.127998 0.08113,-0.272477 0.08113,-0.433884 0,-0.08113 -0.0069,-0.16876 -0.02037,-0.262925 -0.01346,-0.09457 -0.04729,-0.185242 -0.101096,-0.272898 -0.0538,-0.08763 -0.121489,-0.15792 -0.202192,-0.211722 -0.0807,-0.0538 -0.181777,-0.0807 -0.302399,-0.0807 -0.21563,0 -0.387456,0.08417 -0.51543,0.252506 -0.127998,0.16836 -0.235602,0.393521 -0.323236,0.676416 -0.08763,0.282872 -0.191773,0.592647 -0.312818,0.929344 -0.09459,0.349692 -0.205656,0.716734 -0.333209,1.100281 -0.127997,0.383523 -0.302843,0.740614 -0.5249831,1.070336 C 9.623613,59.442568 9.3272788,59.708536 8.9567719,59.910705 8.586242,60.112897 8.112018,60.213993 7.533255,60.213993 6.832981,60.213993 6.2438,60.105944 5.765667,59.890757 5.28755,59.675126 4.897073,59.368818 4.59423,58.971832 4.291386,58.574401 4.072712,58.113195 3.938229,57.588233 3.803723,57.063251 3.736481,56.490974 3.736481,55.871404 Z"
     style="fill:#ffffff;fill-opacity:1;fill-rule:nonzero;stroke:none;stroke-width:0.22214" /><path
     id="path9"
     d="m 3.97075,66.151451 10.66402,-2.666116 v 3.696115 l -3.655754,0.565321 c -0.18873,0.04036 -0.444724,0.07724 -0.767516,0.11107 -0.3232349,0.03388 -0.6633758,0.0742 -1.0200208,0.121492 -0.3570676,0.04685 -0.6768382,0.09068 -0.9592892,0.131038 v 0.16183 c 0.282451,0.05378 0.5887596,0.09719 0.9185043,0.131019 0.3297441,0.03388 0.6529798,0.07419 0.9696847,0.121486 0.316304,0.04685 0.595712,0.09068 0.838244,0.131019 l 3.676147,0.606106 v 3.716089 l -3.676147,0.565749 c -0.17529,0.03992 -0.424331,0.07679 -0.747123,0.110642 -0.3232349,0.03381 -0.65991,0.07767 -1.0100472,0.131467 -0.3501145,0.05378 -0.6733498,0.09459 -0.9692628,0.121485 v 0.181778 c 0.25555,0.02689 0.5484192,0.06033 0.8781634,0.10065 0.329722,0.04036 0.6599107,0.08417 0.9896326,0.131466 0.329744,0.04685 0.616105,0.09068 0.858637,0.13146 l 3.676147,0.60569 v 3.292177 L 3.97075,75.68438 v -3.655771 l 3.73648,-0.686372 c 0.201747,-0.05428 0.4473,-0.101537 0.736704,-0.141881 0.2893813,-0.04036 0.5857161,-0.07721 0.8885593,-0.111065 0.3028206,-0.03381 0.5622802,-0.06378 0.7779107,-0.09068 V 70.837202 C 9.8813341,70.823352 9.6188312,70.796402 9.322497,70.756082 9.0261849,70.715722 8.7367811,70.675372 8.453908,70.635037 8.171035,70.594677 7.922416,70.547407 7.70723,70.493603 L 3.97075,69.827179 Z"
     style="fill:#ffffff;fill-opacity:1;fill-rule:nonzero;stroke:none;stroke-width:0.22214" /><path
     id="path10"
     d="m 3.736481,83.561221 c 0,-1.02349 0.18873,-1.88515 0.565323,-2.585399 0.376594,-0.700276 0.975772,-1.225259 1.797067,-1.575372 0.821317,-0.350137 1.891675,-0.524983 3.211497,-0.524983 1.332839,0 2.40664,0.188283 3.221449,0.565321 0.814365,0.377038 1.410077,0.912418 1.787093,1.605741 0.377038,0.693322 0.565768,1.531562 0.565768,2.514692 0,1.04996 -0.175291,1.91162 -0.524983,2.58499 -0.350115,0.67335 -0.932366,1.1749 -1.747174,1.50465 -0.814809,0.32974 -1.915534,0.49503 -3.302153,0.49503 H 8.72463 v -5.67541 c -0.565746,0 -1.029996,0.0334 -1.393572,0.1011 -0.363576,0.0672 -0.636475,0.18178 -0.818274,0.34319 -0.1818,0.16138 -0.272477,0.38396 -0.272477,0.66684 0,0.2152 0.03341,0.39047 0.101096,0.52498 0.06726,0.13451 0.168338,0.24253 0.302843,0.32324 0.134506,0.0807 0.302843,0.1345 0.505012,0.1614 0.201748,0.0269 0.437349,0.0404 0.706783,0.0404 v 3.49437 c -0.700273,0 -1.305938,-0.0911 -1.817481,-0.2729 -0.511944,-0.18179 -0.939318,-0.4612 -1.282502,-0.83824 C 4.41243,86.637791 4.15688,86.163141 3.988543,85.590891 3.82065,85.018611 3.736481,84.342221 3.736481,83.561241 m 6.684586,-1.07033 v 2.05999 c 0.363576,0 0.669885,-0.0169 0.918926,-0.0507 0.249041,-0.0338 0.45121,-0.0876 0.606108,-0.16141 0.154454,-0.0742 0.265524,-0.17527 0.33321,-0.30283 0.06724,-0.12799 0.101096,-0.28635 0.101096,-0.47466 0,-0.25597 -0.06769,-0.45772 -0.202192,-0.60567 -0.134506,-0.14839 -0.343184,-0.25946 -0.626056,-0.33321 -0.282896,-0.0742 -0.659911,-0.11802 -1.131092,-0.13146 z"
     style="fill:#ffffff;fill-opacity:1;fill-rule:nonzero;stroke:none;stroke-width:0.22214" /><path
     id="path11"
     d="m 3.720842,95.333341 c 0,-0.63259 0.137971,-1.15799 0.413491,-1.57538 0.275942,-0.41737 0.649493,-0.74756 1.121117,-0.98965 v -0.10065 l -1.292498,-0.22214 v -2.90865 h 14.642567 v 3.5347 h -5.109637 v 0.12107 c 0.268989,0.13449 0.508056,0.30282 0.716734,0.50501 0.2087,0.20175 0.370085,0.45079 0.484642,0.74713 0.114535,0.29589 0.171803,0.63256 0.171803,1.01005 0,0.72715 -0.195239,1.32284 -0.585716,1.78751 -0.390477,0.46425 -0.989655,0.80785 -1.797511,1.02999 -0.807856,0.22214 -1.831364,0.33322 -3.0700381,0.33322 -1.2521579,0 -2.3025459,-0.11454 -3.1507419,-0.34361 -0.848219,-0.2291 -1.484272,-0.58225 -1.908159,-1.06038 -0.423887,-0.47812 -0.636053,-1.10071 -0.636053,-1.86822 m 2.948129,-1.31245 c 0,0.24209 0.06031,0.43386 0.181799,0.5753 0.121044,0.14144 0.309351,0.24557 0.565323,0.31326 0.255994,0.0672 0.572277,0.1011 0.949736,0.1011 h 1.716808 c 0.390478,0 0.706782,-0.0339 0.94887,-0.1011 0.242088,-0.0677 0.427353,-0.17182 0.55535,-0.31326 0.127997,-0.14144 0.192195,-0.33321 0.192195,-0.5753 0,-0.18873 -0.0373,-0.3471 -0.11107,-0.47509 -0.07417,-0.128 -0.18873,-0.22907 -0.343606,-0.30284 -0.154897,-0.0742 -0.340162,-0.12451 -0.555349,-0.15141 -0.215631,-0.0269 -0.471625,-0.0404 -0.767515,-0.0404 H 8.42614 c -0.377037,0 -0.696786,0.0269 -0.959288,0.0807 -0.262925,0.0538 -0.461629,0.1549 -0.596135,0.30329 -0.134483,0.14794 -0.201746,0.34318 -0.201746,0.58571 z"
     style="fill:#ffffff;fill-opacity:1;fill-rule:nonzero;stroke:none;stroke-width:0.22214" /><path
     id="path12"
     d="m 3.736481,103.81868 c 0,-0.68681 0.07417,-1.28946 0.221695,-1.80749 0.147945,-0.51847 0.360111,-0.95278 0.636053,-1.30289 0.275942,-0.35014 0.609574,-0.61611 1.000051,-0.797879 0.3905,-0.1818 0.841288,-0.27248 1.353232,-0.27248 0.03991,0 0.110647,0.003 0.211743,0.01 0.100652,0.007 0.19826,0.0169 0.292847,0.0304 v 3.150719 c -0.107604,-0.0134 -0.188286,-0.02 -0.242088,-0.02 -0.0538,0 -0.114535,0 -0.181799,0 -0.175269,0 -0.330167,0.0404 -0.464672,0.12105 -0.134483,0.0807 -0.239045,0.19481 -0.31324,0.34318 -0.07419,0.14839 -0.111069,0.33019 -0.111069,0.54538 0,0.14794 0.01995,0.29286 0.06073,0.4343 0.04034,0.14144 0.114535,0.25901 0.22214,0.3536 0.107604,0.0941 0.255972,0.14144 0.444279,0.14144 0.26899,0 0.47769,-0.1011 0.626079,-0.30326 0.148367,-0.2022 0.272899,-0.46815 0.373995,-0.79789 0.100651,-0.32974 0.211721,-0.68335 0.333209,-1.05994 0.09414,-0.33667 0.215187,-0.67335 0.363577,-1.01005 0.1479482,-0.33658 0.3397215,-0.64289 0.5753008,-0.91883 0.2356015,-0.27594 0.5419099,-0.49504 0.9189252,-0.65645 0.377038,-0.161379 0.841711,-0.242079 1.394016,-0.242079 0.646027,0 1.184472,0.11107 1.61529,0.333199 0.43084,0.22214 0.784442,0.52845 1.060384,0.91893 0.27592,0.39048 0.471159,0.83476 0.585716,1.33284 0.114535,0.49808 0.171803,1.02348 0.171803,1.57537 0,0.52499 -0.05727,1.02653 -0.171803,1.50464 -0.114557,0.47814 -0.289403,0.90202 -0.524983,1.27255 -0.235601,0.37009 -0.531913,0.65947 -0.888559,0.86817 -0.357067,0.20868 -0.784442,0.31324 -1.282502,0.31324 -0.0807,0 -0.175291,-0.003 -0.282895,-0.01 -0.107605,-0.007 -0.201747,-0.0169 -0.282451,-0.0303 v -3.13036 h 0.282451 c 0.174846,0 0.316283,-0.0373 0.423887,-0.11107 0.107605,-0.0742 0.18873,-0.17528 0.242533,-0.30328 0.0538,-0.12798 0.08113,-0.27246 0.08113,-0.43386 0,-0.0811 -0.0069,-0.16876 -0.02037,-0.26293 -0.01346,-0.0946 -0.04729,-0.18526 -0.101096,-0.2729 -0.0538,-0.0876 -0.121489,-0.15792 -0.202192,-0.21172 -0.0807,-0.0538 -0.181777,-0.0807 -0.302399,-0.0807 -0.21563,0 -0.387456,0.0842 -0.51543,0.25251 -0.127998,0.16833 -0.235602,0.39351 -0.323236,0.67639 -0.08763,0.28289 -0.191773,0.59267 -0.312818,0.92934 -0.09459,0.34972 -0.205656,0.71676 -0.333209,1.10031 -0.127997,0.38352 -0.302843,0.74059 -0.5249831,1.07033 -0.2221399,0.32974 -0.5184741,0.59571 -0.888981,0.79789 -0.3705299,0.20218 -0.8447539,0.30328 -1.4235169,0.30328 -0.700274,0 -1.289455,-0.10805 -1.767588,-0.32323 -0.478112,-0.21563 -0.868589,-0.52194 -1.171432,-0.91893 -0.302844,-0.39743 -0.521518,-0.85864 -0.656001,-1.38362 -0.134506,-0.52496 -0.201748,-1.09724 -0.201748,-1.71681 z"
     style="fill:#ffffff;fill-opacity:1;fill-rule:nonzero;stroke:none;stroke-width:0.22214" /><path
     id="path13"
     d="m 15.879109,109.53162 h 2.72641 v 3.53429 h -2.72641 v -3.53429 m -11.916157,0 h 10.664021 v 3.53429 H 3.962952 Z"
     style="fill:#ffffff;fill-opacity:1;fill-rule:nonzero;stroke:none;stroke-width:0.22214" /><path
     id="path14"
     d="m 3.718243,118.09269 c 0,-0.55232 0.0807,-1.03694 0.24211,-1.45433 0.161385,-0.41737 0.430396,-0.74061 0.807412,-0.9697 0.377038,-0.22907 0.875119,-0.34319 1.494689,-0.34319 h 5.655435 v -1.09072 h 2.706463 v 1.21177 l 3.231445,0.66686 v 2.74681 h -3.231445 v 1.53458 h -2.706463 v -1.53458 H 7.433887 c -0.323236,0 -0.565768,0.0434 -0.727153,0.13103 -0.161406,0.0876 -0.24211,0.27941 -0.24211,0.57575 v 0.8278 H 4.061005 c -0.06724,-0.25597 -0.130596,-0.52194 -0.191329,-0.79788 -0.06031,-0.27592 -0.100674,-0.53842 -0.121066,-0.78746 -0.01995,-0.24905 -0.03036,-0.48809 -0.03036,-0.71674 z"
     style="fill:#ffffff;fill-opacity:1;fill-rule:nonzero;stroke:none;stroke-width:0.22214" /><path
     id="path15"
     d="m 3.736481,126.05478 c 0,-1.02349 0.18873,-1.88514 0.565323,-2.58539 0.376594,-0.70028 0.975772,-1.22526 1.797067,-1.57538 0.821317,-0.35013 1.891675,-0.52498 3.211497,-0.52498 1.332839,0 2.40664,0.18829 3.221449,0.56533 0.814365,0.37703 1.410077,0.91241 1.787093,1.60573 0.377038,0.69332 0.565768,1.53157 0.565768,2.51469 0,1.04997 -0.175291,1.91163 -0.524983,2.585 -0.350115,0.67335 -0.932366,1.1749 -1.747174,1.50464 -0.814809,0.32974 -1.915534,0.49504 -3.302153,0.49504 H 8.72463 v -5.6754 c -0.565746,0 -1.029996,0.0334 -1.393572,0.10109 -0.363576,0.0672 -0.636475,0.18177 -0.818274,0.34318 -0.1818,0.16138 -0.272477,0.38397 -0.272477,0.66684 0,0.21522 0.03341,0.39048 0.101096,0.52498 0.06726,0.13451 0.168338,0.24254 0.302843,0.32324 0.134506,0.0807 0.302843,0.13451 0.505012,0.16141 0.201748,0.0269 0.437349,0.0404 0.706783,0.0404 v 3.49437 c -0.700273,0 -1.305938,-0.0911 -1.817481,-0.27292 C 5.526616,130.16488 5.099242,129.88547 4.756058,129.50843 4.41243,129.13139 4.15688,128.65675 3.988543,128.08449 3.82065,127.51222 3.736481,126.83582 3.736481,126.05485 m 6.684586,-1.07038 v 2.05999 c 0.363576,0 0.669885,-0.0169 0.918926,-0.0508 0.249041,-0.0338 0.45121,-0.0876 0.606108,-0.16141 0.154454,-0.0742 0.265524,-0.17527 0.33321,-0.30282 0.06724,-0.128 0.101096,-0.28636 0.101096,-0.47467 0,-0.25597 -0.06769,-0.45772 -0.202192,-0.60566 -0.134506,-0.14839 -0.343184,-0.25946 -0.626056,-0.33321 -0.282896,-0.0742 -0.659911,-0.11803 -1.131092,-0.13146 z"
     style="fill:#ffffff;fill-opacity:1;fill-rule:nonzero;stroke:none;stroke-width:0.22214" /><path
     id="path16"
     d="m 3.964263,132.11373 h 3.756406 v 3.35294 H 3.964263 Z"
     style="fill:#ffffff;fill-opacity:1;fill-rule:nonzero;stroke:none;stroke-width:0.22214" /></svg>
