<?xml version="1.0" encoding="UTF-8" standalone="no"?>
<!-- Created with Inkscape (http://www.inkscape.org/) -->

<svg
   width="114.89865mm"
   height="53.181431mm"
   viewBox="0 0 114.89865 53.18143"
   version="1.1"
   id="svg1"
   xml:space="preserve"
   inkscape:version="1.4 (e7c3feb1, 2024-10-09)"
   sodipodi:docname="wordmark_vertical.svg"
   xmlns:inkscape="http://www.inkscape.org/namespaces/inkscape"
   xmlns:sodipodi="http://sodipodi.sourceforge.net/DTD/sodipodi-0.dtd"
   xmlns="http://www.w3.org/2000/svg"
   xmlns:svg="http://www.w3.org/2000/svg"><sodipodi:namedview
     id="namedview1"
     pagecolor="#ffffff"
     bordercolor="#000000"
     borderopacity="0.25"
     inkscape:showpageshadow="2"
     inkscape:pageopacity="0.0"
     inkscape:pagecheckerboard="0"
     inkscape:deskcolor="#d1d1d1"
     inkscape:document-units="mm"
     showgrid="false"
     inkscape:zoom="1.1189113"
     inkscape:cx="158.18948"
     inkscape:cy="116.18436"
     inkscape:window-width="1440"
     inkscape:window-height="847"
     inkscape:window-x="0"
     inkscape:window-y="25"
     inkscape:window-maximized="1"
     inkscape:current-layer="svg1" /><defs
     id="defs1" /><g
     inkscape:label="Layer 1"
     inkscape:groupmode="layer"
     id="layer1" /><path
     id="path2"
     d="m 4.6192014,23.613356 c -0.7062611,0 -1.3429191,-0.09645 -1.9093038,-0.288008 C 2.1435482,23.133119 1.657103,22.844441 1.2505619,22.459279 0.84405607,22.074786 0.5339997,21.582838 0.32039276,20.984068 0.10678583,20.385298 0,19.679743 0,18.867401 0,17.840783 0.18672527,16.948502 0.56084608,16.189183 0.93500218,15.4299 1.4855119,14.809787 2.213116,14.328845 c 0.7269338,-0.480942 1.624718,-0.839223 2.6940932,-1.074879 1.0693399,-0.23495 2.3095654,-0.352777 3.721382,-0.352777 v -1.282947 c 0,-0.341771 -0.048225,-0.620113 -0.1447094,-0.83372 C 8.3874323,10.570915 8.2379251,10.404863 8.0346546,10.287035 7.831384,10.169913 7.5798888,10.110646 7.2808743,10.110646 c -0.2563283,0 -0.4919838,0.04826 -0.7055555,0.144709 -0.2136069,0.09645 -0.3851627,0.23495 -0.5133269,0.416843 -0.1281642,0.181927 -0.1922286,0.411374 -0.1922286,0.689045 v 0.256999 H 0.57739136 c -0.021343,-0.08544 -0.0316794,-0.165383 -0.0316794,-0.240489 0,-0.0744 0,-0.15501 0,-0.240453 0,-1.06934 0.26183165,-1.994006 0.78545964,-2.774668 C 1.8548349,7.5826404 2.6354968,6.9783674 3.672487,6.5505185 4.709442,6.1233047 5.9868855,5.9090274 7.5054879,5.9090274 c 1.1547828,0 2.2448308,0.1502128 3.2714491,0.4492272 1.026654,0.2990498 1.860374,0.8337197 2.50183,1.603375 0.641491,0.7702902 0.962554,1.8500018 0.962554,3.2397344 v 7.056261 c 0,0.29972 0.07444,0.551215 0.224649,0.75378 0.149507,0.203271 0.395499,0.304553 0.73794,0.304553 h 0.673171 v 3.656612 c -0.36382,0.192264 -0.81788,0.346604 -1.362887,0.464397 -0.545712,0.117157 -1.1176,0.176389 -1.716369,0.176389 -0.662835,0 -1.245729,-0.08061 -1.748014,-0.239748 C 10.54682,23.213729 10.140985,22.983612 9.8309284,22.683892 9.520872,22.384843 9.3120981,22.032065 9.2053123,21.625559 H 9.0454334 c -0.2783416,0.363784 -0.6152797,0.695219 -1.0107788,0.994234 -0.3954992,0.29972 -0.871608,0.540208 -1.4276563,0.72143 C 6.05095,23.52241 5.3881158,23.613356 4.6192014,23.613356 M 6.992161,19.444122 c 0.2563283,0 0.4919486,-0.05306 0.7055555,-0.159843 0.213607,-0.106821 0.3899959,-0.250825 0.5291667,-0.432717 0.1391708,-0.181893 0.2404886,-0.3955 0.3052233,-0.641491 0.0641,-0.245957 0.096485,-0.507789 0.096485,-0.786166 v -1.57166 c -0.7703255,0 -1.3690952,0.09098 -1.7962738,0.272874 -0.4278841,0.181892 -0.7221008,0.432682 -0.8826499,0.75378 -0.1605139,0.321098 -0.2404534,0.673876 -0.2404534,1.058333 0,0.341736 0.053058,0.624946 0.1605492,0.84956 0.1067858,0.224613 0.256293,0.390666 0.4492272,0.497487 0.1922286,0.106786 0.4168775,0.159843 0.6731702,0.159843 z"
     style="fill:#231f20;fill-opacity:1;fill-rule:nonzero;stroke:none;stroke-width:0.352778" /><path
     id="path3"
     d="M 17.295917,23.253699 V 0 h 5.612765 v 23.253699 z"
     style="fill:#231f20;fill-opacity:1;fill-rule:nonzero;stroke:none;stroke-width:0.352778" /><path
     id="path4"
     d="m 32.471041,23.613356 c -1.625388,0 -2.993778,-0.29972 -4.105839,-0.897784 -1.112097,-0.598064 -1.945817,-1.549612 -2.50183,-2.853902 -0.556048,-1.304325 -0.833719,-3.004149 -0.833719,-5.100143 0,-2.116667 0.299049,-3.821959 0.897784,-5.1159481 0.598769,-1.2932832 1.448999,-2.2393274 2.550054,-2.8380618 1.101054,-0.5987697 2.432261,-0.8984897 3.99355,-0.8984897 1.667439,0 3.035829,0.278377 4.105204,0.8337197 1.06934,0.5560131 1.865842,1.4806788 2.389505,2.7746677 0.523663,1.2939892 0.786165,3.0420382 0.786165,5.2441122 v 0.930204 h -9.013048 c 0,0.898455 0.05306,1.635725 0.160549,2.213116 0.106786,0.577392 0.288678,1.010779 0.545006,1.299492 0.256329,0.288714 0.609777,0.432718 1.059004,0.432718 0.341771,0 0.620148,-0.05306 0.83372,-0.16055 0.213606,-0.106821 0.385162,-0.267335 0.513326,-0.480942 0.128165,-0.213606 0.213607,-0.480941 0.256329,-0.802004 0.04272,-0.320393 0.06406,-0.694549 0.06406,-1.122433 h 5.549371 c 0,1.112096 -0.14471,2.073945 -0.433388,2.886321 -0.288713,0.813012 -0.732437,1.491721 -1.331207,2.036727 -0.598734,0.545712 -1.35255,0.951548 -2.26134,1.218883 -0.908826,0.266629 -1.982999,0.400297 -3.22326,0.400297 M 30.771252,12.997638 h 3.271449 c 0,-0.577391 -0.02685,-1.063837 -0.08061,-1.459336 -0.05373,-0.395499 -0.13917,-0.716562 -0.256328,-0.962554 -0.117792,-0.245286 -0.278342,-0.421675 -0.480907,-0.529166 -0.20327,-0.1067864 -0.454765,-0.1605498 -0.753815,-0.1605498 -0.406506,0 -0.726899,0.1074914 -0.961849,0.3210988 -0.235655,0.213607 -0.412044,0.545006 -0.529166,0.994233 -0.117828,0.449263 -0.187431,1.047997 -0.208774,1.796274 z"
     style="fill:#231f20;fill-opacity:1;fill-rule:nonzero;stroke:none;stroke-width:0.352778" /><path
     id="path5"
     style="fill:#231f20;fill-opacity:1;fill-rule:nonzero;stroke:none;stroke-width:0.352778"
     d="m 51.166386,5.9092 c -1.004605,0 -1.828161,0.2191038 -2.469617,0.6573243 -0.642162,0.4382206 -1.165645,1.0320114 -1.57148,1.780253 H 46.964575 L 46.580103,6.2936727 h -4.619357 c 10e-4,15.4996573 -8.62e-4,30.9993133 -0.0026,46.4989703 h 4.61884 l 0.35295,-2.052588 h 0.15968 c 0.38446,0.748982 0.909167,1.342549 1.571997,1.78077 0.66284,0.43755 1.497056,0.656291 2.501656,0.656291 1.21888,0 2.207454,-0.336588 2.966744,-1.009758 0.75932,-0.673171 1.320315,-1.683259 1.684135,-3.030306 0.36379,-1.347011 0.545703,-3.015291 0.545703,-5.003829 0,-1.967124 -0.176386,-3.592724 -0.529166,-4.875671 -0.35278,-1.282947 -0.898289,-2.234493 -1.635559,-2.854606 -0.73794,-0.620113 -1.684324,-0.930176 -2.839104,-0.930176 -0.59948,0 -1.134136,0.09096 -1.604036,0.272852 -0.47061,0.181927 -0.866091,0.438545 -1.186491,0.769979 -0.3211,0.3314 -0.588448,0.710736 -0.802018,1.137915 h -0.192236 c -0.0012,-5.396226 10e-4,-10.792451 0.0031,-16.188676 h 0.192236 c 0.213571,0.427884 0.48092,0.802347 0.802019,1.123445 0.320392,0.321063 0.715885,0.571704 1.186491,0.752926 0.4699,0.181183 1.004561,0.272335 1.604036,0.272335 1.154783,0 2.100646,-0.310252 2.838586,-0.929659 0.73727,-0.620112 1.283298,-1.571659 1.636076,-2.854606 0.352778,-1.282947 0.529167,-2.907843 0.529167,-4.875672 0,-1.988538 -0.181919,-3.655595 -0.545703,-5.003312 C 55.453445,8.6032504 54.892449,7.5927983 54.13313,6.9189575 53.373847,6.245787 52.385268,5.9092 51.166386,5.9092 Z m -2.084627,4.682402 c 0.384458,0 0.689026,0.09664 0.913639,0.288871 0.224614,0.192934 0.390152,0.487134 0.497644,0.882633 0.106789,0.395499 0.160714,0.90331 0.160714,1.523422 v 2.725415 c 0,0.59944 -0.05393,1.096399 -0.160714,1.491898 -0.107492,0.395499 -0.27303,0.695383 -0.497644,0.898653 -0.224613,0.203236 -0.529181,0.304374 -0.913639,0.304374 -0.29972,0 -0.551206,-0.05839 -0.754476,-0.176216 C 48.124012,18.41353 47.963849,18.231457 47.846692,17.985465 47.728864,17.739473 47.6486,17.445274 47.60588,17.102832 47.56316,16.761061 47.541801,16.35439 47.541801,15.883785 v -2.501656 c 0,-0.620113 0.04272,-1.132935 0.128157,-1.539441 0.08544,-0.406506 0.24597,-0.716569 0.481625,-0.930176 0.23495,-0.213607 0.545014,-0.32091 0.930176,-0.32091 z m -0.0026,29.788362 c 0.38446,0 0.689029,0.102138 0.913639,0.305408 0.22462,0.203271 0.389637,0.49766 0.497127,0.882117 0.10675,0.384457 0.160714,0.886771 0.160714,1.506884 v 2.726449 c 0,0.59944 -0.05392,1.101377 -0.160714,1.507918 -0.10749,0.406506 -0.272507,0.705908 -0.497127,0.898137 -0.22461,0.192933 -0.529179,0.288354 -0.913639,0.288354 -0.38516,0 -0.695226,-0.106823 -0.930176,-0.320394 -0.23565,-0.213607 -0.396224,-0.529164 -0.481624,-0.946712 -0.08546,-0.416877 -0.128158,-0.924652 -0.128158,-1.523421 v -2.501656 c 0,-0.4699 0.02138,-0.876606 0.06408,-1.219047 0.04272,-0.341736 0.122465,-0.635609 0.240295,-0.8816 0.11716,-0.245957 0.277838,-0.427911 0.481108,-0.545703 0.20327,-0.117159 0.454756,-0.176734 0.754475,-0.176734 z"
     sodipodi:nodetypes="sccccccccccsccsscsccccccccscssccssccssccscccssscssscssccsccsscccs" /><path
     id="path6"
     d="M 58.575219,23.253699 V 0 h 5.612765 v 7.9223301 h 0.160549 c 0.277672,-0.4271786 0.609071,-0.7854597 0.994234,-1.074173 0.384492,-0.2887133 0.822713,-0.5133269 1.314661,-0.6738761 0.491949,-0.1598436 1.026654,-0.2404533 1.604045,-0.2404533 1.047292,0 1.876178,0.2032706 2.485955,0.6097764 0.609106,0.4065411 1.05283,0.9887655 1.331207,1.7480491 0.277671,0.7592835 0.416842,1.6729427 0.416842,2.7416128 V 23.253699 H 66.882042 V 12.380982 c 0,-0.234949 -0.02134,-0.448556 -0.06406,-0.641491 -0.04272,-0.192228 -0.117827,-0.358281 -0.224613,-0.497451 -0.106821,-0.139207 -0.234985,-0.245992 -0.384493,-0.320393 -0.150212,-0.07444 -0.321063,-0.112325 -0.513327,-0.112325 -0.363784,0 -0.657295,0.123331 -0.881944,0.368618 -0.224614,0.245992 -0.385163,0.56709 -0.481612,0.962589 -0.09645,0.395464 -0.144004,0.839223 -0.144004,1.330466 v 9.782704 z"
     style="fill:#231f20;fill-opacity:1;fill-rule:nonzero;stroke:none;stroke-width:0.352778" /><path
     id="path7"
     d="M 76.400339,10.492387 75.213841,5.9055702 V 1.1906249 h 4.586781 v 4.7149453 l -1.187167,4.5868168 z"
     style="fill:#231f20;fill-opacity:1;fill-rule:nonzero;stroke:none;stroke-width:0.352778" /><path
     id="path8"
     d="m 88.728757,23.613356 c -1.090683,0 -2.047734,-0.117793 -2.870447,-0.352072 -0.823383,-0.23495 -1.513063,-0.571888 -2.069112,-1.010109 -0.556048,-0.43822 -0.978394,-0.968057 -1.267107,-1.58817 -0.288713,-0.620148 -0.432717,-1.33604 -0.432717,-2.149052 0,-0.06339 0.0048,-0.175718 0.01587,-0.336267 0.01101,-0.159844 0.02685,-0.314855 0.04823,-0.465067 h 5.003658 c -0.02138,0.170885 -0.03171,0.299014 -0.03171,0.384457 0,0.08544 0,0.181892 0,0.288713 0,0.278342 0.0641,0.524334 0.192228,0.737941 0.128164,0.213571 0.309386,0.379624 0.545042,0.497452 0.23562,0.117827 0.524333,0.176388 0.866069,0.176388 0.234985,0 0.465102,-0.03168 0.689716,-0.09645 0.224614,-0.06406 0.411339,-0.181892 0.561552,-0.352778 0.149542,-0.170885 0.224613,-0.406506 0.224613,-0.705555 0,-0.427179 -0.160514,-0.758614 -0.481612,-0.994269 -0.321063,-0.23562 -0.743444,-0.433388 -1.267107,-0.593937 -0.523663,-0.159843 -1.085215,-0.336232 -1.683279,-0.529166 -0.53467,-0.149508 -1.06934,-0.341736 -1.60401,-0.577392 -0.534705,-0.23495 -1.021151,-0.539503 -1.459371,-0.913624 -0.438221,-0.374156 -0.786165,-0.860601 -1.042458,-1.459335 -0.256329,-0.59877 -0.384493,-1.336711 -0.384493,-2.213822 0,-1.025948 0.176389,-1.8810463 0.529167,-2.5652235 0.352777,-0.6842124 0.839223,-1.2457641 1.459335,-1.6839846 0.620113,-0.4381853 1.325669,-0.7482416 2.116667,-0.9301691 0.790998,-0.1818922 1.625424,-0.2728384 2.501829,-0.2728384 0.83372,0 1.630222,0.090946 2.389541,0.2728384 0.759283,0.1819275 1.432454,0.4595988 2.020887,0.8337196 0.587728,0.3741561 1.047291,0.8447264 1.378726,1.4111111 0.331399,0.567055 0.497452,1.2457641 0.497452,2.0367275 0,0.128164 -0.0055,0.278377 -0.01584,0.449262 -0.01101,0.170886 -0.02688,0.320393 -0.04823,0.448557 h -4.971273 v -0.448557 c 0,-0.277671 -0.05927,-0.502285 -0.176389,-0.67317 -0.117828,-0.170886 -0.278377,-0.2997204 -0.481612,-0.3851632 -0.203271,-0.085443 -0.432717,-0.1288344 -0.689046,-0.1288344 -0.128834,0 -0.268005,0.011007 -0.417548,0.03235 -0.150177,0.021378 -0.294181,0.075106 -0.433387,0.1605491 -0.139171,0.085444 -0.25079,0.1929345 -0.336233,0.3210985 -0.08544,0.128164 -0.128164,0.288678 -0.128164,0.480236 0,0.342441 0.133668,0.615315 0.401003,0.81855 0.26737,0.203271 0.624946,0.374156 1.074208,0.513327 0.449227,0.139171 0.941176,0.304553 1.475881,0.496782 0.555343,0.150213 1.138238,0.326601 1.747344,0.529166 0.60907,0.203271 1.176161,0.480942 1.699789,0.83372 0.523663,0.352778 0.946044,0.823383 1.267107,1.411781 0.321098,0.588434 0.481647,1.341544 0.481647,2.260671 0,1.112097 -0.171591,2.047769 -0.513327,2.807088 -0.342441,0.759283 -0.828886,1.379396 -1.459335,1.860338 -0.631155,0.480942 -1.363592,0.828216 -2.197277,1.041788 -0.833719,0.213607 -1.742545,0.320393 -2.726478,0.320393 z"
     style="fill:#231f20;fill-opacity:1;fill-rule:nonzero;stroke:none;stroke-width:0.352778" /><path
     id="path9"
     d="M 4.8199115,52.824764 0.58588146,35.88935 H 6.4556415 l 0.89778,5.805664 c 0.0641,0.29972 0.12266,0.706261 0.17639,1.218883 0.0538,0.513326 0.11783,1.0535 0.19294,1.619884 0.0744,0.567055 0.144,1.074879 0.2081,1.523436 h 0.257 c 0.0854,-0.448557 0.15434,-0.935002 0.20807,-1.458666 0.0538,-0.523663 0.11782,-1.03699 0.19293,-1.539945 0.0744,-0.50232 0.14401,-0.946044 0.20807,-1.331207 l 0.96255,-5.838049 h 5.9014795 l 0.89846,5.838049 c 0.0634,0.278377 0.12195,0.673876 0.17571,1.186498 0.0537,0.513326 0.12334,1.047996 0.20878,1.604045 0.0854,0.556013 0.15021,1.06934 0.19293,1.539275 h 0.28868 c 0.0427,-0.405836 0.0958,-0.870938 0.15984,-1.394601 0.0641,-0.523628 0.13367,-1.047997 0.20878,-1.571625 0.0744,-0.523663 0.144,-0.978429 0.20877,-1.363592 l 0.96189,-5.838049 h 5.22827 l -4.23401,16.935414 h -5.80569 l -1.09002,-5.933863 c -0.0862,-0.320392 -0.16125,-0.710353 -0.22532,-1.169952 -0.0641,-0.459563 -0.12262,-0.930169 -0.17638,-1.411111 -0.0537,-0.480906 -0.10129,-0.892951 -0.14401,-1.235392 h -0.25633 c -0.022,0.363784 -0.0648,0.780662 -0.12883,1.251267 -0.0641,0.47057 -0.12817,0.930169 -0.19223,1.379396 -0.0641,0.449228 -0.13917,0.844057 -0.22461,1.185792 l -1.05834,5.933863 z"
     style="fill:#231f20;fill-opacity:1;fill-rule:nonzero;stroke:none;stroke-width:0.352778" /><path
     id="path10"
     d="m 32.468171,53.152467 c -1.62539,0 -2.99378,-0.29972 -4.10584,-0.897784 -1.1121,-0.598064 -1.94582,-1.549612 -2.50183,-2.853902 -0.55605,-1.304325 -0.83372,-3.004149 -0.83372,-5.100143 0,-2.116667 0.29901,-3.821959 0.89778,-5.115948 0.59877,-1.293283 1.449,-2.239328 2.55006,-2.838062 1.10105,-0.59877 2.43226,-0.89849 3.99355,-0.89849 1.66744,0 3.03583,0.278377 4.1052,0.83372 1.06934,0.556013 1.86584,1.480679 2.38951,2.774668 0.52366,1.293989 0.78616,3.042038 0.78616,5.244112 v 0.930204 h -9.01305 c 0,0.898455 0.0531,1.635725 0.16055,2.213116 0.10679,0.577392 0.28868,1.010779 0.54501,1.299492 0.25629,0.288714 0.60977,0.432718 1.059,0.432718 0.34177,0 0.62011,-0.05306 0.83372,-0.16055 0.21361,-0.106821 0.38516,-0.267335 0.51333,-0.480942 0.12816,-0.213606 0.2136,-0.480941 0.25633,-0.802004 0.0427,-0.320393 0.0641,-0.694549 0.0641,-1.122433 h 5.54937 c 0,1.112096 -0.14471,2.073945 -0.43339,2.886321 -0.28871,0.813012 -0.73243,1.491721 -1.3312,2.036727 -0.59877,0.545712 -1.35255,0.951548 -2.26134,1.218883 -0.90883,0.266629 -1.983,0.400297 -3.22326,0.400297 m -1.69979,-10.615718 h 3.27145 c 0,-0.577391 -0.0269,-1.063837 -0.0806,-1.459336 -0.0537,-0.395499 -0.13917,-0.716562 -0.25633,-0.962554 -0.11779,-0.245286 -0.27834,-0.421675 -0.48091,-0.529166 -0.20327,-0.106786 -0.45476,-0.16055 -0.75381,-0.16055 -0.40651,0 -0.7269,0.107492 -0.96185,0.321099 -0.23566,0.213607 -0.41205,0.545006 -0.52917,0.994233 -0.11783,0.449263 -0.18743,1.047997 -0.20877,1.796274 z"
     style="fill:#231f20;fill-opacity:1;fill-rule:nonzero;stroke:none;stroke-width:0.352778" /><path
     id="path12"
     d="m 64.638823,53.152467 c -1.09072,0 -2.04777,-0.117793 -2.87045,-0.352072 -0.82338,-0.23495 -1.5131,-0.571888 -2.06911,-1.010109 -0.556052,-0.43822 -0.978432,-0.968057 -1.267112,-1.58817 -0.28871,-0.620148 -0.43272,-1.33604 -0.43272,-2.149052 0,-0.06339 0.005,-0.175718 0.0158,-0.336267 0.011,-0.159844 0.0269,-0.314855 0.0483,-0.465067 h 5.003632 c -0.0213,0.170885 -0.0317,0.299014 -0.0317,0.384457 0,0.08544 0,0.181892 0,0.288713 0,0.278342 0.0641,0.524334 0.19223,0.737941 0.12816,0.213571 0.30938,0.379624 0.545,0.497452 0.23566,0.117827 0.52437,0.176388 0.86611,0.176388 0.23495,0 0.4651,-0.03168 0.68971,-0.09645 0.22462,-0.06406 0.41134,-0.181892 0.56155,-0.352778 0.14951,-0.170885 0.22462,-0.406506 0.22462,-0.705555 0,-0.427179 -0.16055,-0.758614 -0.48161,-0.994269 -0.3211,-0.23562 -0.74345,-0.433388 -1.26711,-0.593937 -0.52366,-0.159843 -1.08522,-0.336232 -1.68328,-0.529166 -0.53467,-0.149508 -1.06934,-0.341736 -1.60405,-0.577392 -0.53467,-0.23495 -1.02111,-0.539503 -1.45933,-0.913624 -0.438222,-0.374156 -0.786172,-0.860601 -1.042502,-1.459335 -0.25629,-0.59877 -0.38445,-1.336711 -0.38445,-2.213822 0,-1.025948 0.17639,-1.881046 0.52916,-2.565224 0.35278,-0.684212 0.839232,-1.245764 1.459342,-1.683984 0.62011,-0.438185 1.32567,-0.748242 2.11667,-0.930169 0.79099,-0.181892 1.62538,-0.272839 2.50183,-0.272839 0.83372,0 1.63022,0.09095 2.3895,0.272839 0.75932,0.181927 1.43249,0.459599 2.02092,0.833719 0.58773,0.374156 1.04729,0.844727 1.37873,1.411111 0.3314,0.567055 0.49745,1.245765 0.49745,2.036728 0,0.128164 -0.005,0.278377 -0.0158,0.449262 -0.011,0.170886 -0.0269,0.320393 -0.0482,0.448557 h -4.97128 v -0.448557 c 0,-0.277671 -0.0593,-0.502285 -0.17639,-0.67317 -0.11782,-0.170886 -0.27837,-0.29972 -0.48164,-0.385163 -0.20324,-0.08544 -0.43269,-0.128835 -0.68901,-0.128835 -0.12884,0 -0.26801,0.01101 -0.41755,0.03235 -0.15021,0.02138 -0.29422,0.07511 -0.43339,0.160549 -0.13917,0.08544 -0.25079,0.192935 -0.33623,0.321099 -0.0854,0.128164 -0.12817,0.288678 -0.12817,0.480236 0,0.342441 0.13367,0.615315 0.40101,0.81855 0.26733,0.203271 0.62494,0.374156 1.07417,0.513327 0.44926,0.139171 0.94121,0.304553 1.47588,0.496782 0.55538,0.150213 1.13827,0.326601 1.74738,0.529166 0.60907,0.203271 1.17613,0.480942 1.69979,0.83372 0.52366,0.352778 0.94604,0.823383 1.26711,1.411781 0.32109,0.588434 0.48164,1.341544 0.48164,2.260671 0,1.112097 -0.17159,2.047769 -0.51332,2.807088 -0.34244,0.759283 -0.82889,1.379396 -1.45934,1.860338 -0.63115,0.480942 -1.36359,0.828216 -2.19731,1.041788 -0.83368,0.213607 -1.74251,0.320393 -2.72644,0.320393 z"
     style="fill:#231f20;fill-opacity:1;fill-rule:nonzero;stroke:none;stroke-width:0.352778" /><path
     id="path13"
     d="m 73.711483,33.868893 v -4.329782 h 5.61277 v 4.329782 h -5.61277 m 0,18.923917 V 35.857396 h 5.61277 V 52.79281 Z"
     style="fill:#231f20;fill-opacity:1;fill-rule:nonzero;stroke:none;stroke-width:0.352778" /><path
     id="path14"
     d="m 87.307223,53.18143 c -0.87714,0 -1.64676,-0.128164 -2.3096,-0.384493 -0.66283,-0.256293 -1.17616,-0.683507 -1.53998,-1.282241 -0.36378,-0.59877 -0.54501,-1.389768 -0.54501,-2.3737 v -8.981334 h -1.73217 v -4.298103 h 1.9244 l 1.05904,-5.131823 h 4.36217 v 5.131823 h 2.43706 v 4.298103 h -2.43706 v 7.120995 c 0,0.513327 0.0689,0.89849 0.2081,1.154783 0.13917,0.256328 0.44373,0.384493 0.91433,0.384493 h 1.31463 v 3.817161 c -0.40651,0.106786 -0.82889,0.207398 -1.26711,0.303847 -0.43818,0.09578 -0.85506,0.159879 -1.25056,0.192264 -0.3955,0.03168 -0.77512,0.04822 -1.13824,0.04822 z"
     style="fill:#231f20;fill-opacity:1;fill-rule:nonzero;stroke:none;stroke-width:0.352778" /><path
     id="path15"
     d="m 99.951733,53.152467 c -1.62539,0 -2.99378,-0.29972 -4.10584,-0.897784 -1.1121,-0.598064 -1.94582,-1.549612 -2.50183,-2.853902 -0.55605,-1.304325 -0.83372,-3.004149 -0.83372,-5.100143 0,-2.116667 0.29902,-3.821959 0.89779,-5.115948 0.59876,-1.293283 1.44899,-2.239328 2.55005,-2.838062 1.10105,-0.59877 2.43226,-0.89849 3.99355,-0.89849 1.667447,0 3.035837,0.278377 4.105207,0.83372 1.06934,0.556013 1.86585,1.480679 2.38951,2.774668 0.52366,1.293989 0.78616,3.042038 0.78616,5.244112 v 0.930204 h -9.013047 c 0,0.898455 0.0531,1.635725 0.16054,2.213116 0.10679,0.577392 0.28868,1.010779 0.54501,1.299492 0.25629,0.288714 0.60978,0.432718 1.059,0.432718 0.341777,0 0.620117,-0.05306 0.833717,-0.16055 0.21362,-0.106821 0.38518,-0.267335 0.51334,-0.480942 0.12817,-0.213606 0.21361,-0.480941 0.25633,-0.802004 0.0427,-0.320393 0.0641,-0.694549 0.0641,-1.122433 h 5.54937 c 0,1.112096 -0.14471,2.073945 -0.43342,2.886321 -0.28868,0.813012 -0.7324,1.491721 -1.33117,2.036727 -0.59877,0.545712 -1.35255,0.951548 -2.26134,1.218883 -0.90883,0.266629 -1.983,0.400297 -3.223267,0.400297 m -1.69979,-10.615718 h 3.271457 c 0,-0.577391 -0.0269,-1.063837 -0.0806,-1.459336 -0.0537,-0.395499 -0.13917,-0.716562 -0.25633,-0.962554 -0.11783,-0.245286 -0.27834,-0.421675 -0.48092,-0.529166 -0.20327,-0.106786 -0.45476,-0.16055 -0.753807,-0.16055 -0.40651,0 -0.7269,0.107492 -0.96185,0.321099 -0.23565,0.213607 -0.41204,0.545006 -0.52917,0.994233 -0.11782,0.449263 -0.18743,1.047997 -0.20877,1.796274 z"
     style="fill:#231f20;fill-opacity:1;fill-rule:nonzero;stroke:none;stroke-width:0.352778" /><path
     id="path16"
     d="m 109.57389,52.790729 v -5.965508 h 5.32476 v 5.965508 z"
     style="fill:#231f20;fill-opacity:1;fill-rule:nonzero;stroke:none;stroke-width:0.352778" /></svg>
