<?xml version="1.0" encoding="UTF-8" standalone="no"?>
<!-- Generator: Gravit.io -->

<svg
   style="isolation:isolate"
   viewBox="454 255.5 277.01801 277.01801"
   width="277.01801pt"
   height="277.01801pt"
   version="1.1"
   id="svg3"
   sodipodi:docname="blah_black.svg"
   inkscape:version="1.4 (e7c3feb1, 2024-10-09)"
   xmlns:inkscape="http://www.inkscape.org/namespaces/inkscape"
   xmlns:sodipodi="http://sodipodi.sourceforge.net/DTD/sodipodi-0.dtd"
   xmlns="http://www.w3.org/2000/svg"
   xmlns:svg="http://www.w3.org/2000/svg">
  <defs
     id="defs3" />
  <sodipodi:namedview
     id="namedview3"
     pagecolor="#ffffff"
     bordercolor="#000000"
     borderopacity="0.25"
     inkscape:showpageshadow="2"
     inkscape:pageopacity="0.0"
     inkscape:pagecheckerboard="0"
     inkscape:deskcolor="#d1d1d1"
     inkscape:document-units="pt"
     inkscape:zoom="0.58100559"
     inkscape:cx="180.72115"
     inkscape:cy="179"
     inkscape:window-width="1440"
     inkscape:window-height="847"
     inkscape:window-x="0"
     inkscape:window-y="25"
     inkscape:window-maximized="1"
     inkscape:current-layer="svg3" />
  <g
     id="g3">
    <path
       id="path2"
       style="fill:#000000"
       d="m 589.27539,255.50837 c -24.10947,0.26158 -48.12027,7.04978 -68.7583,19.52637 -21.95945,13.18729 -40.09782,32.64464 -51.69287,55.48681 -9.78236,19.20462 -14.88464,40.75443 -14.80664,62.3042 -0.006,0.89037 -0.0119,1.7815 -0.0176,2.67188 h 131.83886 c -21.86265,38.12043 -43.72416,76.23997 -65.58691,114.36035 10.72017,6.34979 22.22454,11.41873 34.25391,14.7041 28.40342,7.87918 59.36012,6.28451 86.76562,-4.59375 25.03802,-9.85146 46.99683,-27.3028 62.31885,-49.41357 13.16698,-18.90988 21.45114,-41.19721 23.72314,-64.13379 2.36053,-23.14186 -1.22622,-46.8867 -10.4956,-68.23389 -9.93499,-22.99772 -26.32667,-43.14511 -46.78711,-57.59619 -19.57511,-13.88002 -42.86306,-22.48189 -66.77783,-24.54785 -4.64626,-0.4154 -9.31305,-0.58414 -13.97754,-0.53467 z m 1.74316,12.98877 c 16.57,-0.01 32.98024,3.3 48.24024,9.75 14.73,6.24 28.12041,15.26984 39.42041,26.58984 11.32,11.3 20.34984,24.69041 26.58984,39.42041 6.45,15.26 9.76,31.67024 9.75,48.24024 0.01,16.57 -3.3,32.98023 -9.75,48.24023 -6.24,14.73 -15.26984,28.11895 -26.58984,39.41895 -11.3,11.32 -24.69041,20.34984 -39.42041,26.58984 -15.26,6.45 -31.67024,9.76 -48.24024,9.75 -10.96,0.01 -21.86947,-1.43931 -32.45947,-4.29931 -6.99,-1.89 -13.80986,-4.4 -20.35986,-7.5 l 70.07959,-122.2002 H 467.41943 c 1.05,-13.17 4.2101,-26.08 9.3501,-38.25 6.24,-14.72 15.26984,-28.11016 26.58984,-39.41016 11.3,-11.32 24.68895,-20.34984 39.41895,-26.58984 15.26,-6.45 31.67023,-9.76 48.24023,-9.75 z" />
    <circle
       vector-effect="non-scaling-stroke"
       cx="527.68561"
       cy="357.49713"
       r="13"
       fill="rgb(0,0,0)"
       id="circle2"
       style="fill:#000000" />
    <circle
       vector-effect="non-scaling-stroke"
       cx="654.35248"
       cy="357.49713"
       r="13"
       fill="rgb(0,0,0)"
       id="circle3"
       style="fill:#000000" />
  </g>
</svg>
