<?xml version="1.0" encoding="UTF-8" standalone="no"?>
<!-- Created with Inkscape (http://www.inkscape.org/) -->

<svg
   width="95.25mm"
   height="47.51569mm"
   viewBox="0 0 95.25 47.515691"
   version="1.1"
   id="svg1"
   xml:space="preserve"
   sodipodi:docname="indexlogo.svg"
   inkscape:version="1.4 (e7c3feb1, 2024-10-09)"
   xmlns:inkscape="http://www.inkscape.org/namespaces/inkscape"
   xmlns:sodipodi="http://sodipodi.sourceforge.net/DTD/sodipodi-0.dtd"
   xmlns="http://www.w3.org/2000/svg"
   xmlns:svg="http://www.w3.org/2000/svg"><sodipodi:namedview
     id="namedview1"
     pagecolor="#ffffff"
     bordercolor="#000000"
     borderopacity="0.25"
     inkscape:showpageshadow="2"
     inkscape:pageopacity="0.0"
     inkscape:pagecheckerboard="0"
     inkscape:deskcolor="#d1d1d1"
     inkscape:document-units="mm"
     inkscape:zoom="0.37059484"
     inkscape:cx="346.73986"
     inkscape:cy="86.347668"
     inkscape:window-width="1440"
     inkscape:window-height="847"
     inkscape:window-x="0"
     inkscape:window-y="25"
     inkscape:window-maximized="1"
     inkscape:current-layer="layer1" /><defs
     id="defs1" /><g
     inkscape:label="Layer 1"
     inkscape:groupmode="layer"
     id="layer1"
     transform="translate(-4.2333331,-3.1828384)"><rect
       style="fill:#add8e6;fill-opacity:1;stroke-width:0.688435;paint-order:markers fill stroke"
       id="rect1"
       width="47.074448"
       height="47.074448"
       x="4.2333331"
       y="3.6240809"
       ry="5.0979571" /><rect
       style="fill:#989dff;fill-opacity:1;stroke-width:0.688435;paint-order:markers fill stroke"
       id="rect2"
       width="47.074448"
       height="47.074448"
       x="52.408886"
       y="3.6240809"
       ry="5.0979571" /><g
       style="isolation:isolate;fill:#ffe4e1"
       id="g10"
       transform="matrix(0.14817856,0,0,0.14817856,-59.804313,-30.998075)"><g
         id="g9"
         style="fill:#ffe4e1"><path
           style="fill:#ffe4e1"
           d="m 591.01855,268.49714 c 16.57,-0.01 32.98024,3.3 48.24024,9.75 14.73,6.24 28.12041,15.26984 39.42041,26.58984 11.32,11.3 20.34984,24.69041 26.58984,39.42041 6.45,15.26 9.76,31.67024 9.75,48.24024 0.01,16.57 -3.3,32.98023 -9.75,48.24023 -6.24,14.73 -15.26984,28.11895 -26.58984,39.41895 -11.3,11.32 -24.69041,20.34984 -39.42041,26.58984 -15.26,6.45 -31.67024,9.76 -48.24024,9.75 -10.96,0.01 -21.86947,-1.43931 -32.45947,-4.29931 -6.99,-1.89 -13.80986,-4.4 -20.35986,-7.5 l 70.07959,-122.2002 H 467.41943 c 1.05,-13.17 4.2101,-26.08 9.3501,-38.25 6.24,-14.72 15.26984,-28.11016 26.58984,-39.41016 11.3,-11.32 24.68895,-20.34984 39.41895,-26.58984 15.26,-6.45 31.67023,-9.76 48.24023,-9.75 z"
           id="path10" /><path
           id="path4"
           style="fill:#ffe4e1"
           d="m 591.01895,268.49731 c -16.57,-0.01 -32.98023,3.3 -48.24023,9.75 -14.73,6.24 -28.11895,15.26985 -39.41895,26.58985 -11.32,11.3 -20.34984,24.69015 -26.58984,39.41015 -5.14,12.17 -8.3001,25.08 -9.3501,38.25 H 608.2792 l -70.07958,122.2002 c 6.55,3.1 13.36986,5.61 20.35986,7.5 10.59,2.86 21.49947,4.30931 32.45947,4.29931 16.57,0.01 32.98024,-3.3 48.24024,-9.75 14.73,-6.24 28.12041,-15.26984 39.42041,-26.58984 11.32,-11.3 20.34984,-24.68895 26.58984,-39.41895 6.45,-15.26 9.76,-31.67023 9.75,-48.24023 0.01,-16.57 -3.3,-32.98023 -9.75,-48.24023 -6.24,-14.73 -15.26984,-28.12041 -26.58984,-39.42041 -11.3,-11.32 -24.69041,-20.34985 -39.42041,-26.58985 -15.26,-6.45 -31.67024,-9.76 -48.24024,-9.75 z" /><circle
           vector-effect="non-scaling-stroke"
           cx="527.68561"
           cy="357.49713"
           r="13"
           fill="rgb(0,0,0)"
           id="circle4"
           style="fill:#ffe4e1" /><circle
           vector-effect="non-scaling-stroke"
           cx="654.35248"
           cy="357.49713"
           r="13"
           fill="rgb(0,0,0)"
           id="circle5"
           style="fill:#ffe4e1" /><circle
           vector-effect="non-scaling-stroke"
           cx="524.68567"
           cy="354.49713"
           r="13"
           fill="rgb(0,0,0)"
           id="circle6"
           style="isolation:isolate;fill:#ffe4e1" /><circle
           vector-effect="non-scaling-stroke"
           cx="651.35254"
           cy="354.49713"
           r="13"
           fill="rgb(0,0,0)"
           id="circle7"
           style="isolation:isolate;fill:#ffe4e1" /></g></g><g
       style="isolation:isolate;fill:#000000"
       id="g4"
       transform="matrix(0.14817856,0,0,0.14817856,-59.804313,-30.998075)"><g
         id="g3"
         style="fill:#000000"><path
           id="path2"
           style="fill:#000000"
           d="m 589.27539,255.50837 c -24.10947,0.26158 -48.12027,7.04978 -68.7583,19.52637 -21.95945,13.18729 -40.09782,32.64464 -51.69287,55.48681 -9.78236,19.20462 -14.88464,40.75443 -14.80664,62.3042 -0.006,0.89037 -0.0119,1.7815 -0.0176,2.67188 h 131.83886 c -21.86265,38.12043 -43.72416,76.23997 -65.58691,114.36035 10.72017,6.34979 22.22454,11.41873 34.25391,14.7041 28.40342,7.87918 59.36012,6.28451 86.76562,-4.59375 25.03802,-9.85146 46.99683,-27.3028 62.31885,-49.41357 13.16698,-18.90988 21.45114,-41.19721 23.72314,-64.13379 2.36053,-23.14186 -1.22622,-46.8867 -10.4956,-68.23389 -9.93499,-22.99772 -26.32667,-43.14511 -46.78711,-57.59619 -19.57511,-13.88002 -42.86306,-22.48189 -66.77783,-24.54785 -4.64626,-0.4154 -9.31305,-0.58414 -13.97754,-0.53467 z m 1.74316,12.98877 c 16.57,-0.01 32.98024,3.3 48.24024,9.75 14.73,6.24 28.12041,15.26984 39.42041,26.58984 11.32,11.3 20.34984,24.69041 26.58984,39.42041 6.45,15.26 9.76,31.67024 9.75,48.24024 0.01,16.57 -3.3,32.98023 -9.75,48.24023 -6.24,14.73 -15.26984,28.11895 -26.58984,39.41895 -11.3,11.32 -24.69041,20.34984 -39.42041,26.58984 -15.26,6.45 -31.67024,9.76 -48.24024,9.75 -10.96,0.01 -21.86947,-1.43931 -32.45947,-4.29931 -6.99,-1.89 -13.80986,-4.4 -20.35986,-7.5 l 70.07959,-122.2002 H 467.41943 c 1.05,-13.17 4.2101,-26.08 9.3501,-38.25 6.24,-14.72 15.26984,-28.11016 26.58984,-39.41016 11.3,-11.32 24.68895,-20.34984 39.41895,-26.58984 15.26,-6.45 31.67023,-9.76 48.24023,-9.75 z" /><circle
           vector-effect="non-scaling-stroke"
           cx="527.68561"
           cy="357.49713"
           r="13"
           fill="rgb(0,0,0)"
           id="circle2"
           style="fill:#000000" /><circle
           vector-effect="non-scaling-stroke"
           cx="654.35248"
           cy="357.49713"
           r="13"
           fill="rgb(0,0,0)"
           id="circle3"
           style="fill:#000000" /></g></g><g
       id="g13"
       transform="matrix(0.41205456,0,0,0.41205456,15.89408,-39.514403)"><g
         id="g12"
         transform="translate(75.288082,-23.215491)"><path
           id="path2-4"
           d="m 16.879402,150.4492 c -0.706261,0 -1.342919,-0.0965 -1.909304,-0.288 -0.566349,-0.19223 -1.052794,-0.48091 -1.459335,-0.86607 -0.406506,-0.3845 -0.716563,-0.87644 -0.930169,-1.47521 -0.213607,-0.59877 -0.320393,-1.30433 -0.320393,-2.11667 0,-1.02662 0.186725,-1.9189 0.560846,-2.67822 0.374156,-0.75928 0.924666,-1.3794 1.65227,-1.86034 0.726934,-0.48094 1.624718,-0.83922 2.694093,-1.07488 1.06934,-0.23495 2.309565,-0.35277 3.721382,-0.35277 v -1.28295 c 0,-0.34177 -0.04822,-0.62011 -0.144709,-0.83372 -0.09645,-0.21361 -0.245957,-0.37966 -0.449228,-0.49749 -0.20327,-0.11712 -0.454765,-0.17639 -0.75378,-0.17639 -0.256328,0 -0.491984,0.0483 -0.705555,0.14471 -0.213607,0.0965 -0.385163,0.23495 -0.513327,0.41685 -0.128165,0.18192 -0.192229,0.41137 -0.192229,0.68904 v 0.257 h -5.292372 c -0.02134,-0.0854 -0.03168,-0.16538 -0.03168,-0.24049 0,-0.0744 0,-0.15501 0,-0.24045 0,-1.06934 0.261831,-1.99401 0.785459,-2.77467 0.523664,-0.77999 1.304326,-1.38426 2.341316,-1.81211 1.036955,-0.42722 2.314398,-0.64149 3.833001,-0.64149 1.154782,0 2.24483,0.15021 3.271449,0.44922 1.026654,0.29905 1.860373,0.83372 2.501829,1.60338 0.641491,0.77029 0.962554,1.85 0.962554,3.23973 v 7.05626 c 0,0.29972 0.07444,0.55122 0.224649,0.75378 0.149508,0.20327 0.395499,0.30456 0.737941,0.30456 h 0.67317 v 3.65661 c -0.363819,0.19226 -0.81788,0.3466 -1.362886,0.46439 -0.545712,0.11716 -1.1176,0.17639 -1.71637,0.17639 -0.662834,0 -1.245728,-0.0806 -1.748013,-0.23974 -0.502991,-0.15988 -0.908826,-0.39 -1.218883,-0.68972 -0.310056,-0.29905 -0.51883,-0.65183 -0.625616,-1.05833 h -0.159879 c -0.278341,0.36378 -0.61528,0.69522 -1.010779,0.99423 -0.395499,0.29972 -0.871608,0.54021 -1.427656,0.72143 -0.556048,0.18119 -1.218882,0.27213 -1.987797,0.27213 m 2.37296,-4.16923 c 0.256328,0 0.491948,-0.0531 0.705555,-0.15984 0.213607,-0.10682 0.389996,-0.25083 0.529167,-0.43272 0.139171,-0.18189 0.240489,-0.3955 0.305223,-0.64149 0.0641,-0.24596 0.09648,-0.50779 0.09648,-0.78617 v -1.57166 c -0.770326,0 -1.369095,0.091 -1.796274,0.27288 -0.427884,0.18189 -0.722101,0.43268 -0.88265,0.75378 -0.160514,0.3211 -0.240453,0.67387 -0.240453,1.05833 0,0.34174 0.05306,0.62495 0.160549,0.84956 0.106786,0.22461 0.256293,0.39067 0.449227,0.49749 0.192229,0.10678 0.416878,0.15984 0.673171,0.15984 z"
           style="fill:#110000;fill-opacity:1;fill-rule:nonzero;stroke:none;stroke-width:0.352778" /><path
           id="path3"
           d="m 29.556118,150.08955 v -23.2537 h 5.612765 v 23.2537 z"
           style="fill:#110000;fill-opacity:1;fill-rule:nonzero;stroke:none;stroke-width:0.352778" /><path
           id="path4-2"
           d="m 44.731242,150.4492 c -1.625389,0 -2.993778,-0.29972 -4.10584,-0.89778 -1.112096,-0.59806 -1.945816,-1.54961 -2.501829,-2.8539 -0.556048,-1.30433 -0.83372,-3.00415 -0.83372,-5.10015 0,-2.11666 0.29905,-3.82195 0.897784,-5.11594 0.59877,-1.29329 1.449,-2.23933 2.550055,-2.83806 1.101054,-0.59877 2.432261,-0.89849 3.99355,-0.89849 1.667439,0 3.035829,0.27837 4.105204,0.83372 1.06934,0.55601 1.865841,1.48067 2.389505,2.77466 0.523663,1.29399 0.786165,3.04204 0.786165,5.24411 v 0.93021 h -9.013048 c 0,0.89845 0.05306,1.63572 0.160549,2.21312 0.106786,0.57739 0.288678,1.01077 0.545006,1.29949 0.256328,0.28871 0.609776,0.43271 1.059004,0.43271 0.341771,0 0.620148,-0.0531 0.833719,-0.16054 0.213607,-0.10683 0.385163,-0.26734 0.513327,-0.48095 0.128164,-0.2136 0.213607,-0.48094 0.256329,-0.802 0.04272,-0.32039 0.06406,-0.69455 0.06406,-1.12243 h 5.549371 c 0,1.11209 -0.14471,2.07394 -0.433388,2.88632 -0.288713,0.81301 -0.732437,1.49172 -1.331207,2.03672 -0.598734,0.54572 -1.35255,0.95155 -2.261341,1.21889 -0.908826,0.26663 -1.982999,0.40029 -3.223259,0.40029 m -1.699789,-10.61571 h 3.271449 c 0,-0.5774 -0.02685,-1.06384 -0.08061,-1.45934 -0.05373,-0.3955 -0.139171,-0.71656 -0.256328,-0.96255 -0.117793,-0.24529 -0.278342,-0.42168 -0.480907,-0.52917 -0.20327,-0.10679 -0.454766,-0.16055 -0.753815,-0.16055 -0.406506,0 -0.726899,0.10749 -0.961849,0.3211 -0.235656,0.21361 -0.412044,0.54501 -0.529167,0.99423 -0.117827,0.44926 -0.18743,1.048 -0.208773,1.79628 z"
           style="fill:#110000;fill-opacity:1;fill-rule:nonzero;stroke:none;stroke-width:0.352778" /><path
           id="path5"
           d="m 54.221104,156.38307 v -23.25374 h 4.619202 l 0.384457,2.05328 h 0.160549 c 0.405836,-0.74825 0.929499,-1.34218 1.57166,-1.7804 0.641456,-0.43822 1.46484,-0.65733 2.469445,-0.65733 1.218882,0 2.207612,0.33693 2.966896,1.0101 0.759319,0.67384 1.320165,1.68395 1.683985,3.031 0.363784,1.34772 0.545712,3.01512 0.545712,5.00366 0,1.96783 -0.176389,3.59255 -0.529167,4.87549 -0.352778,1.28295 -0.89849,2.2345 -1.63576,2.85461 -0.737941,0.61941 -1.683949,0.92946 -2.838732,0.92946 -0.599475,0 -1.134145,-0.0909 -1.604045,-0.27213 -0.470606,-0.18122 -0.866105,-0.43205 -1.186498,-0.75311 -0.321098,-0.3211 -0.588433,-0.69522 -0.802005,-1.1231 h -0.192264 v 8.08221 h -5.613435 m 7.121031,-10.84037 c 0.384457,0 0.68901,-0.10128 0.913624,-0.30452 0.224614,-0.20327 0.389996,-0.50299 0.497487,-0.89849 0.106786,-0.3955 0.160549,-0.89228 0.160549,-1.49172 v -2.72577 c 0,-0.62011 -0.05376,-1.12794 -0.160549,-1.52344 -0.107491,-0.3955 -0.272873,-0.68968 -0.497487,-0.88261 -0.224614,-0.19223 -0.529167,-0.28871 -0.913624,-0.28871 -0.385163,0 -0.695219,0.10749 -0.930169,0.32109 -0.235655,0.21361 -0.396205,0.52367 -0.481647,0.93017 -0.08544,0.40651 -0.128165,0.91917 -0.128165,1.53928 v 2.50183 c 0,0.4706 0.02138,0.87711 0.0641,1.21888 0.04272,0.34244 0.122626,0.63662 0.240453,0.88261 0.117158,0.246 0.277672,0.42789 0.480942,0.54501 0.203271,0.11783 0.454766,0.17639 0.754486,0.17639 z"
           style="fill:#110000;fill-opacity:1;fill-rule:nonzero;stroke:none;stroke-width:0.352778" /><path
           id="path6"
           d="m 70.83542,150.08955 v -23.2537 h 5.612765 v 7.92233 h 0.160549 c 0.277671,-0.42718 0.609071,-0.78546 0.994233,-1.07417 0.384493,-0.28872 0.822713,-0.51333 1.314662,-0.67388 0.491949,-0.15984 1.026654,-0.24045 1.604045,-0.24045 1.047292,0 1.876178,0.20327 2.485955,0.60977 0.609106,0.40654 1.05283,0.98877 1.331206,1.74805 0.277672,0.75928 0.416843,1.67294 0.416843,2.74161 v 12.22044 h -5.613435 v -10.87272 c 0,-0.23495 -0.02134,-0.44856 -0.06406,-0.64149 -0.04272,-0.19223 -0.117828,-0.35828 -0.224613,-0.49745 -0.106821,-0.13921 -0.234986,-0.24599 -0.384493,-0.3204 -0.150213,-0.0744 -0.321063,-0.11232 -0.513327,-0.11232 -0.363784,0 -0.657295,0.12333 -0.881944,0.36862 -0.224614,0.24599 -0.385163,0.56709 -0.481612,0.96259 -0.09645,0.39546 -0.144004,0.83922 -0.144004,1.33046 v 9.78271 z"
           style="fill:#110000;fill-opacity:1;fill-rule:nonzero;stroke:none;stroke-width:0.352778" /><path
           id="path7"
           d="m 88.660539,137.32823 -1.186497,-4.58681 v -4.71495 h 4.586781 v 4.71495 l -1.187168,4.58681 z"
           style="fill:#110000;fill-opacity:1;fill-rule:nonzero;stroke:none;stroke-width:0.352778" /><path
           id="path8"
           d="m 100.98896,150.4492 c -1.090685,0 -2.047736,-0.11779 -2.870449,-0.35207 -0.823383,-0.23495 -1.513064,-0.57189 -2.069112,-1.01011 -0.556048,-0.43822 -0.978394,-0.96805 -1.267107,-1.58817 -0.288713,-0.62015 -0.432717,-1.33604 -0.432717,-2.14905 0,-0.0634 0.0048,-0.17572 0.01587,-0.33627 0.01101,-0.15984 0.02685,-0.31485 0.04822,-0.46506 h 5.003659 c -0.02138,0.17088 -0.03172,0.29901 -0.03172,0.38445 0,0.0855 0,0.1819 0,0.28872 0,0.27834 0.0641,0.52433 0.192229,0.73794 0.128164,0.21357 0.309386,0.37962 0.545047,0.49745 0.23562,0.11783 0.52433,0.17639 0.86607,0.17639 0.23498,0 0.4651,-0.0317 0.68971,-0.0965 0.22462,-0.0641 0.41134,-0.18189 0.56156,-0.35278 0.14954,-0.17088 0.22461,-0.4065 0.22461,-0.70555 0,-0.42718 -0.16051,-0.75862 -0.48161,-0.99427 -0.32107,-0.23562 -0.74345,-0.43339 -1.26711,-0.59394 -0.52366,-0.15984 -1.085219,-0.33623 -1.683283,-0.52917 -0.53467,-0.1495 -1.06934,-0.34173 -1.60401,-0.57739 -0.534706,-0.23495 -1.021151,-0.5395 -1.459371,-0.91362 -0.438221,-0.37416 -0.786166,-0.8606 -1.042459,-1.45934 -0.256328,-0.59877 -0.384492,-1.33671 -0.384492,-2.21382 0,-1.02595 0.176389,-1.88105 0.529166,-2.56522 0.352778,-0.68421 0.839223,-1.24577 1.459336,-1.68399 0.620113,-0.43818 1.325668,-0.74824 2.116667,-0.93017 0.790998,-0.18189 1.625426,-0.27283 2.501836,-0.27283 0.83372,0 1.63022,0.0909 2.38954,0.27283 0.75928,0.18193 1.43245,0.4596 2.02088,0.83372 0.58773,0.37416 1.0473,0.84473 1.37873,1.41111 0.3314,0.56706 0.49745,1.24577 0.49745,2.03673 0,0.12817 -0.005,0.27838 -0.0158,0.44926 -0.011,0.17089 -0.0269,0.3204 -0.0482,0.44856 h -4.97128 v -0.44856 c 0,-0.27767 -0.0593,-0.50228 -0.17638,-0.67317 -0.11783,-0.17088 -0.27838,-0.29972 -0.48162,-0.38516 -0.20327,-0.0854 -0.43271,-0.12883 -0.68904,-0.12883 -0.12884,0 -0.26801,0.011 -0.41755,0.0323 -0.15018,0.0214 -0.29418,0.0751 -0.43339,0.16055 -0.13917,0.0854 -0.250791,0.19293 -0.336234,0.32109 -0.08544,0.12817 -0.128164,0.28868 -0.128164,0.48024 0,0.34244 0.133668,0.61531 0.401008,0.81855 0.26737,0.20327 0.62494,0.37416 1.07421,0.51333 0.44922,0.13917 0.94117,0.30455 1.47588,0.49678 0.55534,0.15021 1.13824,0.3266 1.74734,0.52917 0.60907,0.20327 1.17616,0.48094 1.69979,0.83372 0.52366,0.35277 0.94604,0.82338 1.26711,1.41178 0.3211,0.58843 0.48165,1.34154 0.48165,2.26067 0,1.11209 -0.1716,2.04777 -0.51333,2.80708 -0.34244,0.75929 -0.82889,1.3794 -1.45934,1.86034 -0.63115,0.48094 -1.36359,0.82822 -2.19727,1.04179 -0.83372,0.21361 -1.74255,0.32039 -2.72648,0.32039 z"
           style="fill:#110000;fill-opacity:1;fill-rule:nonzero;stroke:none;stroke-width:0.352778" /></g><g
         id="g11"
         transform="translate(-24.945181,6.2926319)"><path
           id="path9"
           d="m 117.3146,150.07716 -4.23404,-16.93541 h 5.86976 l 0.89778,5.80566 c 0.0641,0.29972 0.12267,0.70627 0.17639,1.21889 0.0538,0.51332 0.11783,1.0535 0.19294,1.61988 0.0744,0.56706 0.144,1.07488 0.2081,1.52344 h 0.257 c 0.0854,-0.44856 0.15434,-0.93501 0.20807,-1.45867 0.0538,-0.52366 0.11783,-1.03699 0.19293,-1.53994 0.0744,-0.50232 0.14401,-0.94605 0.20807,-1.33121 l 0.96255,-5.83805 h 5.90148 l 0.89846,5.83805 c 0.0634,0.27838 0.12195,0.67388 0.17572,1.1865 0.0537,0.51332 0.12333,1.04799 0.20877,1.60404 0.0854,0.55601 0.15021,1.06934 0.19293,1.53928 h 0.28868 c 0.0427,-0.40584 0.0958,-0.87094 0.15985,-1.3946 0.0641,-0.52363 0.13366,-1.048 0.20877,-1.57163 0.0744,-0.52366 0.144,-0.97843 0.20877,-1.36359 l 0.96189,-5.83805 h 5.22827 l -4.234,16.93541 h -5.8057 l -1.09002,-5.93386 c -0.0861,-0.32039 -0.16125,-0.71035 -0.22532,-1.16995 -0.0641,-0.45956 -0.12262,-0.93017 -0.17638,-1.41111 -0.0537,-0.48091 -0.10129,-0.89295 -0.14401,-1.23539 h -0.25633 c -0.022,0.36378 -0.0648,0.78066 -0.12883,1.25126 -0.0641,0.47057 -0.12816,0.93017 -0.19223,1.3794 -0.0641,0.44923 -0.13917,0.84406 -0.22461,1.18579 l -1.05834,5.93386 z"
           style="fill:#110000;fill-opacity:1;fill-rule:nonzero;stroke:none;stroke-width:0.352778" /><path
           id="path10-3"
           d="m 144.96285,150.4492 c -1.62539,0 -2.99378,-0.29972 -4.10584,-0.89778 -1.1121,-0.59806 -1.94582,-1.54961 -2.50183,-2.8539 -0.55605,-1.30433 -0.83372,-3.00415 -0.83372,-5.10015 0,-2.11666 0.29901,-3.82195 0.89778,-5.11594 0.59877,-1.29329 1.449,-2.23933 2.55006,-2.83806 1.10105,-0.59877 2.43226,-0.89849 3.99355,-0.89849 1.66744,0 3.03583,0.27837 4.1052,0.83372 1.06934,0.55601 1.86584,1.48067 2.38951,2.77466 0.52366,1.29399 0.78616,3.04204 0.78616,5.24411 v 0.93021 h -9.01305 c 0,0.89845 0.0531,1.63572 0.16055,2.21312 0.10679,0.57739 0.28868,1.01077 0.54501,1.29949 0.25629,0.28871 0.60977,0.43271 1.059,0.43271 0.34177,0 0.62011,-0.0531 0.83372,-0.16054 0.21361,-0.10683 0.38516,-0.26734 0.51333,-0.48095 0.12816,-0.2136 0.21361,-0.48094 0.25633,-0.802 0.0427,-0.32039 0.0641,-0.69455 0.0641,-1.12243 h 5.54937 c 0,1.11209 -0.14471,2.07394 -0.43339,2.88632 -0.28871,0.81301 -0.73243,1.49172 -1.3312,2.03672 -0.59877,0.54572 -1.35255,0.95155 -2.26134,1.21889 -0.90883,0.26663 -1.983,0.40029 -3.22326,0.40029 m -1.69979,-10.61571 h 3.27145 c 0,-0.5774 -0.0269,-1.06384 -0.0806,-1.45934 -0.0537,-0.3955 -0.13917,-0.71656 -0.25633,-0.96255 -0.11779,-0.24529 -0.27834,-0.42168 -0.48091,-0.52917 -0.20327,-0.10679 -0.45476,-0.16055 -0.75381,-0.16055 -0.40651,0 -0.7269,0.10749 -0.96185,0.3211 -0.23566,0.21361 -0.41205,0.54501 -0.52917,0.99423 -0.11783,0.44926 -0.18743,1.048 -0.20877,1.79628 z"
           style="fill:#110000;fill-opacity:1;fill-rule:nonzero;stroke:none;stroke-width:0.352778" /><path
           id="path11"
           d="m 163.65802,150.47404 c -1.0046,0 -1.83899,-0.21911 -2.50183,-0.65666 -0.66283,-0.43822 -1.1872,-1.03145 -1.57166,-1.78044 h -0.15984 l -0.35278,2.05261 h -4.6192 v -23.2537 h 5.61343 v 8.11456 h 0.19227 c 0.21357,-0.42718 0.48091,-0.80684 0.802,-1.13824 0.3204,-0.33144 0.7159,-0.58773 1.1865,-0.76966 0.4699,-0.18189 1.00457,-0.27283 1.60405,-0.27283 1.15478,0 2.10079,0.31005 2.83873,0.93016 0.73727,0.62012 1.28295,1.57167 1.63572,2.85461 0.35278,1.28295 0.52917,2.90837 0.52917,4.8755 0,1.98853 -0.18189,3.65664 -0.54568,5.00366 -0.36382,1.34704 -0.92466,2.35715 -1.68398,3.03032 -0.75929,0.67317 -1.74802,1.01011 -2.9669,1.01011 m -2.08428,-4.68189 c 0.38446,0 0.68901,-0.0958 0.91362,-0.28871 0.22462,-0.19223 0.39,-0.49128 0.49749,-0.89779 0.10679,-0.40654 0.16055,-0.90882 0.16055,-1.50826 v -2.72645 c 0,-0.62011 -0.0538,-1.12243 -0.16055,-1.50689 -0.10749,-0.38445 -0.27287,-0.67867 -0.49749,-0.88194 -0.22461,-0.20327 -0.52916,-0.30522 -0.91362,-0.30522 -0.29972,0 -0.55121,0.0592 -0.75449,0.17638 -0.20327,0.1178 -0.36378,0.29972 -0.48094,0.54568 -0.11783,0.24599 -0.19773,0.54021 -0.24045,0.88194 -0.0427,0.34245 -0.0641,0.74899 -0.0641,1.21889 v 2.50183 c 0,0.59877 0.0427,1.10655 0.12816,1.52343 0.0854,0.41755 0.246,0.73311 0.48165,0.94672 0.23495,0.21357 0.54501,0.32039 0.93017,0.32039 z"
           style="fill:#110000;fill-opacity:1;fill-rule:nonzero;stroke:none;stroke-width:0.352778" /><path
           id="path12"
           d="m 177.1335,150.4492 c -1.09072,0 -2.04777,-0.11779 -2.87045,-0.35207 -0.82338,-0.23495 -1.5131,-0.57189 -2.06911,-1.01011 -0.55605,-0.43822 -0.97843,-0.96805 -1.26711,-1.58817 -0.28871,-0.62015 -0.43272,-1.33604 -0.43272,-2.14905 0,-0.0634 0.005,-0.17572 0.0158,-0.33627 0.011,-0.15984 0.0269,-0.31485 0.0483,-0.46506 h 5.00363 c -0.0213,0.17088 -0.0317,0.29901 -0.0317,0.38445 0,0.0855 0,0.1819 0,0.28872 0,0.27834 0.0641,0.52433 0.19223,0.73794 0.12816,0.21357 0.30938,0.37962 0.545,0.49745 0.23566,0.11783 0.52437,0.17639 0.86611,0.17639 0.23495,0 0.4651,-0.0317 0.68971,-0.0965 0.22462,-0.0641 0.41134,-0.18189 0.56155,-0.35278 0.14951,-0.17088 0.22462,-0.4065 0.22462,-0.70555 0,-0.42718 -0.16055,-0.75862 -0.48161,-0.99427 -0.3211,-0.23562 -0.74345,-0.43339 -1.26711,-0.59394 -0.52366,-0.15984 -1.08522,-0.33623 -1.68328,-0.52917 -0.53467,-0.1495 -1.06934,-0.34173 -1.60405,-0.57739 -0.53467,-0.23495 -1.02111,-0.5395 -1.45933,-0.91362 -0.43822,-0.37416 -0.78617,-0.8606 -1.04249,-1.45934 -0.2563,-0.59877 -0.38446,-1.33671 -0.38446,-2.21382 0,-1.02595 0.17639,-1.88105 0.52916,-2.56522 0.35278,-0.68421 0.83923,-1.24577 1.45934,-1.68399 0.62011,-0.43818 1.32567,-0.74824 2.11667,-0.93017 0.791,-0.18189 1.62539,-0.27283 2.50183,-0.27283 0.83372,0 1.63022,0.0909 2.3895,0.27283 0.75932,0.18193 1.43249,0.4596 2.02092,0.83372 0.58773,0.37416 1.0473,0.84473 1.37873,1.41111 0.3314,0.56706 0.49745,1.24577 0.49745,2.03673 0,0.12817 -0.005,0.27838 -0.0158,0.44926 -0.011,0.17089 -0.0269,0.3204 -0.0482,0.44856 h -4.97128 v -0.44856 c 0,-0.27767 -0.0593,-0.50228 -0.17638,-0.67317 -0.11783,-0.17088 -0.27838,-0.29972 -0.48165,-0.38516 -0.20324,-0.0854 -0.43268,-0.12883 -0.68901,-0.12883 -0.12884,0 -0.26801,0.011 -0.41755,0.0323 -0.15021,0.0214 -0.29422,0.0751 -0.43339,0.16055 -0.13917,0.0854 -0.25079,0.19293 -0.33623,0.32109 -0.0854,0.12817 -0.12816,0.28868 -0.12816,0.48024 0,0.34244 0.13366,0.61531 0.401,0.81855 0.26733,0.20327 0.62494,0.37416 1.07417,0.51333 0.44926,0.13917 0.94121,0.30455 1.47588,0.49678 0.55538,0.15021 1.13827,0.3266 1.74738,0.52917 0.60907,0.20327 1.17613,0.48094 1.69979,0.83372 0.52366,0.35277 0.94604,0.82338 1.26711,1.41178 0.3211,0.58843 0.48164,1.34154 0.48164,2.26067 0,1.11209 -0.17159,2.04777 -0.51332,2.80708 -0.34244,0.75929 -0.82889,1.3794 -1.45934,1.86034 -0.63115,0.48094 -1.36359,0.82822 -2.19731,1.04179 -0.83368,0.21361 -1.74251,0.32039 -2.72644,0.32039 z"
           style="fill:#110000;fill-opacity:1;fill-rule:nonzero;stroke:none;stroke-width:0.352778" /><path
           id="path13"
           d="m 186.20617,131.16563 v -4.32978 h 5.61276 v 4.32978 h -5.61276 m 0,18.92392 v -16.93542 h 5.61276 v 16.93542 z"
           style="fill:#110000;fill-opacity:1;fill-rule:nonzero;stroke:none;stroke-width:0.352778" /><path
           id="path14"
           d="m 199.8019,150.47817 c -0.87714,0 -1.64676,-0.12817 -2.3096,-0.3845 -0.66283,-0.25629 -1.17616,-0.6835 -1.53998,-1.28224 -0.36378,-0.59877 -0.54501,-1.38976 -0.54501,-2.3737 v -8.98133 h -1.73217 v -4.2981 h 1.9244 l 1.05904,-5.13183 h 4.36217 v 5.13183 h 2.43706 v 4.2981 h -2.43706 v 7.12099 c 0,0.51333 0.0689,0.89849 0.2081,1.15479 0.13917,0.25633 0.44373,0.38449 0.91433,0.38449 h 1.31463 v 3.81716 c -0.40651,0.10679 -0.82889,0.2074 -1.26711,0.30385 -0.43818,0.0958 -0.85506,0.15988 -1.25056,0.19226 -0.3955,0.0317 -0.77512,0.0482 -1.13824,0.0482 z"
           style="fill:#110000;fill-opacity:1;fill-rule:nonzero;stroke:none;stroke-width:0.352778" /><path
           id="path15"
           d="m 212.44641,150.4492 c -1.62539,0 -2.99378,-0.29972 -4.10584,-0.89778 -1.1121,-0.59806 -1.94582,-1.54961 -2.50183,-2.8539 -0.55605,-1.30433 -0.83372,-3.00415 -0.83372,-5.10015 0,-2.11666 0.29902,-3.82195 0.89779,-5.11594 0.59877,-1.29329 1.449,-2.23933 2.55005,-2.83806 1.10105,-0.59877 2.43226,-0.89849 3.99355,-0.89849 1.66744,0 3.03583,0.27837 4.1052,0.83372 1.06934,0.55601 1.86585,1.48067 2.38951,2.77466 0.52366,1.29399 0.78616,3.04204 0.78616,5.24411 v 0.93021 h -9.01304 c 0,0.89845 0.0531,1.63572 0.16055,2.21312 0.10678,0.57739 0.28867,1.01077 0.545,1.29949 0.25629,0.28871 0.60978,0.43271 1.05901,0.43271 0.34177,0 0.62011,-0.0531 0.83371,-0.16054 0.21361,-0.10683 0.38517,-0.26734 0.51333,-0.48095 0.12817,-0.2136 0.21361,-0.48094 0.25633,-0.802 0.0427,-0.32039 0.0641,-0.69455 0.0641,-1.12243 h 5.54938 c 0,1.11209 -0.14471,2.07394 -0.43343,2.88632 -0.28868,0.81301 -0.7324,1.49172 -1.33117,2.03672 -0.59877,0.54572 -1.35255,0.95155 -2.26134,1.21889 -0.90883,0.26663 -1.983,0.40029 -3.22326,0.40029 m -1.69979,-10.61571 h 3.27145 c 0,-0.5774 -0.0269,-1.06384 -0.0806,-1.45934 -0.0537,-0.3955 -0.13917,-0.71656 -0.25633,-0.96255 -0.11783,-0.24529 -0.27834,-0.42168 -0.4809,-0.52917 -0.20327,-0.10679 -0.45477,-0.16055 -0.75382,-0.16055 -0.40651,0 -0.7269,0.10749 -0.96185,0.3211 -0.23565,0.21361 -0.41204,0.54501 -0.52917,0.99423 -0.11782,0.44926 -0.18743,1.048 -0.20877,1.79628 z"
           style="fill:#110000;fill-opacity:1;fill-rule:nonzero;stroke:none;stroke-width:0.352778" /><path
           id="path16"
           d="m 222.06856,150.08747 v -5.96551 h 5.32476 v 5.96551 z"
           style="fill:#110000;fill-opacity:1;fill-rule:nonzero;stroke:none;stroke-width:0.352778" /></g></g><text
       xml:space="preserve"
       style="font-weight:bold;font-size:1.33361px;font-family:'Helvetica Neue';-inkscape-font-specification:'Helvetica Neue Bold';text-align:start;writing-mode:lr-tb;direction:ltr;text-anchor:start;fill:#110000;fill-opacity:1;stroke-width:0.688435;paint-order:markers fill stroke"
       x="70.139084"
       y="45.790783"
       id="text13"><tspan
         sodipodi:role="line"
         id="tspan13"
         style="stroke-width:0.688435"
         x="70.139084"
         y="45.790783"></tspan></text></g></svg>
