<?xml version="1.0" encoding="UTF-8" standalone="no"?>
<!-- Created with Inkscape (http://www.inkscape.org/) -->

<svg
   width="182"
   height="178"
   viewBox="0 0 48.154166 47.095833"
   version="1.1"
   id="svg1"
   inkscape:version="1.4 (e7c3feb1, 2024-10-09)"
   sodipodi:docname="copy.svg"
   xmlns:inkscape="http://www.inkscape.org/namespaces/inkscape"
   xmlns:sodipodi="http://sodipodi.sourceforge.net/DTD/sodipodi-0.dtd"
   xmlns="http://www.w3.org/2000/svg"
   xmlns:svg="http://www.w3.org/2000/svg">
  <sodipodi:namedview
     id="namedview1"
     pagecolor="#ffffff"
     bordercolor="#000000"
     borderopacity="0.25"
     inkscape:showpageshadow="2"
     inkscape:pageopacity="0.0"
     inkscape:pagecheckerboard="0"
     inkscape:deskcolor="#d1d1d1"
     inkscape:document-units="mm"
     showgrid="false"
     inkscape:zoom="1.5823796"
     inkscape:cx="77.731032"
     inkscape:cy="92.266104"
     inkscape:window-width="1440"
     inkscape:window-height="847"
     inkscape:window-x="0"
     inkscape:window-y="25"
     inkscape:window-maximized="1"
     inkscape:current-layer="layer1" />
  <defs
     id="defs1" />
  <g
     inkscape:label="Layer 1"
     inkscape:groupmode="layer"
     id="layer1">
    <path
       d="m 41.073147,32.64568 v 3.463593 l -0.279669,-0.322695 q -0.430261,-0.494799 -0.989599,-0.731442 -0.537825,-0.236643 -1.140189,-0.236643 -1.054137,0 -1.72104,0.688416 -0.666903,0.666903 -0.666903,1.72104 0,1.054137 0.666903,1.72104 0.666903,0.666903 1.72104,0.666903 0.602364,0 1.118676,-0.236643 0.516312,-0.236643 1.011112,-0.709929 l 0.279669,-0.258156 v 3.377541 l -0.387234,0.129078 q -0.623878,0.21513 -1.14019,0.301182 -0.516312,0.08605 -1.011111,0.08605 -1.097163,0 -2.065248,-0.387234 -0.946572,-0.408747 -1.678014,-1.07565 -0.731442,-0.688416 -1.161702,-1.613475 -0.408747,-0.925059 -0.408747,-2.000709 0,-1.054137 0.408747,-1.979196 0.43026,-0.925059 1.140189,-1.613475 0.731442,-0.709929 1.699527,-1.097163 0.968085,-0.408747 2.043735,-0.408747 0.602364,0 1.247754,0.129078 0.64539,0.107565 1.204729,0.344208 z m -11.401891,4.582269 q 0,-1.785579 0.666903,-3.356028 0.688416,-1.591962 1.850118,-2.753664 1.183215,-1.183215 2.753664,-1.850118 1.570449,-0.688416 3.356028,-0.688416 1.785579,0 3.356029,0.688416 1.591962,0.666903 2.753664,1.850118 1.183215,1.161702 1.850118,2.753664 0.688416,1.570449 0.688416,3.356028 0,1.785579 -0.688416,3.356028 -0.666903,1.570449 -1.850118,2.753664 -1.161702,1.161702 -2.753664,1.850118 -1.57045,0.666903 -3.356029,0.666903 -1.785579,0 -3.356028,-0.666903 -1.570449,-0.688416 -2.753664,-1.850118 -1.161702,-1.183215 -1.850118,-2.753664 -0.666903,-1.570449 -0.666903,-3.356028 z m 1.678014,0 q 0,1.441371 0.537825,2.710638 0.559338,1.247754 1.50591,2.194326 0.946572,0.946572 2.194326,1.50591 1.269267,0.537825 2.710638,0.537825 1.441371,0 2.689126,-0.537825 1.269267,-0.559338 2.215839,-1.50591 0.946572,-0.946572 1.484397,-2.194326 0.559338,-1.269267 0.559338,-2.710638 0,-1.441371 -0.559338,-2.689125 -0.537825,-1.269267 -1.484397,-2.215839 -0.946572,-0.946572 -2.215839,-1.484397 -1.247755,-0.559338 -2.689126,-0.559338 -1.441371,0 -2.710638,0.559338 -1.247754,0.537825 -2.194326,1.484397 -0.946572,0.946572 -1.50591,2.215839 -0.537825,1.247754 -0.537825,2.689125 z"
       id="text4"
       style="font-weight:bold;font-size:21.513px;line-height:0;font-family:Futura;-inkscape-font-specification:'Futura Bold';fill:#ffa500;stroke-width:11.1054;paint-order:markers fill stroke"
       aria-label="©" />
  </g>
</svg>
