<?xml version="1.0" encoding="UTF-8" standalone="no"?>
<!-- Created with Inkscape (http://www.inkscape.org/) -->

<svg
   width="182"
   height="178"
   viewBox="0 0 48.154166 47.095833"
   version="1.1"
   id="svg1"
   inkscape:version="1.4 (e7c3feb1, 2024-10-09)"
   sodipodi:docname="enter.svg"
   xmlns:inkscape="http://www.inkscape.org/namespaces/inkscape"
   xmlns:sodipodi="http://sodipodi.sourceforge.net/DTD/sodipodi-0.dtd"
   xmlns="http://www.w3.org/2000/svg"
   xmlns:svg="http://www.w3.org/2000/svg">
  <sodipodi:namedview
     id="namedview1"
     pagecolor="#ffffff"
     bordercolor="#000000"
     borderopacity="0.25"
     inkscape:showpageshadow="2"
     inkscape:pageopacity="0.0"
     inkscape:pagecheckerboard="0"
     inkscape:deskcolor="#d1d1d1"
     inkscape:document-units="mm"
     showgrid="false"
     inkscape:zoom="1.5823796"
     inkscape:cx="77.731032"
     inkscape:cy="92.266104"
     inkscape:window-width="1440"
     inkscape:window-height="847"
     inkscape:window-x="0"
     inkscape:window-y="25"
     inkscape:window-maximized="1"
     inkscape:current-layer="layer1" />
  <defs
     id="defs1" />
  <g
     inkscape:label="Layer 1"
     inkscape:groupmode="layer"
     id="layer1">
    <g
       id="text1"
       style="font-size:11.0664px;line-height:0.9;font-family:'Apple Color Emoji';-inkscape-font-specification:'Apple Color Emoji';fill:#110000;stroke-width:5.7127;paint-order:markers fill stroke"
       aria-label="come&#10;on&#10;in "
       transform="translate(2.1166667,17.991665)">
      <path
         style="font-weight:bold;font-family:Futura;-inkscape-font-specification:'Futura Bold'"
         d="M 4.7209779,2.3646503 Q 4.2008571,2.0105255 3.6696699,2.0105255 q -0.2877264,0 -0.5422535,0.099598 Q 2.8839556,2.2097207 2.6958268,2.3978495 2.507698,2.5749119 2.397034,2.8294391 2.2974364,3.0728999 2.2974364,3.382759 q 0,0.2987928 0.099598,0.55332 0.110664,0.2434608 0.2877264,0.4315896 0.1881288,0.1770624 0.442656,0.27666 0.2545271,0.099598 0.5422535,0.099598 0.5643864,0 1.051308,-0.387324 v 1.7042255 q -0.7414488,0.3209256 -1.4054328,0.3209256 -0.6197183,0 -1.1841047,-0.2102616 Q 1.5781204,5.9612301 1.1465308,5.5739062 0.72600765,5.1755158 0.47148046,4.6332622 0.21695327,4.0799422 0.21695327,3.4048918 q 0,-0.6750503 0.24346079,-1.2283703 Q 0.70387485,1.6121351 1.124398,1.2137447 1.5449212,0.80428794 2.120374,0.58295995 2.7068932,0.35056556 3.3708771,0.35056556 q 0.7303824,0 1.3501008,0.30985919 z m 3.0321907,0.9738431 q 0,0.2877264 0.099598,0.5311872 0.110664,0.2323944 0.27666,0.4094568 0.1770624,0.1770624 0.4094568,0.27666 0.2434608,0.099598 0.5090544,0.099598 0.2655936,0 0.497988,-0.099598 0.2434607,-0.099598 0.4094567,-0.27666 0.1770625,-0.1770624 0.2766595,-0.4094568 0.110664,-0.2434608 0.110664,-0.5201208 0,-0.2655935 -0.110664,-0.4979879 -0.0996,-0.2434608 -0.2766595,-0.4205232 -0.165996,-0.1770624 -0.4094567,-0.27666 -0.2323944,-0.099598 -0.497988,-0.099598 -0.2655936,0 -0.5090544,0.099598 -0.2323944,0.099598 -0.4094568,0.27666 -0.165996,0.1770624 -0.27666,0.4094568 -0.099598,0.2323944 -0.099598,0.4979879 z M 5.6394863,3.3163606 q 0,-0.6307847 0.2545272,-1.1730383 0.2545272,-0.55332 0.7082496,-0.9517104 0.4537223,-0.40945676 1.0734407,-0.64185115 0.6307848,-0.23239439 1.3722336,-0.23239439 0.7303823,0 1.3501006,0.23239439 0.630785,0.22132799 1.084507,0.63078475 0.464789,0.3983904 0.719316,0.9627768 0.254527,0.55332 0.254527,1.2283703 0,0.6750504 -0.265593,1.2394368 -0.254527,0.55332 -0.70825,0.9627768 -0.453722,0.3983903 -1.095573,0.6197183 -0.6307851,0.221328 -1.3722338,0.221328 -0.7303824,0 -1.3501008,-0.221328 Q 7.044919,5.9722965 6.5911967,5.5628398 6.1485407,5.153383 5.8940135,4.5889966 5.6394863,4.0135438 5.6394863,3.3163606 Z M 13.607303,0.52762795 h 2.003018 V 1.2248111 q 0.818914,-0.78571434 1.837023,-0.78571434 1.261569,0 1.925553,1.06237434 0.67505,-1.07344074 1.925554,-1.07344074 0.39839,0 0.752515,0.12173039 0.354125,0.110664 0.608652,0.36519119 0.254527,0.24346076 0.39839,0.64185116 0.15493,0.3983904 0.15493,0.9627768 v 3.685111 H 21.209919 V 3.4048918 q 0,-0.4315895 -0.0664,-0.7082495 -0.05533,-0.27666 -0.177062,-0.4315896 -0.110664,-0.1549296 -0.265594,-0.2102616 -0.15493,-0.055332 -0.331992,-0.055332 -0.962777,0 -0.962777,1.4054327 V 6.2046909 H 17.403078 V 3.4048918 q 0,-0.4315895 -0.05533,-0.7082495 -0.05533,-0.2877264 -0.165996,-0.4537224 -0.0996,-0.165996 -0.265594,-0.221328 -0.165996,-0.066398 -0.387324,-0.066398 -0.188128,0 -0.354124,0.055332 -0.165996,0.055332 -0.298793,0.221328 -0.121731,0.1549296 -0.199195,0.442656 -0.0664,0.27666 -0.0664,0.7303823 V 6.2046909 H 13.607303 Z M 28.735077,2.5417127 q -0.0996,-0.4205232 -0.409456,-0.6750504 -0.30986,-0.2545272 -0.752515,-0.2545272 -0.464789,0 -0.763582,0.2434608 -0.287726,0.2434608 -0.365191,0.6861168 z m -2.346076,1.1619719 q 0,1.2947688 1.217304,1.2947688 0.652917,0 0.984909,-0.5311872 h 1.93662 q -0.586519,1.9476863 -2.932596,1.9476863 -0.719316,0 -1.316901,-0.2102616 Q 25.680751,5.9833629 25.249162,5.5849726 24.828638,5.1865822 24.596244,4.6332622 24.36385,4.0799422 24.36385,3.3938254 q 0,-0.7082495 0.221328,-1.2726359 0.221328,-0.5754528 0.630784,-0.9738432 0.409457,-0.39839036 0.98491,-0.60865195 0.586519,-0.22132799 1.316902,-0.22132799 0.719315,0 1.294768,0.22132799 0.575453,0.21026159 0.973843,0.61971835 0.398391,0.4094568 0.608652,1.0070424 0.210262,0.5865192 0.210262,1.3279679 v 0.2102616 z"
         id="path1" />
      <path
         style="font-weight:bold;font-family:Futura;-inkscape-font-specification:'Futura Bold'"
         d="m 2.3306356,13.345481 q 0,0.287727 0.099598,0.531188 0.110664,0.232394 0.27666,0.409456 0.1770624,0.177063 0.4094568,0.27666 0.2434607,0.0996 0.5090543,0.0996 0.2655936,0 0.497988,-0.0996 0.2434608,-0.0996 0.4094568,-0.27666 0.1770624,-0.177062 0.27666,-0.409456 0.110664,-0.243461 0.110664,-0.520121 0,-0.265594 -0.110664,-0.497988 -0.099598,-0.243461 -0.27666,-0.420523 -0.165996,-0.177063 -0.4094568,-0.27666 -0.2323944,-0.0996 -0.497988,-0.0996 -0.2655936,0 -0.5090543,0.0996 -0.2323944,0.0996 -0.4094568,0.27666 -0.165996,0.177062 -0.27666,0.409456 -0.099598,0.232395 -0.099598,0.497988 z m -2.11368233,-0.02213 q 0,-0.630785 0.25452719,-1.173039 0.25452719,-0.55332 0.70824954,-0.95171 0.4537224,-0.409457 1.0734408,-0.641851 0.6307848,-0.232395 1.3722335,-0.232395 0.7303824,0 1.3501008,0.232395 0.6307848,0.221328 1.0845071,0.630784 0.4647888,0.398391 0.719316,0.962777 0.2545272,0.55332 0.2545272,1.228371 0,0.67505 -0.2655936,1.239436 -0.2545272,0.55332 -0.7082496,0.962777 -0.4537223,0.39839 -1.0955735,0.619718 -0.6307848,0.221328 -1.3722336,0.221328 -0.7303823,0 -1.3501007,-0.221328 Q 1.622386,15.979284 1.1686636,15.569828 0.72600765,15.160371 0.47148046,14.595985 0.21695327,14.020532 0.21695327,13.323349 Z M 8.1847694,10.534616 h 2.0030186 v 0.719316 q 0.409456,-0.497988 0.82998,-0.663984 0.420523,-0.177063 0.984909,-0.177063 0.597586,0 1.018109,0.199196 0.43159,0.188128 0.730382,0.542253 0.243461,0.287727 0.331992,0.641851 0.08853,0.354125 0.08853,0.807848 v 3.607646 h -2.003019 v -2.866198 q 0,-0.420523 -0.0664,-0.67505 -0.05533,-0.265594 -0.210262,-0.420523 -0.132797,-0.132797 -0.298793,-0.188129 -0.165996,-0.05533 -0.354124,-0.05533 -0.509055,0 -0.785715,0.309859 -0.265593,0.298793 -0.265593,0.863179 v 3.032194 H 8.1847694 Z"
         id="path2" />
      <path
         style="font-weight:bold;font-family:Futura;-inkscape-font-specification:'Futura Bold'"
         d="m 2.4412996,20.541604 v 5.677063 H 0.43828126 V 20.541604 Z M 0.30548446,18.361523 q 0,-0.232394 0.0885312,-0.43159 0.0885312,-0.210261 0.24346079,-0.365191 0.15492959,-0.154929 0.35412479,-0.24346 0.21026156,-0.08853 0.44265596,-0.08853 0.2323944,0 0.4315896,0.08853 0.2102616,0.08853 0.3651912,0.24346 0.1549296,0.15493 0.2434608,0.365191 0.088531,0.199196 0.088531,0.43159 0,0.232394 -0.088531,0.442656 -0.088531,0.199195 -0.2434608,0.354125 -0.1549296,0.154929 -0.3651912,0.243461 -0.1991952,0.08853 -0.4315896,0.08853 -0.2323944,0 -0.44265596,-0.08853 -0.1991952,-0.08853 -0.35412479,-0.243461 -0.1549296,-0.15493 -0.24346079,-0.354125 -0.0885312,-0.210262 -0.0885312,-0.442656 z m 3.50805214,2.180081 h 2.0030183 v 0.719316 q 0.4094568,-0.497988 0.82998,-0.663984 0.4205232,-0.177063 0.9849096,-0.177063 0.5975855,0 1.0181087,0.199196 0.4315896,0.188128 0.7303824,0.542253 0.2434608,0.287727 0.331992,0.641851 0.088531,0.354125 0.088531,0.807848 v 3.607646 H 7.7974404 v -2.866198 q 0,-0.420523 -0.066398,-0.67505 Q 7.6757104,22.411825 7.5207808,22.256896 7.387984,22.124099 7.221988,22.068767 q -0.165996,-0.05533 -0.3541248,-0.05533 -0.5090544,0 -0.7857144,0.309859 -0.2655936,0.298793 -0.2655936,0.863179 v 3.032194 H 3.8135366 Z"
         id="path3" />
    </g>
    <path
       d="m 29.240809,13.46332 4.350628,4.350629 7.940658,-7.9406591 3.407486,3.4074861 0.106484,-11.272084 -11.272084,0.1064839 3.407486,3.4074854 z"
       id="text4"
       style="font-weight:bold;font-size:21.513px;line-height:0;font-family:Futura;-inkscape-font-specification:'Futura Bold';fill:#110000;stroke-width:11.1054;paint-order:markers fill stroke"
       aria-label="⮕" />
  </g>
</svg>
