<?xml version="1.0" encoding="UTF-8" standalone="no"?>
<!-- Created with Inkscape (http://www.inkscape.org/) -->

<svg
   width="1024"
   height="1024"
   viewBox="0 0 270.93333 270.93333"
   version="1.1"
   id="svg1"
   inkscape:version="1.4 (e7c3feb1, 2024-10-09)"
   sodipodi:docname="oldstuf.svg"
   xmlns:inkscape="http://www.inkscape.org/namespaces/inkscape"
   xmlns:sodipodi="http://sodipodi.sourceforge.net/DTD/sodipodi-0.dtd"
   xmlns="http://www.w3.org/2000/svg"
   xmlns:svg="http://www.w3.org/2000/svg">
  <sodipodi:namedview
     id="namedview1"
     pagecolor="#ffffff"
     bordercolor="#000000"
     borderopacity="0.25"
     inkscape:showpageshadow="2"
     inkscape:pageopacity="0.0"
     inkscape:pagecheckerboard="0"
     inkscape:deskcolor="#d1d1d1"
     inkscape:document-units="mm"
     inkscape:zoom="0.49135666"
     inkscape:cx="422.30017"
     inkscape:cy="461.98621"
     inkscape:window-width="1440"
     inkscape:window-height="793"
     inkscape:window-x="0"
     inkscape:window-y="25"
     inkscape:window-maximized="1"
     inkscape:current-layer="layer1" />
  <defs
     id="defs1" />
  <g
     inkscape:label="Layer 1"
     inkscape:groupmode="layer"
     id="layer1">
    <rect
       style="fill:#228b22;stroke-width:0.270035"
       id="rect1"
       width="270.93332"
       height="270.93332"
       x="0"
       y="0" />
    <path
       d="m 117.27898,225.73004 q 0,-7.9776 0.2216,-13.1852 0.2216,-5.3184 0.8864,-8.4208 0.7756,-3.1024 2.1052,-4.3212 1.4404,-1.2188 3.7672,-1.2188 2.3268,0 3.6564,1.2188 1.4404,1.2188 2.1052,4.3212 0.7756,3.1024 0.9972,8.4208 0.2216,5.2076 0.2216,13.1852 0,7.9776 -0.2216,13.296 -0.2216,5.2076 -0.9972,8.31 -0.6648,3.1024 -2.1052,4.3212 -1.3296,1.2188 -3.6564,1.2188 -2.3268,0 -3.7672,-1.2188 -1.3296,-1.2188 -2.1052,-4.3212 -0.6648,-3.1024 -0.8864,-8.31 -0.2216,-5.3184 -0.2216,-13.296 z m -21.273602,0 q 0,11.08 1.4404,18.9468 1.4404,7.756 4.764402,12.742 3.324,4.8752 8.7532,6.9804 5.4292,2.1052 13.296,2.1052 7.8668,0 13.296,-2.1052 5.4292,-2.1052 8.7532,-6.9804 3.324,-4.986 4.7644,-12.742 1.4404,-7.8668 1.4404,-18.9468 0,-11.08 -1.4404,-18.836 -1.4404,-7.8668 -4.7644,-12.742 -3.324,-4.986 -8.7532,-7.202 -5.4292,-2.3268 -13.296,-2.3268 -7.8668,0 -13.296,2.3268 -5.4292,2.216 -8.7532,7.202 -3.324002,4.8752 -4.764402,12.742 -1.4404,7.756 -1.4404,18.836 z m 63.931572,-39.5556 v 79.1112 h 45.982 v -16.8416 h -25.3732 v -62.2696 z m 51.30033,0 v 79.1112 h 29.916 q 8.9748,0 13.9608,-3.2132 4.986,-3.324 7.4236,-8.7532 2.54841,-5.54 3.10241,-12.6312 0.554,-7.202 0.554,-14.958 0,-7.756 -0.554,-14.8472 -0.554,-7.202 -3.10241,-12.6312 -2.4376,-5.54 -7.4236,-8.7532 -4.986,-3.324 -13.9608,-3.324 z m 20.6088,64.264 v -49.4168 h 4.0996 q 2.9916,0 4.7644,0.8864 1.7728,0.7756 2.6592,3.4348 0.9972,2.6592 1.2188,7.5344 0.3324,4.8752 0.3324,12.8528 0,7.9776 -0.3324,12.8528 -0.2216,4.8752 -1.2188,7.5344 -0.8864,2.6592 -2.6592,3.5456 -1.7728,0.7756 -4.7644,0.7756 z"
       id="text1"
       style="font-weight:900;font-stretch:condensed;font-size:110.8px;font-family:'Helvetica Neue';-inkscape-font-specification:'Helvetica Neue Heavy Condensed';fill:#f0fff0;stroke-width:9.23332"
       aria-label="OLD" />
    <path
       style="font-weight:bold;font-size:163.456px;font-family:'Helvetica Neue';-inkscape-font-specification:'Helvetica Neue Bold';fill:#f0fff0;stroke-width:13.6213"
       d="m 134.1128,180.78498 -28.7325,-35.35694 h 30.88744 l 38.38981,46.92975 -38.38981,46.92975 H 105.3803 l 28.7325,-35.1175 H 34.586619 v -23.38506 z"
       id="text2"
       transform="rotate(-45)"
       aria-label="➔" />
  </g>
</svg>
