<?xml version="1.0" encoding="UTF-8" standalone="no"?>
<!-- Created with Inkscape (http://www.inkscape.org/) -->

<svg
   width="128"
   height="128"
   viewBox="0 0 33.866666 33.866666"
   version="1.1"
   id="svg1"
   xml:space="preserve"
   inkscape:version="1.4 (86a8ad7, 2024-10-11)"
   sodipodi:docname="bb_speech.svg"
   xmlns:inkscape="http://www.inkscape.org/namespaces/inkscape"
   xmlns:sodipodi="http://sodipodi.sourceforge.net/DTD/sodipodi-0.dtd"
   xmlns="http://www.w3.org/2000/svg"
   xmlns:svg="http://www.w3.org/2000/svg"><sodipodi:namedview
     id="namedview1"
     pagecolor="#ffffff"
     bordercolor="#000000"
     borderopacity="0.25"
     inkscape:showpageshadow="2"
     inkscape:pageopacity="0.0"
     inkscape:pagecheckerboard="0"
     inkscape:deskcolor="#d1d1d1"
     inkscape:document-units="mm"
     inkscape:zoom="1"
     inkscape:cx="39"
     inkscape:cy="30.5"
     inkscape:window-width="1920"
     inkscape:window-height="1009"
     inkscape:window-x="-8"
     inkscape:window-y="-8"
     inkscape:window-maximized="1"
     inkscape:current-layer="layer1-8" /><defs
     id="defs1"><filter
       inkscape:collect="always"
       style="color-interpolation-filters:sRGB"
       id="filter3"
       x="-0.12419289"
       y="-0.11565953"
       width="1.2483858"
       height="1.2313191"><feGaussianBlur
         inkscape:collect="always"
         stdDeviation="14.26489"
         id="feGaussianBlur3" /></filter></defs><g
     inkscape:label="Layer 1"
     inkscape:groupmode="layer"
     id="layer1"><g
       inkscape:label="Layer 1"
       id="layer1-8"
       transform="matrix(0.04999998,0,0,0.04999998,2.1166645,2.1166735)"><g
         id="g3"
         transform="matrix(1.8217662,0,0,1.8217662,74.048568,54.129386)"
         style="opacity:0.505415;mix-blend-mode:normal;filter:url(#filter3)"><g
           id="g2"
           style="fill:#000000"
           transform="translate(-2.1177874,2.1191776)"><path
             id="path1-8"
             style="fill:#000000;stroke:none;stroke-width:2.721"
             d="M 48.114301,25.907922 C 45.206246,27.687363 42.45423,30.073811 39.589693,31.727653 26.011306,39.567138 10.942037,50.137821 0.41885916,61.891301 -27.5038,93.07853 -7.8901928,137.49947 7.0111178,170.12316 c 5.0534212,11.06354 10.2065382,22.4512 17.7400182,32.11154 7.816792,10.02362 16.728315,21.10368 28.366233,26.8065 22.796933,11.17097 45.898376,3.63914 68.647771,-3.09319 -1.10077,7.0068 -2.09268,14.03966 -3.33079,21.02306 l -2.40246,13.84393 c -0.68357,3.97922 -3.96252,13.05743 -1.53453,16.61638 3.75546,5.5048 12.31425,-6.80836 14.13271,-9.32608 9.08894,-12.5843 16.26409,-25.83535 23.91953,-39.28462 2.3467,-4.12277 4.4004,-12.14228 7.95342,-15.0504 7.33942,-6.00736 17.63821,-7.53231 25.9795,-11.21376 12.90643,-5.69627 24.58687,-14.23461 36.88693,-21.14869 10.57703,-5.94563 23.95964,-12.22615 30.91913,-22.83667 11.21891,-17.10443 3.03952,-34.5465 -3.40202,-51.18582 C 245.17591,92.634024 241.7844,76.906052 235.25572,62.429812 227.88278,46.081554 217.87176,30.77026 207.82234,15.983498 c -7.02529,-10.3370136 -17.80237,-26.546981 -30.4353,-30.420206 -4.72547,-1.448815 -9.67629,0.07388 -14.44219,0.382295 -17.82306,1.153405 -32.03145,9.2794815 -48.02513,16.2693335 -9.27865,4.055127 -20.060444,4.4887716 -29.606671,7.8086425 -3.23355,1.124526 -4.027481,4.734258 -7.309497,6.083659 -8.655479,3.558711 -18.448283,4.858738 -26.9193,8.273365 -1.01401,0.408743 -2.000596,0.934186 -2.969951,1.527335 z m 2.20132,7.101478 C 77.59794,23.761282 96.572039,17.004866 115.61551,9.186129 c 17.9098,-7.3532678 37.64895,-20.729904 58.20976,-17.0589169 3.83704,0.685091 6.64822,4.078216 9.54856,6.41414 8.08933,6.5151515 14.38126,14.6464009 20.26772,23.1778019 7.70712,11.170123 16.28382,23.103007 21.94571,35.496506 7.43553,16.275959 11.99418,33.441593 18.00241,50.23005 4.3998,12.29418 12.56916,24.65778 8.26661,38.27021 -5.45285,17.25159 -21.78703,23.88548 -36.08825,32.61518 -10.03061,6.12285 -20.53196,13.27528 -31.34316,17.77793 -7.1251,2.96743 -14.17427,6.09583 -21.34423,9.15399 -2.61252,1.11432 -6.10289,0.98553 -8.31193,2.89837 -3.48858,3.02076 -3.95546,9.69433 -6.24496,13.68632 -8.30059,14.47288 -14.96861,30.06154 -26.08416,42.74217 0.89169,-11.54192 3.78987,-23.29222 5.558,-34.76642 0.45342,-2.94236 2.89855,-10.07493 -0.248,-12.12393 -2.1885,-1.42512 -4.75797,0.20585 -6.78385,1.09781 -5.34393,2.35286 -10.84606,4.45264 -16.44209,6.11368 -14.153556,4.20117 -33.824058,4.97548 -47.017837,-1.72535 C 31.377069,209.91549 18.57421,180.18213 7.4057515,154.94719 1.8376236,142.3661 -3.2455332,130.2146 -4.9867646,116.42639 -6.346896,105.65597 -8.5514161,91.228772 -4.440149,80.83999 Z" /><path
             id="path15-5"
             style="fill:#000000;stroke:none;stroke-width:2.721"
             d="m 75.006415,165.23942 c -1.598914,1.24369 -1.73116,5.2981 -1.313631,7.07816 1.824913,7.78016 6.402025,14.6047 10.34396,21.43233 -4.549166,-0.59791 -11.126291,-1.82035 -14.458231,2.32131 -5.178651,6.43722 2.153585,24.99672 10.261315,26.25012 7.396558,1.14347 16.262953,-7.83603 20.961522,-12.50611 15.42717,10.77796 26.34193,-13.46549 19.47541,-25.36165 8.2208,-2.91169 8.60217,-2.44429 12.88343,5.01863 -11.03856,4.19749 3.85122,14.87491 8.03819,9.79053 3.9754,-4.82748 -4.91517,-15.13069 -5.30291,-20.315 -0.30458,-4.07238 5.41897,-5.12968 6.91043,-8.34272 3.89698,-8.39515 -10.08329,-0.15595 -11.67527,0.93833 -1.7914,-3.10281 -4.074,-11.64827 -6.87409,-13.28088 -2.8306,-1.65039 -5.78122,0.87483 -5.43246,3.8674 0.49228,4.22422 4.59031,9.02036 6.68959,12.65643 -3.93673,2.16549 -8.43193,1.55948 -12.16664,3.40897 -2.06442,1.0224 -2.29657,3.50023 -3.85065,5.01039 -1.82009,1.76865 -5.89827,3.90209 -3.69328,7.09991 2.48225,3.59991 9.5592,-3.43162 10.54574,2.22953 1.10045,6.31476 -6.32233,15.80629 -12.61158,10.59959 -2.38008,-1.97039 -3.94765,-6.48358 -2.85806,-9.47612 0.85643,-2.35219 5.51185,-6.96415 0.25818,-8.33471 -7.419313,-1.93554 -8.812198,8.79995 -6.808764,13.28028 -5.258403,-5.18493 -9.527579,-15.90982 -12.237726,-22.83141 -1.129281,-2.88413 -1.29915,-8.03453 -3.909002,-10.00967 -1.418981,-1.0739 -2.448695,-1.08896 -3.175473,-0.52364 z m 0.0281,34.53855 18.785659,6.59408 0.35941,0.62252 c -2.736893,2.80127 -8.155677,8.35615 -12.485787,8.01661 -5.311428,-0.41653 -7.327216,-11.26862 -6.659282,-15.23321 z" /><path
             id="path17-7"
             style="fill:#000000;stroke:none;stroke-width:2.721"
             d="m 207.34854,126.65579 c -2.57096,1.67987 -4.47175,4.76914 -5.07185,8.807 -1.18107,7.94691 3.27589,15.17629 5.81858,22.37189 l -0.62431,0.36044 c 1.78238,2.52711 9.68797,7.16113 8.95269,0.52138 -1.02693,-9.2732 -12.87986,-17.55163 -4.40213,-27.23178 5.04675,4.27692 7.29224,9.56005 11.66624,13.97743 1.47954,1.49422 3.93388,1.58986 5.06232,-0.42193 1.34881,-2.40473 -0.58126,-6.0227 -1.14977,-8.43241 -0.90435,-3.83338 -0.65508,-7.65533 0.83849,-11.27974 2.40618,2.41897 4.94091,4.79511 6.74478,7.73217 0.88069,1.43379 9.76536,15.51768 10.41673,6.17842 0.35383,-5.07329 -7.60182,-15.00813 -11.22953,-18.16544 -5.98314,-5.20734 -13.68396,-1.2766 -13.8763,6.35025 l -1.24817,0.72063 c -4.17925,-3.47798 -8.59225,-3.64814 -11.89777,-1.48831 z m 0.12242,31.53933 c -4.51675,-10.75407 -15.97225,-23.71192 -24.20802,-8.72226 -0.95566,1.73934 -2.04063,3.34132 -2.59349,5.27273 -1.72756,6.03528 3.86323,12.93495 1.66796,17.78317 -2.19805,4.85435 -8.91264,11.20631 -14.6564,9.9435 -6.90709,-1.51859 -12.45503,-14.7522 -5.73997,-19.5465 3.89403,-2.78021 9.55535,1.3292 13.26587,-1.4348 2.2967,-1.71076 0.92903,-4.48049 -1.16656,-5.55314 -12.00867,-6.14662 -22.48343,4.0687 -21.67939,15.80507 0.82323,12.01662 11.99207,22.4138 23.93027,16.04432 5.40744,-2.88501 8.06729,-9.20416 13.03196,-12.02021 2.26624,-1.28635 5.23642,-0.31144 7.70241,-1.0726 6.87772,-2.12281 10.8526,-9.26753 9.82151,-16.1391 z m -16.10227,-6.89382 c 7.44523,-4.30774 13.77094,17.29145 2.95883,16.82129 -2.1986,-0.0956 -3.95096,-2.40218 -6.12983,-2.95253 -0.74637,-1.90178 -1.328,-3.75619 -1.26185,-5.83705 0.0496,-1.56209 0.42525,-3.10239 1.22055,-4.45917 1.06258,-1.81274 2.14871,-2.95711 3.2123,-3.57254 z" /><path
             style="fill:#000000;stroke:none;stroke-width:2.721"
             d="m 138.31732,107.60083 -0.2645,0.98317 0.2645,-0.98317"
             id="path14-6" /><path
             id="path10-1"
             style="fill:#000000;stroke:none;stroke-width:2.721"
             d="m 126.62902,91.34971 c -2.32783,1.37789 -3.6444,4.367489 -4.58465,6.744546 -3.64601,9.217334 0.22642,18.476204 10.98085,17.636524 2.61863,-0.20446 10.78355,-2.37688 12.32996,0.6194 4.05394,7.85483 -7.59427,10.62318 -10.94509,13.15326 -2.26728,1.71196 -0.97363,4.95557 1.31506,5.8827 3.29769,1.33587 6.89229,-1.0021 9.52875,-2.79893 7.76466,-5.29178 11.00472,-18.76109 2.44575,-24.58999 3.49259,0.87146 5.68348,3.96422 8.84098,5.69191 5.98503,3.27488 14.308,3.8362 20.49141,0.43281 2.18589,-1.20301 3.07859,-3.25436 2.98759,-5.70015 -0.0932,-2.50427 -1.35179,-4.83127 -1.69185,-7.31148 -1.01519,-7.404021 3.32726,-24.203776 13.74811,-17.060546 1.66003,1.137939 3.14382,2.559613 4.51294,4.025665 2.89242,3.097255 4.74764,8.580798 8.04702,11.009872 2.63579,1.940419 6.33816,-0.686365 5.28288,-3.806101 -3.11526,-9.209613 -14.27124,-21.385838 -24.62186,-20.172245 -13.85791,1.624827 -16.97032,22.899744 -11.77683,32.930985 -6.62013,1.98091 -11.7957,0.14432 -17.61188,-3.11927 2.73391,-1.57842 5.44589,-3.08576 7.82306,-5.187939 17.18806,-15.200099 -17.94122,-27.140332 -19.28366,-5.622134 -0.16018,2.567427 0.81699,4.937389 1.88807,7.201783 -3.5848,0.39782 -18.02052,0.587 -8.64257,6.65102 -12.61545,2.49734 -8.68181,-4.93128 -6.07181,-12.940306 0.99094,-3.040751 -1.62954,-5.273398 -4.51314,-3.924715 -0.16436,0.07687 -0.32389,0.161472 -0.47908,0.253334 z m 27.57155,-0.720288 c 3.91917,-2.286292 10.19602,0.247266 2.73692,5.980733 -1.34048,1.030362 -2.80714,1.855798 -4.26557,2.703195 -2.12648,-4.601757 -0.66992,-7.401376 1.52865,-8.683928 z" /><path
             id="path8-8"
             style="fill:#000000;stroke:none;stroke-width:2.721"
             d="m 24.41967,122.7548 c -2.346001,1.39558 -2.920426,5.53681 -2.454524,8.00836 1.683857,8.93269 8.386271,16.51028 11.123012,25.13503 1.112126,3.50483 0.743861,8.44358 4.431719,10.57191 4.631108,2.6727 11.524382,-0.96136 15.881463,-2.72115 4.077177,-1.64674 10.190888,-3.28067 11.93222,-7.83544 3.074274,-8.04136 -7.199003,-16.44915 -14.382122,-16.52968 -6.522848,-0.0731 -10.46196,4.6203 -13.442915,9.80978 -2.073721,-3.97742 -4.267062,-8.1754 -6.030427,-12.29709 -1.452303,-3.39462 -0.492711,-13.53465 -4.094756,-14.45829 -1.202719,-0.3084 -2.181669,-0.14862 -2.96367,0.31657 z m 22.936736,24.55953 c 0.580006,-0.34953 1.218896,-0.61424 1.9212,-0.77446 3.031867,-0.6918 10.150219,2.60355 8.990525,6.58655 -1.143972,3.92904 -12.390977,6.40342 -15.8949,7.37665 -0.246287,-4.13175 0.923132,-10.74202 4.983175,-13.18874 z" /><path
             style="fill:#000000;stroke:none;stroke-width:2.721"
             d="m 107.49199,132.04154 c -1.837,-7.07182 -1.49953,-13.97311 0.3717,-20.97613 2.70937,2.91182 5.37791,5.61505 7.80171,8.78307 1.63167,2.13265 3.05484,4.26887 4.40394,6.59245 2.50253,4.30991 10.64673,6.85149 8.87301,-0.97437 -0.52978,-2.3374 -3.24539,-3.08824 -4.61897,-4.83624 -3.86145,-4.91406 -9.62414,-18.01907 -17.69259,-15.96648 -10.295347,2.61911 -8.352025,21.3087 -6.03399,28.86726 0.74384,2.42546 2.33992,6.57678 4.77719,7.77388 5.2608,2.58387 8.75301,-8.9149 2.11799,-9.26344"
             id="path11-9" /><path
             id="path4-2"
             style="fill:#000000;stroke:none;stroke-width:2.721"
             d="m 118.21634,21.497138 c -0.44674,0.225569 -0.88597,0.590554 -1.31142,1.124723 -2.39571,3.00787 1.5265,6.259203 3.45708,8.146893 5.92486,5.79333 12.3897,11.025644 18.27697,16.853395 -11.02572,0.839135 -14.7117,16.420853 -3.21948,20.038673 7.04211,2.21691 15.37535,-2.855832 20.55508,-7.308633 2.04331,-1.75655 5.41861,-5.075712 3.3285,-7.977697 -1.90561,-2.645745 -8.65838,-4.637189 -11.54113,-6.697618 -7.48625,-5.350804 -14.42732,-12.177038 -20.98278,-18.613065 -1.92744,-1.892314 -5.43565,-7.145661 -8.56282,-5.566671 z m 19.50492,33.030077 c 3.5821,-2.009985 10.12988,0.221032 12.74276,2.046487 -1.86599,1.077335 -3.70749,2.247346 -5.63272,3.215658 -2.48089,1.247752 -11.39869,2.26988 -9.03137,-3.136069 0.42593,-0.972636 1.0947,-1.662232 1.92134,-2.126074 z" /><path
             style="fill:#000000;stroke:none;stroke-width:2.721"
             d="m 59.587068,129.62535 c -2.962224,3.50353 1.864267,9.15158 3.625718,12.20205 5.180201,8.97104 15.97627,21.80404 26.252571,10.87891 7.609379,-8.08983 4.356065,-17.23802 1.10571,-25.84377 -1.247467,-3.30286 -3.511922,-10.88043 -8.855825,-7.79512 -2.634854,1.52123 -1.623154,4.41883 -0.235832,6.40114 3.382931,4.83377 11.538689,21.50571 0.474959,24.05073 -9.425344,2.16813 -13.22438,-14.16846 -15.840704,-19.31944 -1.2646,-2.48969 -4.767639,-2.65488 -6.526597,-0.5745"
             id="path9-7" /><path
             id="path3-9"
             style="fill:#000000;stroke:none;stroke-width:2.721"
             d="m 18.106954,62.851238 c -0.310347,0.180911 -0.643526,0.465706 -1.003459,0.874719 -2.870662,3.26214 0.872519,8.504316 2.446987,11.128841 5.29957,8.834021 10.958342,17.434193 16.08827,26.420832 1.912573,3.35025 2.337989,8.41769 5.045361,11.15624 3.256593,3.2941 5.476497,-1.62829 8.440485,-2.45764 11.212689,-3.13744 23.487679,-10.494383 19.782765,-24.584371 l 0.624305,-0.360443 c 1.699268,2.943218 3.159419,6.472807 6.532568,7.806943 8.384549,3.316215 18.343131,-6.947436 19.531441,-14.550023 l 0.624309,-0.360445 c 10.790854,4.7081 21.823904,-1.142069 25.540434,-11.917383 1.25685,-3.644038 3.85058,-13.738982 -0.9345,-16.043574 -2.45925,-1.184419 -4.18702,1.064408 -4.48685,3.248054 -0.97362,7.090877 -0.49803,16.67488 -9.33203,18.893737 -13.281775,3.336044 -11.062794,-12.008149 -20.146229,-13.9023 -3.779437,-0.788117 -4.309644,3.507237 -6.523446,5.31298 -6.536796,5.331897 -14.615011,9.540819 -10.900915,19.906347 l -0.623859,0.360185 C 60.991064,70.343255 41.593222,79.19726 37.300589,91.181161 32.602905,83.044534 27.836499,75.064657 22.596581,67.283002 21.331676,65.404524 20.279307,61.584733 18.106954,62.851238 Z m 33.562068,21.272474 c 2.691865,-1.525074 5.904857,-1.592012 9.322151,0.941169 5.145739,3.814443 -1.299658,14.030976 -5.478903,16.038419 -3.739953,1.79644 -7.306867,-0.34713 -11.114385,0.92897 -1.56884,-5.548853 1.759218,-14.785793 7.271137,-17.908558 z M 85.018791,68.614153 c 1.443272,2.09828 3.68733,4.139103 4.025979,6.774801 0.520182,4.04786 -5.255837,11.937583 -9.881956,10.83883 -11.274376,-2.677765 1.963799,-15.366481 5.855968,-17.613626 z" /></g><g
           id="g1"><path
             id="path1"
             style="fill:#ffffff;stroke:none;stroke-width:2.721"
             d="M 48.114301,25.907922 C 45.206246,27.687363 42.45423,30.073811 39.589693,31.727653 26.011306,39.567138 10.942037,50.137821 0.41885916,61.891301 -27.5038,93.07853 -7.8901928,137.49947 7.0111178,170.12316 c 5.0534212,11.06354 10.2065382,22.4512 17.7400182,32.11154 7.816792,10.02362 16.728315,21.10368 28.366233,26.8065 22.796933,11.17097 45.898376,3.63914 68.647771,-3.09319 -1.10077,7.0068 -2.09268,14.03966 -3.33079,21.02306 l -2.40246,13.84393 c -0.68357,3.97922 -3.96252,13.05743 -1.53453,16.61638 3.75546,5.5048 12.31425,-6.80836 14.13271,-9.32608 9.08894,-12.5843 16.26409,-25.83535 23.91953,-39.28462 2.3467,-4.12277 4.4004,-12.14228 7.95342,-15.0504 7.33942,-6.00736 17.63821,-7.53231 25.9795,-11.21376 12.90643,-5.69627 24.58687,-14.23461 36.88693,-21.14869 10.57703,-5.94563 23.95964,-12.22615 30.91913,-22.83667 11.21891,-17.10443 3.03952,-34.5465 -3.40202,-51.18582 C 245.17591,92.634024 241.7844,76.906052 235.25572,62.429812 227.88278,46.081554 217.87176,30.77026 207.82234,15.983498 c -7.02529,-10.3370136 -17.80237,-26.546981 -30.4353,-30.420206 -4.72547,-1.448815 -9.67629,0.07388 -14.44219,0.382295 -17.82306,1.153405 -32.03145,9.2794815 -48.02513,16.2693335 -9.27865,4.055127 -20.060444,4.4887716 -29.606671,7.8086425 -3.23355,1.124526 -4.027481,4.734258 -7.309497,6.083659 -8.655479,3.558711 -18.448283,4.858738 -26.9193,8.273365 -1.01401,0.408743 -2.000596,0.934186 -2.969951,1.527335 z m 2.20132,7.101478 C 77.59794,23.761282 96.572039,17.004866 115.61551,9.186129 c 17.9098,-7.3532678 37.64895,-20.729904 58.20976,-17.0589169 3.83704,0.685091 6.64822,4.078216 9.54856,6.41414 8.08933,6.5151515 14.38126,14.6464009 20.26772,23.1778019 7.70712,11.170123 16.28382,23.103007 21.94571,35.496506 7.43553,16.275959 11.99418,33.441593 18.00241,50.23005 4.3998,12.29418 12.56916,24.65778 8.26661,38.27021 -5.45285,17.25159 -21.78703,23.88548 -36.08825,32.61518 -10.03061,6.12285 -20.53196,13.27528 -31.34316,17.77793 -7.1251,2.96743 -14.17427,6.09583 -21.34423,9.15399 -2.61252,1.11432 -6.10289,0.98553 -8.31193,2.89837 -3.48858,3.02076 -3.95546,9.69433 -6.24496,13.68632 -8.30059,14.47288 -14.96861,30.06154 -26.08416,42.74217 0.89169,-11.54192 3.78987,-23.29222 5.558,-34.76642 0.45342,-2.94236 2.89855,-10.07493 -0.248,-12.12393 -2.1885,-1.42512 -4.75797,0.20585 -6.78385,1.09781 -5.34393,2.35286 -10.84606,4.45264 -16.44209,6.11368 -14.153556,4.20117 -33.824058,4.97548 -47.017837,-1.72535 C 31.377069,209.91549 18.57421,180.18213 7.4057515,154.94719 1.8376236,142.3661 -3.2455332,130.2146 -4.9867646,116.42639 -6.346896,105.65597 -8.5514161,91.228772 -4.440149,80.83999 Z" /><path
             id="path15"
             style="fill:#ffffff;stroke:none;stroke-width:2.721"
             d="m 75.006415,165.23942 c -1.598914,1.24369 -1.73116,5.2981 -1.313631,7.07816 1.824913,7.78016 6.402025,14.6047 10.34396,21.43233 -4.549166,-0.59791 -11.126291,-1.82035 -14.458231,2.32131 -5.178651,6.43722 2.153585,24.99672 10.261315,26.25012 7.396558,1.14347 16.262953,-7.83603 20.961522,-12.50611 15.42717,10.77796 26.34193,-13.46549 19.47541,-25.36165 8.2208,-2.91169 8.60217,-2.44429 12.88343,5.01863 -11.03856,4.19749 3.85122,14.87491 8.03819,9.79053 3.9754,-4.82748 -4.91517,-15.13069 -5.30291,-20.315 -0.30458,-4.07238 5.41897,-5.12968 6.91043,-8.34272 3.89698,-8.39515 -10.08329,-0.15595 -11.67527,0.93833 -1.7914,-3.10281 -4.074,-11.64827 -6.87409,-13.28088 -2.8306,-1.65039 -5.78122,0.87483 -5.43246,3.8674 0.49228,4.22422 4.59031,9.02036 6.68959,12.65643 -3.93673,2.16549 -8.43193,1.55948 -12.16664,3.40897 -2.06442,1.0224 -2.29657,3.50023 -3.85065,5.01039 -1.82009,1.76865 -5.89827,3.90209 -3.69328,7.09991 2.48225,3.59991 9.5592,-3.43162 10.54574,2.22953 1.10045,6.31476 -6.32233,15.80629 -12.61158,10.59959 -2.38008,-1.97039 -3.94765,-6.48358 -2.85806,-9.47612 0.85643,-2.35219 5.51185,-6.96415 0.25818,-8.33471 -7.419313,-1.93554 -8.812198,8.79995 -6.808764,13.28028 -5.258403,-5.18493 -9.527579,-15.90982 -12.237726,-22.83141 -1.129281,-2.88413 -1.29915,-8.03453 -3.909002,-10.00967 -1.418981,-1.0739 -2.448695,-1.08896 -3.175473,-0.52364 z m 0.0281,34.53855 18.785659,6.59408 0.35941,0.62252 c -2.736893,2.80127 -8.155677,8.35615 -12.485787,8.01661 -5.311428,-0.41653 -7.327216,-11.26862 -6.659282,-15.23321 z" /><path
             id="path17"
             style="fill:#ffffff;stroke:none;stroke-width:2.721"
             d="m 207.34854,126.65579 c -2.57096,1.67987 -4.47175,4.76914 -5.07185,8.807 -1.18107,7.94691 3.27589,15.17629 5.81858,22.37189 l -0.62431,0.36044 c 1.78238,2.52711 9.68797,7.16113 8.95269,0.52138 -1.02693,-9.2732 -12.87986,-17.55163 -4.40213,-27.23178 5.04675,4.27692 7.29224,9.56005 11.66624,13.97743 1.47954,1.49422 3.93388,1.58986 5.06232,-0.42193 1.34881,-2.40473 -0.58126,-6.0227 -1.14977,-8.43241 -0.90435,-3.83338 -0.65508,-7.65533 0.83849,-11.27974 2.40618,2.41897 4.94091,4.79511 6.74478,7.73217 0.88069,1.43379 9.76536,15.51768 10.41673,6.17842 0.35383,-5.07329 -7.60182,-15.00813 -11.22953,-18.16544 -5.98314,-5.20734 -13.68396,-1.2766 -13.8763,6.35025 l -1.24817,0.72063 c -4.17925,-3.47798 -8.59225,-3.64814 -11.89777,-1.48831 z m 0.12242,31.53933 c -4.51675,-10.75407 -15.97225,-23.71192 -24.20802,-8.72226 -0.95566,1.73934 -2.04063,3.34132 -2.59349,5.27273 -1.72756,6.03528 3.86323,12.93495 1.66796,17.78317 -2.19805,4.85435 -8.91264,11.20631 -14.6564,9.9435 -6.90709,-1.51859 -12.45503,-14.7522 -5.73997,-19.5465 3.89403,-2.78021 9.55535,1.3292 13.26587,-1.4348 2.2967,-1.71076 0.92903,-4.48049 -1.16656,-5.55314 -12.00867,-6.14662 -22.48343,4.0687 -21.67939,15.80507 0.82323,12.01662 11.99207,22.4138 23.93027,16.04432 5.40744,-2.88501 8.06729,-9.20416 13.03196,-12.02021 2.26624,-1.28635 5.23642,-0.31144 7.70241,-1.0726 6.87772,-2.12281 10.8526,-9.26753 9.82151,-16.1391 z m -16.10227,-6.89382 c 7.44523,-4.30774 13.77094,17.29145 2.95883,16.82129 -2.1986,-0.0956 -3.95096,-2.40218 -6.12983,-2.95253 -0.74637,-1.90178 -1.328,-3.75619 -1.26185,-5.83705 0.0496,-1.56209 0.42525,-3.10239 1.22055,-4.45917 1.06258,-1.81274 2.14871,-2.95711 3.2123,-3.57254 z" /><path
             style="fill:#ffffff;stroke:none;stroke-width:2.721"
             d="m 138.31732,107.60083 -0.2645,0.98317 0.2645,-0.98317"
             id="path14" /><path
             id="path10"
             style="fill:#ffffff;stroke:none;stroke-width:2.721"
             d="m 126.62902,91.34971 c -2.32783,1.37789 -3.6444,4.367489 -4.58465,6.744546 -3.64601,9.217334 0.22642,18.476204 10.98085,17.636524 2.61863,-0.20446 10.78355,-2.37688 12.32996,0.6194 4.05394,7.85483 -7.59427,10.62318 -10.94509,13.15326 -2.26728,1.71196 -0.97363,4.95557 1.31506,5.8827 3.29769,1.33587 6.89229,-1.0021 9.52875,-2.79893 7.76466,-5.29178 11.00472,-18.76109 2.44575,-24.58999 3.49259,0.87146 5.68348,3.96422 8.84098,5.69191 5.98503,3.27488 14.308,3.8362 20.49141,0.43281 2.18589,-1.20301 3.07859,-3.25436 2.98759,-5.70015 -0.0932,-2.50427 -1.35179,-4.83127 -1.69185,-7.31148 -1.01519,-7.404021 3.32726,-24.203776 13.74811,-17.060546 1.66003,1.137939 3.14382,2.559613 4.51294,4.025665 2.89242,3.097255 4.74764,8.580798 8.04702,11.009872 2.63579,1.940419 6.33816,-0.686365 5.28288,-3.806101 -3.11526,-9.209613 -14.27124,-21.385838 -24.62186,-20.172245 -13.85791,1.624827 -16.97032,22.899744 -11.77683,32.930985 -6.62013,1.98091 -11.7957,0.14432 -17.61188,-3.11927 2.73391,-1.57842 5.44589,-3.08576 7.82306,-5.187939 17.18806,-15.200099 -17.94122,-27.140332 -19.28366,-5.622134 -0.16018,2.567427 0.81699,4.937389 1.88807,7.201783 -3.5848,0.39782 -18.02052,0.587 -8.64257,6.65102 -12.61545,2.49734 -8.68181,-4.93128 -6.07181,-12.940306 0.99094,-3.040751 -1.62954,-5.273398 -4.51314,-3.924715 -0.16436,0.07687 -0.32389,0.161472 -0.47908,0.253334 z m 27.57155,-0.720288 c 3.91917,-2.286292 10.19602,0.247266 2.73692,5.980733 -1.34048,1.030362 -2.80714,1.855798 -4.26557,2.703195 -2.12648,-4.601757 -0.66992,-7.401376 1.52865,-8.683928 z" /><path
             id="path8"
             style="fill:#ffffff;stroke:none;stroke-width:2.721"
             d="m 24.41967,122.7548 c -2.346001,1.39558 -2.920426,5.53681 -2.454524,8.00836 1.683857,8.93269 8.386271,16.51028 11.123012,25.13503 1.112126,3.50483 0.743861,8.44358 4.431719,10.57191 4.631108,2.6727 11.524382,-0.96136 15.881463,-2.72115 4.077177,-1.64674 10.190888,-3.28067 11.93222,-7.83544 3.074274,-8.04136 -7.199003,-16.44915 -14.382122,-16.52968 -6.522848,-0.0731 -10.46196,4.6203 -13.442915,9.80978 -2.073721,-3.97742 -4.267062,-8.1754 -6.030427,-12.29709 -1.452303,-3.39462 -0.492711,-13.53465 -4.094756,-14.45829 -1.202719,-0.3084 -2.181669,-0.14862 -2.96367,0.31657 z m 22.936736,24.55953 c 0.580006,-0.34953 1.218896,-0.61424 1.9212,-0.77446 3.031867,-0.6918 10.150219,2.60355 8.990525,6.58655 -1.143972,3.92904 -12.390977,6.40342 -15.8949,7.37665 -0.246287,-4.13175 0.923132,-10.74202 4.983175,-13.18874 z" /><path
             style="fill:#ffffff;stroke:none;stroke-width:2.721"
             d="m 107.49199,132.04154 c -1.837,-7.07182 -1.49953,-13.97311 0.3717,-20.97613 2.70937,2.91182 5.37791,5.61505 7.80171,8.78307 1.63167,2.13265 3.05484,4.26887 4.40394,6.59245 2.50253,4.30991 10.64673,6.85149 8.87301,-0.97437 -0.52978,-2.3374 -3.24539,-3.08824 -4.61897,-4.83624 -3.86145,-4.91406 -9.62414,-18.01907 -17.69259,-15.96648 -10.295347,2.61911 -8.352025,21.3087 -6.03399,28.86726 0.74384,2.42546 2.33992,6.57678 4.77719,7.77388 5.2608,2.58387 8.75301,-8.9149 2.11799,-9.26344"
             id="path11" /><path
             id="path4"
             style="fill:#ffffff;stroke:none;stroke-width:2.721"
             d="m 118.21634,21.497138 c -0.44674,0.225569 -0.88597,0.590554 -1.31142,1.124723 -2.39571,3.00787 1.5265,6.259203 3.45708,8.146893 5.92486,5.79333 12.3897,11.025644 18.27697,16.853395 -11.02572,0.839135 -14.7117,16.420853 -3.21948,20.038673 7.04211,2.21691 15.37535,-2.855832 20.55508,-7.308633 2.04331,-1.75655 5.41861,-5.075712 3.3285,-7.977697 -1.90561,-2.645745 -8.65838,-4.637189 -11.54113,-6.697618 -7.48625,-5.350804 -14.42732,-12.177038 -20.98278,-18.613065 -1.92744,-1.892314 -5.43565,-7.145661 -8.56282,-5.566671 z m 19.50492,33.030077 c 3.5821,-2.009985 10.12988,0.221032 12.74276,2.046487 -1.86599,1.077335 -3.70749,2.247346 -5.63272,3.215658 -2.48089,1.247752 -11.39869,2.26988 -9.03137,-3.136069 0.42593,-0.972636 1.0947,-1.662232 1.92134,-2.126074 z" /><path
             style="fill:#ffffff;stroke:none;stroke-width:2.721"
             d="m 59.587068,129.62535 c -2.962224,3.50353 1.864267,9.15158 3.625718,12.20205 5.180201,8.97104 15.97627,21.80404 26.252571,10.87891 7.609379,-8.08983 4.356065,-17.23802 1.10571,-25.84377 -1.247467,-3.30286 -3.511922,-10.88043 -8.855825,-7.79512 -2.634854,1.52123 -1.623154,4.41883 -0.235832,6.40114 3.382931,4.83377 11.538689,21.50571 0.474959,24.05073 -9.425344,2.16813 -13.22438,-14.16846 -15.840704,-19.31944 -1.2646,-2.48969 -4.767639,-2.65488 -6.526597,-0.5745"
             id="path9" /><path
             id="path3"
             style="fill:#ffffff;stroke:none;stroke-width:2.721"
             d="m 18.106954,62.851238 c -0.310347,0.180911 -0.643526,0.465706 -1.003459,0.874719 -2.870662,3.26214 0.872519,8.504316 2.446987,11.128841 5.29957,8.834021 10.958342,17.434193 16.08827,26.420832 1.912573,3.35025 2.337989,8.41769 5.045361,11.15624 3.256593,3.2941 5.476497,-1.62829 8.440485,-2.45764 11.212689,-3.13744 23.487679,-10.494383 19.782765,-24.584371 l 0.624305,-0.360443 c 1.699268,2.943218 3.159419,6.472807 6.532568,7.806943 8.384549,3.316215 18.343131,-6.947436 19.531441,-14.550023 l 0.624309,-0.360445 c 10.790854,4.7081 21.823904,-1.142069 25.540434,-11.917383 1.25685,-3.644038 3.85058,-13.738982 -0.9345,-16.043574 -2.45925,-1.184419 -4.18702,1.064408 -4.48685,3.248054 -0.97362,7.090877 -0.49803,16.67488 -9.33203,18.893737 -13.281775,3.336044 -11.062794,-12.008149 -20.146229,-13.9023 -3.779437,-0.788117 -4.309644,3.507237 -6.523446,5.31298 -6.536796,5.331897 -14.615011,9.540819 -10.900915,19.906347 l -0.623859,0.360185 C 60.991064,70.343255 41.593222,79.19726 37.300589,91.181161 32.602905,83.044534 27.836499,75.064657 22.596581,67.283002 21.331676,65.404524 20.279307,61.584733 18.106954,62.851238 Z m 33.562068,21.272474 c 2.691865,-1.525074 5.904857,-1.592012 9.322151,0.941169 5.145739,3.814443 -1.299658,14.030976 -5.478903,16.038419 -3.739953,1.79644 -7.306867,-0.34713 -11.114385,0.92897 -1.56884,-5.548853 1.759218,-14.785793 7.271137,-17.908558 z M 85.018791,68.614153 c 1.443272,2.09828 3.68733,4.139103 4.025979,6.774801 0.520182,4.04786 -5.255837,11.937583 -9.881956,10.83883 -11.274376,-2.677765 1.963799,-15.366481 5.855968,-17.613626 z" /></g></g></g></g></svg>
