<?xml version="1.0" encoding="utf-8"?>
<!-- Generator: Adobe Illustrator 15.1.0, SVG Export Plug-In . SVG Version: 6.00 Build 0)  -->
<!DOCTYPE svg PUBLIC "-//W3C//DTD SVG 1.1//EN" "http://www.w3.org/Graphics/SVG/1.1/DTD/svg11.dtd">
<svg version="1.1" id="Layer_2" xmlns="http://www.w3.org/2000/svg" xmlns:xlink="http://www.w3.org/1999/xlink" x="0px" y="0px"
	 width="620.444px" height="451.27px" viewBox="0 0 620.444 451.27" enable-background="new 0 0 620.444 451.27"
	 xml:space="preserve">
<rect x="0.444" y="72.171" fill="#C6332D" width="619.626" height="379.099"/>
<rect x="0.444" y="228.58" fill="#D15C3B" width="619.626" height="56.33"/>
<rect x="0.444" y="341.99" fill="#FCCC51" width="619.626" height="109.279"/>
<rect x="0.444" y="284.91" fill="#F3944A" width="619.626" height="57.08"/>
<polygon fill="#FFFFFF" points="0.444,1.008 0.444,105.069 596.513,105.069 620.07,72.716 620.07,1.008 "/>
<g>
	<g>
		<g>
			<rect x="49.263" y="436.939" fill="#FFFFFF" width="204.572" height="14.707"/>
			<path fill="#FFFFFF" d="M402.451,315.795c-4.441-3.928-6.66-7.857-6.66-11.783c0.854-14.52,1.195-22.893,1.195-24.941
				c-0.17-2.904,0-5.637,0.514-8.371c-0.346-1.879-0.684-3.93-0.684-5.979c0-2.561,0-4.441,0.17-5.467
				c-0.17-0.17-0.17-0.17-0.17-0.17c-1.023-2.563-1.538-5.465-1.368-8.543c0.173-2.73,0.345-3.928,0.345-4.1
				c0-5.635,0.34-9.395,0.682-10.932c1.196-4.1,3.927-8.543,8.71-13.154c0.171-9.734,1.365-18.447,3.246-26.134
				c1.709-6.832,2.391-11.445,1.88-13.836c-0.343-1.878-1.368-10.078-3.247-24.938c-2.904-24.084-7.685-36.213-14.347-36.213
				c-10.764,0-19.815,2.732-27.332,8.37c-5.638,4.099-8.372,7.346-8.372,9.567c0,1.024,2.394,10.589,7.177,28.695
				c4.78,18.279,7.172,31.261,7.172,39.118c0,0.342-1.708,9.738-5.464,28.186c-1.198,5.125-2.562,9.564-3.929,13.154
				c-1.538,3.074-3.418,6.832-5.638,11.275c-10.077,19.301-19.131,33.479-27.503,42.189c-25.109,26.477-52.783,39.803-83.188,39.803
				c-7.003,0-12.128-1.369-15.035-4.271c-0.681-0.514-1.194-1.197-1.708-1.709c-22.717,17.936-53.464,26.986-91.9,26.986
				c-9.564,0-18.618-0.682-27.159-1.877c-2.222,3.416-6.15,8.711-11.445,15.887c-11.103,14.859-18.107,24.77-21.01,29.381
				c-0.684,1.197-5.638,11.104-14.519,29.723c-3.225,6.609-5.985,11.672-8.299,14.809h38.7c6.042-20.334,9.408-33.135,10.422-38.211
				c-0.169-9.564-0.169-17.082,0-23.061c0.172-11.102,2.393-16.568,6.663-16.568c3.928,0,6.149,4.611,6.662,14.008
				c-2.521,31.422-5.871,52.74-10.533,63.832h135.542c-0.082-0.359-0.141-0.75-0.141-1.143c-0.171-6.832-0.343-11.104-0.513-12.641
				c-0.514-2.902-1.877-7.174-4.271-12.813c-2.392-4.953-3.586-7.688-3.586-7.855c0-0.344,0-0.516,0.17-0.686
				c12.811-4.609,22.207-7.516,28.185-8.881c21.522-4.785,34.334-7.859,38.434-9.055c20.839-6.492,39.118-14.52,54.661-23.914
				c5.81-3.418,20.839-14.691,45.269-33.65c8.197-6.322,15.032-11.617,20.498-15.717
				C412.873,322.629,406.894,319.725,402.451,315.795z"/>
			<path d="M483.249,224.92c-1.878-3.416-4.271-6.662-7.003-9.736c-10.079-11.273-22.206-16.911-36.897-16.911
				c-5.296,0-11.787,1.538-19.473,4.782c3.756-4.782,3.074-23.401-1.878-55.858c-4.614-25.28-12.813-37.921-24.94-37.921
				c-17.254,0-30.066,3.587-38.264,11.104c-5.979,5.294-8.884,11.956-8.884,19.472c0,2.904,2.391,13.837,7.174,32.627
				c4.783,18.618,7.175,30.404,7.175,35.018c0,1.709,0,3.416-0.17,5.125c0,0,0,0,0-0.172c0,0.172,0,0.172,0,0.342
				c-0.17,0.684-0.343,1.539-0.514,2.393c-0.682,4.271-2.048,8.541-3.928,13.152c-3.93,16.57-8.539,29.551-14.009,38.947
				c-5.466,9.225-11.442,17.422-18.105,24.768c-23.573,25.451-50.732,38.09-81.479,38.09c-1.88-0.854-3.416-1.533-4.614-2.047
				c7.687-7.686,14.179-16.568,19.816-26.646c11.785-21.352,17.593-45.781,17.593-73.449c0-14.521-1.537-26.992-4.44-37.926
				c-3.758-13.666-10.249-26.132-19.303-37.236c-12.642-15.546-24.427-27.503-35.188-36.044
				c-24.085-19.13-56.541-25.109-97.708-18.106c-11.103,1.879-24.597,6.491-40.484,13.836
				c-25.281,11.786-41.851,24.597-49.708,38.434c-8.372,14.861-14.178,28.014-17.594,39.46c-3.075,11.103-4.783,23.744-4.783,37.582
				c0,4.098,0.34,8.367,0.854,12.811c-0.343,0.168-0.684,0.34-0.854,0.51c0.34,0.854,0.682,1.879,1.194,2.732
				c0.341,1.199,0.854,2.223,1.368,3.418c3.074-0.855,6.319-1.709,9.907-2.391c6.32-1.197,13.493-1.881,21.522-2.223
				c8.028-1.023,24.257-2.393,49.026-4.27c4.27,3.074,6.32,8.199,6.32,15.715c0,8.369-3.416,16.057-10.249,23.061
				c-1.88,1.879-4.271,4.098-7.175,6.832c-0.685,0.682-1.024,1.197-1.538,1.709c-11.103,7.004-19.814,12.813-25.793,17.082
				c-3.246,2.734-6.832,5.979-10.761,9.223c-1.708,1.539-3.588,2.906-5.466,4.615c15.374,20.498,35.872,34.162,61.494,40.824
				c-7.003,7.686-16.228,21.695-27.16,41.68c-5.807,10.59-11.615,21.863-17.422,33.992c-4.955,10.078-7.346,15.373-7.346,16.059
				c0,0.682,0.171,1.193,0.341,1.707c0.171,0,0.512,0,0.684,0h9.564c2.393-3.074,5.296-8.371,8.713-15.373
				c8.881-18.619,13.835-28.525,14.519-29.723c2.902-4.611,9.907-14.521,21.01-29.379c5.294-7.176,9.224-12.471,11.445-15.889
				c8.542,1.195,17.594,1.879,27.159,1.879c38.436,0,69.183-9.051,91.9-26.988c0.514,0.512,1.026,1.195,1.708,1.709
				c2.907,2.902,8.032,4.271,15.035,4.271c30.404,0,58.078-13.326,83.188-39.803c8.372-8.711,17.426-22.889,27.503-42.189
				c2.22-4.443,4.1-8.201,5.638-11.275c1.367-3.59,2.73-8.029,3.929-13.154c3.756-18.447,5.464-27.842,5.464-28.186
				c0-7.856-2.392-20.838-7.172-39.117c-4.783-18.106-7.177-27.672-7.177-28.695c0-2.223,2.734-5.468,8.372-9.567
				c7.517-5.636,16.568-8.37,27.332-8.37c6.662,0,11.443,12.128,14.347,36.213c1.879,14.861,2.904,23.06,3.248,24.938
				c0.51,2.393-0.172,7.005-1.881,13.837c-1.881,7.686-3.074,16.399-3.246,26.135c-4.783,4.611-7.515,9.053-8.71,13.154
				c-0.343,1.535-0.682,5.295-0.682,10.93c0,0.172-0.171,1.369-0.345,4.1c-0.17,3.078,0.345,5.98,1.368,8.543c0,0,0,0,0.17,0.17
				c-0.17,1.025-0.17,2.904-0.17,5.469c0,2.047,0.339,4.098,0.684,5.979c-0.514,2.732-0.684,5.465-0.514,8.369
				c0,2.049-0.341,10.422-1.195,24.941c0,3.926,2.219,7.855,6.66,11.785c4.442,3.928,10.422,6.832,18.28,8.371
				c-5.468,4.1-12.301,9.393-20.498,15.715c-24.43,18.961-39.459,30.234-45.269,33.65c-15.544,9.395-33.822,17.424-54.662,23.916
				c-4.102,1.195-16.912,4.268-38.434,9.055c-5.978,1.363-15.374,4.27-28.185,8.881c-0.17,0.168-0.17,0.342-0.17,0.684
				c0,0.168,1.194,2.9,3.586,7.855c2.394,5.639,3.757,9.91,4.271,12.813c0.17,1.537,0.342,5.809,0.513,12.641
				c0,0.684,0.171,1.367,0.341,1.879c5.126,0,9.909,0,14.521,0c-2.222-13.496-4.612-23.744-7.002-30.918
				c21.007-0.684,59.786-14.348,116.326-40.654c7.688-4.783,21.865-15.031,42.363-30.918c13.155-10.25,22.379-17.936,27.845-22.717
				c1.023,0,2.221,0,3.586,0c18.961,0,33.481-8.371,43.902-25.453c1.195-2.049,2.39-4.1,3.417-6.15
				c2.048-20.156,3.243-30.748,3.243-32.113C489.228,252.08,486.665,239.611,483.249,224.92z M424.486,225.436
				c-1.193,0-2.39,0-3.416,0c-2.219-3.762-4.78-5.639-8.026-5.639c0,0,0,0-0.17,0l0.34-0.514c2.734-1.707,6.493-3.416,11.104-5.465
				c6.148-2.393,10.933-3.588,14.35-3.588c7.857,0,16.397,3.758,24.938,11.443c7.517,6.324,11.103,10.764,11.103,13.156
				c0,1.363-1.195,3.244-3.928,5.979c-2.904,2.904-6.662,5.635-11.275,8.195c-12.128,7.006-24.768,10.594-38.435,10.594
				c-6.147,0-10.249-1.197-12.297-3.762c-0.17,0-0.17-0.168-0.17-0.168c-0.344-1.709-0.855-2.902-1.368-3.928
				c-0.17-1.365-0.341-3.074-0.341-5.297c0-3.756,0.169-5.979,0.341-7.002c0.513-1.537,1.368-2.904,2.733-4.441
				c-0.855-0.855-0.683-1.023,0.513-0.512c0.341-0.512,0.854-0.855,1.366-1.367c0,0.512,0.172,1.195,0.343,2.221
				c0.17,0.514,0.17,1.367,0.342,2.221c1.367,0.17,2.561,0.342,3.759,0.512c5.807,0.855,9.566,1.197,11.272,1.197
				c3.929,0,8.882-2.049,15.033-5.979c5.979-3.93,8.884-6.662,8.884-8.371c0-3.756-2.224-5.637-6.662-5.637
				c-1.024,0-4.102,1.025-9.226,3.074C430.637,224.408,426.878,225.436,424.486,225.436z M413.213,309.816
				c-3.928-2.051-5.807-4.271-5.807-6.66c0.171-3.93,0.512-7.686,0.682-11.104c6.663,6.32,16.398,9.566,29.04,9.566
				c5.807,0,14.519-1.709,25.793-4.955c3.93-1.023,7.347-2.219,10.25-3.244c-6.661,13.836-17.766,20.84-33.48,20.84
				c-0.513,0-1.023,0-1.537,0c-0.683-0.344-1.71-0.514-2.734-0.514c-0.169,0-0.341,0.17-0.682,0.344
				C425.17,313.746,418.168,312.379,413.213,309.816z M479.318,261.988c0,7.859-3.758,14.521-11.102,19.645
				c-7.858,5.467-17.936,8.199-30.747,8.199c-15.547,0-24.597-6.492-26.989-19.645c3.074,0.854,6.662,1.367,10.934,1.367
				c19.814,0,36.554-5.297,49.878-15.547c2.391-2.049,4.782-3.928,6.661-6.15C478.809,255.156,479.318,259.084,479.318,261.988z
				 M202.595,221.674c-0.171-3.926-1.879-5.807-4.953-5.635c-85.752,5.809-143.147,11.959-171.844,18.447
				c-3.075,0.682-5.979,1.367-8.541,2.051c-0.171-2.906-0.341-5.639-0.341-8.201c0-27.33,8.028-51.757,23.744-73.109
				c23.062-30.919,59.272-48,109.154-51.246c30.747,6.661,56.198,18.962,76.185,36.897c25.109,22.717,37.58,51.756,37.58,87.458
				c0,24.084-4.785,45.607-14.691,64.57c-20.327,38.943-57.566,58.418-112.056,58.418c-38.264,0-67.815-11.615-88.314-34.848
				c9.565-4.441,34.676-20.326,75.16-47.83c6.49-4.1,23.914-13.494,52.44-28.355C193.711,230.9,202.595,224.752,202.595,221.674z"/>
			<path fill="#FFFFFF" d="M421.069,225.436c1.026,0,2.224,0,3.416,0c2.392,0,6.15-1.027,11.104-3.076
				c5.124-2.049,8.2-3.076,9.224-3.076c4.44,0,6.663,1.881,6.663,5.637c0,1.709-2.905,4.441-8.883,8.371
				c-6.151,3.93-11.104,5.98-15.033,5.98c-1.708,0-5.467-0.342-11.272-1.197c-1.198-0.17-2.392-0.342-3.76-0.512
				c-0.17-0.855-0.17-1.709-0.342-2.223c-0.17-1.023-0.343-1.709-0.343-2.219c-0.511,0.51-1.025,0.854-1.366,1.365
				c-1.197-0.512-1.367-0.342-0.513,0.512c-1.365,1.539-2.22,2.902-2.732,4.441c-0.171,1.023-0.342,3.248-0.342,7.002
				c0,2.225,0.17,3.932,0.342,5.295c0.513,1.029,1.024,2.223,1.367,3.93c0,0,0,0.17,0.171,0.17
				c2.047,2.563,6.148,3.762,12.297,3.762c13.666,0,26.308-3.59,38.434-10.594c4.614-2.563,8.371-5.293,11.274-8.195
				c2.735-2.736,3.929-4.615,3.929-5.98c0-2.393-3.586-6.83-11.102-13.156c-8.542-7.686-17.081-11.441-24.94-11.441
				c-3.416,0-8.199,1.195-14.349,3.586c-4.611,2.051-8.371,3.758-11.103,5.467l-0.17,0.512
				C416.289,219.797,418.852,221.674,421.069,225.436z"/>
			<path fill="#FFFFFF" d="M407.405,303.156c0,2.389,1.879,4.609,5.807,6.66c4.955,2.563,11.957,3.928,21.522,4.271
				c0.343-0.172,0.513-0.344,0.683-0.344c1.024,0,2.051,0.172,2.732,0.514c0.514,0,1.025,0,1.538,0
				c15.716,0,26.819-7.004,33.48-20.84c-2.902,1.025-6.318,2.221-10.25,3.246c-11.273,3.246-19.984,4.953-25.792,4.953
				c-12.643,0-22.377-3.246-29.04-9.564C407.919,295.471,407.577,299.227,407.405,303.156z"/>
			<path fill="#FFFFFF" d="M468.217,281.633c7.346-5.123,11.102-11.785,11.102-19.645c0-2.904-0.51-6.832-1.365-12.131
				c-1.879,2.223-4.27,4.102-6.661,6.15c-13.324,10.25-30.065,15.547-49.878,15.547c-4.271,0-7.859-0.514-10.934-1.367
				c2.393,13.152,11.442,19.645,26.989,19.645C450.281,289.832,460.358,287.098,468.217,281.633z"/>
			<path fill="#FFFFFF" d="M197.642,216.039c3.073-0.172,4.781,1.709,4.953,5.635c0,3.078-8.882,9.225-26.476,18.619
				c-28.527,14.861-45.951,24.258-52.441,28.355c-40.484,27.504-65.595,43.389-75.16,47.83
				c20.499,23.232,50.049,34.848,88.314,34.848c54.49,0,91.729-19.475,112.056-58.418c9.906-18.963,14.691-40.486,14.691-64.57
				c0-35.701-12.47-64.741-37.58-87.457c-19.986-17.936-45.438-30.237-76.185-36.897c-49.881,3.244-86.093,20.326-109.154,51.245
				c-15.716,21.352-23.744,45.778-23.744,73.108c0,2.563,0.17,5.295,0.341,8.201c2.562-0.684,5.467-1.369,8.541-2.051
				C54.495,227.998,111.889,221.848,197.642,216.039z M200.204,181.875c0,2.733-0.171,4.611-0.854,5.808
				c-1.198,2.39-4.1,3.758-8.541,3.758c-5.296,0-8.542-1.878-9.908-5.809c-0.513-3.757-0.684-5.808-0.684-5.979
				c0-6.319,2.905-9.395,8.371-9.395c5.295,0,8.883,1.878,10.591,5.639C200.033,177.776,200.375,179.654,200.204,181.875z
				 M86.266,197.078c-3.586,0-6.149-1.537-7.345-4.612l-0.854-4.782c0-5.637,2.562-8.542,7.687-8.542
				c5.979,0,8.541,3.075,7.859,9.053C93.614,194.173,91.221,197.078,86.266,197.078z"/>
			<path d="M199.35,187.683c0.683-1.197,0.855-3.075,0.855-5.808c0.17-2.222-0.171-4.1-1.026-5.978
				c-1.708-3.76-5.296-5.639-10.591-5.639c-5.465,0-8.371,3.076-8.371,9.395c0,0.17,0.171,2.222,0.684,5.979
				c1.368,3.931,4.612,5.809,9.909,5.809C195.25,191.441,198.152,190.072,199.35,187.683z"/>
			<path d="M78.922,192.465c1.196,3.075,3.758,4.612,7.345,4.612c4.955,0,7.347-2.904,7.347-8.883
				c0.682-5.978-1.881-9.053-7.859-9.053c-5.125,0-7.687,2.904-7.687,8.542L78.922,192.465z"/>
			<path d="M110.353,372.68c-4.271,0-6.491,5.467-6.663,16.568c-0.169,5.979-0.169,13.494,0,23.061
				c-1.024,5.123-4.44,18.105-10.59,38.775h13.153c4.783-10.934,8.199-32.457,10.761-64.398
				C116.501,377.291,114.281,372.68,110.353,372.68z"/>
		</g>
	</g>
</g>
<g>
	<path d="M10.242,48.793c-1.441,0-2.738-0.196-3.894-0.587c-1.155-0.393-2.148-0.98-2.977-1.765c-0.83-0.786-1.462-1.789-1.897-3.01
		c-0.436-1.222-0.653-2.661-0.653-4.317c0-2.094,0.38-3.914,1.145-5.463c0.762-1.549,1.886-2.813,3.369-3.794
		c1.483-0.981,3.314-1.712,5.495-2.192c2.181-0.479,4.71-0.72,7.59-0.72v-2.616c0-0.697-0.098-1.265-0.295-1.701
		s-0.501-0.774-0.916-1.014c-0.415-0.239-0.927-0.359-1.537-0.359c-0.523,0-1.004,0.098-1.439,0.295
		c-0.436,0.197-0.785,0.479-1.047,0.851c-0.261,0.371-0.392,0.839-0.392,1.406v0.524H1.998c-0.044-0.175-0.066-0.338-0.066-0.491
		c0-0.152,0-0.317,0-0.491c0-2.181,0.534-4.067,1.603-5.659c1.068-1.591,2.66-2.823,4.775-3.696c2.115-0.871,4.72-1.31,7.817-1.31
		c2.356,0,4.579,0.307,6.673,0.916c2.094,0.611,3.794,1.7,5.102,3.271c1.309,1.572,1.964,3.772,1.964,6.607v14.391
		c0,0.611,0.152,1.125,0.458,1.538c0.306,0.415,0.807,0.621,1.505,0.621h1.374v7.458c-0.743,0.394-1.667,0.708-2.78,0.947
		c-1.113,0.241-2.279,0.359-3.5,0.359c-1.352,0-2.541-0.164-3.566-0.489c-1.026-0.326-1.854-0.794-2.486-1.406
		c-0.633-0.61-1.058-1.33-1.276-2.159h-0.327c-0.568,0.742-1.255,1.417-2.062,2.028c-0.807,0.61-1.778,1.101-2.911,1.471
		C13.163,48.605,11.811,48.793,10.242,48.793z M15.083,40.291c0.522,0,1.003-0.108,1.438-0.326c0.435-0.218,0.795-0.512,1.079-0.883
		c0.284-0.371,0.491-0.807,0.623-1.308c0.131-0.501,0.198-1.036,0.198-1.603v-3.205c-1.572,0-2.793,0.186-3.664,0.556
		c-0.873,0.372-1.474,0.884-1.801,1.538c-0.328,0.656-0.491,1.374-0.491,2.159c0,0.697,0.108,1.274,0.328,1.733
		c0.217,0.458,0.522,0.797,0.916,1.015C14.101,40.183,14.559,40.291,15.083,40.291z"/>
	<path d="M36.098,48.061V0.632h11.448v47.429H36.098z"/>
	<path d="M67.05,48.793c-3.315,0-6.106-0.61-8.375-1.831c-2.268-1.219-3.968-3.16-5.102-5.821c-1.135-2.66-1.7-6.126-1.7-10.402
		c0-4.317,0.609-7.795,1.831-10.435c1.221-2.637,2.957-4.567,5.202-5.788c2.246-1.221,4.961-1.833,8.146-1.833
		c3.401,0,6.192,0.567,8.373,1.7c2.181,1.134,3.805,3.021,4.873,5.659c1.068,2.64,1.603,6.204,1.603,10.696v1.897H63.515
		c0,1.833,0.108,3.336,0.328,4.514c0.217,1.177,0.589,2.062,1.112,2.651c0.522,0.589,1.244,0.883,2.16,0.883
		c0.697,0,1.265-0.107,1.7-0.328c0.436-0.217,0.785-0.545,1.047-0.981c0.261-0.436,0.436-0.981,0.522-1.636
		c0.088-0.654,0.13-1.417,0.13-2.289h11.319c0,2.268-0.295,4.23-0.884,5.887c-0.589,1.657-1.494,3.042-2.715,4.154
		c-1.221,1.113-2.759,1.941-4.612,2.486C71.77,48.521,69.579,48.793,67.05,48.793z M63.582,27.143h6.672
		c0-1.178-0.055-2.17-0.164-2.977c-0.109-0.807-0.284-1.461-0.523-1.964c-0.24-0.5-0.567-0.86-0.981-1.079
		c-0.414-0.217-0.927-0.328-1.536-0.328c-0.83,0-1.482,0.22-1.963,0.655c-0.48,0.436-0.84,1.112-1.079,2.028
		C63.768,24.396,63.626,25.617,63.582,27.143z"/>
	<path d="M86.404,60.897V13.469h9.421l0.784,4.188h0.328c0.828-1.526,1.896-2.737,3.205-3.632c1.31-0.894,2.988-1.34,5.037-1.34
		c2.487,0,4.503,0.687,6.052,2.06c1.549,1.375,2.693,3.435,3.436,6.183c0.742,2.749,1.113,6.149,1.113,10.206
		c0,4.014-0.359,7.328-1.079,9.943c-0.72,2.617-1.832,4.557-3.336,5.822c-1.505,1.263-3.434,1.896-5.79,1.896
		c-1.222,0-2.313-0.185-3.271-0.555c-0.96-0.369-1.767-0.879-2.42-1.535c-0.655-0.655-1.2-1.418-1.636-2.291h-0.392v16.485
		L86.404,60.897L86.404,60.897z M100.928,38.787c0.785,0,1.406-0.208,1.864-0.621c0.458-0.414,0.795-1.026,1.015-1.833
		c0.217-0.806,0.328-1.819,0.328-3.043v-5.558c0-1.265-0.109-2.301-0.328-3.107c-0.22-0.807-0.557-1.407-1.015-1.8
		c-0.458-0.392-1.079-0.588-1.864-0.588s-1.417,0.22-1.897,0.655c-0.481,0.436-0.808,1.068-0.982,1.897
		c-0.175,0.829-0.262,1.875-0.262,3.14v5.102c0,0.96,0.044,1.789,0.131,2.486c0.088,0.699,0.25,1.299,0.491,1.8
		c0.239,0.501,0.565,0.872,0.981,1.112C99.804,38.667,100.317,38.787,100.928,38.787z"/>
	<path d="M120.291,48.061V0.632h11.449v16.159h0.328c0.567-0.871,1.243-1.602,2.028-2.191c0.784-0.588,1.678-1.047,2.682-1.375
		c1.003-0.326,2.094-0.491,3.271-0.491c2.136,0,3.827,0.415,5.071,1.244c1.243,0.829,2.147,2.016,2.715,3.565
		c0.566,1.549,0.85,3.413,0.85,5.593v24.925h-11.449V25.885c0-0.48-0.044-0.915-0.13-1.31c-0.087-0.392-0.241-0.73-0.459-1.014
		s-0.479-0.501-0.784-0.653c-0.307-0.152-0.656-0.23-1.047-0.23c-0.743,0-1.341,0.252-1.799,0.751
		c-0.458,0.501-0.785,1.157-0.982,1.964c-0.198,0.806-0.294,1.712-0.294,2.714V48.06L120.291,48.061L120.291,48.061z"/>
	<path d="M156.647,22.033l-2.42-9.355V3.062h9.355v9.616l-2.421,9.355H156.647z"/>
	<path d="M181.793,48.793c-2.225,0-4.178-0.24-5.855-0.718c-1.679-0.479-3.085-1.166-4.22-2.059
		c-1.133-0.895-1.995-1.975-2.584-3.239c-0.588-1.266-0.882-2.725-0.882-4.385c0-0.13,0.01-0.358,0.033-0.685
		c0.022-0.327,0.054-0.642,0.098-0.949h10.206c-0.044,0.349-0.065,0.611-0.065,0.785c0,0.173,0,0.37,0,0.588
		c0,0.568,0.131,1.069,0.392,1.505s0.631,0.775,1.112,1.015c0.481,0.24,1.069,0.359,1.767,0.359c0.479,0,0.948-0.065,1.407-0.197
		c0.458-0.131,0.839-0.371,1.146-0.72c0.305-0.348,0.459-0.829,0.459-1.438c0-0.871-0.328-1.548-0.982-2.027
		c-0.656-0.481-1.517-0.885-2.584-1.211c-1.068-0.327-2.212-0.686-3.433-1.079c-1.091-0.306-2.181-0.698-3.272-1.177
		c-1.09-0.479-2.083-1.101-2.977-1.864s-1.603-1.755-2.125-2.976c-0.523-1.221-0.785-2.726-0.785-4.516
		c0-2.092,0.36-3.837,1.08-5.233c0.72-1.395,1.712-2.541,2.977-3.434c1.264-0.893,2.704-1.526,4.317-1.897
		c1.613-0.372,3.315-0.556,5.103-0.556c1.701,0,3.326,0.185,4.874,0.556c1.549,0.371,2.921,0.937,4.123,1.7
		c1.198,0.763,2.136,1.722,2.812,2.878c0.675,1.158,1.015,2.541,1.015,4.155c0,0.261-0.011,0.568-0.032,0.916
		c-0.022,0.35-0.056,0.654-0.099,0.916h-10.139v-0.916c0-0.565-0.121-1.023-0.359-1.372c-0.24-0.35-0.568-0.612-0.982-0.787
		c-0.414-0.173-0.882-0.263-1.406-0.263c-0.262,0-0.546,0.022-0.852,0.066c-0.306,0.044-0.601,0.153-0.884,0.328
		c-0.284,0.174-0.511,0.393-0.686,0.656c-0.173,0.261-0.261,0.588-0.261,0.979c0,0.698,0.273,1.255,0.818,1.669
		c0.545,0.415,1.274,0.763,2.191,1.046c0.916,0.284,1.92,0.622,3.01,1.013c1.133,0.307,2.322,0.667,3.564,1.08
		c1.243,0.415,2.398,0.981,3.467,1.701s1.93,1.68,2.584,2.88c0.656,1.2,0.982,2.736,0.982,4.611c0,2.268-0.351,4.176-1.047,5.724
		c-0.698,1.549-1.69,2.814-2.976,3.796c-1.288,0.98-2.782,1.688-4.481,2.125C185.656,48.578,183.799,48.793,181.793,48.793z"/>
	<path d="M215.09,48.035l-8.635-34.542h11.971l1.831,11.841c0.131,0.611,0.25,1.44,0.36,2.486c0.109,1.047,0.241,2.149,0.395,3.305
		c0.152,1.156,0.293,2.192,0.425,3.107h0.523c0.174-0.915,0.315-1.908,0.425-2.976c0.109-1.068,0.24-2.114,0.393-3.141
		c0.152-1.025,0.294-1.93,0.425-2.715l1.964-11.907h12.036l1.832,11.907c0.13,0.568,0.25,1.375,0.359,2.42
		c0.109,1.047,0.251,2.138,0.426,3.272c0.173,1.133,0.306,2.181,0.393,3.14h0.588c0.087-0.829,0.196-1.777,0.327-2.845
		c0.13-1.068,0.272-2.137,0.426-3.205c0.152-1.068,0.294-1.996,0.426-2.782l1.963-11.907h10.663l-8.636,34.542h-11.842
		l-2.223-12.103c-0.176-0.653-0.329-1.449-0.459-2.386c-0.131-0.938-0.25-1.897-0.359-2.877c-0.109-0.981-0.207-1.822-0.294-2.521
		h-0.521c-0.045,0.743-0.132,1.593-0.262,2.553c-0.131,0.96-0.261,1.897-0.392,2.813c-0.13,0.916-0.284,1.721-0.457,2.417
		l-2.159,12.103L215.09,48.035L215.09,48.035z"/>
	<path d="M271.483,48.793c-3.315,0-6.106-0.61-8.375-1.831c-2.268-1.219-3.968-3.16-5.103-5.821c-1.133-2.66-1.7-6.126-1.7-10.402
		c0-4.317,0.611-7.795,1.831-10.435c1.221-2.637,2.956-4.567,5.202-5.788c2.246-1.221,4.96-1.833,8.146-1.833
		c3.401,0,6.192,0.567,8.373,1.7c2.181,1.134,3.806,3.021,4.873,5.659c1.068,2.64,1.604,6.204,1.604,10.696v1.897h-18.384
		c0,1.833,0.108,3.336,0.328,4.514c0.218,1.177,0.588,2.062,1.111,2.651c0.522,0.589,1.244,0.883,2.16,0.883
		c0.697,0,1.265-0.107,1.7-0.328c0.436-0.217,0.786-0.545,1.047-0.981c0.261-0.436,0.436-0.981,0.522-1.636
		c0.087-0.654,0.131-1.417,0.131-2.289h11.319c0,2.268-0.296,4.23-0.885,5.887c-0.588,1.657-1.493,3.042-2.715,4.154
		c-1.222,1.113-2.759,1.941-4.612,2.486C276.203,48.521,274.013,48.793,271.483,48.793z M268.016,27.143h6.673
		c0-1.178-0.055-2.17-0.165-2.977c-0.109-0.807-0.285-1.461-0.523-1.964c-0.24-0.5-0.567-0.86-0.981-1.079
		c-0.415-0.217-0.927-0.328-1.538-0.328c-0.829,0-1.482,0.22-1.962,0.655c-0.48,0.436-0.84,1.112-1.079,2.028
		C268.202,24.396,268.06,25.617,268.016,27.143z"/>
	<path d="M309.613,48.844c-2.049,0-3.75-0.446-5.102-1.338c-1.352-0.895-2.421-2.103-3.206-3.632h-0.325l-0.721,4.187h-9.422V0.632
		h11.449v16.551h0.393c0.437-0.871,0.981-1.646,1.637-2.322c0.652-0.676,1.458-1.199,2.419-1.569
		c0.959-0.372,2.05-0.556,3.271-0.556c2.357,0,4.285,0.633,5.792,1.896c1.503,1.265,2.616,3.206,3.336,5.822
		c0.72,2.617,1.078,5.933,1.078,9.945c0,4.056-0.37,7.458-1.113,10.206c-0.742,2.748-1.886,4.808-3.435,6.18
		C314.117,48.158,312.099,48.844,309.613,48.844z M305.361,39.296c0.785,0,1.406-0.196,1.863-0.589
		c0.458-0.392,0.797-1.001,1.016-1.831c0.217-0.829,0.326-1.853,0.326-3.076V28.24c0-1.266-0.109-2.289-0.326-3.074
		c-0.219-0.784-0.558-1.384-1.016-1.799c-0.457-0.415-1.078-0.623-1.863-0.623c-0.609,0-1.123,0.121-1.538,0.359
		c-0.415,0.24-0.743,0.61-0.981,1.113c-0.24,0.501-0.402,1.102-0.49,1.799c-0.088,0.698-0.13,1.527-0.13,2.486v5.103
		c0,1.221,0.087,2.256,0.261,3.107c0.175,0.852,0.502,1.497,0.982,1.932C303.943,39.078,304.577,39.296,305.361,39.296z"/>
	<path d="M337.098,48.793c-2.225,0-4.177-0.24-5.855-0.718c-1.679-0.479-3.085-1.166-4.22-2.059
		c-1.134-0.895-1.996-1.975-2.584-3.239c-0.59-1.266-0.882-2.725-0.882-4.385c0-0.13,0.009-0.358,0.03-0.685
		c0.024-0.327,0.056-0.642,0.1-0.949h10.205c-0.044,0.349-0.063,0.611-0.063,0.785c0,0.173,0,0.37,0,0.588
		c0,0.568,0.13,1.069,0.392,1.505c0.263,0.436,0.632,0.775,1.111,1.015c0.481,0.24,1.069,0.359,1.767,0.359
		c0.479,0,0.948-0.065,1.406-0.197c0.457-0.131,0.84-0.371,1.146-0.72c0.303-0.348,0.457-0.829,0.457-1.438
		c0-0.871-0.328-1.548-0.981-2.027c-0.655-0.481-1.518-0.885-2.585-1.211s-2.214-0.686-3.433-1.079
		c-1.092-0.306-2.181-0.698-3.272-1.177c-1.091-0.479-2.083-1.101-2.977-1.864s-1.604-1.755-2.126-2.976
		c-0.524-1.221-0.785-2.726-0.785-4.516c0-2.092,0.36-3.837,1.08-5.233c0.72-1.395,1.712-2.541,2.978-3.434
		c1.265-0.893,2.704-1.526,4.316-1.897c1.613-0.372,3.314-0.556,5.104-0.556c1.7,0,3.324,0.185,4.873,0.556
		c1.55,0.371,2.923,0.937,4.12,1.7c1.199,0.763,2.137,1.722,2.813,2.878c0.677,1.158,1.015,2.541,1.015,4.155
		c0,0.261-0.012,0.568-0.033,0.916c-0.022,0.35-0.053,0.654-0.097,0.916h-10.14v-0.916c0-0.565-0.12-1.023-0.359-1.372
		c-0.24-0.35-0.568-0.612-0.981-0.787c-0.416-0.173-0.883-0.263-1.406-0.263c-0.262,0-0.546,0.022-0.852,0.066
		c-0.307,0.044-0.601,0.153-0.885,0.328c-0.283,0.174-0.51,0.393-0.684,0.656c-0.177,0.261-0.263,0.588-0.263,0.979
		c0,0.698,0.273,1.255,0.817,1.669c0.545,0.415,1.276,0.763,2.191,1.046c0.917,0.284,1.921,0.622,3.01,1.013
		c1.134,0.307,2.322,0.667,3.564,1.08c1.244,0.415,2.399,0.981,3.468,1.701c1.067,0.72,1.931,1.68,2.584,2.88
		c0.655,1.2,0.982,2.736,0.982,4.611c0,2.268-0.35,4.176-1.047,5.724c-0.7,1.549-1.692,2.814-2.978,3.796
		c-1.288,0.98-2.781,1.688-4.482,2.125S339.104,48.793,337.098,48.793z"/>
	<path d="M355.603,9.464V0.632h11.448v8.832H355.603z M355.603,48.061V13.52h11.448v34.542H355.603z"/>
	<path d="M383.334,48.853c-1.789,0-3.36-0.26-4.712-0.783c-1.353-0.523-2.398-1.395-3.143-2.616
		c-0.74-1.221-1.109-2.834-1.109-4.841V22.294h-3.534v-8.766h3.925l2.16-10.467h8.896v10.467h4.971v8.766h-4.971v14.524
		c0,1.046,0.141,1.832,0.425,2.354c0.283,0.522,0.906,0.784,1.864,0.784h2.682v7.786c-0.828,0.217-1.69,0.422-2.584,0.62
		c-0.894,0.194-1.745,0.327-2.551,0.393C384.848,48.819,384.073,48.853,383.334,48.853z"/>
	<path d="M409.122,48.793c-3.314,0-6.105-0.61-8.374-1.831c-2.27-1.219-3.97-3.16-5.103-5.821c-1.134-2.66-1.701-6.126-1.701-10.402
		c0-4.317,0.609-7.795,1.831-10.435c1.221-2.637,2.957-4.567,5.201-5.788c2.245-1.221,4.961-1.833,8.145-1.833
		c3.403,0,6.192,0.567,8.374,1.7c2.181,1.134,3.807,3.021,4.872,5.659c1.069,2.64,1.605,6.204,1.605,10.696v1.897h-18.384
		c0,1.833,0.107,3.336,0.327,4.514c0.219,1.177,0.589,2.062,1.111,2.651c0.524,0.589,1.245,0.883,2.161,0.883
		c0.696,0,1.266-0.107,1.701-0.328c0.436-0.217,0.785-0.545,1.047-0.981c0.26-0.436,0.436-0.981,0.521-1.636
		c0.088-0.654,0.132-1.417,0.132-2.289h11.317c0,2.268-0.295,4.23-0.883,5.887c-0.589,1.657-1.493,3.042-2.714,4.154
		c-1.223,1.113-2.76,1.941-4.613,2.486C413.842,48.521,411.653,48.793,409.122,48.793z M405.654,27.143h6.674
		c0-1.178-0.055-2.17-0.164-2.977c-0.109-0.807-0.283-1.461-0.523-1.964c-0.239-0.5-0.567-0.86-0.979-1.079
		c-0.415-0.217-0.928-0.328-1.538-0.328c-0.828,0-1.481,0.22-1.962,0.655c-0.48,0.436-0.84,1.112-1.078,2.028
		C405.842,24.396,405.698,25.617,405.654,27.143z"/>
	<path d="M428.747,48.056V35.889h10.862v12.167H428.747z"/>
</g>
<rect x="0.818" y="0.632" fill="none" width="619.626" height="450.637"/>
</svg>
