<?xml version="1.0" encoding="utf-8"?>
<!-- Generator: Adobe Illustrator 15.1.0, SVG Export Plug-In . SVG Version: 6.00 Build 0)  -->
<!DOCTYPE svg PUBLIC "-//W3C//DTD SVG 1.1//EN" "http://www.w3.org/Graphics/SVG/1.1/DTD/svg11.dtd">
<svg version="1.1" id="Layer_2" xmlns="http://www.w3.org/2000/svg" xmlns:xlink="http://www.w3.org/1999/xlink" x="0px" y="0px"
	 width="550px" height="400px" viewBox="0 0 550 400" enable-background="new 0 0 550 400" xml:space="preserve">
<rect y="63.5" fill="#C6332D" width="550" height="336.5"/>
<rect y="202.334" fill="#D15C3B" width="550" height="50"/>
<rect y="303" fill="#FCCC51" width="550" height="97"/>
<rect y="252.334" fill="#F3944A" width="550" height="50.666"/>
<polygon fill="#FFFFFF" points="0,0.333 0,92.701 529.09,92.701 550,63.984 550,0.333 "/>
<g>
	<g>
		<g>
			<rect x="43.333" y="387.279" fill="#FFFFFF" width="181.585" height="13.055"/>
			<path fill="#FFFFFF" d="M356.834,279.749c-3.942-3.487-5.911-6.976-5.911-10.46c0.758-12.889,1.06-20.319,1.06-22.139
				c-0.15-2.578,0-5.003,0.456-7.429c-0.306-1.669-0.606-3.488-0.606-5.307c0-2.274,0-3.943,0.15-4.854
				c-0.15-0.151-0.15-0.151-0.15-0.151c-0.909-2.274-1.365-4.851-1.215-7.582c0.153-2.424,0.306-3.486,0.306-3.64
				c0-5.001,0.302-8.338,0.605-9.702c1.062-3.639,3.486-7.582,7.732-11.676c0.151-8.641,1.212-16.375,2.881-23.198
				c1.517-6.064,2.122-10.159,1.669-12.282c-0.305-1.667-1.215-8.945-2.882-22.136c-2.578-21.378-6.822-32.144-12.736-32.144
				c-9.553,0-17.589,2.425-24.26,7.429c-5.004,3.638-7.431,6.52-7.431,8.492c0,0.909,2.124,9.399,6.37,25.471
				c4.243,16.225,6.366,27.748,6.366,34.722c0,0.303-1.516,8.644-4.85,25.018c-1.064,4.549-2.274,8.49-3.488,11.676
				c-1.365,2.729-3.033,6.064-5.004,10.008c-8.944,17.132-16.981,29.718-24.412,37.45c-22.288,23.502-46.852,35.329-73.84,35.329
				c-6.216,0-10.765-1.214-13.345-3.79c-0.604-0.457-1.06-1.063-1.516-1.517c-20.164,15.92-47.456,23.954-81.573,23.954
				c-8.49,0-16.526-0.605-24.107-1.667c-1.972,3.032-5.459,7.732-10.159,14.103c-9.855,13.189-16.073,21.985-18.649,26.078
				c-0.607,1.062-5.005,9.855-12.888,26.383c-2.862,5.866-5.313,10.36-7.366,13.145h34.351c5.363-18.049,8.351-29.412,9.251-33.917
				c-0.15-8.491-0.15-15.163,0-20.47c0.153-9.854,2.124-14.707,5.914-14.707c3.487,0,5.458,4.094,5.913,12.434
				c-2.237,27.892-5.211,46.813-9.349,56.66h120.311c-0.072-0.32-0.125-0.666-0.125-1.015c-0.152-6.064-0.304-9.855-0.455-11.22
				c-0.456-2.577-1.666-6.368-3.791-11.373c-2.123-4.397-3.183-6.823-3.183-6.973c0-0.305,0-0.457,0.151-0.608
				c11.371-4.092,19.711-6.672,25.018-7.883c19.104-4.247,30.476-6.976,34.115-8.037c18.497-5.762,34.723-12.888,48.52-21.228
				c5.156-3.032,18.497-13.039,40.181-29.869c7.277-5.611,13.343-10.311,18.195-13.95
				C366.085,285.814,360.777,283.236,356.834,279.749z"/>
			<path d="M428.553,199.085c-1.667-3.032-3.791-5.914-6.216-8.642c-8.946-10.008-19.711-15.011-32.751-15.011
				c-4.701,0-10.463,1.365-17.285,4.245c3.334-4.245,2.729-20.772-1.667-49.582c-4.096-22.44-11.373-33.66-22.138-33.66
				c-15.315,0-26.687,3.184-33.964,9.856c-5.306,4.699-7.886,10.613-7.886,17.284c0,2.578,2.123,12.283,6.369,28.961
				c4.245,16.526,6.368,26.987,6.368,31.083c0,1.516,0,3.032-0.151,4.548c0,0,0,0,0-0.152c0,0.152,0,0.152,0,0.304
				c-0.151,0.607-0.304,1.365-0.456,2.123c-0.605,3.791-1.818,7.582-3.486,11.674c-3.488,14.709-7.58,26.232-12.435,34.572
				c-4.851,8.188-10.157,15.464-16.071,21.985c-20.924,22.591-45.031,33.81-72.323,33.81c-1.669-0.758-3.032-1.362-4.096-1.817
				c6.823-6.823,12.586-14.708,17.59-23.653c10.461-18.952,15.616-40.637,15.616-65.197c0-12.889-1.364-23.958-3.941-33.663
				c-3.336-12.13-9.097-23.196-17.134-33.052c-11.221-13.799-21.682-24.413-31.234-31.994
				c-21.379-16.981-50.187-22.288-86.729-16.072c-9.855,1.668-21.833,5.762-35.935,12.282
				c-22.44,10.461-37.148,21.833-44.122,34.115c-7.431,13.191-12.585,24.866-15.617,35.026c-2.729,9.855-4.246,21.075-4.246,33.358
				c0,3.638,0.302,7.428,0.758,11.371c-0.304,0.151-0.607,0.303-0.758,0.453c0.302,0.759,0.605,1.669,1.06,2.427
				c0.303,1.063,0.758,1.972,1.214,3.033c2.729-0.759,5.609-1.517,8.794-2.122c5.61-1.063,11.977-1.669,19.104-1.973
				c7.126-0.909,21.531-2.123,43.517-3.79c3.79,2.729,5.61,7.278,5.61,13.949c0,7.429-3.032,14.252-9.097,20.47
				c-1.669,1.668-3.791,3.638-6.369,6.064c-0.607,0.605-0.909,1.062-1.365,1.516c-9.855,6.218-17.588,11.373-22.895,15.163
				c-2.881,2.427-6.064,5.307-9.552,8.187c-1.516,1.365-3.185,2.579-4.852,4.096c13.646,18.195,31.841,30.324,54.584,36.237
				c-6.216,6.822-14.404,19.257-24.108,36.995c-5.154,9.402-10.31,19.408-15.464,30.174c-4.398,8.945-6.521,13.646-6.521,14.253
				c0,0.606,0.152,1.061,0.303,1.517c0.152,0,0.454,0,0.607,0h8.49c2.124-2.73,4.701-7.431,7.734-13.646
				c7.883-16.527,12.281-25.321,12.888-26.383c2.576-4.093,8.794-12.889,18.649-26.078c4.699-6.37,8.187-11.07,10.159-14.103
				c7.582,1.062,15.617,1.667,24.107,1.667c34.117,0,61.409-8.034,81.573-23.954c0.456,0.453,0.911,1.06,1.516,1.517
				c2.58,2.576,7.129,3.79,13.345,3.79c26.988,0,51.552-11.827,73.84-35.329c7.431-7.732,15.468-20.318,24.412-37.45
				c1.971-3.943,3.639-7.279,5.004-10.008c1.214-3.186,2.424-7.127,3.488-11.676c3.334-16.374,4.85-24.714,4.85-25.018
				c0-6.974-2.123-18.497-6.366-34.722c-4.246-16.072-6.37-24.563-6.37-25.471c0-1.973,2.427-4.854,7.431-8.492
				c6.671-5.003,14.707-7.429,24.26-7.429c5.914,0,10.158,10.765,12.736,32.144c1.667,13.191,2.577,20.469,2.882,22.136
				c0.453,2.124-0.152,6.218-1.669,12.282c-1.669,6.823-2.729,14.557-2.881,23.198c-4.246,4.094-6.671,8.037-7.732,11.676
				c-0.304,1.364-0.605,4.701-0.605,9.702c0,0.153-0.152,1.216-0.306,3.64c-0.15,2.731,0.306,5.308,1.215,7.582c0,0,0,0,0.15,0.151
				c-0.15,0.91-0.15,2.579-0.15,4.854c0,1.818,0.301,3.638,0.606,5.307c-0.456,2.426-0.606,4.851-0.456,7.429
				c0,1.819-0.302,9.25-1.06,22.139c0,3.484,1.969,6.973,5.911,10.46c3.943,3.487,9.251,6.065,16.226,7.43
				c-4.853,3.64-10.918,8.339-18.195,13.95c-21.684,16.83-35.024,26.837-40.181,29.869c-13.797,8.34-30.022,15.466-48.52,21.228
				c-3.64,1.062-15.011,3.79-34.115,8.037c-5.307,1.211-13.646,3.791-25.018,7.883c-0.151,0.151-0.151,0.304-0.151,0.608
				c0,0.149,1.06,2.575,3.183,6.973c2.125,5.005,3.335,8.796,3.791,11.373c0.151,1.364,0.303,5.155,0.455,11.22
				c0,0.606,0.152,1.213,0.303,1.667c4.55,0,8.795,0,12.889,0c-1.972-11.979-4.094-21.075-6.216-27.443
				c18.647-0.606,53.068-12.736,103.255-36.087c6.823-4.244,19.408-13.341,37.603-27.443c11.676-9.098,19.864-15.921,24.715-20.165
				c0.909,0,1.972,0,3.184,0c16.83,0,29.719-7.43,38.969-22.592c1.06-1.82,2.121-3.64,3.033-5.459
				c1.817-17.892,2.879-27.293,2.879-28.506C433.859,223.194,431.585,212.125,428.553,199.085z M376.394,199.542
				c-1.06,0-2.122,0-3.033,0c-1.969-3.339-4.243-5.005-7.125-5.005c0,0,0,0-0.15,0l0.302-0.455c2.426-1.516,5.763-3.032,9.855-4.852
				c5.458-2.123,9.704-3.184,12.737-3.184c6.975,0,14.555,3.335,22.137,10.157c6.672,5.613,9.855,9.554,9.855,11.678
				c0,1.211-1.061,2.88-3.487,5.307c-2.578,2.577-5.913,5.001-10.008,7.275c-10.765,6.218-21.985,9.403-34.116,9.403
				c-5.457,0-9.097-1.063-10.915-3.338c-0.151,0-0.151-0.151-0.151-0.151c-0.305-1.516-0.759-2.575-1.214-3.487
				c-0.151-1.211-0.303-2.728-0.303-4.701c0-3.333,0.151-5.306,0.303-6.215c0.455-1.365,1.214-2.577,2.426-3.942
				c-0.759-0.758-0.606-0.909,0.455-0.455c0.303-0.454,0.759-0.759,1.213-1.212c0,0.453,0.152,1.061,0.304,1.97
				c0.151,0.456,0.151,1.214,0.303,1.972c1.214,0.151,2.274,0.303,3.337,0.455c5.154,0.758,8.491,1.062,10.006,1.062
				c3.487,0,7.884-1.819,13.344-5.307c5.307-3.488,7.885-5.914,7.885-7.431c0-3.334-1.973-5.003-5.914-5.003
				c-0.909,0-3.64,0.91-8.188,2.729C381.853,198.631,378.517,199.542,376.394,199.542z M366.387,274.442
				c-3.487-1.82-5.155-3.791-5.155-5.912c0.152-3.488,0.455-6.823,0.606-9.855c5.914,5.609,14.556,8.49,25.776,8.49
				c5.155,0,12.888-1.516,22.895-4.397c3.488-0.909,6.521-1.971,9.098-2.881c-5.913,12.281-15.769,18.499-29.718,18.499
				c-0.455,0-0.909,0-1.365,0c-0.605-0.305-1.517-0.456-2.426-0.456c-0.151,0-0.303,0.151-0.606,0.304
				C377,277.93,370.785,276.717,366.387,274.442z M425.064,231.988c0,6.976-3.335,12.889-9.854,17.437
				c-6.976,4.852-15.92,7.277-27.292,7.277c-13.8,0-21.833-5.762-23.957-17.437c2.729,0.759,5.914,1.214,9.705,1.214
				c17.588,0,32.446-4.701,44.273-13.799c2.123-1.819,4.246-3.486,5.914-5.459C424.611,225.923,425.064,229.41,425.064,231.988z
				 M179.435,196.203c-0.152-3.484-1.668-5.153-4.396-5.001c-76.116,5.155-127.062,10.614-152.534,16.374
				c-2.729,0.606-5.307,1.214-7.581,1.82c-0.152-2.579-0.303-5.005-0.303-7.279c0-24.259,7.126-45.941,21.076-64.894
				c20.47-27.445,52.612-42.606,96.889-45.487c27.292,5.912,49.883,16.831,67.624,32.751c22.288,20.164,33.357,45.94,33.357,77.629
				c0,21.379-4.247,40.484-13.04,57.315c-18.043,34.568-51.098,51.854-99.465,51.854c-33.964,0-60.195-10.311-78.39-30.932
				c8.49-3.942,30.779-18.043,66.714-42.455c5.761-3.638,21.227-11.978,46.548-25.169
				C171.55,204.392,179.435,198.936,179.435,196.203z"/>
			<path fill="#FFFFFF" d="M373.36,199.542c0.911,0,1.974,0,3.033,0c2.123,0,5.459-0.911,9.855-2.731
				c4.549-1.818,7.279-2.729,8.188-2.729c3.941,0,5.914,1.669,5.914,5.003c0,1.517-2.578,3.942-7.885,7.431
				c-5.46,3.487-9.856,5.307-13.344,5.307c-1.515,0-4.852-0.304-10.006-1.062c-1.063-0.152-2.123-0.304-3.337-0.455
				c-0.151-0.758-0.151-1.516-0.303-1.972c-0.151-0.909-0.304-1.517-0.304-1.97c-0.454,0.453-0.91,0.758-1.213,1.212
				c-1.062-0.454-1.214-0.303-0.455,0.455c-1.212,1.365-1.971,2.577-2.426,3.942c-0.151,0.909-0.303,2.882-0.303,6.215
				c0,1.974,0.151,3.49,0.303,4.701c0.455,0.912,0.909,1.972,1.214,3.487c0,0,0,0.151,0.151,0.151
				c1.818,2.274,5.458,3.338,10.915,3.338c12.131,0,23.352-3.186,34.116-9.403c4.095-2.274,7.43-4.698,10.008-7.275
				c2.427-2.427,3.487-4.096,3.487-5.307c0-2.124-3.184-6.064-9.855-11.678c-7.582-6.822-15.162-10.157-22.137-10.157
				c-3.033,0-7.279,1.061-12.737,3.184c-4.093,1.82-7.43,3.336-9.855,4.852l-0.151,0.455
				C369.117,194.537,371.392,196.203,373.36,199.542z"/>
			<path fill="#FFFFFF" d="M361.231,268.53c0,2.121,1.668,4.092,5.155,5.912c4.398,2.274,10.613,3.487,19.104,3.791
				c0.304-0.152,0.455-0.304,0.606-0.304c0.909,0,1.82,0.151,2.426,0.456c0.456,0,0.91,0,1.365,0
				c13.949,0,23.805-6.218,29.718-18.499c-2.577,0.91-5.609,1.972-9.098,2.881c-10.007,2.882-17.739,4.397-22.895,4.397
				c-11.221,0-19.862-2.881-25.776-8.49C361.687,261.707,361.384,265.042,361.231,268.53z"/>
			<path fill="#FFFFFF" d="M415.21,249.425c6.52-4.548,9.854-10.461,9.854-17.437c0-2.578-0.453-6.065-1.211-10.767
				c-1.668,1.973-3.791,3.64-5.914,5.459c-11.827,9.098-26.686,13.799-44.273,13.799c-3.791,0-6.976-0.455-9.705-1.214
				c2.124,11.675,10.157,17.437,23.957,17.437C399.29,256.702,408.234,254.276,415.21,249.425z"/>
			<path fill="#FFFFFF" d="M175.039,191.202c2.728-0.152,4.244,1.517,4.396,5.001c0,2.732-7.884,8.188-23.501,16.528
				c-25.321,13.191-40.787,21.531-46.548,25.169c-35.935,24.412-58.224,38.513-66.714,42.455
				c18.195,20.621,44.425,30.932,78.39,30.932c48.367,0,81.422-17.286,99.465-51.854c8.793-16.831,13.04-35.937,13.04-57.315
				c0-31.689-11.069-57.465-33.357-77.629c-17.74-15.92-40.332-26.839-67.624-32.751c-44.276,2.88-76.419,18.042-96.889,45.487
				c-13.95,18.953-21.076,40.635-21.076,64.894c0,2.274,0.151,4.7,0.303,7.279c2.274-0.606,4.853-1.214,7.581-1.82
				C47.977,201.816,98.922,196.357,175.039,191.202z M177.313,160.877c0,2.426-0.152,4.093-0.759,5.155
				c-1.063,2.122-3.639,3.336-7.581,3.336c-4.701,0-7.582-1.667-8.795-5.156c-0.455-3.335-0.607-5.156-0.607-5.307
				c0-5.609,2.579-8.339,7.43-8.339c4.7,0,7.885,1.667,9.401,5.005C177.161,157.238,177.465,158.905,177.313,160.877z
				 M76.178,174.371c-3.183,0-5.458-1.364-6.52-4.094l-0.758-4.245c0-5.003,2.274-7.582,6.823-7.582
				c5.307,0,7.581,2.729,6.976,8.036C82.7,171.793,80.576,174.371,76.178,174.371z"/>
			<path d="M176.555,166.032c0.606-1.062,0.759-2.729,0.759-5.155c0.151-1.972-0.152-3.639-0.911-5.306
				c-1.516-3.338-4.701-5.005-9.401-5.005c-4.851,0-7.43,2.73-7.43,8.339c0,0.151,0.152,1.972,0.607,5.307
				c1.214,3.489,4.094,5.156,8.795,5.156C172.916,169.368,175.492,168.153,176.555,166.032z"/>
			<path d="M69.659,170.277c1.062,2.73,3.336,4.094,6.52,4.094c4.398,0,6.521-2.578,6.521-7.885
				c0.605-5.306-1.669-8.036-6.976-8.036c-4.549,0-6.823,2.578-6.823,7.582L69.659,170.277z"/>
			<path d="M97.558,330.24c-3.791,0-5.761,4.853-5.914,14.707c-0.15,5.307-0.15,11.979,0,20.47
				c-0.909,4.548-3.941,16.072-9.4,34.419h11.675c4.246-9.705,7.278-28.81,9.552-57.162
				C103.016,334.334,101.045,330.24,97.558,330.24z"/>
		</g>
	</g>
</g>
<g>
	<path d="M8.697,42.749c-1.279,0-2.431-0.174-3.457-0.521c-1.025-0.349-1.906-0.87-2.642-1.567s-1.297-1.588-1.684-2.672
		s-0.58-2.361-0.58-3.832c0-1.858,0.338-3.474,1.016-4.849c0.677-1.375,1.674-2.497,2.991-3.368c1.316-0.871,2.941-1.52,4.877-1.946
		c1.936-0.425,4.181-0.639,6.737-0.639v-2.322c0-0.619-0.087-1.123-0.262-1.51s-0.445-0.687-0.813-0.9
		c-0.368-0.212-0.823-0.319-1.364-0.319c-0.464,0-0.891,0.087-1.277,0.262c-0.387,0.175-0.697,0.425-0.93,0.755
		c-0.232,0.329-0.348,0.745-0.348,1.248v0.465H1.379c-0.039-0.155-0.058-0.3-0.058-0.436c0-0.135,0-0.281,0-0.436
		c0-1.936,0.474-3.61,1.422-5.023c0.948-1.412,2.361-2.506,4.239-3.281c1.877-0.773,4.19-1.162,6.939-1.162
		c2.091,0,4.064,0.272,5.923,0.813c1.859,0.542,3.368,1.509,4.529,2.903c1.162,1.395,1.743,3.349,1.743,5.865v12.774
		c0,0.542,0.135,0.998,0.407,1.365c0.271,0.368,0.716,0.551,1.336,0.551h1.219v6.62c-0.659,0.349-1.48,0.628-2.467,0.841
		c-0.988,0.213-2.023,0.318-3.107,0.318c-1.2,0-2.255-0.145-3.165-0.434c-0.911-0.289-1.646-0.705-2.207-1.248
		c-0.562-0.541-0.939-1.18-1.133-1.916h-0.29c-0.504,0.658-1.114,1.258-1.83,1.8c-0.716,0.542-1.578,0.978-2.584,1.306
		S10.089,42.749,8.697,42.749z M12.993,35.202c0.464,0,0.891-0.096,1.277-0.289s0.706-0.454,0.958-0.784
		c0.252-0.329,0.436-0.716,0.553-1.161c0.116-0.445,0.175-0.919,0.175-1.423v-2.845c-1.395,0-2.479,0.165-3.252,0.494
		c-0.775,0.33-1.308,0.784-1.598,1.365c-0.291,0.582-0.436,1.22-0.436,1.916c0,0.619,0.096,1.131,0.291,1.538
		c0.193,0.407,0.464,0.708,0.813,0.901C12.122,35.106,12.529,35.202,12.993,35.202z"/>
	<path d="M31.647,42.099V0h10.162v42.099H31.647z"/>
	<path d="M59.121,42.749c-2.943,0-5.42-0.541-7.434-1.625c-2.013-1.082-3.522-2.805-4.529-5.167
		c-1.007-2.361-1.509-5.438-1.509-9.233c0-3.832,0.541-6.919,1.625-9.262c1.084-2.341,2.624-4.054,4.617-5.138
		c1.994-1.084,4.404-1.627,7.23-1.627c3.019,0,5.496,0.504,7.432,1.509c1.936,1.007,3.378,2.681,4.326,5.023
		c0.948,2.343,1.423,5.507,1.423,9.494v1.684H55.984c0,1.627,0.096,2.961,0.291,4.007c0.193,1.045,0.523,1.83,0.987,2.353
		c0.464,0.523,1.104,0.784,1.917,0.784c0.619,0,1.123-0.096,1.509-0.291c0.387-0.193,0.697-0.484,0.929-0.871
		s0.387-0.871,0.464-1.452c0.078-0.58,0.116-1.258,0.116-2.032h10.047c0,2.013-0.262,3.755-0.785,5.226
		c-0.523,1.471-1.326,2.7-2.41,3.687c-1.084,0.988-2.449,1.723-4.094,2.207C63.311,42.508,61.366,42.749,59.121,42.749z
		 M56.043,23.531h5.923c0-1.045-0.049-1.926-0.146-2.642c-0.097-0.716-0.252-1.297-0.464-1.743
		c-0.213-0.444-0.504-0.763-0.871-0.958c-0.368-0.193-0.823-0.291-1.364-0.291c-0.736,0-1.316,0.195-1.742,0.581
		c-0.427,0.387-0.746,0.987-0.958,1.8C56.208,21.093,56.082,22.177,56.043,23.531z"/>
	<path d="M76.301,53.493V11.394h8.362l0.696,3.717h0.291c0.735-1.355,1.683-2.43,2.845-3.224c1.162-0.793,2.652-1.19,4.471-1.19
		c2.207,0,3.997,0.61,5.372,1.829c1.375,1.22,2.39,3.049,3.049,5.488c0.659,2.44,0.988,5.458,0.988,9.059
		c0,3.563-0.319,6.504-0.958,8.826c-0.639,2.323-1.626,4.045-2.961,5.168c-1.336,1.121-3.048,1.682-5.139,1.682
		c-1.085,0-2.053-0.164-2.904-0.492c-0.852-0.328-1.568-0.781-2.148-1.363c-0.581-0.581-1.065-1.258-1.452-2.033h-0.348v14.633
		H76.301z M89.193,33.867c0.696,0,1.248-0.184,1.654-0.551c0.407-0.368,0.706-0.911,0.901-1.627
		c0.193-0.716,0.291-1.615,0.291-2.701v-4.934c0-1.123-0.097-2.042-0.291-2.758c-0.195-0.716-0.494-1.249-0.901-1.598
		c-0.407-0.348-0.958-0.522-1.654-0.522c-0.697,0-1.258,0.195-1.684,0.581c-0.427,0.387-0.717,0.948-0.872,1.684
		c-0.155,0.736-0.232,1.664-0.232,2.787v4.529c0,0.852,0.039,1.588,0.116,2.207c0.078,0.62,0.222,1.153,0.436,1.598
		c0.212,0.445,0.502,0.774,0.871,0.987C88.195,33.761,88.65,33.867,89.193,33.867z"/>
	<path d="M106.38,42.099V0h10.162v14.343h0.291c0.503-0.773,1.103-1.422,1.8-1.945c0.696-0.522,1.489-0.929,2.38-1.22
		c0.891-0.29,1.859-0.436,2.904-0.436c1.896,0,3.397,0.368,4.501,1.104c1.103,0.736,1.906,1.79,2.41,3.165
		c0.503,1.375,0.755,3.029,0.755,4.964v22.124h-10.163V22.415c0-0.426-0.039-0.812-0.116-1.162c-0.077-0.348-0.213-0.648-0.407-0.9
		s-0.425-0.445-0.696-0.58c-0.272-0.135-0.582-0.204-0.929-0.204c-0.659,0-1.19,0.224-1.597,0.667
		c-0.407,0.445-0.697,1.027-0.872,1.743s-0.261,1.52-0.261,2.409v17.71H106.38z"/>
	<path d="M138.651,18.996l-2.148-8.304V2.156h8.304v8.536l-2.149,8.304H138.651z"/>
	<path d="M160.971,42.749c-1.975,0-3.708-0.213-5.197-0.637c-1.491-0.426-2.739-1.035-3.746-1.828
		c-1.006-0.794-1.771-1.753-2.294-2.875c-0.522-1.124-0.783-2.419-0.783-3.892c0-0.115,0.009-0.318,0.029-0.608
		c0.02-0.29,0.048-0.57,0.087-0.842h9.059c-0.039,0.31-0.058,0.542-0.058,0.696s0,0.329,0,0.522c0,0.504,0.116,0.949,0.348,1.336
		s0.56,0.688,0.987,0.901s0.949,0.319,1.568,0.319c0.425,0,0.842-0.058,1.249-0.175c0.407-0.116,0.745-0.329,1.017-0.639
		c0.271-0.309,0.407-0.736,0.407-1.277c0-0.773-0.291-1.374-0.872-1.8c-0.582-0.427-1.346-0.785-2.294-1.075
		c-0.948-0.29-1.964-0.609-3.047-0.958c-0.968-0.271-1.936-0.619-2.904-1.045c-0.968-0.425-1.849-0.977-2.642-1.654
		c-0.793-0.677-1.423-1.558-1.887-2.642c-0.464-1.084-0.696-2.42-0.696-4.008c0-1.857,0.319-3.406,0.958-4.645
		c0.639-1.238,1.52-2.255,2.642-3.048s2.4-1.355,3.832-1.684c1.432-0.33,2.943-0.494,4.529-0.494c1.51,0,2.952,0.165,4.326,0.494
		c1.375,0.329,2.593,0.832,3.659,1.509c1.064,0.677,1.896,1.529,2.496,2.555c0.6,1.027,0.901,2.255,0.901,3.688
		c0,0.232-0.01,0.504-0.029,0.813c-0.02,0.31-0.049,0.58-0.087,0.813h-9v-0.813c0-0.502-0.107-0.909-0.319-1.218
		c-0.213-0.31-0.504-0.543-0.872-0.698c-0.368-0.154-0.783-0.233-1.248-0.233c-0.233,0-0.485,0.02-0.756,0.059
		c-0.272,0.039-0.533,0.136-0.785,0.291s-0.454,0.349-0.609,0.582c-0.154,0.232-0.232,0.522-0.232,0.869
		c0,0.62,0.242,1.114,0.726,1.482c0.484,0.368,1.131,0.677,1.945,0.929c0.813,0.252,1.704,0.552,2.672,0.899
		c1.005,0.272,2.061,0.591,3.164,0.958c1.103,0.368,2.129,0.871,3.077,1.51c0.948,0.639,1.713,1.491,2.294,2.556
		c0.582,1.065,0.872,2.429,0.872,4.093c0,2.013-0.311,3.707-0.929,5.081c-0.62,1.375-1.5,2.498-2.642,3.369
		c-1.143,0.87-2.469,1.499-3.978,1.886S162.752,42.749,160.971,42.749z"/>
	<path d="M190.527,42.076l-7.665-30.66h10.626l1.625,10.511c0.116,0.542,0.222,1.278,0.319,2.207
		c0.097,0.929,0.214,1.907,0.35,2.933c0.135,1.026,0.261,1.946,0.377,2.758h0.465c0.155-0.812,0.28-1.693,0.377-2.641
		s0.213-1.877,0.349-2.788c0.135-0.91,0.261-1.713,0.377-2.41l1.743-10.569h10.684l1.626,10.569c0.115,0.504,0.221,1.22,0.318,2.148
		c0.097,0.929,0.223,1.897,0.378,2.904c0.154,1.006,0.272,1.936,0.349,2.787h0.522c0.078-0.735,0.174-1.577,0.29-2.525
		c0.116-0.948,0.242-1.897,0.378-2.845c0.135-0.948,0.261-1.771,0.378-2.469l1.742-10.569h9.465l-7.666,30.66h-10.511l-1.973-10.743
		c-0.156-0.58-0.292-1.286-0.408-2.118c-0.116-0.832-0.222-1.684-0.319-2.554c-0.097-0.871-0.183-1.617-0.261-2.237H204
		c-0.04,0.659-0.117,1.414-0.233,2.266c-0.116,0.852-0.232,1.684-0.348,2.497c-0.116,0.813-0.252,1.528-0.406,2.146l-1.916,10.743
		H190.527z"/>
	<path d="M240.583,42.749c-2.943,0-5.42-0.541-7.434-1.625c-2.013-1.082-3.522-2.805-4.529-5.167
		c-1.006-2.361-1.509-5.438-1.509-9.233c0-3.832,0.542-6.919,1.625-9.262c1.084-2.341,2.623-4.054,4.617-5.138
		c1.993-1.084,4.403-1.627,7.23-1.627c3.019,0,5.496,0.504,7.432,1.509c1.936,1.007,3.378,2.681,4.326,5.023
		c0.948,2.343,1.423,5.507,1.423,9.494v1.684h-16.318c0,1.627,0.096,2.961,0.291,4.007c0.193,1.045,0.522,1.83,0.986,2.353
		c0.464,0.523,1.104,0.784,1.917,0.784c0.619,0,1.123-0.096,1.509-0.291c0.387-0.193,0.697-0.484,0.929-0.871
		c0.232-0.387,0.387-0.871,0.464-1.452c0.077-0.58,0.116-1.258,0.116-2.032h10.047c0,2.013-0.262,3.755-0.785,5.226
		c-0.522,1.471-1.326,2.7-2.41,3.687c-1.084,0.988-2.449,1.723-4.094,2.207C244.772,42.508,242.828,42.749,240.583,42.749z
		 M237.505,23.531h5.923c0-1.045-0.048-1.926-0.146-2.642c-0.097-0.716-0.252-1.297-0.464-1.743
		c-0.213-0.444-0.504-0.763-0.871-0.958c-0.368-0.193-0.823-0.291-1.365-0.291c-0.736,0-1.316,0.195-1.741,0.581
		c-0.427,0.387-0.746,0.987-0.958,1.8C237.67,21.093,237.544,22.177,237.505,23.531z"/>
	<path d="M274.428,42.794c-1.818,0-3.328-0.396-4.528-1.188c-1.2-0.794-2.149-1.867-2.846-3.224h-0.289l-0.639,3.716h-8.363V0
		h10.163v14.691h0.348c0.387-0.773,0.871-1.461,1.452-2.061c0.58-0.6,1.295-1.064,2.148-1.393c0.851-0.33,1.819-0.494,2.903-0.494
		c2.092,0,3.803,0.562,5.141,1.684c1.334,1.123,2.322,2.845,2.961,5.168s0.957,5.266,0.957,8.827c0,3.6-0.328,6.62-0.988,9.059
		c-0.658,2.439-1.674,4.267-3.049,5.486C278.426,42.185,276.635,42.794,274.428,42.794z M270.655,34.319
		c0.696,0,1.247-0.174,1.653-0.523c0.407-0.348,0.707-0.889,0.901-1.625c0.193-0.736,0.29-1.645,0.29-2.73v-4.936
		c0-1.123-0.097-2.032-0.29-2.728c-0.194-0.696-0.494-1.229-0.901-1.597c-0.406-0.368-0.957-0.553-1.653-0.553
		c-0.542,0-0.998,0.107-1.366,0.319c-0.368,0.213-0.659,0.542-0.871,0.988c-0.213,0.445-0.358,0.978-0.435,1.597
		c-0.078,0.62-0.116,1.356-0.116,2.207v4.529c0,1.084,0.077,2.003,0.232,2.758c0.155,0.756,0.445,1.328,0.872,1.714
		C269.396,34.125,269.958,34.319,270.655,34.319z"/>
	<path d="M298.824,42.749c-1.975,0-3.707-0.213-5.197-0.637c-1.49-0.426-2.738-1.035-3.746-1.828
		c-1.006-0.794-1.771-1.753-2.293-2.875c-0.523-1.124-0.783-2.419-0.783-3.892c0-0.115,0.008-0.318,0.027-0.608
		c0.021-0.29,0.049-0.57,0.088-0.842h9.059c-0.039,0.31-0.057,0.542-0.057,0.696s0,0.329,0,0.522c0,0.504,0.115,0.949,0.348,1.336
		s0.561,0.688,0.986,0.901c0.428,0.213,0.949,0.319,1.568,0.319c0.426,0,0.842-0.058,1.248-0.175
		c0.406-0.116,0.746-0.329,1.018-0.639c0.27-0.309,0.406-0.736,0.406-1.277c0-0.773-0.291-1.374-0.871-1.8
		c-0.582-0.427-1.348-0.785-2.295-1.075c-0.947-0.29-1.965-0.609-3.047-0.958c-0.969-0.271-1.936-0.619-2.904-1.045
		c-0.969-0.425-1.85-0.977-2.643-1.654c-0.793-0.677-1.424-1.558-1.887-2.642c-0.465-1.084-0.697-2.42-0.697-4.008
		c0-1.857,0.32-3.406,0.959-4.645c0.639-1.238,1.52-2.255,2.643-3.048s2.4-1.355,3.832-1.684c1.432-0.33,2.941-0.494,4.529-0.494
		c1.51,0,2.951,0.165,4.326,0.494c1.375,0.329,2.594,0.832,3.658,1.509s1.896,1.529,2.496,2.555c0.6,1.027,0.9,2.255,0.9,3.688
		c0,0.232-0.01,0.504-0.029,0.813c-0.02,0.31-0.047,0.58-0.086,0.813h-9v-0.813c0-0.502-0.107-0.909-0.32-1.218
		c-0.213-0.31-0.504-0.543-0.871-0.698c-0.369-0.154-0.783-0.233-1.248-0.233c-0.232,0-0.484,0.02-0.756,0.059
		s-0.533,0.136-0.785,0.291s-0.453,0.349-0.607,0.582c-0.156,0.232-0.232,0.522-0.232,0.869c0,0.62,0.242,1.114,0.725,1.482
		c0.484,0.368,1.133,0.677,1.945,0.929c0.814,0.252,1.705,0.552,2.672,0.899c1.006,0.272,2.061,0.591,3.164,0.958
		c1.104,0.368,2.129,0.871,3.078,1.51c0.947,0.639,1.713,1.491,2.293,2.556c0.582,1.065,0.873,2.429,0.873,4.093
		c0,2.013-0.311,3.707-0.93,5.081c-0.621,1.375-1.502,2.498-2.643,3.369c-1.143,0.87-2.469,1.499-3.979,1.886
		S300.605,42.749,298.824,42.749z"/>
	<path d="M315.25,7.839V0h10.162v7.839H315.25z M315.25,42.099v-30.66h10.162v30.66H315.25z"/>
	<path d="M339.865,42.802c-1.588,0-2.982-0.231-4.182-0.695c-1.201-0.465-2.129-1.238-2.789-2.322
		c-0.658-1.084-0.986-2.516-0.986-4.297v-16.26h-3.137v-7.781h3.484l1.918-9.291h7.896v9.291h4.412v7.781h-4.412V32.12
		c0,0.929,0.125,1.626,0.377,2.09c0.252,0.464,0.805,0.696,1.656,0.696h2.379v6.911c-0.734,0.193-1.5,0.375-2.293,0.55
		c-0.793,0.173-1.549,0.29-2.264,0.349C341.209,42.772,340.521,42.802,339.865,42.802z"/>
	<path d="M362.756,42.749c-2.943,0-5.42-0.541-7.434-1.625c-2.014-1.082-3.523-2.805-4.529-5.167
		c-1.006-2.361-1.51-5.438-1.51-9.233c0-3.832,0.541-6.919,1.625-9.262c1.084-2.341,2.625-4.054,4.617-5.138
		c1.994-1.084,4.404-1.627,7.23-1.627c3.02,0,5.496,0.504,7.432,1.509c1.936,1.007,3.379,2.681,4.326,5.023
		c0.949,2.343,1.424,5.507,1.424,9.494v1.684h-16.318c0,1.627,0.096,2.961,0.291,4.007c0.193,1.045,0.523,1.83,0.986,2.353
		c0.465,0.523,1.105,0.784,1.918,0.784c0.619,0,1.123-0.096,1.51-0.291c0.387-0.193,0.697-0.484,0.93-0.871
		c0.23-0.387,0.387-0.871,0.463-1.452c0.078-0.58,0.117-1.258,0.117-2.032h10.045c0,2.013-0.262,3.755-0.783,5.226
		c-0.523,1.471-1.326,2.7-2.41,3.687c-1.084,0.988-2.449,1.723-4.094,2.207C366.945,42.508,365.002,42.749,362.756,42.749z
		 M359.678,23.531h5.924c0-1.045-0.049-1.926-0.146-2.642c-0.098-0.716-0.252-1.297-0.465-1.743
		c-0.213-0.444-0.504-0.763-0.869-0.958c-0.369-0.193-0.824-0.291-1.365-0.291c-0.736,0-1.316,0.195-1.742,0.581
		c-0.426,0.387-0.746,0.987-0.957,1.8C359.844,21.093,359.717,22.177,359.678,23.531z"/>
	<path d="M380.176,42.095v-10.8h9.641v10.8H380.176z"/>
</g>
<rect x="0.332" fill="none" width="550" height="400"/>
</svg>
