<?xml version="1.0" encoding="UTF-8" standalone="no"?>
<!-- Created with Inkscape (http://www.inkscape.org/) -->

<svg
   width="154.93356mm"
   height="54.715282mm"
   viewBox="0 0 154.93357 54.715282"
   version="1.1"
   id="svg1"
   inkscape:version="1.4 (86a8ad7, 2024-10-11)"
   sodipodi:docname="nav_endtag.svg"
   xmlns:inkscape="http://www.inkscape.org/namespaces/inkscape"
   xmlns:sodipodi="http://sodipodi.sourceforge.net/DTD/sodipodi-0.dtd"
   xmlns="http://www.w3.org/2000/svg"
   xmlns:svg="http://www.w3.org/2000/svg">
  <sodipodi:namedview
     id="namedview1"
     pagecolor="#ffffff"
     bordercolor="#000000"
     borderopacity="0.25"
     inkscape:showpageshadow="2"
     inkscape:pageopacity="0.0"
     inkscape:pagecheckerboard="0"
     inkscape:deskcolor="#d1d1d1"
     inkscape:document-units="mm"
     inkscape:lockguides="false"
     inkscape:zoom="0.71891835"
     inkscape:cx="283.06413"
     inkscape:cy="380.43263"
     inkscape:window-width="1920"
     inkscape:window-height="1009"
     inkscape:window-x="-8"
     inkscape:window-y="-8"
     inkscape:window-maximized="1"
     inkscape:current-layer="layer1" />
  <defs
     id="defs1" />
  <g
     inkscape:label="Layer 1"
     inkscape:groupmode="layer"
     id="layer1"
     transform="translate(-0.32277136,14.017177)">
    <path
       style="font-weight:500;font-stretch:extra-condensed;font-size:69.7899px;line-height:0;font-family:'Archivo ExtraCondensed';-inkscape-font-specification:'Archivo ExtraCondensed, Medium Extra-Condensed';fill:#cc6666;stroke-width:10.6438"
       d="M 25.377351,33.509746 0.32277136,22.971471 V 16.34143 L 25.377351,5.7333653 v 6.1415107 l -18.9828597,7.74668 18.9828597,7.816469 z m 4.81549,7.18836 13.05071,-54.715283 h 5.02487 l -12.91113,54.715283 z m 21.42556,-3.419705 V 0.49912233 h 5.09466 l 0.48853,4.74571397 h 0.27916 q 1.25622,-3.000966 3.14054,-4.25718397 1.95412,-1.32600801 4.46656,-1.32600801 3.55928,0 5.37382,2.16348698 1.81454,2.163487 1.81454,7.11857 V 37.278401 h -6.14151 V 10.618658 q 0,-2.2332767 -0.62811,-3.6988647 -0.62811,-1.465588 -2.72181,-1.465588 -2.23328,0 -3.62908,2.512437 -1.39579,2.5124357 -1.39579,7.7466787 v 21.56508 z m 33.77824,0.837478 q -3.90823,0 -6.00193,-2.512436 -2.09369,-2.512436 -2.09369,-7.39773 0,-3.489495 1.39579,-6.281091 1.3958,-2.861386 4.81551,-4.536343 3.4197,-1.674958 9.49142,-1.674958 v -5.373822 q 0,-2.5822267 -1.04684,-3.9780247 -1.04685,-1.465588 -3.14055,-1.465588 -2.86139,0 -3.62907,1.884328 -0.76769,1.814537 -0.76769,4.3967627 v 0.48853 h -5.79257 q -0.0698,-0.27916 -0.0698,-0.558319 0,-0.34895 0,-0.767689 0,-5.8623517 3.00097,-8.2352087 3.07076,-2.44264598 7.6071,-2.44264598 2.93118,0 5.16445,0.97705801 2.23328,0.97705897 3.4895,3.41970497 1.32601,2.372857 1.32601,6.6998307 V 30.43899 q 0,2.372857 1.744739,2.372857 h 1.81454 v 4.117604 q -0.90727,0.488529 -2.16349,0.767689 -1.186419,0.34895 -2.442639,0.34895 -2.37286,0 -3.41971,-1.465588 -1.04685,-1.465588 -1.18643,-3.489495 h -0.34895 q -1.04684,2.093697 -2.93117,3.559285 -1.81454,1.465587 -4.81551,1.465587 z m 2.16349,-5.234242 q 1.95412,0 3.69887,-2.233277 1.74474,-2.233277 1.74474,-6.630041 v -4.187394 q -3.90823,0.06979 -5.93214,1.046849 -2.0239,0.977058 -2.7218,2.652016 -0.6979,1.674958 -0.6979,3.698865 0,5.652982 3.90823,5.652982 z m 22.751499,4.396764 -7.04878,-36.77927867 h 6.49046 l 3.4895,21.21613067 q 0.13958,0.767689 0.27916,2.163487 0.20937,1.326008 0.34895,2.931175 0.13958,1.605168 0.20937,2.931176 h 0.48853 q 0.0698,-0.209369 0.13958,-1.674957 0.0698,-1.465588 0.20937,-3.280126 0.20937,-1.814537 0.41874,-3.070755 l 3.62907,-21.21613067 h 6.07172 L 118.1281,37.278401 Z m 19.89013,-3.768655 v -6.071721 l 19.12243,-7.816469 -19.12243,-7.74668 V 5.7333653 L 155.25633,16.34143 v 6.630041 z"
       id="text2"
       aria-label="&lt;/nav&gt;" />
  </g>
</svg>
